<svg width="834" height="1194" viewBox="0 0 834 1194" fill="none" xmlns="http://www.w3.org/2000/svg">
<rect x="0.5" y="0.5" width="833" height="1193" fill="white"/>
<rect x="0.5" y="0.5" width="833" height="1193" stroke="black"/>
<g clip-path="url(#clip0_232_1773)">
<path d="M218.604 136.2C217.084 136.2 215.711 136.467 214.484 137C213.258 137.507 212.218 138.267 211.364 139.28C210.511 140.267 209.858 141.48 209.404 142.92C208.951 144.333 208.724 145.933 208.724 147.72C208.724 150.067 209.084 152.107 209.804 153.84C210.551 155.573 211.644 156.907 213.084 157.84C214.551 158.773 216.378 159.24 218.564 159.24C219.818 159.24 221.004 159.133 222.124 158.92C223.244 158.707 224.338 158.44 225.404 158.12V161.24C224.338 161.64 223.231 161.933 222.084 162.12C220.964 162.307 219.618 162.4 218.044 162.4C215.138 162.4 212.711 161.8 210.764 160.6C208.818 159.4 207.351 157.693 206.364 155.48C205.404 153.267 204.924 150.667 204.924 147.68C204.924 145.52 205.218 143.547 205.804 141.76C206.418 139.973 207.298 138.427 208.444 137.12C209.618 135.813 211.058 134.813 212.764 134.12C214.471 133.4 216.431 133.04 218.644 133.04C220.111 133.04 221.524 133.187 222.884 133.48C224.244 133.773 225.458 134.187 226.524 134.72L225.084 137.76C224.204 137.36 223.218 137 222.124 136.68C221.058 136.36 219.884 136.2 218.604 136.2ZM247.478 162H243.918V143.48H237.598C237.331 146.867 236.998 149.76 236.598 152.16C236.198 154.533 235.691 156.467 235.078 157.96C234.464 159.453 233.731 160.547 232.878 161.24C232.024 161.933 231.024 162.28 229.878 162.28C229.531 162.28 229.184 162.253 228.838 162.2C228.518 162.173 228.251 162.107 228.038 162V159.36C228.198 159.413 228.371 159.453 228.558 159.48C228.744 159.507 228.931 159.52 229.118 159.52C229.704 159.52 230.238 159.28 230.718 158.8C231.198 158.32 231.624 157.587 231.998 156.6C232.398 155.613 232.758 154.373 233.078 152.88C233.398 151.36 233.678 149.573 233.918 147.52C234.158 145.467 234.371 143.147 234.558 140.56H247.478V162ZM262.563 140.16C264.403 140.16 265.976 140.56 267.283 141.36C268.616 142.16 269.629 143.293 270.323 144.76C271.043 146.2 271.403 147.893 271.403 149.84V151.96H256.723C256.776 154.387 257.389 156.24 258.563 157.52C259.763 158.773 261.429 159.4 263.563 159.4C264.923 159.4 266.123 159.28 267.163 159.04C268.229 158.773 269.323 158.4 270.443 157.92V161C269.349 161.48 268.269 161.827 267.203 162.04C266.136 162.28 264.869 162.4 263.403 162.4C261.376 162.4 259.576 161.987 258.003 161.16C256.456 160.333 255.243 159.107 254.363 157.48C253.509 155.827 253.083 153.813 253.083 151.44C253.083 149.093 253.469 147.08 254.243 145.4C255.043 143.72 256.149 142.427 257.563 141.52C259.003 140.613 260.669 140.16 262.563 140.16ZM262.523 143.04C260.843 143.04 259.509 143.587 258.523 144.68C257.563 145.747 256.989 147.24 256.803 149.16H267.723C267.723 147.933 267.536 146.867 267.163 145.96C266.789 145.053 266.216 144.347 265.443 143.84C264.696 143.307 263.723 143.04 262.523 143.04ZM292.781 140.56V159.04H295.901V169.44H292.501V162H277.581V169.44H274.221V159.04H275.941C277.168 157.333 278.181 155.48 278.981 153.48C279.808 151.453 280.421 149.347 280.821 147.16C281.248 144.947 281.474 142.747 281.501 140.56H292.781ZM284.621 143.32C284.514 145.133 284.234 147.013 283.781 148.96C283.328 150.88 282.741 152.72 282.021 154.48C281.328 156.24 280.514 157.76 279.581 159.04H289.381V143.32H284.621ZM296.743 140.56H300.503L305.143 152.76C305.41 153.48 305.65 154.173 305.863 154.84C306.103 155.507 306.316 156.16 306.503 156.8C306.69 157.413 306.836 158.013 306.943 158.6H307.103C307.263 157.933 307.516 157.067 307.863 156C308.21 154.907 308.57 153.813 308.943 152.72L313.303 140.56H317.103L307.863 164.96C307.356 166.293 306.756 167.453 306.063 168.44C305.396 169.453 304.57 170.227 303.583 170.76C302.623 171.32 301.45 171.6 300.063 171.6C299.423 171.6 298.863 171.56 298.383 171.48C297.903 171.427 297.49 171.36 297.143 171.28V168.48C297.436 168.533 297.783 168.587 298.183 168.64C298.61 168.693 299.05 168.72 299.503 168.72C300.33 168.72 301.036 168.56 301.623 168.24C302.236 167.947 302.756 167.507 303.183 166.92C303.61 166.36 303.97 165.693 304.263 164.92L305.383 162.08L296.743 140.56ZM337.854 131.68C337.747 133.013 337.414 134.133 336.854 135.04C336.32 135.947 335.52 136.627 334.454 137.08C333.387 137.533 332 137.76 330.294 137.76C328.56 137.76 327.16 137.533 326.094 137.08C325.054 136.627 324.294 135.96 323.814 135.08C323.334 134.173 323.04 133.04 322.934 131.68H326.214C326.347 133.12 326.72 134.093 327.334 134.6C327.974 135.08 328.987 135.32 330.374 135.32C331.6 135.32 332.56 135.067 333.254 134.56C333.974 134.027 334.4 133.067 334.534 131.68H337.854ZM323.814 153.64C323.814 153.88 323.8 154.227 323.774 154.68C323.774 155.107 323.76 155.573 323.734 156.08C323.707 156.56 323.68 157.027 323.654 157.48C323.627 157.907 323.6 158.253 323.574 158.52L335.054 140.56H339.374V162H336.094V149.36C336.094 148.933 336.094 148.373 336.094 147.68C336.12 146.987 336.147 146.307 336.174 145.64C336.2 144.947 336.227 144.427 336.254 144.08L324.854 162H320.494V140.56H323.814V153.64ZM360.997 143.52H353.997V162H350.517V143.52H343.597V140.56H360.997V143.52ZM373.11 140.16C374.95 140.16 376.523 140.56 377.83 141.36C379.163 142.16 380.176 143.293 380.87 144.76C381.59 146.2 381.95 147.893 381.95 149.84V151.96H367.27C367.323 154.387 367.936 156.24 369.11 157.52C370.31 158.773 371.976 159.4 374.11 159.4C375.47 159.4 376.67 159.28 377.71 159.04C378.776 158.773 379.87 158.4 380.99 157.92V161C379.896 161.48 378.816 161.827 377.75 162.04C376.683 162.28 375.416 162.4 373.95 162.4C371.923 162.4 370.123 161.987 368.55 161.16C367.003 160.333 365.79 159.107 364.91 157.48C364.056 155.827 363.63 153.813 363.63 151.44C363.63 149.093 364.016 147.08 364.79 145.4C365.59 143.72 366.696 142.427 368.11 141.52C369.55 140.613 371.216 140.16 373.11 140.16ZM373.07 143.04C371.39 143.04 370.056 143.587 369.07 144.68C368.11 145.747 367.536 147.24 367.35 149.16H378.27C378.27 147.933 378.083 146.867 377.71 145.96C377.336 145.053 376.763 144.347 375.99 143.84C375.243 143.307 374.27 143.04 373.07 143.04ZM404.361 153.64C404.361 153.88 404.347 154.227 404.321 154.68C404.321 155.107 404.307 155.573 404.281 156.08C404.254 156.56 404.227 157.027 404.201 157.48C404.174 157.907 404.147 158.253 404.121 158.52L415.601 140.56H419.921V162H416.641V149.36C416.641 148.933 416.641 148.373 416.641 147.68C416.667 146.987 416.694 146.307 416.721 145.64C416.747 144.947 416.774 144.427 416.801 144.08L405.401 162H401.041V140.56H404.361V153.64ZM430.264 140.56V149.48H441.904V140.56H445.424V162H441.904V152.44H430.264V162H426.744V140.56H430.264ZM460.813 162.4C458.919 162.4 457.226 162.013 455.733 161.24C454.266 160.467 453.106 159.267 452.253 157.64C451.426 156.013 451.013 153.933 451.013 151.4C451.013 148.76 451.453 146.613 452.333 144.96C453.213 143.307 454.399 142.093 455.893 141.32C457.413 140.547 459.133 140.16 461.053 140.16C462.146 140.16 463.199 140.28 464.213 140.52C465.226 140.733 466.053 141 466.693 141.32L465.613 144.24C464.973 144 464.226 143.773 463.373 143.56C462.519 143.347 461.719 143.24 460.973 143.24C459.533 143.24 458.346 143.547 457.413 144.16C456.479 144.773 455.786 145.68 455.333 146.88C454.879 148.08 454.653 149.573 454.653 151.36C454.653 153.067 454.879 154.52 455.333 155.72C455.786 156.92 456.466 157.827 457.373 158.44C458.279 159.053 459.413 159.36 460.773 159.36C461.946 159.36 462.973 159.24 463.853 159C464.759 158.76 465.586 158.467 466.333 158.12V161.24C465.613 161.613 464.813 161.893 463.933 162.08C463.079 162.293 462.039 162.4 460.813 162.4ZM486.231 143.52H479.231V162H475.751V143.52H468.831V140.56H486.231V143.52ZM500.655 140.16C503.295 140.16 505.415 141.08 507.015 142.92C508.641 144.76 509.455 147.533 509.455 151.24C509.455 153.667 509.081 155.72 508.335 157.4C507.615 159.053 506.588 160.307 505.255 161.16C503.948 161.987 502.401 162.4 500.615 162.4C499.521 162.4 498.548 162.253 497.695 161.96C496.841 161.667 496.108 161.293 495.495 160.84C494.908 160.36 494.401 159.84 493.975 159.28H493.735C493.788 159.733 493.841 160.307 493.895 161C493.948 161.693 493.975 162.293 493.975 162.8V171.6H490.455V140.56H493.335L493.815 143.48H493.975C494.401 142.867 494.908 142.307 495.495 141.8C496.108 141.293 496.828 140.893 497.655 140.6C498.508 140.307 499.508 140.16 500.655 140.16ZM500.015 143.12C498.575 143.12 497.415 143.4 496.535 143.96C495.655 144.493 495.015 145.307 494.615 146.4C494.215 147.493 494.001 148.88 493.975 150.56V151.24C493.975 153 494.161 154.493 494.535 155.72C494.908 156.947 495.535 157.88 496.415 158.52C497.321 159.16 498.548 159.48 500.095 159.48C501.401 159.48 502.468 159.12 503.295 158.4C504.148 157.68 504.775 156.707 505.175 155.48C505.601 154.227 505.815 152.8 505.815 151.2C505.815 148.747 505.335 146.787 504.375 145.32C503.441 143.853 501.988 143.12 500.015 143.12ZM511.313 140.56H515.073L519.713 152.76C519.98 153.48 520.22 154.173 520.433 154.84C520.673 155.507 520.887 156.16 521.073 156.8C521.26 157.413 521.407 158.013 521.513 158.6H521.673C521.833 157.933 522.087 157.067 522.433 156C522.78 154.907 523.14 153.813 523.513 152.72L527.873 140.56H531.673L522.433 164.96C521.927 166.293 521.327 167.453 520.633 168.44C519.967 169.453 519.14 170.227 518.153 170.76C517.193 171.32 516.02 171.6 514.633 171.6C513.993 171.6 513.433 171.56 512.953 171.48C512.473 171.427 512.06 171.36 511.713 171.28V168.48C512.007 168.533 512.353 168.587 512.753 168.64C513.18 168.693 513.62 168.72 514.073 168.72C514.9 168.72 515.607 168.56 516.193 168.24C516.807 167.947 517.327 167.507 517.753 166.92C518.18 166.36 518.54 165.693 518.833 164.92L519.953 162.08L511.313 140.56ZM547.744 140.56H551.584L542.424 150.88L552.344 162H548.264L538.584 151.12V162H535.064V140.56H538.584V150.96L547.744 140.56ZM577.396 169.44H573.956V162H556.236V140.56H559.756V159.04H570.836V140.56H574.356V159.08H577.396V169.44ZM584.829 153.64C584.829 153.88 584.816 154.227 584.789 154.68C584.789 155.107 584.776 155.573 584.749 156.08C584.723 156.56 584.696 157.027 584.669 157.48C584.643 157.907 584.616 158.253 584.589 158.52L596.069 140.56H600.389V162H597.109V149.36C597.109 148.933 597.109 148.373 597.109 147.68C597.136 146.987 597.163 146.307 597.189 145.64C597.216 144.947 597.243 144.427 597.269 144.08L585.869 162H581.509V140.56H584.829V153.64ZM610.533 153.64C610.533 153.88 610.519 154.227 610.493 154.68C610.493 155.107 610.479 155.573 610.453 156.08C610.426 156.56 610.399 157.027 610.373 157.48C610.346 157.907 610.319 158.253 610.293 158.52L621.773 140.56H626.093V162H622.813V149.36C622.813 148.933 622.813 148.373 622.813 147.68C622.839 146.987 622.866 146.307 622.893 145.64C622.919 144.947 622.946 144.427 622.973 144.08L611.573 162H607.213V140.56H610.533V153.64ZM205.42 188.56V197.48H217.06V188.56H220.58V210H217.06V200.44H205.42V210H201.9V188.56H205.42ZM235.489 188.2C238.102 188.2 240.035 188.773 241.289 189.92C242.542 191.067 243.169 192.893 243.169 195.4V210H240.609L239.929 206.96H239.769C239.155 207.733 238.515 208.387 237.849 208.92C237.209 209.427 236.462 209.8 235.609 210.04C234.782 210.28 233.769 210.4 232.569 210.4C231.289 210.4 230.129 210.173 229.089 209.72C228.075 209.267 227.275 208.573 226.689 207.64C226.102 206.68 225.809 205.48 225.809 204.04C225.809 201.907 226.649 200.267 228.329 199.12C230.009 197.947 232.595 197.307 236.089 197.2L239.729 197.08V195.8C239.729 194.013 239.342 192.773 238.569 192.08C237.795 191.387 236.702 191.04 235.289 191.04C234.169 191.04 233.102 191.213 232.089 191.56C231.075 191.88 230.129 192.253 229.249 192.68L228.169 190.04C229.102 189.533 230.209 189.107 231.489 188.76C232.769 188.387 234.102 188.2 235.489 188.2ZM236.529 199.64C233.862 199.747 232.009 200.173 230.969 200.92C229.955 201.667 229.449 202.72 229.449 204.08C229.449 205.28 229.809 206.16 230.529 206.72C231.275 207.28 232.222 207.56 233.369 207.56C235.182 207.56 236.689 207.067 237.889 206.08C239.089 205.067 239.689 203.52 239.689 201.44V199.52L236.529 199.64ZM278.223 191.52H271.223V210H267.743V191.52H260.823V188.56H278.223V191.52ZM290.336 188.16C292.176 188.16 293.75 188.56 295.056 189.36C296.39 190.16 297.403 191.293 298.096 192.76C298.816 194.2 299.176 195.893 299.176 197.84V199.96H284.496C284.55 202.387 285.163 204.24 286.336 205.52C287.536 206.773 289.203 207.4 291.336 207.4C292.696 207.4 293.896 207.28 294.936 207.04C296.003 206.773 297.096 206.4 298.216 205.92V209C297.123 209.48 296.043 209.827 294.976 210.04C293.91 210.28 292.643 210.4 291.176 210.4C289.15 210.4 287.35 209.987 285.776 209.16C284.23 208.333 283.016 207.107 282.136 205.48C281.283 203.827 280.856 201.813 280.856 199.44C280.856 197.093 281.243 195.08 282.016 193.4C282.816 191.72 283.923 190.427 285.336 189.52C286.776 188.613 288.443 188.16 290.336 188.16ZM290.296 191.04C288.616 191.04 287.283 191.587 286.296 192.68C285.336 193.747 284.763 195.24 284.576 197.16H295.496C295.496 195.933 295.31 194.867 294.936 193.96C294.563 193.053 293.99 192.347 293.216 191.84C292.47 191.307 291.496 191.04 290.296 191.04ZM314.834 188.16C317.474 188.16 319.594 189.08 321.194 190.92C322.821 192.76 323.634 195.533 323.634 199.24C323.634 201.667 323.261 203.72 322.514 205.4C321.794 207.053 320.768 208.307 319.434 209.16C318.128 209.987 316.581 210.4 314.794 210.4C313.701 210.4 312.728 210.253 311.874 209.96C311.021 209.667 310.288 209.293 309.674 208.84C309.088 208.36 308.581 207.84 308.154 207.28H307.914C307.968 207.733 308.021 208.307 308.074 209C308.128 209.693 308.154 210.293 308.154 210.8V219.6H304.634V188.56H307.514L307.994 191.48H308.154C308.581 190.867 309.088 190.307 309.674 189.8C310.288 189.293 311.008 188.893 311.834 188.6C312.688 188.307 313.688 188.16 314.834 188.16ZM314.194 191.12C312.754 191.12 311.594 191.4 310.714 191.96C309.834 192.493 309.194 193.307 308.794 194.4C308.394 195.493 308.181 196.88 308.154 198.56V199.24C308.154 201 308.341 202.493 308.714 203.72C309.088 204.947 309.714 205.88 310.594 206.52C311.501 207.16 312.728 207.48 314.274 207.48C315.581 207.48 316.648 207.12 317.474 206.4C318.328 205.68 318.954 204.707 319.354 203.48C319.781 202.227 319.994 200.8 319.994 199.2C319.994 196.747 319.514 194.787 318.554 193.32C317.621 191.853 316.168 191.12 314.194 191.12ZM352.244 188.56V210H349.084V196.32C349.084 195.76 349.097 195.173 349.124 194.56C349.177 193.947 349.23 193.347 349.284 192.76H349.164L342.164 210H339.204L332.404 192.76H332.284C332.337 193.347 332.364 193.947 332.364 194.56C332.39 195.173 332.404 195.8 332.404 196.44V210H329.244V188.56H333.924L340.684 205.8L347.564 188.56H352.244ZM362.408 201.64C362.408 201.88 362.394 202.227 362.368 202.68C362.368 203.107 362.354 203.573 362.328 204.08C362.301 204.56 362.274 205.027 362.248 205.48C362.221 205.907 362.194 206.253 362.168 206.52L373.648 188.56H377.968V210H374.688V197.36C374.688 196.933 374.688 196.373 374.688 195.68C374.714 194.987 374.741 194.307 374.768 193.64C374.794 192.947 374.821 192.427 374.848 192.08L363.448 210H359.088V188.56H362.408V201.64ZM388.311 188.56V197.48H399.951V188.56H403.471V210H399.951V200.44H388.311V210H384.791V188.56H388.311ZM418.379 188.2C420.993 188.2 422.926 188.773 424.179 189.92C425.433 191.067 426.059 192.893 426.059 195.4V210H423.499L422.819 206.96H422.659C422.046 207.733 421.406 208.387 420.739 208.92C420.099 209.427 419.353 209.8 418.499 210.04C417.673 210.28 416.659 210.4 415.459 210.4C414.179 210.4 413.019 210.173 411.979 209.72C410.966 209.267 410.166 208.573 409.579 207.64C408.993 206.68 408.699 205.48 408.699 204.04C408.699 201.907 409.539 200.267 411.219 199.12C412.899 197.947 415.486 197.307 418.979 197.2L422.619 197.08V195.8C422.619 194.013 422.233 192.773 421.459 192.08C420.686 191.387 419.593 191.04 418.179 191.04C417.059 191.04 415.993 191.213 414.979 191.56C413.966 191.88 413.019 192.253 412.139 192.68L411.059 190.04C411.993 189.533 413.099 189.107 414.379 188.76C415.659 188.387 416.993 188.2 418.379 188.2ZM419.419 199.64C416.753 199.747 414.899 200.173 413.859 200.92C412.846 201.667 412.339 202.72 412.339 204.08C412.339 205.28 412.699 206.16 413.419 206.72C414.166 207.28 415.113 207.56 416.259 207.56C418.073 207.56 419.579 207.067 420.779 206.08C421.979 205.067 422.579 203.52 422.579 201.44V199.52L419.419 199.64ZM449.001 210H445.441V191.48H439.121C438.855 194.867 438.521 197.76 438.121 200.16C437.721 202.533 437.215 204.467 436.601 205.96C435.988 207.453 435.255 208.547 434.401 209.24C433.548 209.933 432.548 210.28 431.401 210.28C431.055 210.28 430.708 210.253 430.361 210.2C430.041 210.173 429.775 210.107 429.561 210V207.36C429.721 207.413 429.895 207.453 430.081 207.48C430.268 207.507 430.455 207.52 430.641 207.52C431.228 207.52 431.761 207.28 432.241 206.8C432.721 206.32 433.148 205.587 433.521 204.6C433.921 203.613 434.281 202.373 434.601 200.88C434.921 199.36 435.201 197.573 435.441 195.52C435.681 193.467 435.895 191.147 436.081 188.56H449.001V210ZM464.086 188.16C465.926 188.16 467.5 188.56 468.806 189.36C470.14 190.16 471.153 191.293 471.846 192.76C472.566 194.2 472.926 195.893 472.926 197.84V199.96H458.246C458.3 202.387 458.913 204.24 460.086 205.52C461.286 206.773 462.953 207.4 465.086 207.4C466.446 207.4 467.646 207.28 468.686 207.04C469.753 206.773 470.846 206.4 471.966 205.92V209C470.873 209.48 469.793 209.827 468.726 210.04C467.66 210.28 466.393 210.4 464.926 210.4C462.9 210.4 461.1 209.987 459.526 209.16C457.98 208.333 456.766 207.107 455.886 205.48C455.033 203.827 454.606 201.813 454.606 199.44C454.606 197.093 454.993 195.08 455.766 193.4C456.566 191.72 457.673 190.427 459.086 189.52C460.526 188.613 462.193 188.16 464.086 188.16ZM464.046 191.04C462.366 191.04 461.033 191.587 460.046 192.68C459.086 193.747 458.513 195.24 458.326 197.16H469.246C469.246 195.933 469.06 194.867 468.686 193.96C468.313 193.053 467.74 192.347 466.966 191.84C466.22 191.307 465.246 191.04 464.046 191.04ZM510.657 199.24C510.657 201.027 510.417 202.613 509.937 204C509.484 205.36 508.817 206.52 507.937 207.48C507.084 208.44 506.031 209.173 504.777 209.68C503.551 210.16 502.177 210.4 500.657 210.4C499.244 210.4 497.937 210.16 496.737 209.68C495.537 209.173 494.497 208.44 493.617 207.48C492.737 206.52 492.044 205.36 491.537 204C491.057 202.613 490.817 201.027 490.817 199.24C490.817 196.867 491.217 194.867 492.017 193.24C492.817 191.587 493.964 190.333 495.457 189.48C496.951 188.6 498.724 188.16 500.777 188.16C502.724 188.16 504.431 188.6 505.897 189.48C507.391 190.333 508.551 191.587 509.377 193.24C510.231 194.867 510.657 196.867 510.657 199.24ZM494.457 199.24C494.457 200.92 494.671 202.387 495.097 203.64C495.551 204.867 496.244 205.813 497.177 206.48C498.111 207.147 499.297 207.48 500.737 207.48C502.177 207.48 503.364 207.147 504.297 206.48C505.231 205.813 505.911 204.867 506.337 203.64C506.791 202.387 507.017 200.92 507.017 199.24C507.017 197.533 506.791 196.08 506.337 194.88C505.884 193.68 505.191 192.76 504.257 192.12C503.351 191.453 502.164 191.12 500.697 191.12C498.511 191.12 496.924 191.84 495.937 193.28C494.951 194.72 494.457 196.707 494.457 199.24ZM534.356 188.56V210H530.836V191.56H519.756V210H516.236V188.56H534.356ZM557.517 210H553.957V191.48H547.637C547.37 194.867 547.037 197.76 546.637 200.16C546.237 202.533 545.73 204.467 545.117 205.96C544.504 207.453 543.77 208.547 542.917 209.24C542.064 209.933 541.064 210.28 539.917 210.28C539.57 210.28 539.224 210.253 538.877 210.2C538.557 210.173 538.29 210.107 538.077 210V207.36C538.237 207.413 538.41 207.453 538.597 207.48C538.784 207.507 538.97 207.52 539.157 207.52C539.744 207.52 540.277 207.28 540.757 206.8C541.237 206.32 541.664 205.587 542.037 204.6C542.437 203.613 542.797 202.373 543.117 200.88C543.437 199.36 543.717 197.573 543.957 195.52C544.197 193.467 544.41 191.147 544.597 188.56H557.517V210ZM572.442 188.2C575.055 188.2 576.989 188.773 578.242 189.92C579.495 191.067 580.122 192.893 580.122 195.4V210H577.562L576.882 206.96H576.722C576.109 207.733 575.469 208.387 574.802 208.92C574.162 209.427 573.415 209.8 572.562 210.04C571.735 210.28 570.722 210.4 569.522 210.4C568.242 210.4 567.082 210.173 566.042 209.72C565.029 209.267 564.229 208.573 563.642 207.64C563.055 206.68 562.762 205.48 562.762 204.04C562.762 201.907 563.602 200.267 565.282 199.12C566.962 197.947 569.549 197.307 573.042 197.2L576.682 197.08V195.8C576.682 194.013 576.295 192.773 575.522 192.08C574.749 191.387 573.655 191.04 572.242 191.04C571.122 191.04 570.055 191.213 569.042 191.56C568.029 191.88 567.082 192.253 566.202 192.68L565.122 190.04C566.055 189.533 567.162 189.107 568.442 188.76C569.722 188.387 571.055 188.2 572.442 188.2ZM573.482 199.64C570.815 199.747 568.962 200.173 567.922 200.92C566.909 201.667 566.402 202.72 566.402 204.08C566.402 205.28 566.762 206.16 567.482 206.72C568.229 207.28 569.175 207.56 570.322 207.56C572.135 207.56 573.642 207.067 574.842 206.08C576.042 205.067 576.642 203.52 576.642 201.44V199.52L573.482 199.64ZM601.544 191.52H594.544V210H591.064V191.52H584.144V188.56H601.544V191.52ZM605.767 210V188.56H609.287V197.36H614.847C616.714 197.36 618.247 197.587 619.447 198.04C620.647 198.493 621.541 199.173 622.127 200.08C622.714 200.96 623.007 202.08 623.007 203.44C623.007 204.773 622.714 205.933 622.127 206.92C621.567 207.907 620.674 208.667 619.447 209.2C618.247 209.733 616.661 210 614.687 210H605.767ZM614.367 207.16C615.887 207.16 617.127 206.907 618.087 206.4C619.047 205.867 619.527 204.947 619.527 203.64C619.527 202.333 619.087 201.453 618.207 201C617.327 200.52 616.061 200.28 614.407 200.28H609.287V207.16H614.367ZM626.567 210V188.56H630.087V210H626.567Z" fill="#19191B"/>
</g>
<rect x="68" y="255" width="682" height="596" rx="7" fill="#EFEFF0"/>
<rect x="68" y="255" width="682" height="596" rx="7" stroke="#AFB1B6" stroke-width="2"/>
<mask id="mask0_232_1773" style="mask-type:luminance" maskUnits="userSpaceOnUse" x="399" y="543" width="20" height="20">
<path fill-rule="evenodd" clip-rule="evenodd" d="M399 543H418.96V562.95H399V543Z" fill="white"/>
</mask>
<g mask="url(#mask0_232_1773)">
<path fill-rule="evenodd" clip-rule="evenodd" d="M404.65 544.5C402.129 544.5 400.5 546.227 400.5 548.899V557.051C400.5 559.724 402.129 561.45 404.65 561.45H413.3C415.827 561.45 417.46 559.724 417.46 557.051V548.899C417.46 546.227 415.827 544.5 413.3 544.5H404.65ZM413.3 562.95H404.65C401.27 562.95 399 560.579 399 557.051V548.899C399 545.371 401.27 543 404.65 543H413.3C416.685 543 418.96 545.371 418.96 548.899V557.051C418.96 560.579 416.685 562.95 413.3 562.95Z" fill="#AFB1B6"/>
</g>
<path fill-rule="evenodd" clip-rule="evenodd" d="M402.281 558.18C402.095 558.18 401.91 558.112 401.765 557.974C401.464 557.69 401.452 557.214 401.737 556.915L403.265 555.302C404.074 554.443 405.439 554.401 406.302 555.211L407.26 556.183C407.527 556.453 407.961 556.458 408.229 556.194C408.33 556.075 410.508 553.43 410.508 553.43C410.922 552.928 411.506 552.618 412.155 552.554C412.805 552.497 413.436 552.686 413.939 553.099C413.982 553.134 414.021 553.168 416.217 555.423C416.506 555.719 416.501 556.194 416.204 556.483C415.908 556.774 415.432 556.765 415.143 556.469C415.143 556.469 413.094 554.366 412.948 554.224C412.793 554.097 412.544 554.023 412.299 554.047C412.05 554.072 411.826 554.191 411.667 554.384C409.343 557.203 409.315 557.23 409.277 557.267C408.419 558.109 407.034 558.095 406.191 557.235C406.191 557.235 405.261 556.291 405.245 556.272C405.014 556.058 404.602 556.072 404.355 556.333L402.825 557.946C402.677 558.102 402.479 558.18 402.281 558.18Z" fill="#AFB1B6"/>
<path fill-rule="evenodd" clip-rule="evenodd" d="M405.558 549.129C405.005 549.129 404.555 549.579 404.555 550.133C404.555 550.687 405.005 551.138 405.559 551.138C406.113 551.138 406.564 550.687 406.564 550.133C406.564 549.58 406.113 549.13 405.558 549.129ZM405.559 552.638C404.178 552.638 403.055 551.514 403.055 550.133C403.055 548.752 404.178 547.629 405.559 547.629C406.941 547.63 408.064 548.754 408.064 550.133C408.064 551.514 406.94 552.638 405.559 552.638Z" fill="#AFB1B6"/>
<g clip-path="url(#clip1_232_1773)">
<path d="M91.284 889.94C90.22 889.94 89.2587 890.127 88.4 890.5C87.5413 890.855 86.8133 891.387 86.216 892.096C85.6187 892.787 85.1613 893.636 84.844 894.644C84.5267 895.633 84.368 896.753 84.368 898.004C84.368 899.647 84.62 901.075 85.124 902.288C85.6467 903.501 86.412 904.435 87.42 905.088C88.4467 905.741 89.7253 906.068 91.256 906.068C92.1333 906.068 92.964 905.993 93.748 905.844C94.532 905.695 95.2973 905.508 96.044 905.284V907.468C95.2973 907.748 94.5227 907.953 93.72 908.084C92.936 908.215 91.9933 908.28 90.892 908.28C88.8573 908.28 87.1587 907.86 85.796 907.02C84.4333 906.18 83.4067 904.985 82.716 903.436C82.044 901.887 81.708 900.067 81.708 897.976C81.708 896.464 81.9133 895.083 82.324 893.832C82.7533 892.581 83.3693 891.499 84.172 890.584C84.9933 889.669 86.0013 888.969 87.196 888.484C88.3907 887.98 89.7627 887.728 91.312 887.728C92.3387 887.728 93.328 887.831 94.28 888.036C95.232 888.241 96.0813 888.531 96.828 888.904L95.82 891.032C95.204 890.752 94.5133 890.5 93.748 890.276C93.0013 890.052 92.18 889.94 91.284 889.94ZM97.7194 892.992H100.351L103.599 901.532C103.786 902.036 103.954 902.521 104.103 902.988C104.271 903.455 104.421 903.912 104.551 904.36C104.682 904.789 104.785 905.209 104.859 905.62H104.971C105.083 905.153 105.261 904.547 105.503 903.8C105.746 903.035 105.998 902.269 106.259 901.504L109.311 892.992H111.971L105.503 910.072C105.149 911.005 104.729 911.817 104.243 912.508C103.777 913.217 103.198 913.759 102.507 914.132C101.835 914.524 101.014 914.72 100.043 914.72C99.5954 914.72 99.2034 914.692 98.8674 914.636C98.5314 914.599 98.2421 914.552 97.9994 914.496V912.536C98.2047 912.573 98.4474 912.611 98.7274 912.648C99.0261 912.685 99.3341 912.704 99.6514 912.704C100.23 912.704 100.725 912.592 101.135 912.368C101.565 912.163 101.929 911.855 102.227 911.444C102.526 911.052 102.778 910.585 102.983 910.044L103.767 908.056L97.7194 892.992ZM130.445 892.992V908H128.233V898.424C128.233 898.032 128.242 897.621 128.261 897.192C128.298 896.763 128.336 896.343 128.373 895.932H128.289L123.389 908H121.317L116.557 895.932H116.473C116.51 896.343 116.529 896.763 116.529 897.192C116.548 897.621 116.557 898.06 116.557 898.508V908H114.345V892.992H117.621L122.353 905.06L127.169 892.992H130.445ZM151.335 892.992V908H149.123V898.424C149.123 898.032 149.133 897.621 149.151 897.192C149.189 896.763 149.226 896.343 149.263 895.932H149.179L144.279 908H142.207L137.447 895.932H137.363C137.401 896.343 137.419 896.763 137.419 897.192C137.438 897.621 137.447 898.06 137.447 898.508V908H135.235V892.992H138.511L143.243 905.06L148.059 892.992H151.335ZM161.81 892.74C163.639 892.74 164.993 893.141 165.87 893.944C166.747 894.747 167.186 896.025 167.186 897.78V908H165.394L164.918 905.872H164.806C164.377 906.413 163.929 906.871 163.462 907.244C163.014 907.599 162.491 907.86 161.894 908.028C161.315 908.196 160.606 908.28 159.766 908.28C158.87 908.28 158.058 908.121 157.33 907.804C156.621 907.487 156.061 907.001 155.65 906.348C155.239 905.676 155.034 904.836 155.034 903.828C155.034 902.335 155.622 901.187 156.798 900.384C157.974 899.563 159.785 899.115 162.23 899.04L164.778 898.956V898.06C164.778 896.809 164.507 895.941 163.966 895.456C163.425 894.971 162.659 894.728 161.67 894.728C160.886 894.728 160.139 894.849 159.43 895.092C158.721 895.316 158.058 895.577 157.442 895.876L156.686 894.028C157.339 893.673 158.114 893.375 159.01 893.132C159.906 892.871 160.839 892.74 161.81 892.74ZM162.538 900.748C160.671 900.823 159.374 901.121 158.646 901.644C157.937 902.167 157.582 902.904 157.582 903.856C157.582 904.696 157.834 905.312 158.338 905.704C158.861 906.096 159.523 906.292 160.326 906.292C161.595 906.292 162.65 905.947 163.49 905.256C164.33 904.547 164.75 903.464 164.75 902.008V900.664L162.538 900.748ZM185.312 892.712C186.451 892.712 187.44 892.871 188.28 893.188C189.12 893.487 189.774 893.935 190.24 894.532C190.707 895.111 190.94 895.82 190.94 896.66C190.94 897.575 190.688 898.303 190.184 898.844C189.68 899.367 188.99 899.749 188.112 899.992V900.104C188.71 900.272 189.26 900.505 189.764 900.804C190.268 901.103 190.67 901.495 190.968 901.98C191.286 902.465 191.444 903.091 191.444 903.856C191.444 904.677 191.211 905.424 190.744 906.096C190.296 906.768 189.596 907.3 188.644 907.692C187.711 908.084 186.507 908.28 185.032 908.28C184.323 908.28 183.642 908.243 182.988 908.168C182.354 908.093 181.775 907.981 181.252 907.832C180.748 907.683 180.3 907.505 179.908 907.3V905.088C180.543 905.387 181.29 905.657 182.148 905.9C183.026 906.143 183.978 906.264 185.004 906.264C185.751 906.264 186.423 906.18 187.02 906.012C187.636 905.844 188.122 905.583 188.476 905.228C188.831 904.855 189.008 904.351 189.008 903.716C189.008 903.137 188.85 902.671 188.532 902.316C188.215 901.943 187.739 901.663 187.104 901.476C186.488 901.289 185.695 901.196 184.724 901.196H182.708V899.18H184.332C185.62 899.18 186.647 899.012 187.412 898.676C188.196 898.321 188.588 897.724 188.588 896.884C188.588 896.175 188.29 895.643 187.692 895.288C187.114 894.933 186.274 894.756 185.172 894.756C184.351 894.756 183.623 894.84 182.988 895.008C182.372 895.157 181.691 895.391 180.944 895.708L180.076 893.748C180.879 893.393 181.719 893.132 182.596 892.964C183.474 892.796 184.379 892.712 185.312 892.712ZM200.775 892.74C202.604 892.74 203.958 893.141 204.835 893.944C205.712 894.747 206.151 896.025 206.151 897.78V908H204.359L203.883 905.872H203.771C203.342 906.413 202.894 906.871 202.427 907.244C201.979 907.599 201.456 907.86 200.859 908.028C200.28 908.196 199.571 908.28 198.731 908.28C197.835 908.28 197.023 908.121 196.295 907.804C195.586 907.487 195.026 907.001 194.615 906.348C194.204 905.676 193.999 904.836 193.999 903.828C193.999 902.335 194.587 901.187 195.763 900.384C196.939 899.563 198.75 899.115 201.195 899.04L203.743 898.956V898.06C203.743 896.809 203.472 895.941 202.931 895.456C202.39 894.971 201.624 894.728 200.635 894.728C199.851 894.728 199.104 894.849 198.395 895.092C197.686 895.316 197.023 895.577 196.407 895.876L195.651 894.028C196.304 893.673 197.079 893.375 197.975 893.132C198.871 892.871 199.804 892.74 200.775 892.74ZM201.503 900.748C199.636 900.823 198.339 901.121 197.611 901.644C196.902 902.167 196.547 902.904 196.547 903.856C196.547 904.696 196.799 905.312 197.303 905.704C197.826 906.096 198.488 906.292 199.291 906.292C200.56 906.292 201.615 905.947 202.455 905.256C203.295 904.547 203.715 903.464 203.715 902.008V900.664L201.503 900.748ZM219.662 892.992H222.35L215.938 900.216L222.882 908H220.026L213.25 900.384V908H210.786V892.992H213.25V900.272L219.662 892.992ZM231.291 892.74C233.12 892.74 234.473 893.141 235.351 893.944C236.228 894.747 236.667 896.025 236.667 897.78V908H234.875L234.399 905.872H234.287C233.857 906.413 233.409 906.871 232.943 907.244C232.495 907.599 231.972 907.86 231.375 908.028C230.796 908.196 230.087 908.28 229.247 908.28C228.351 908.28 227.539 908.121 226.811 907.804C226.101 907.487 225.541 907.001 225.131 906.348C224.72 905.676 224.515 904.836 224.515 903.828C224.515 902.335 225.103 901.187 226.279 900.384C227.455 899.563 229.265 899.115 231.711 899.04L234.259 898.956V898.06C234.259 896.809 233.988 895.941 233.447 895.456C232.905 894.971 232.14 894.728 231.151 894.728C230.367 894.728 229.62 894.849 228.911 895.092C228.201 895.316 227.539 895.577 226.923 895.876L226.167 894.028C226.82 893.673 227.595 893.375 228.491 893.132C229.387 892.871 230.32 892.74 231.291 892.74ZM232.019 900.748C230.152 900.823 228.855 901.121 228.127 901.644C227.417 902.167 227.063 902.904 227.063 903.856C227.063 904.696 227.315 905.312 227.819 905.704C228.341 906.096 229.004 906.292 229.807 906.292C231.076 906.292 232.131 905.947 232.971 905.256C233.811 904.547 234.231 903.464 234.231 902.008V900.664L232.019 900.748ZM245.25 892.712C246.389 892.712 247.378 892.871 248.218 893.188C249.058 893.487 249.711 893.935 250.178 894.532C250.645 895.111 250.878 895.82 250.878 896.66C250.878 897.575 250.626 898.303 250.122 898.844C249.618 899.367 248.927 899.749 248.05 899.992V900.104C248.647 900.272 249.198 900.505 249.702 900.804C250.206 901.103 250.607 901.495 250.906 901.98C251.223 902.465 251.382 903.091 251.382 903.856C251.382 904.677 251.149 905.424 250.682 906.096C250.234 906.768 249.534 907.3 248.582 907.692C247.649 908.084 246.445 908.28 244.97 908.28C244.261 908.28 243.579 908.243 242.926 908.168C242.291 908.093 241.713 907.981 241.19 907.832C240.686 907.683 240.238 907.505 239.846 907.3V905.088C240.481 905.387 241.227 905.657 242.086 905.9C242.963 906.143 243.915 906.264 244.942 906.264C245.689 906.264 246.361 906.18 246.958 906.012C247.574 905.844 248.059 905.583 248.414 905.228C248.769 904.855 248.946 904.351 248.946 903.716C248.946 903.137 248.787 902.671 248.47 902.316C248.153 901.943 247.677 901.663 247.042 901.476C246.426 901.289 245.633 901.196 244.662 901.196H242.646V899.18H244.27C245.558 899.18 246.585 899.012 247.35 898.676C248.134 898.321 248.526 897.724 248.526 896.884C248.526 896.175 248.227 895.643 247.63 895.288C247.051 894.933 246.211 894.756 245.11 894.756C244.289 894.756 243.561 894.84 242.926 895.008C242.31 895.157 241.629 895.391 240.882 895.708L240.014 893.748C240.817 893.393 241.657 893.132 242.534 892.964C243.411 892.796 244.317 892.712 245.25 892.712ZM260.712 892.74C262.542 892.74 263.895 893.141 264.772 893.944C265.65 894.747 266.088 896.025 266.088 897.78V908H264.296L263.82 905.872H263.708C263.279 906.413 262.831 906.871 262.364 907.244C261.916 907.599 261.394 907.86 260.796 908.028C260.218 908.196 259.508 908.28 258.668 908.28C257.772 908.28 256.96 908.121 256.232 907.804C255.523 907.487 254.963 907.001 254.552 906.348C254.142 905.676 253.936 904.836 253.936 903.828C253.936 902.335 254.524 901.187 255.7 900.384C256.876 899.563 258.687 899.115 261.132 899.04L263.68 898.956V898.06C263.68 896.809 263.41 895.941 262.868 895.456C262.327 894.971 261.562 894.728 260.572 894.728C259.788 894.728 259.042 894.849 258.332 895.092C257.623 895.316 256.96 895.577 256.344 895.876L255.588 894.028C256.242 893.673 257.016 893.375 257.912 893.132C258.808 892.871 259.742 892.74 260.712 892.74ZM261.44 900.748C259.574 900.823 258.276 901.121 257.548 901.644C256.839 902.167 256.484 902.904 256.484 903.856C256.484 904.696 256.736 905.312 257.24 905.704C257.763 906.096 258.426 906.292 259.228 906.292C260.498 906.292 261.552 905.947 262.392 905.256C263.232 904.547 263.652 903.464 263.652 902.008V900.664L261.44 900.748ZM272.488 893.72C273.029 893.72 273.468 893.888 273.804 894.224C274.14 894.56 274.308 894.999 274.308 895.54C274.308 896.081 274.14 896.52 273.804 896.856C273.468 897.192 273.029 897.36 272.488 897.36C271.946 897.36 271.508 897.192 271.172 896.856C270.836 896.52 270.668 896.081 270.668 895.54C270.668 894.999 270.836 894.56 271.172 894.224C271.508 893.888 271.946 893.72 272.488 893.72ZM272.488 904.64C273.029 904.64 273.468 904.808 273.804 905.144C274.14 905.48 274.308 905.919 274.308 906.46C274.308 907.001 274.14 907.44 273.804 907.776C273.468 908.112 273.029 908.28 272.488 908.28C271.946 908.28 271.508 908.112 271.172 907.776C270.836 907.44 270.668 907.001 270.668 906.46C270.668 905.919 270.836 905.48 271.172 905.144C271.508 904.808 271.946 904.64 272.488 904.64Z" fill="#19191B"/>
</g>
<g clip-path="url(#clip2_232_1773)">
<path d="M701.384 900.28C699.293 900.28 697.622 899.468 696.372 897.844C695.121 896.22 694.496 893.859 694.496 890.76C694.496 887.661 695.121 885.3 696.372 883.676C697.622 882.052 699.293 881.24 701.384 881.24C703.493 881.24 705.164 882.052 706.396 883.676C707.646 885.3 708.272 887.661 708.272 890.76C708.272 893.859 707.646 896.22 706.396 897.844C705.164 899.468 703.493 900.28 701.384 900.28ZM701.384 898.264C702.373 898.264 703.204 897.984 703.876 897.424C704.566 896.845 705.08 895.996 705.416 894.876C705.77 893.756 705.948 892.384 705.948 890.76C705.948 889.136 705.77 887.764 705.416 886.644C705.08 885.524 704.566 884.684 703.876 884.124C703.204 883.545 702.373 883.256 701.384 883.256C700.394 883.256 699.554 883.545 698.864 884.124C698.192 884.684 697.678 885.524 697.324 886.644C696.988 887.764 696.82 889.136 696.82 890.76C696.82 892.384 696.988 893.756 697.324 894.876C697.678 895.996 698.192 896.845 698.864 897.424C699.554 897.984 700.394 898.264 701.384 898.264ZM713.134 896.64C713.675 896.64 714.114 896.808 714.45 897.144C714.786 897.48 714.954 897.919 714.954 898.46C714.954 899.001 714.786 899.44 714.45 899.776C714.114 900.112 713.675 900.28 713.134 900.28C712.593 900.28 712.154 900.112 711.818 899.776C711.482 899.44 711.314 899.001 711.314 898.46C711.314 897.919 711.482 897.48 711.818 897.144C712.154 896.808 712.593 896.64 713.134 896.64ZM724.872 900.28C722.781 900.28 721.111 899.468 719.86 897.844C718.609 896.22 717.984 893.859 717.984 890.76C717.984 887.661 718.609 885.3 719.86 883.676C721.111 882.052 722.781 881.24 724.872 881.24C726.981 881.24 728.652 882.052 729.884 883.676C731.135 885.3 731.76 887.661 731.76 890.76C731.76 893.859 731.135 896.22 729.884 897.844C728.652 899.468 726.981 900.28 724.872 900.28ZM724.872 898.264C725.861 898.264 726.692 897.984 727.364 897.424C728.055 896.845 728.568 895.996 728.904 894.876C729.259 893.756 729.436 892.384 729.436 890.76C729.436 889.136 729.259 887.764 728.904 886.644C728.568 885.524 728.055 884.684 727.364 884.124C726.692 883.545 725.861 883.256 724.872 883.256C723.883 883.256 723.043 883.545 722.352 884.124C721.68 884.684 721.167 885.524 720.812 886.644C720.476 887.764 720.308 889.136 720.308 890.76C720.308 892.384 720.476 893.756 720.812 894.876C721.167 895.996 721.68 896.845 722.352 897.424C723.043 897.984 723.883 898.264 724.872 898.264ZM742.29 900.28C740.199 900.28 738.529 899.468 737.278 897.844C736.027 896.22 735.402 893.859 735.402 890.76C735.402 887.661 736.027 885.3 737.278 883.676C738.529 882.052 740.199 881.24 742.29 881.24C744.399 881.24 746.07 882.052 747.302 883.676C748.553 885.3 749.178 887.661 749.178 890.76C749.178 893.859 748.553 896.22 747.302 897.844C746.07 899.468 744.399 900.28 742.29 900.28ZM742.29 898.264C743.279 898.264 744.11 897.984 744.782 897.424C745.473 896.845 745.986 895.996 746.322 894.876C746.677 893.756 746.854 892.384 746.854 890.76C746.854 889.136 746.677 887.764 746.322 886.644C745.986 885.524 745.473 884.684 744.782 884.124C744.11 883.545 743.279 883.256 742.29 883.256C741.301 883.256 740.461 883.545 739.77 884.124C739.098 884.684 738.585 885.524 738.23 886.644C737.894 887.764 737.726 889.136 737.726 890.76C737.726 892.384 737.894 893.756 738.23 894.876C738.585 895.996 739.098 896.845 739.77 897.424C740.461 897.984 741.301 898.264 742.29 898.264Z" fill="#19191B"/>
</g>
<mask id="path-10-inside-1_232_1773" fill="white">
<path d="M75 1095H730V1143H75V1095Z"/>
</mask>
<path d="M75 1095H730V1143H75V1095Z" fill="#F7F5FF"/>
<path d="M730 1143V1142H75V1143V1144H730V1143Z" fill="#3A00E5" mask="url(#path-10-inside-1_232_1773)"/>
<g clip-path="url(#clip3_232_1773)">
<path d="M111.76 1112.58C112.709 1112.58 113.504 1112.67 114.144 1112.85C114.794 1113.03 115.28 1113.33 115.6 1113.74C115.93 1114.16 116.096 1114.71 116.096 1115.41C116.096 1115.86 116.01 1116.26 115.84 1116.61C115.68 1116.95 115.434 1117.24 115.104 1117.47C114.784 1117.7 114.389 1117.85 113.92 1117.94V1118.02C114.4 1118.09 114.832 1118.23 115.216 1118.43C115.61 1118.63 115.92 1118.92 116.144 1119.3C116.368 1119.67 116.48 1120.15 116.48 1120.75C116.48 1121.45 116.32 1122.04 116 1122.53C115.68 1123.01 115.221 1123.38 114.624 1123.63C114.037 1123.88 113.333 1124 112.512 1124H108.496V1112.58H111.76ZM112.048 1117.44C113.029 1117.44 113.701 1117.29 114.064 1116.98C114.426 1116.66 114.608 1116.19 114.608 1115.57C114.608 1114.94 114.384 1114.49 113.936 1114.22C113.498 1113.95 112.794 1113.81 111.824 1113.81H109.936V1117.44H112.048ZM109.936 1118.64V1122.78H112.24C113.253 1122.78 113.957 1122.59 114.352 1122.19C114.746 1121.8 114.944 1121.28 114.944 1120.64C114.944 1120.23 114.853 1119.88 114.672 1119.58C114.501 1119.29 114.208 1119.06 113.792 1118.9C113.386 1118.73 112.832 1118.64 112.128 1118.64H109.936ZM122.222 1115.26C122.958 1115.26 123.587 1115.42 124.11 1115.74C124.643 1116.06 125.049 1116.52 125.326 1117.1C125.614 1117.68 125.758 1118.36 125.758 1119.14V1119.98H119.886C119.907 1120.95 120.153 1121.7 120.622 1122.21C121.102 1122.71 121.769 1122.96 122.622 1122.96C123.166 1122.96 123.646 1122.91 124.062 1122.82C124.489 1122.71 124.926 1122.56 125.374 1122.37V1123.6C124.937 1123.79 124.505 1123.93 124.078 1124.02C123.651 1124.11 123.145 1124.16 122.558 1124.16C121.747 1124.16 121.027 1123.99 120.398 1123.66C119.779 1123.33 119.294 1122.84 118.942 1122.19C118.601 1121.53 118.43 1120.73 118.43 1119.78C118.43 1118.84 118.585 1118.03 118.894 1117.36C119.214 1116.69 119.657 1116.17 120.222 1115.81C120.798 1115.45 121.465 1115.26 122.222 1115.26ZM122.206 1116.42C121.534 1116.42 121.001 1116.63 120.606 1117.07C120.222 1117.5 119.993 1118.1 119.918 1118.86H124.286C124.286 1118.37 124.211 1117.95 124.062 1117.58C123.913 1117.22 123.683 1116.94 123.374 1116.74C123.075 1116.52 122.686 1116.42 122.206 1116.42ZM132.221 1115.26C133.277 1115.26 134.125 1115.63 134.765 1116.37C135.416 1117.1 135.741 1118.21 135.741 1119.7C135.741 1120.67 135.592 1121.49 135.293 1122.16C135.005 1122.82 134.595 1123.32 134.061 1123.66C133.539 1123.99 132.92 1124.16 132.205 1124.16C131.768 1124.16 131.379 1124.1 131.037 1123.98C130.696 1123.87 130.403 1123.72 130.157 1123.54C129.923 1123.34 129.72 1123.14 129.549 1122.91H129.453C129.475 1123.09 129.496 1123.32 129.517 1123.6C129.539 1123.88 129.549 1124.12 129.549 1124.32V1127.84H128.141V1115.42H129.293L129.485 1116.59H129.549C129.72 1116.35 129.923 1116.12 130.157 1115.92C130.403 1115.72 130.691 1115.56 131.021 1115.44C131.363 1115.32 131.763 1115.26 132.221 1115.26ZM131.965 1116.45C131.389 1116.45 130.925 1116.56 130.573 1116.78C130.221 1117 129.965 1117.32 129.805 1117.76C129.645 1118.2 129.56 1118.75 129.549 1119.42V1119.7C129.549 1120.4 129.624 1121 129.773 1121.49C129.923 1121.98 130.173 1122.35 130.525 1122.61C130.888 1122.86 131.379 1122.99 131.997 1122.99C132.52 1122.99 132.947 1122.85 133.277 1122.56C133.619 1122.27 133.869 1121.88 134.029 1121.39C134.2 1120.89 134.285 1120.32 134.285 1119.68C134.285 1118.7 134.093 1117.91 133.709 1117.33C133.336 1116.74 132.755 1116.45 131.965 1116.45ZM139.593 1115.42V1118.99H144.249V1115.42H145.657V1124H144.249V1120.18H139.593V1124H138.185V1115.42H139.593ZM147.229 1115.42H148.733L150.589 1120.3C150.695 1120.59 150.791 1120.87 150.877 1121.14C150.973 1121.4 151.058 1121.66 151.133 1121.92C151.207 1122.17 151.266 1122.41 151.309 1122.64H151.373C151.437 1122.37 151.538 1122.03 151.677 1121.6C151.815 1121.16 151.959 1120.73 152.109 1120.29L153.853 1115.42H155.373L151.677 1125.18C151.474 1125.72 151.234 1126.18 150.957 1126.58C150.69 1126.98 150.359 1127.29 149.965 1127.5C149.581 1127.73 149.111 1127.84 148.557 1127.84C148.301 1127.84 148.077 1127.82 147.885 1127.79C147.693 1127.77 147.527 1127.74 147.389 1127.71V1126.59C147.506 1126.61 147.645 1126.63 147.805 1126.66C147.975 1126.68 148.151 1126.69 148.333 1126.69C148.663 1126.69 148.946 1126.62 149.181 1126.5C149.426 1126.38 149.634 1126.2 149.805 1125.97C149.975 1125.74 150.119 1125.48 150.237 1125.17L150.685 1124.03L147.229 1115.42ZM162.849 1116.61H160.049V1124H158.657V1116.61H155.889V1115.42H162.849V1116.61ZM168.69 1118.94C169.437 1118.94 170.055 1119.03 170.546 1119.22C171.037 1119.4 171.405 1119.67 171.65 1120.03C171.906 1120.38 172.034 1120.83 172.034 1121.38C172.034 1121.91 171.911 1122.37 171.666 1122.77C171.431 1123.16 171.063 1123.47 170.562 1123.68C170.061 1123.89 169.415 1124 168.626 1124H164.738V1115.42H166.146V1118.94H168.69ZM170.626 1121.46C170.626 1120.93 170.439 1120.58 170.066 1120.4C169.703 1120.21 169.191 1120.11 168.53 1120.11H166.146V1122.86H168.562C169.159 1122.86 169.65 1122.76 170.034 1122.54C170.429 1122.33 170.626 1121.97 170.626 1121.46ZM177.878 1124.16C177.121 1124.16 176.443 1124.01 175.846 1123.7C175.259 1123.39 174.795 1122.91 174.454 1122.26C174.123 1121.61 173.958 1120.77 173.958 1119.76C173.958 1118.7 174.134 1117.85 174.486 1117.18C174.838 1116.52 175.313 1116.04 175.91 1115.73C176.518 1115.42 177.206 1115.26 177.974 1115.26C178.411 1115.26 178.833 1115.31 179.238 1115.41C179.643 1115.49 179.974 1115.6 180.23 1115.73L179.798 1116.9C179.542 1116.8 179.243 1116.71 178.902 1116.62C178.561 1116.54 178.241 1116.5 177.942 1116.5C177.366 1116.5 176.891 1116.62 176.518 1116.86C176.145 1117.11 175.867 1117.47 175.686 1117.95C175.505 1118.43 175.414 1119.03 175.414 1119.74C175.414 1120.43 175.505 1121.01 175.686 1121.49C175.867 1121.97 176.139 1122.33 176.502 1122.58C176.865 1122.82 177.318 1122.94 177.862 1122.94C178.331 1122.94 178.742 1122.9 179.094 1122.8C179.457 1122.7 179.787 1122.59 180.086 1122.45V1123.7C179.798 1123.85 179.478 1123.96 179.126 1124.03C178.785 1124.12 178.369 1124.16 177.878 1124.16ZM182.854 1124H181.222L183.67 1120.4C183.339 1120.31 183.019 1120.18 182.71 1120C182.4 1119.81 182.15 1119.55 181.958 1119.22C181.766 1118.87 181.67 1118.45 181.67 1117.95C181.67 1117.13 181.947 1116.51 182.502 1116.08C183.056 1115.64 183.792 1115.42 184.71 1115.42H188.55V1124H187.142V1120.59H185.062L182.854 1124ZM183.03 1117.97C183.03 1118.46 183.211 1118.83 183.574 1119.07C183.947 1119.31 184.464 1119.42 185.126 1119.42H187.142V1116.59H184.854C184.203 1116.59 183.734 1116.72 183.446 1116.98C183.168 1117.23 183.03 1117.56 183.03 1117.97ZM198.274 1115.42V1118.99H202.93V1115.42H204.338V1124H202.93V1120.18H198.274V1124H196.866V1115.42H198.274ZM210.502 1115.28C211.547 1115.28 212.32 1115.51 212.822 1115.97C213.323 1116.43 213.574 1117.16 213.574 1118.16V1124H212.55L212.278 1122.78H212.214C211.968 1123.09 211.712 1123.35 211.446 1123.57C211.19 1123.77 210.891 1123.92 210.55 1124.02C210.219 1124.11 209.814 1124.16 209.334 1124.16C208.822 1124.16 208.358 1124.07 207.942 1123.89C207.536 1123.71 207.216 1123.43 206.982 1123.06C206.747 1122.67 206.63 1122.19 206.63 1121.62C206.63 1120.76 206.966 1120.11 207.638 1119.65C208.31 1119.18 209.344 1118.92 210.742 1118.88L212.198 1118.83V1118.32C212.198 1117.61 212.043 1117.11 211.734 1116.83C211.424 1116.55 210.987 1116.42 210.422 1116.42C209.974 1116.42 209.547 1116.49 209.142 1116.62C208.736 1116.75 208.358 1116.9 208.006 1117.07L207.574 1116.02C207.947 1115.81 208.39 1115.64 208.902 1115.5C209.414 1115.35 209.947 1115.28 210.502 1115.28ZM210.918 1119.86C209.851 1119.9 209.11 1120.07 208.694 1120.37C208.288 1120.67 208.086 1121.09 208.086 1121.63C208.086 1122.11 208.23 1122.46 208.518 1122.69C208.816 1122.91 209.195 1123.02 209.654 1123.02C210.379 1123.02 210.982 1122.83 211.462 1122.43C211.942 1122.03 212.182 1121.41 212.182 1120.58V1119.81L210.918 1119.86ZM218.679 1115.26C219.329 1115.26 219.895 1115.35 220.375 1115.54C220.855 1115.71 221.228 1115.96 221.495 1116.3C221.761 1116.63 221.895 1117.04 221.895 1117.52C221.895 1118.04 221.751 1118.46 221.463 1118.77C221.175 1119.07 220.78 1119.29 220.279 1119.42V1119.49C220.62 1119.58 220.935 1119.72 221.223 1119.89C221.511 1120.06 221.74 1120.28 221.911 1120.56C222.092 1120.84 222.183 1121.19 222.183 1121.63C222.183 1122.1 222.049 1122.53 221.783 1122.91C221.527 1123.3 221.127 1123.6 220.583 1123.82C220.049 1124.05 219.361 1124.16 218.519 1124.16C218.113 1124.16 217.724 1124.14 217.351 1124.1C216.988 1124.05 216.657 1123.99 216.359 1123.9C216.071 1123.82 215.815 1123.72 215.591 1123.6V1122.34C215.953 1122.51 216.38 1122.66 216.871 1122.8C217.372 1122.94 217.916 1123.01 218.503 1123.01C218.929 1123.01 219.313 1122.96 219.655 1122.86C220.007 1122.77 220.284 1122.62 220.487 1122.42C220.689 1122.2 220.791 1121.91 220.791 1121.55C220.791 1121.22 220.7 1120.95 220.519 1120.75C220.337 1120.54 220.065 1120.38 219.703 1120.27C219.351 1120.17 218.897 1120.11 218.343 1120.11H217.191V1118.96H218.119C218.855 1118.96 219.441 1118.86 219.879 1118.67C220.327 1118.47 220.551 1118.13 220.551 1117.65C220.551 1117.24 220.38 1116.94 220.039 1116.74C219.708 1116.53 219.228 1116.43 218.599 1116.43C218.129 1116.43 217.713 1116.48 217.351 1116.58C216.999 1116.66 216.609 1116.79 216.183 1116.98L215.687 1115.86C216.145 1115.65 216.625 1115.5 217.127 1115.41C217.628 1115.31 218.145 1115.26 218.679 1115.26ZM227.714 1115.28C228.76 1115.28 229.533 1115.51 230.034 1115.97C230.536 1116.43 230.786 1117.16 230.786 1118.16V1124H229.762L229.49 1122.78H229.426C229.181 1123.09 228.925 1123.35 228.658 1123.57C228.402 1123.77 228.104 1123.92 227.762 1124.02C227.432 1124.11 227.026 1124.16 226.546 1124.16C226.034 1124.16 225.57 1124.07 225.154 1123.89C224.749 1123.71 224.429 1123.43 224.194 1123.06C223.96 1122.67 223.842 1122.19 223.842 1121.62C223.842 1120.76 224.178 1120.11 224.85 1119.65C225.522 1119.18 226.557 1118.92 227.954 1118.88L229.41 1118.83V1118.32C229.41 1117.61 229.256 1117.11 228.946 1116.83C228.637 1116.55 228.2 1116.42 227.634 1116.42C227.186 1116.42 226.76 1116.49 226.354 1116.62C225.949 1116.75 225.57 1116.9 225.218 1117.07L224.786 1116.02C225.16 1115.81 225.602 1115.64 226.114 1115.5C226.626 1115.35 227.16 1115.28 227.714 1115.28ZM228.13 1119.86C227.064 1119.9 226.322 1120.07 225.906 1120.37C225.501 1120.67 225.298 1121.09 225.298 1121.63C225.298 1122.11 225.442 1122.46 225.73 1122.69C226.029 1122.91 226.408 1123.02 226.866 1123.02C227.592 1123.02 228.194 1122.83 228.674 1122.43C229.154 1122.03 229.394 1121.41 229.394 1120.58V1119.81L228.13 1119.86ZM240.003 1115.42V1122.82H241.251V1126.98H239.891V1124H233.923V1126.98H232.579V1122.82H233.267C233.758 1122.13 234.163 1121.39 234.483 1120.59C234.814 1119.78 235.059 1118.94 235.219 1118.06C235.39 1117.18 235.48 1116.3 235.491 1115.42H240.003ZM236.739 1116.53C236.696 1117.25 236.584 1118.01 236.403 1118.78C236.222 1119.55 235.987 1120.29 235.699 1120.99C235.422 1121.7 235.096 1122.3 234.723 1122.82H238.643V1116.53H236.739ZM257.735 1115.42V1124H256.471V1118.53C256.471 1118.3 256.476 1118.07 256.487 1117.82C256.508 1117.58 256.53 1117.34 256.551 1117.1H256.503L253.703 1124H252.519L249.799 1117.1H249.751C249.772 1117.34 249.783 1117.58 249.783 1117.82C249.794 1118.07 249.799 1118.32 249.799 1118.58V1124H248.535V1115.42H250.407L253.111 1122.32L255.863 1115.42H257.735ZM268.128 1119.7C268.128 1120.41 268.033 1121.05 267.841 1121.6C267.659 1122.14 267.393 1122.61 267.041 1122.99C266.699 1123.38 266.278 1123.67 265.777 1123.87C265.286 1124.06 264.737 1124.16 264.129 1124.16C263.563 1124.16 263.041 1124.06 262.561 1123.87C262.081 1123.67 261.665 1123.38 261.312 1122.99C260.961 1122.61 260.683 1122.14 260.481 1121.6C260.289 1121.05 260.193 1120.41 260.193 1119.7C260.193 1118.75 260.353 1117.95 260.673 1117.3C260.993 1116.63 261.451 1116.13 262.049 1115.79C262.646 1115.44 263.355 1115.26 264.177 1115.26C264.955 1115.26 265.638 1115.44 266.225 1115.79C266.822 1116.13 267.286 1116.63 267.617 1117.3C267.958 1117.95 268.128 1118.75 268.128 1119.7ZM261.649 1119.7C261.649 1120.37 261.734 1120.95 261.905 1121.46C262.086 1121.95 262.363 1122.33 262.737 1122.59C263.11 1122.86 263.585 1122.99 264.161 1122.99C264.737 1122.99 265.211 1122.86 265.585 1122.59C265.958 1122.33 266.23 1121.95 266.401 1121.46C266.582 1120.95 266.673 1120.37 266.673 1119.7C266.673 1119.01 266.582 1118.43 266.401 1117.95C266.219 1117.47 265.942 1117.1 265.569 1116.85C265.206 1116.58 264.731 1116.45 264.145 1116.45C263.27 1116.45 262.635 1116.74 262.241 1117.31C261.846 1117.89 261.649 1118.68 261.649 1119.7ZM280.536 1115.42L277 1119.58L280.84 1124H279.24L275.528 1119.65V1124H274.216V1119.65L270.504 1124H268.904L272.744 1119.58L269.208 1115.42H270.744L274.216 1119.58V1115.42H275.528V1119.58L279.016 1115.42H280.536ZM283.856 1115.42V1118.99H288.512V1115.42H289.92V1124H288.512V1120.18H283.856V1124H282.448V1115.42H283.856ZM300.291 1119.7C300.291 1120.41 300.195 1121.05 300.003 1121.6C299.822 1122.14 299.555 1122.61 299.203 1122.99C298.862 1123.38 298.44 1123.67 297.939 1123.87C297.448 1124.06 296.899 1124.16 296.291 1124.16C295.726 1124.16 295.203 1124.06 294.723 1123.87C294.243 1123.67 293.827 1123.38 293.475 1122.99C293.123 1122.61 292.846 1122.14 292.643 1121.6C292.451 1121.05 292.355 1120.41 292.355 1119.7C292.355 1118.75 292.515 1117.95 292.835 1117.3C293.155 1116.63 293.614 1116.13 294.211 1115.79C294.808 1115.44 295.518 1115.26 296.339 1115.26C297.118 1115.26 297.8 1115.44 298.387 1115.79C298.984 1116.13 299.448 1116.63 299.779 1117.3C300.12 1117.95 300.291 1118.75 300.291 1119.7ZM293.811 1119.7C293.811 1120.37 293.896 1120.95 294.067 1121.46C294.248 1121.95 294.526 1122.33 294.899 1122.59C295.272 1122.86 295.747 1122.99 296.323 1122.99C296.899 1122.99 297.374 1122.86 297.747 1122.59C298.12 1122.33 298.392 1121.95 298.563 1121.46C298.744 1120.95 298.835 1120.37 298.835 1119.7C298.835 1119.01 298.744 1118.43 298.563 1117.95C298.382 1117.47 298.104 1117.1 297.731 1116.85C297.368 1116.58 296.894 1116.45 296.307 1116.45C295.432 1116.45 294.798 1116.74 294.403 1117.31C294.008 1117.89 293.811 1118.68 293.811 1119.7ZM303.539 1121.84C303.837 1121.84 304.083 1121.91 304.275 1122.06C304.477 1122.2 304.632 1122.4 304.739 1122.66C304.845 1122.9 304.899 1123.18 304.899 1123.5C304.899 1123.9 304.824 1124.28 304.675 1124.64C304.525 1125.01 304.307 1125.35 304.019 1125.65C303.741 1125.96 303.405 1126.21 303.011 1126.4L302.211 1125.71C302.499 1125.61 302.755 1125.47 302.979 1125.3C303.203 1125.13 303.389 1124.93 303.539 1124.72C303.699 1124.51 303.811 1124.29 303.875 1124.06L303.811 1124.03C303.757 1124.06 303.693 1124.09 303.619 1124.11C303.555 1124.13 303.459 1124.14 303.331 1124.14C303.181 1124.14 303.027 1124.1 302.867 1124.02C302.717 1123.94 302.589 1123.82 302.483 1123.66C302.376 1123.5 302.323 1123.3 302.323 1123.04C302.323 1122.81 302.376 1122.6 302.483 1122.42C302.6 1122.23 302.749 1122.1 302.931 1122C303.112 1121.89 303.315 1121.84 303.539 1121.84ZM314.109 1115.42V1118.99H318.765V1115.42H320.173V1124H318.765V1120.18H314.109V1124H312.701V1115.42H314.109ZM326.336 1115.28C327.381 1115.28 328.155 1115.51 328.656 1115.97C329.157 1116.43 329.408 1117.16 329.408 1118.16V1124H328.384L328.112 1122.78H328.048C327.803 1123.09 327.547 1123.35 327.28 1123.57C327.024 1123.77 326.725 1123.92 326.384 1124.02C326.053 1124.11 325.648 1124.16 325.168 1124.16C324.656 1124.16 324.192 1124.07 323.776 1123.89C323.371 1123.71 323.051 1123.43 322.816 1123.06C322.581 1122.67 322.464 1122.19 322.464 1121.62C322.464 1120.76 322.8 1120.11 323.472 1119.65C324.144 1119.18 325.179 1118.92 326.576 1118.88L328.032 1118.83V1118.32C328.032 1117.61 327.877 1117.11 327.568 1116.83C327.259 1116.55 326.821 1116.42 326.256 1116.42C325.808 1116.42 325.381 1116.49 324.976 1116.62C324.571 1116.75 324.192 1116.9 323.84 1117.07L323.408 1116.02C323.781 1115.81 324.224 1115.64 324.736 1115.5C325.248 1115.35 325.781 1115.28 326.336 1115.28ZM326.752 1119.86C325.685 1119.9 324.944 1120.07 324.528 1120.37C324.123 1120.67 323.92 1121.09 323.92 1121.63C323.92 1122.11 324.064 1122.46 324.352 1122.69C324.651 1122.91 325.029 1123.02 325.488 1123.02C326.213 1123.02 326.816 1122.83 327.296 1122.43C327.776 1122.03 328.016 1121.41 328.016 1120.58V1119.81L326.752 1119.86ZM342.545 1115.42L339.009 1119.58L342.849 1124H341.249L337.537 1119.65V1124H336.225V1119.65L332.513 1124H330.913L334.753 1119.58L331.217 1115.42H332.753L336.225 1119.58V1115.42H337.537V1119.58L341.025 1115.42H342.545ZM347.705 1115.28C348.75 1115.28 349.524 1115.51 350.025 1115.97C350.526 1116.43 350.777 1117.16 350.777 1118.16V1124H349.753L349.481 1122.78H349.417C349.172 1123.09 348.916 1123.35 348.649 1123.57C348.393 1123.77 348.094 1123.92 347.753 1124.02C347.422 1124.11 347.017 1124.16 346.537 1124.16C346.025 1124.16 345.561 1124.07 345.145 1123.89C344.74 1123.71 344.42 1123.43 344.185 1123.06C343.95 1122.67 343.833 1122.19 343.833 1121.62C343.833 1120.76 344.169 1120.11 344.841 1119.65C345.513 1119.18 346.548 1118.92 347.945 1118.88L349.401 1118.83V1118.32C349.401 1117.61 349.246 1117.11 348.937 1116.83C348.628 1116.55 348.19 1116.42 347.625 1116.42C347.177 1116.42 346.75 1116.49 346.345 1116.62C345.94 1116.75 345.561 1116.9 345.209 1117.07L344.777 1116.02C345.15 1115.81 345.593 1115.64 346.105 1115.5C346.617 1115.35 347.15 1115.28 347.705 1115.28ZM348.121 1119.86C347.054 1119.9 346.313 1120.07 345.897 1120.37C345.492 1120.67 345.289 1121.09 345.289 1121.63C345.289 1122.11 345.433 1122.46 345.721 1122.69C346.02 1122.91 346.398 1123.02 346.857 1123.02C347.582 1123.02 348.185 1122.83 348.665 1122.43C349.145 1122.03 349.385 1121.41 349.385 1120.58V1119.81L348.121 1119.86ZM360.522 1117.58C360.522 1118.12 360.362 1118.53 360.042 1118.83C359.722 1119.13 359.311 1119.33 358.81 1119.44V1119.5C359.343 1119.58 359.807 1119.77 360.202 1120.08C360.596 1120.38 360.794 1120.85 360.794 1121.49C360.794 1121.85 360.724 1122.19 360.586 1122.5C360.458 1122.81 360.255 1123.07 359.978 1123.3C359.7 1123.52 359.343 1123.7 358.906 1123.82C358.468 1123.94 357.94 1124 357.322 1124H353.626V1115.42H357.306C357.914 1115.42 358.458 1115.49 358.938 1115.63C359.428 1115.76 359.812 1115.98 360.09 1116.3C360.378 1116.61 360.522 1117.04 360.522 1117.58ZM359.338 1121.49C359.338 1121 359.151 1120.65 358.778 1120.43C358.404 1120.22 357.855 1120.11 357.13 1120.11H355.034V1122.86H357.162C357.866 1122.86 358.404 1122.76 358.778 1122.56C359.151 1122.35 359.338 1121.99 359.338 1121.49ZM359.098 1117.76C359.098 1117.35 358.948 1117.06 358.65 1116.88C358.362 1116.69 357.887 1116.59 357.226 1116.59H355.034V1118.94H356.97C357.663 1118.94 358.191 1118.85 358.554 1118.66C358.916 1118.46 359.098 1118.17 359.098 1117.76ZM369.855 1115.42V1118.99H374.511V1115.42H375.919V1124H374.511V1120.18H369.855V1124H368.447V1115.42H369.855ZM382.083 1115.28C383.128 1115.28 383.902 1115.51 384.403 1115.97C384.904 1116.43 385.155 1117.16 385.155 1118.16V1124H384.131L383.859 1122.78H383.795C383.55 1123.09 383.294 1123.35 383.027 1123.57C382.771 1123.77 382.472 1123.92 382.131 1124.02C381.8 1124.11 381.395 1124.16 380.915 1124.16C380.403 1124.16 379.939 1124.07 379.523 1123.89C379.118 1123.71 378.798 1123.43 378.563 1123.06C378.328 1122.67 378.211 1122.19 378.211 1121.62C378.211 1120.76 378.547 1120.11 379.219 1119.65C379.891 1119.18 380.926 1118.92 382.323 1118.88L383.779 1118.83V1118.32C383.779 1117.61 383.624 1117.11 383.315 1116.83C383.006 1116.55 382.568 1116.42 382.003 1116.42C381.555 1116.42 381.128 1116.49 380.723 1116.62C380.318 1116.75 379.939 1116.9 379.587 1117.07L379.155 1116.02C379.528 1115.81 379.971 1115.64 380.483 1115.5C380.995 1115.35 381.528 1115.28 382.083 1115.28ZM382.499 1119.86C381.432 1119.9 380.691 1120.07 380.275 1120.37C379.87 1120.67 379.667 1121.09 379.667 1121.63C379.667 1122.11 379.811 1122.46 380.099 1122.69C380.398 1122.91 380.776 1123.02 381.235 1123.02C381.96 1123.02 382.563 1122.83 383.043 1122.43C383.523 1122.03 383.763 1121.41 383.763 1120.58V1119.81L382.499 1119.86ZM398.479 1115.42H400.015L396.351 1119.55L400.319 1124H398.687L394.815 1119.65V1124H393.407V1115.42H394.815V1119.58L398.479 1115.42ZM403.484 1115.42V1118.99H408.14V1115.42H409.548V1124H408.14V1120.18H403.484V1124H402.076V1115.42H403.484ZM419.919 1119.7C419.919 1120.41 419.823 1121.05 419.631 1121.6C419.45 1122.14 419.183 1122.61 418.831 1122.99C418.49 1123.38 418.068 1123.67 417.567 1123.87C417.076 1124.06 416.527 1124.16 415.919 1124.16C415.354 1124.16 414.831 1124.06 414.351 1123.87C413.871 1123.67 413.455 1123.38 413.103 1122.99C412.751 1122.61 412.474 1122.14 412.271 1121.6C412.079 1121.05 411.983 1120.41 411.983 1119.7C411.983 1118.75 412.143 1117.95 412.463 1117.3C412.783 1116.63 413.242 1116.13 413.839 1115.79C414.436 1115.44 415.146 1115.26 415.967 1115.26C416.746 1115.26 417.428 1115.44 418.015 1115.79C418.612 1116.13 419.076 1116.63 419.407 1117.3C419.748 1117.95 419.919 1118.75 419.919 1119.7ZM413.439 1119.7C413.439 1120.37 413.524 1120.95 413.695 1121.46C413.876 1121.95 414.154 1122.33 414.527 1122.59C414.9 1122.86 415.375 1122.99 415.951 1122.99C416.527 1122.99 417.002 1122.86 417.375 1122.59C417.748 1122.33 418.02 1121.95 418.191 1121.46C418.372 1120.95 418.463 1120.37 418.463 1119.7C418.463 1119.01 418.372 1118.43 418.191 1117.95C418.01 1117.47 417.732 1117.1 417.359 1116.85C416.996 1116.58 416.522 1116.45 415.935 1116.45C415.06 1116.45 414.426 1116.74 414.031 1117.31C413.636 1117.89 413.439 1118.68 413.439 1119.7ZM429.599 1115.42V1124H428.191V1116.62H423.759V1124H422.351V1115.42H429.599ZM437.607 1115.42H439.143L435.479 1119.55L439.447 1124H437.815L433.943 1119.65V1124H432.535V1115.42H433.943V1119.58L437.607 1115.42ZM439.86 1115.42H441.364L443.22 1120.3C443.326 1120.59 443.422 1120.87 443.508 1121.14C443.604 1121.4 443.689 1121.66 443.764 1121.92C443.838 1122.17 443.897 1122.41 443.94 1122.64H444.004C444.068 1122.37 444.169 1122.03 444.308 1121.6C444.446 1121.16 444.59 1120.73 444.74 1120.29L446.484 1115.42H448.004L444.308 1125.18C444.105 1125.72 443.865 1126.18 443.588 1126.58C443.321 1126.98 442.99 1127.29 442.596 1127.5C442.212 1127.73 441.742 1127.84 441.188 1127.84C440.932 1127.84 440.708 1127.82 440.516 1127.79C440.324 1127.77 440.158 1127.74 440.02 1127.71V1126.59C440.137 1126.61 440.276 1126.63 440.436 1126.66C440.606 1126.68 440.782 1126.69 440.964 1126.69C441.294 1126.69 441.577 1126.62 441.812 1126.5C442.057 1126.38 442.265 1126.2 442.436 1125.97C442.606 1125.74 442.75 1125.48 442.868 1125.17L443.316 1124.03L439.86 1115.42ZM462.419 1119.7C462.419 1120.41 462.323 1121.05 462.131 1121.6C461.95 1122.14 461.683 1122.61 461.331 1122.99C460.99 1123.38 460.568 1123.67 460.067 1123.87C459.576 1124.06 459.027 1124.16 458.419 1124.16C457.854 1124.16 457.331 1124.06 456.851 1123.87C456.371 1123.67 455.955 1123.38 455.603 1122.99C455.251 1122.61 454.974 1122.14 454.771 1121.6C454.579 1121.05 454.483 1120.41 454.483 1119.7C454.483 1118.75 454.643 1117.95 454.963 1117.3C455.283 1116.63 455.742 1116.13 456.339 1115.79C456.936 1115.44 457.646 1115.26 458.467 1115.26C459.246 1115.26 459.928 1115.44 460.515 1115.79C461.112 1116.13 461.576 1116.63 461.907 1117.3C462.248 1117.95 462.419 1118.75 462.419 1119.7ZM455.939 1119.7C455.939 1120.37 456.024 1120.95 456.195 1121.46C456.376 1121.95 456.654 1122.33 457.027 1122.59C457.4 1122.86 457.875 1122.99 458.451 1122.99C459.027 1122.99 459.502 1122.86 459.875 1122.59C460.248 1122.33 460.52 1121.95 460.691 1121.46C460.872 1120.95 460.963 1120.37 460.963 1119.7C460.963 1119.01 460.872 1118.43 460.691 1117.95C460.51 1117.47 460.232 1117.1 459.859 1116.85C459.496 1116.58 459.022 1116.45 458.435 1116.45C457.56 1116.45 456.926 1116.74 456.531 1117.31C456.136 1117.89 455.939 1118.68 455.939 1119.7ZM470.614 1116.61H467.814V1124H466.422V1116.61H463.654V1115.42H470.614V1116.61ZM481.704 1115.42V1124H480.44V1118.53C480.44 1118.3 480.445 1118.07 480.456 1117.82C480.477 1117.58 480.498 1117.34 480.52 1117.1H480.472L477.672 1124H476.488L473.768 1117.1H473.72C473.741 1117.34 473.752 1117.58 473.752 1117.82C473.762 1118.07 473.768 1118.32 473.768 1118.58V1124H472.504V1115.42H474.376L477.08 1122.32L479.832 1115.42H481.704ZM487.953 1115.26C488.689 1115.26 489.319 1115.42 489.841 1115.74C490.375 1116.06 490.78 1116.52 491.057 1117.1C491.345 1117.68 491.489 1118.36 491.489 1119.14V1119.98H485.617C485.639 1120.95 485.884 1121.7 486.353 1122.21C486.833 1122.71 487.5 1122.96 488.353 1122.96C488.897 1122.96 489.377 1122.91 489.793 1122.82C490.22 1122.71 490.657 1122.56 491.105 1122.37V1123.6C490.668 1123.79 490.236 1123.93 489.809 1124.02C489.383 1124.11 488.876 1124.16 488.289 1124.16C487.479 1124.16 486.759 1123.99 486.129 1123.66C485.511 1123.33 485.025 1122.84 484.673 1122.19C484.332 1121.53 484.161 1120.73 484.161 1119.78C484.161 1118.84 484.316 1118.03 484.625 1117.36C484.945 1116.69 485.388 1116.17 485.953 1115.81C486.529 1115.45 487.196 1115.26 487.953 1115.26ZM487.937 1116.42C487.265 1116.42 486.732 1116.63 486.337 1117.07C485.953 1117.5 485.724 1118.1 485.649 1118.86H490.017C490.017 1118.37 489.943 1117.95 489.793 1117.58C489.644 1117.22 489.415 1116.94 489.105 1116.74C488.807 1116.52 488.417 1116.42 487.937 1116.42ZM495.281 1115.42V1118.99H499.937V1115.42H501.345V1124H499.937V1120.18H495.281V1124H493.873V1115.42H495.281ZM504.26 1124V1115.42H505.668V1118.94H507.892C508.639 1118.94 509.252 1119.03 509.732 1119.22C510.212 1119.4 510.569 1119.67 510.804 1120.03C511.039 1120.38 511.156 1120.83 511.156 1121.38C511.156 1121.91 511.039 1122.37 510.804 1122.77C510.58 1123.16 510.223 1123.47 509.732 1123.68C509.252 1123.89 508.617 1124 507.828 1124H504.26ZM507.7 1122.86C508.308 1122.86 508.804 1122.76 509.188 1122.56C509.572 1122.35 509.764 1121.98 509.764 1121.46C509.764 1120.93 509.588 1120.58 509.236 1120.4C508.884 1120.21 508.377 1120.11 507.716 1120.11H505.668V1122.86H507.7ZM512.58 1124V1115.42H513.988V1124H512.58ZM523.724 1115.42V1118.99H528.38V1115.42H529.788V1124H528.38V1120.18H523.724V1124H522.316V1115.42H523.724ZM535.952 1115.28C536.997 1115.28 537.77 1115.51 538.272 1115.97C538.773 1116.43 539.024 1117.16 539.024 1118.16V1124H538L537.728 1122.78H537.664C537.418 1123.09 537.162 1123.35 536.896 1123.57C536.64 1123.77 536.341 1123.92 536 1124.02C535.669 1124.11 535.264 1124.16 534.784 1124.16C534.272 1124.16 533.808 1124.07 533.392 1123.89C532.986 1123.71 532.666 1123.43 532.432 1123.06C532.197 1122.67 532.08 1122.19 532.08 1121.62C532.08 1120.76 532.416 1120.11 533.088 1119.65C533.76 1119.18 534.794 1118.92 536.192 1118.88L537.648 1118.83V1118.32C537.648 1117.61 537.493 1117.11 537.184 1116.83C536.874 1116.55 536.437 1116.42 535.872 1116.42C535.424 1116.42 534.997 1116.49 534.592 1116.62C534.186 1116.75 533.808 1116.9 533.456 1117.07L533.024 1116.02C533.397 1115.81 533.84 1115.64 534.352 1115.5C534.864 1115.35 535.397 1115.28 535.952 1115.28ZM536.368 1119.86C535.301 1119.9 534.56 1120.07 534.144 1120.37C533.738 1120.67 533.536 1121.09 533.536 1121.63C533.536 1122.11 533.68 1122.46 533.968 1122.69C534.266 1122.91 534.645 1123.02 535.104 1123.02C535.829 1123.02 536.432 1122.83 536.912 1122.43C537.392 1122.03 537.632 1121.41 537.632 1120.58V1119.81L536.368 1119.86ZM553.196 1116.61H550.396V1124H549.004V1116.61H546.236V1115.42H553.196V1116.61ZM558.241 1115.26C558.977 1115.26 559.606 1115.42 560.129 1115.74C560.662 1116.06 561.067 1116.52 561.345 1117.1C561.633 1117.68 561.777 1118.36 561.777 1119.14V1119.98H555.905C555.926 1120.95 556.171 1121.7 556.641 1122.21C557.121 1122.71 557.787 1122.96 558.641 1122.96C559.185 1122.96 559.665 1122.91 560.081 1122.82C560.507 1122.71 560.945 1122.56 561.393 1122.37V1123.6C560.955 1123.79 560.523 1123.93 560.097 1124.02C559.67 1124.11 559.163 1124.16 558.577 1124.16C557.766 1124.16 557.046 1123.99 556.417 1123.66C555.798 1123.33 555.313 1122.84 554.961 1122.19C554.619 1121.53 554.449 1120.73 554.449 1119.78C554.449 1118.84 554.603 1118.03 554.913 1117.36C555.233 1116.69 555.675 1116.17 556.241 1115.81C556.817 1115.45 557.483 1115.26 558.241 1115.26ZM558.225 1116.42C557.553 1116.42 557.019 1116.63 556.625 1117.07C556.241 1117.5 556.011 1118.1 555.937 1118.86H560.305C560.305 1118.37 560.23 1117.95 560.081 1117.58C559.931 1117.22 559.702 1116.94 559.393 1116.74C559.094 1116.52 558.705 1116.42 558.225 1116.42ZM568.24 1115.26C569.296 1115.26 570.144 1115.63 570.784 1116.37C571.435 1117.1 571.76 1118.21 571.76 1119.7C571.76 1120.67 571.611 1121.49 571.312 1122.16C571.024 1122.82 570.613 1123.32 570.08 1123.66C569.557 1123.99 568.939 1124.16 568.224 1124.16C567.787 1124.16 567.397 1124.1 567.056 1123.98C566.715 1123.87 566.421 1123.72 566.176 1123.54C565.941 1123.34 565.739 1123.14 565.568 1122.91H565.472C565.493 1123.09 565.515 1123.32 565.536 1123.6C565.557 1123.88 565.568 1124.12 565.568 1124.32V1127.84H564.16V1115.42H565.312L565.504 1116.59H565.568C565.739 1116.35 565.941 1116.12 566.176 1115.92C566.421 1115.72 566.709 1115.56 567.04 1115.44C567.381 1115.32 567.781 1115.26 568.24 1115.26ZM567.984 1116.45C567.408 1116.45 566.944 1116.56 566.592 1116.78C566.24 1117 565.984 1117.32 565.824 1117.76C565.664 1118.2 565.579 1118.75 565.568 1119.42V1119.7C565.568 1120.4 565.643 1121 565.792 1121.49C565.941 1121.98 566.192 1122.35 566.544 1122.61C566.907 1122.86 567.397 1122.99 568.016 1122.99C568.539 1122.99 568.965 1122.85 569.296 1122.56C569.637 1122.27 569.888 1121.88 570.048 1121.39C570.219 1120.89 570.304 1120.32 570.304 1119.68C570.304 1118.7 570.112 1117.91 569.728 1117.33C569.355 1116.74 568.773 1116.45 567.984 1116.45ZM583.404 1115.42V1124H582.14V1118.53C582.14 1118.3 582.145 1118.07 582.156 1117.82C582.177 1117.58 582.198 1117.34 582.22 1117.1H582.172L579.372 1124H578.188L575.468 1117.1H575.42C575.441 1117.34 575.452 1117.58 575.452 1117.82C575.462 1118.07 575.468 1118.32 575.468 1118.58V1124H574.204V1115.42H576.076L578.78 1122.32L581.532 1115.42H583.404ZM587.669 1120.66C587.669 1120.75 587.664 1120.89 587.653 1121.07C587.653 1121.24 587.648 1121.43 587.637 1121.63C587.627 1121.82 587.616 1122.01 587.605 1122.19C587.595 1122.36 587.584 1122.5 587.573 1122.61L592.165 1115.42H593.893V1124H592.581V1118.94C592.581 1118.77 592.581 1118.55 592.581 1118.27C592.592 1117.99 592.603 1117.72 592.613 1117.46C592.624 1117.18 592.635 1116.97 592.645 1116.83L588.085 1124H586.341V1115.42H587.669V1120.66ZM598.23 1115.42V1118.99H602.886V1115.42H604.294V1124H602.886V1120.18H598.23V1124H596.822V1115.42H598.23ZM610.458 1115.28C611.503 1115.28 612.277 1115.51 612.778 1115.97C613.279 1116.43 613.53 1117.16 613.53 1118.16V1124H612.506L612.234 1122.78H612.17C611.925 1123.09 611.669 1123.35 611.402 1123.57C611.146 1123.77 610.847 1123.92 610.506 1124.02C610.175 1124.11 609.77 1124.16 609.29 1124.16C608.778 1124.16 608.314 1124.07 607.898 1123.89C607.493 1123.71 607.173 1123.43 606.938 1123.06C606.703 1122.67 606.586 1122.19 606.586 1121.62C606.586 1120.76 606.922 1120.11 607.594 1119.65C608.266 1119.18 609.301 1118.92 610.698 1118.88L612.154 1118.83V1118.32C612.154 1117.61 611.999 1117.11 611.69 1116.83C611.381 1116.55 610.943 1116.42 610.378 1116.42C609.93 1116.42 609.503 1116.49 609.098 1116.62C608.693 1116.75 608.314 1116.9 607.962 1117.07L607.53 1116.02C607.903 1115.81 608.346 1115.64 608.858 1115.5C609.37 1115.35 609.903 1115.28 610.458 1115.28ZM610.874 1119.86C609.807 1119.9 609.066 1120.07 608.65 1120.37C608.245 1120.67 608.042 1121.09 608.042 1121.63C608.042 1122.11 608.186 1122.46 608.474 1122.69C608.773 1122.91 609.151 1123.02 609.61 1123.02C610.335 1123.02 610.938 1122.83 611.418 1122.43C611.898 1122.03 612.138 1121.41 612.138 1120.58V1119.81L610.874 1119.86ZM622.907 1124H621.483V1116.59H618.955C618.848 1117.95 618.715 1119.1 618.555 1120.06C618.395 1121.01 618.192 1121.79 617.947 1122.38C617.701 1122.98 617.408 1123.42 617.067 1123.7C616.725 1123.97 616.325 1124.11 615.867 1124.11C615.728 1124.11 615.589 1124.1 615.451 1124.08C615.323 1124.07 615.216 1124.04 615.131 1124V1122.94C615.195 1122.97 615.264 1122.98 615.339 1122.99C615.413 1123 615.488 1123.01 615.563 1123.01C615.797 1123.01 616.011 1122.91 616.203 1122.72C616.395 1122.53 616.565 1122.23 616.715 1121.84C616.875 1121.45 617.019 1120.95 617.147 1120.35C617.275 1119.74 617.387 1119.03 617.483 1118.21C617.579 1117.39 617.664 1116.46 617.739 1115.42H622.907V1124ZM629.141 1115.26C629.877 1115.26 630.506 1115.42 631.029 1115.74C631.562 1116.06 631.967 1116.52 632.245 1117.1C632.533 1117.68 632.677 1118.36 632.677 1119.14V1119.98H626.805C626.826 1120.95 627.071 1121.7 627.541 1122.21C628.021 1122.71 628.687 1122.96 629.541 1122.96C630.085 1122.96 630.565 1122.91 630.981 1122.82C631.407 1122.71 631.845 1122.56 632.293 1122.37V1123.6C631.855 1123.79 631.423 1123.93 630.997 1124.02C630.57 1124.11 630.063 1124.16 629.477 1124.16C628.666 1124.16 627.946 1123.99 627.317 1123.66C626.698 1123.33 626.213 1122.84 625.861 1122.19C625.519 1121.53 625.349 1120.73 625.349 1119.78C625.349 1118.84 625.503 1118.03 625.813 1117.36C626.133 1116.69 626.575 1116.17 627.141 1115.81C627.717 1115.45 628.383 1115.26 629.141 1115.26ZM629.125 1116.42C628.453 1116.42 627.919 1116.63 627.525 1117.07C627.141 1117.5 626.911 1118.1 626.837 1118.86H631.205C631.205 1118.37 631.13 1117.95 630.981 1117.58C630.831 1117.22 630.602 1116.94 630.293 1116.74C629.994 1116.52 629.605 1116.42 629.125 1116.42ZM647.919 1119.7C647.919 1120.41 647.823 1121.05 647.631 1121.6C647.45 1122.14 647.183 1122.61 646.831 1122.99C646.49 1123.38 646.068 1123.67 645.567 1123.87C645.076 1124.06 644.527 1124.16 643.919 1124.16C643.354 1124.16 642.831 1124.06 642.351 1123.87C641.871 1123.67 641.455 1123.38 641.103 1122.99C640.751 1122.61 640.474 1122.14 640.271 1121.6C640.079 1121.05 639.983 1120.41 639.983 1119.7C639.983 1118.75 640.143 1117.95 640.463 1117.3C640.783 1116.63 641.242 1116.13 641.839 1115.79C642.436 1115.44 643.146 1115.26 643.967 1115.26C644.746 1115.26 645.428 1115.44 646.015 1115.79C646.612 1116.13 647.076 1116.63 647.407 1117.3C647.748 1117.95 647.919 1118.75 647.919 1119.7ZM641.439 1119.7C641.439 1120.37 641.524 1120.95 641.695 1121.46C641.876 1121.95 642.154 1122.33 642.527 1122.59C642.9 1122.86 643.375 1122.99 643.951 1122.99C644.527 1122.99 645.002 1122.86 645.375 1122.59C645.748 1122.33 646.02 1121.95 646.191 1121.46C646.372 1120.95 646.463 1120.37 646.463 1119.7C646.463 1119.01 646.372 1118.43 646.191 1117.95C646.01 1117.47 645.732 1117.1 645.359 1116.85C644.996 1116.58 644.522 1116.45 643.935 1116.45C643.06 1116.45 642.426 1116.74 642.031 1117.31C641.636 1117.89 641.439 1118.68 641.439 1119.7ZM657.599 1115.42V1124H656.191V1116.62H651.759V1124H650.351V1115.42H657.599ZM667.063 1124H665.639V1116.59H663.111C663.004 1117.95 662.871 1119.1 662.711 1120.06C662.551 1121.01 662.348 1121.79 662.103 1122.38C661.858 1122.98 661.564 1123.42 661.223 1123.7C660.882 1123.97 660.482 1124.11 660.023 1124.11C659.884 1124.11 659.746 1124.1 659.607 1124.08C659.479 1124.07 659.372 1124.04 659.287 1124V1122.94C659.351 1122.97 659.42 1122.98 659.495 1122.99C659.57 1123 659.644 1123.01 659.719 1123.01C659.954 1123.01 660.167 1122.91 660.359 1122.72C660.551 1122.53 660.722 1122.23 660.871 1121.84C661.031 1121.45 661.175 1120.95 661.303 1120.35C661.431 1119.74 661.543 1119.03 661.639 1118.21C661.735 1117.39 661.82 1116.46 661.895 1115.42H667.063V1124ZM673.233 1115.28C674.278 1115.28 675.052 1115.51 675.553 1115.97C676.054 1116.43 676.305 1117.16 676.305 1118.16V1124H675.281L675.009 1122.78H674.945C674.7 1123.09 674.444 1123.35 674.177 1123.57C673.921 1123.77 673.622 1123.92 673.281 1124.02C672.95 1124.11 672.545 1124.16 672.065 1124.16C671.553 1124.16 671.089 1124.07 670.673 1123.89C670.268 1123.71 669.948 1123.43 669.713 1123.06C669.478 1122.67 669.361 1122.19 669.361 1121.62C669.361 1120.76 669.697 1120.11 670.369 1119.65C671.041 1119.18 672.076 1118.92 673.473 1118.88L674.929 1118.83V1118.32C674.929 1117.61 674.774 1117.11 674.465 1116.83C674.156 1116.55 673.718 1116.42 673.153 1116.42C672.705 1116.42 672.278 1116.49 671.873 1116.62C671.468 1116.75 671.089 1116.9 670.737 1117.07L670.305 1116.02C670.678 1115.81 671.121 1115.64 671.633 1115.5C672.145 1115.35 672.678 1115.28 673.233 1115.28ZM673.649 1119.86C672.582 1119.9 671.841 1120.07 671.425 1120.37C671.02 1120.67 670.817 1121.09 670.817 1121.63C670.817 1122.11 670.961 1122.46 671.249 1122.69C671.548 1122.91 671.926 1123.02 672.385 1123.02C673.11 1123.02 673.713 1122.83 674.193 1122.43C674.673 1122.03 674.913 1121.41 674.913 1120.58V1119.81L673.649 1119.86ZM685.074 1116.61H682.274V1124H680.882V1116.61H678.114V1115.42H685.074V1116.61ZM686.963 1124V1115.42H688.371V1118.94H690.595C691.342 1118.94 691.955 1119.03 692.435 1119.22C692.915 1119.4 693.272 1119.67 693.507 1120.03C693.742 1120.38 693.859 1120.83 693.859 1121.38C693.859 1121.91 693.742 1122.37 693.507 1122.77C693.283 1123.16 692.926 1123.47 692.435 1123.68C691.955 1123.89 691.32 1124 690.531 1124H686.963ZM690.403 1122.86C691.011 1122.86 691.507 1122.76 691.891 1122.56C692.275 1122.35 692.467 1121.98 692.467 1121.46C692.467 1120.93 692.291 1120.58 691.939 1120.4C691.587 1120.21 691.08 1120.11 690.419 1120.11H688.371V1122.86H690.403ZM695.283 1124V1115.42H696.691V1124H695.283Z" fill="#19191B"/>
</g>
<defs>
<clipPath id="clip0_232_1773">
<rect width="448" height="96" fill="white" transform="translate(192 124)"/>
</clipPath>
<clipPath id="clip1_232_1773">
<rect width="294" height="36" fill="white" transform="translate(80 880)"/>
</clipPath>
<clipPath id="clip2_232_1773">
<rect width="294" height="36" fill="white" transform="translate(457 872)"/>
</clipPath>
<clipPath id="clip3_232_1773">
<rect width="623" height="24" fill="white" transform="translate(91 1107)"/>
</clipPath>
</defs>
</svg>
