<svg width="834" height="1194" viewBox="0 0 834 1194" fill="none" xmlns="http://www.w3.org/2000/svg">
<rect x="0.5" y="0.5" width="833" height="1193" fill="white"/>
<rect x="0.5" y="0.5" width="833" height="1193" stroke="black"/>
<rect x="48.5" y="279.5" width="729" height="437" rx="9.5" stroke="#AFB1B6"/>
<g clip-path="url(#clip0_227_810)">
<path d="M232.448 399.728C235.296 399.728 237.68 400 239.6 400.544C241.552 401.088 243.008 401.984 243.968 403.232C244.96 404.48 245.456 406.144 245.456 408.224C245.456 409.568 245.2 410.768 244.688 411.824C244.208 412.848 243.472 413.712 242.48 414.416C241.52 415.088 240.336 415.552 238.928 415.808V416.048C240.368 416.272 241.664 416.688 242.816 417.296C244 417.904 244.928 418.768 245.6 419.888C246.272 421.008 246.608 422.464 246.608 424.256C246.608 426.336 246.128 428.112 245.168 429.584C244.208 431.024 242.832 432.128 241.04 432.896C239.28 433.632 237.168 434 234.704 434H222.656V399.728H232.448ZM233.312 414.32C236.256 414.32 238.272 413.856 239.36 412.928C240.448 411.968 240.992 410.56 240.992 408.704C240.992 406.816 240.32 405.472 238.976 404.672C237.664 403.84 235.552 403.424 232.64 403.424H226.976V414.32H233.312ZM226.976 417.92V430.352H233.888C236.928 430.352 239.04 429.76 240.224 428.576C241.408 427.392 242 425.84 242 423.92C242 422.704 241.728 421.648 241.184 420.752C240.672 419.856 239.792 419.168 238.544 418.688C237.328 418.176 235.664 417.92 233.552 417.92H226.976ZM253.299 434V408.272H257.523V418.832H264.195C266.435 418.832 268.275 419.104 269.715 419.648C271.155 420.192 272.227 421.008 272.931 422.096C273.635 423.152 273.987 424.496 273.987 426.128C273.987 427.728 273.635 429.12 272.931 430.304C272.259 431.488 271.187 432.4 269.715 433.04C268.275 433.68 266.371 434 264.003 434H253.299ZM263.619 430.592C265.443 430.592 266.931 430.288 268.083 429.68C269.235 429.04 269.811 427.936 269.811 426.368C269.811 424.8 269.283 423.744 268.227 423.2C267.171 422.624 265.651 422.336 263.667 422.336H257.523V430.592H263.619ZM278.259 434V408.272H282.483V434H278.259ZM316.954 407.792C319.162 407.792 321.05 408.272 322.618 409.232C324.218 410.192 325.434 411.552 326.266 413.312C327.13 415.04 327.562 417.072 327.562 419.408V421.952H309.946C310.01 424.864 310.746 427.088 312.154 428.624C313.594 430.128 315.594 430.88 318.154 430.88C319.786 430.88 321.226 430.736 322.474 430.448C323.754 430.128 325.066 429.68 326.41 429.104V432.8C325.098 433.376 323.802 433.792 322.522 434.048C321.242 434.336 319.722 434.48 317.962 434.48C315.53 434.48 313.37 433.984 311.482 432.992C309.626 432 308.17 430.528 307.114 428.576C306.09 426.592 305.578 424.176 305.578 421.328C305.578 418.512 306.042 416.096 306.97 414.08C307.93 412.064 309.258 410.512 310.954 409.424C312.682 408.336 314.682 407.792 316.954 407.792ZM316.906 411.248C314.89 411.248 313.29 411.904 312.106 413.216C310.954 414.496 310.266 416.288 310.042 418.592H323.146C323.146 417.12 322.922 415.84 322.474 414.752C322.026 413.664 321.338 412.816 320.41 412.208C319.514 411.568 318.346 411.248 316.906 411.248ZM368.959 408.272V430.496H372.703V442.88H368.479V434H334.111V408.272H338.335V430.448H349.423V408.272H353.647V430.448H364.783V408.272H368.959ZM387.547 407.792C389.755 407.792 391.643 408.272 393.211 409.232C394.811 410.192 396.027 411.552 396.859 413.312C397.723 415.04 398.155 417.072 398.155 419.408V421.952H380.539C380.603 424.864 381.339 427.088 382.747 428.624C384.187 430.128 386.187 430.88 388.747 430.88C390.379 430.88 391.819 430.736 393.067 430.448C394.347 430.128 395.659 429.68 397.003 429.104V432.8C395.691 433.376 394.395 433.792 393.115 434.048C391.835 434.336 390.315 434.48 388.555 434.48C386.123 434.48 383.963 433.984 382.075 432.992C380.219 432 378.763 430.528 377.707 428.576C376.683 426.592 376.171 424.176 376.171 421.328C376.171 418.512 376.635 416.096 377.563 414.08C378.523 412.064 379.851 410.512 381.547 409.424C383.275 408.336 385.275 407.792 387.547 407.792ZM387.499 411.248C385.483 411.248 383.883 411.904 382.699 413.216C381.547 414.496 380.859 416.288 380.635 418.592H393.739C393.739 417.12 393.515 415.84 393.067 414.752C392.619 413.664 391.931 412.816 391.003 412.208C390.107 411.568 388.939 411.248 387.499 411.248ZM431.384 434.48C429.112 434.48 427.08 434.016 425.288 433.088C423.528 432.16 422.136 430.72 421.112 428.768C420.12 426.816 419.624 424.32 419.624 421.28C419.624 418.112 420.152 415.536 421.208 413.552C422.264 411.568 423.688 410.112 425.48 409.184C427.304 408.256 429.368 407.792 431.672 407.792C432.984 407.792 434.248 407.936 435.464 408.224C436.68 408.48 437.672 408.8 438.44 409.184L437.144 412.688C436.376 412.4 435.48 412.128 434.456 411.872C433.432 411.616 432.472 411.488 431.576 411.488C429.848 411.488 428.424 411.856 427.304 412.592C426.184 413.328 425.352 414.416 424.808 415.856C424.264 417.296 423.992 419.088 423.992 421.232C423.992 423.28 424.264 425.024 424.808 426.464C425.352 427.904 426.168 428.992 427.256 429.728C428.344 430.464 429.704 430.832 431.336 430.832C432.744 430.832 433.976 430.688 435.032 430.4C436.12 430.112 437.112 429.76 438.008 429.344V433.088C437.144 433.536 436.184 433.872 435.128 434.096C434.104 434.352 432.856 434.48 431.384 434.48ZM464.71 408.272V418.976H478.678V408.272H482.902V434H478.678V422.528H464.71V434H460.486V408.272H464.71ZM500.793 407.84C503.929 407.84 506.249 408.528 507.753 409.904C509.257 411.28 510.009 413.472 510.009 416.48V434H506.937L506.121 430.352H505.929C505.193 431.28 504.425 432.064 503.625 432.704C502.857 433.312 501.961 433.76 500.937 434.048C499.945 434.336 498.729 434.48 497.289 434.48C495.753 434.48 494.361 434.208 493.113 433.664C491.897 433.12 490.937 432.288 490.233 431.168C489.529 430.016 489.177 428.576 489.177 426.848C489.177 424.288 490.185 422.32 492.201 420.944C494.217 419.536 497.321 418.768 501.513 418.64L505.881 418.496V416.96C505.881 414.816 505.417 413.328 504.489 412.496C503.561 411.664 502.249 411.248 500.553 411.248C499.209 411.248 497.929 411.456 496.713 411.872C495.497 412.256 494.361 412.704 493.305 413.216L492.009 410.048C493.129 409.44 494.457 408.928 495.993 408.512C497.529 408.064 499.129 407.84 500.793 407.84ZM502.041 421.568C498.841 421.696 496.617 422.208 495.369 423.104C494.153 424 493.545 425.264 493.545 426.896C493.545 428.336 493.977 429.392 494.841 430.064C495.737 430.736 496.873 431.072 498.249 431.072C500.425 431.072 502.233 430.48 503.673 429.296C505.113 428.08 505.833 426.224 505.833 423.728V421.424L502.041 421.568ZM545.555 408.272V434H541.763V417.584C541.763 416.912 541.779 416.208 541.811 415.472C541.875 414.736 541.939 414.016 542.003 413.312H541.859L533.459 434H529.907L521.747 413.312H521.603C521.667 414.016 521.699 414.736 521.699 415.472C521.731 416.208 521.747 416.96 521.747 417.728V434H517.955V408.272H523.571L531.683 428.96L539.939 408.272H545.555ZM557.752 423.968C557.752 424.256 557.736 424.672 557.704 425.216C557.704 425.728 557.688 426.288 557.656 426.896C557.624 427.472 557.592 428.032 557.56 428.576C557.528 429.088 557.496 429.504 557.464 429.824L571.24 408.272H576.424V434H572.488V418.832C572.488 418.32 572.488 417.648 572.488 416.816C572.52 415.984 572.552 415.168 572.584 414.368C572.616 413.536 572.648 412.912 572.68 412.496L559 434H553.768V408.272H557.752V423.968ZM593.635 401.84C595.747 401.84 597.587 402.176 599.155 402.848C600.723 403.52 601.939 404.48 602.803 405.728C603.699 406.976 604.147 408.464 604.147 410.192C604.147 412.048 603.731 413.6 602.899 414.848C602.099 416.064 601.011 416.992 599.635 417.632C598.291 418.272 596.787 418.688 595.123 418.88V424.016H591.139V416.816C593.475 416.464 595.283 416.032 596.563 415.52C597.875 415.008 598.787 414.368 599.299 413.6C599.843 412.832 600.115 411.888 600.115 410.768C600.115 409.648 599.859 408.688 599.347 407.888C598.867 407.088 598.131 406.48 597.139 406.064C596.147 405.648 594.883 405.44 593.347 405.44C591.235 405.44 589.507 406.032 588.163 407.216C586.851 408.368 586.067 409.952 585.811 411.968L582.403 410C582.755 408.368 583.427 406.944 584.419 405.728C585.443 404.48 586.723 403.52 588.259 402.848C589.827 402.176 591.619 401.84 593.635 401.84ZM593.059 428.24C593.987 428.24 594.739 428.528 595.315 429.104C595.891 429.68 596.179 430.432 596.179 431.36C596.179 432.288 595.891 433.04 595.315 433.616C594.739 434.192 593.987 434.48 593.059 434.48C592.131 434.48 591.379 434.192 590.803 433.616C590.227 433.04 589.939 432.288 589.939 431.36C589.939 430.432 590.227 429.68 590.803 429.104C591.379 428.528 592.131 428.24 593.059 428.24Z" fill="#19191B"/>
</g>
<rect x="263" y="498" width="300" height="179" rx="8" fill="#27C840"/>
<path d="M407.492 563.804V604.38H413.316V621.532H407.812V609.5H376.388V621.532H370.884V604.38H374.404C375.94 601.735 377.391 598.769 378.756 595.484C380.164 592.199 381.401 588.764 382.468 585.18C383.535 581.553 384.409 577.927 385.092 574.3C385.775 570.673 386.201 567.175 386.372 563.804H407.492ZM391.428 568.988C391.257 571.463 390.831 574.257 390.148 577.372C389.508 580.487 388.676 583.687 387.652 586.972C386.671 590.215 385.561 593.351 384.324 596.38C383.129 599.409 381.849 602.076 380.484 604.38H401.796V568.988H391.428ZM449.38 609.5L443.876 595.356H425.764L420.324 609.5H414.5L432.356 563.612H437.54L455.332 609.5H449.38ZM437.028 576.412C436.9 576.071 436.687 575.452 436.388 574.556C436.089 573.66 435.791 572.743 435.492 571.804C435.236 570.823 435.023 570.076 434.852 569.564C434.639 570.417 434.404 571.292 434.148 572.188C433.935 573.041 433.7 573.831 433.444 574.556C433.231 575.281 433.039 575.9 432.868 576.412L427.684 590.236H442.148L437.028 576.412Z" fill="white"/>
<defs>
<clipPath id="clip0_227_810">
<rect width="397" height="56" fill="white" transform="translate(218 390)"/>
</clipPath>
</defs>
</svg>
