<svg width="834" height="1194" viewBox="0 0 834 1194" fill="none" xmlns="http://www.w3.org/2000/svg">
<rect x="0.5" y="0.5" width="833" height="1193" fill="white"/>
<rect x="0.5" y="0.5" width="833" height="1193" stroke="black"/>
<rect x="69" y="39" width="697" height="419" rx="7" fill="#EFEFF0"/>
<rect x="69" y="39" width="697" height="419" rx="7" stroke="#AFB1B6" stroke-width="2"/>
<mask id="mask0_238_2644" style="mask-type:luminance" maskUnits="userSpaceOnUse" x="408" y="239" width="20" height="20">
<path fill-rule="evenodd" clip-rule="evenodd" d="M408 239H427.96V258.95H408V239Z" fill="white"/>
</mask>
<g mask="url(#mask0_238_2644)">
<path fill-rule="evenodd" clip-rule="evenodd" d="M413.65 240.5C411.129 240.5 409.5 242.227 409.5 244.899V253.051C409.5 255.724 411.129 257.45 413.65 257.45H422.3C424.827 257.45 426.46 255.724 426.46 253.051V244.899C426.46 242.227 424.827 240.5 422.3 240.5H413.65ZM422.3 258.95H413.65C410.27 258.95 408 256.579 408 253.051V244.899C408 241.371 410.27 239 413.65 239H422.3C425.685 239 427.96 241.371 427.96 244.899V253.051C427.96 256.579 425.685 258.95 422.3 258.95Z" fill="#AFB1B6"/>
</g>
<path fill-rule="evenodd" clip-rule="evenodd" d="M411.281 254.18C411.095 254.18 410.91 254.112 410.765 253.974C410.464 253.69 410.452 253.214 410.737 252.915L412.265 251.302C413.074 250.443 414.439 250.401 415.302 251.211L416.26 252.183C416.527 252.453 416.961 252.458 417.229 252.194C417.33 252.075 419.508 249.43 419.508 249.43C419.922 248.928 420.506 248.618 421.155 248.554C421.805 248.497 422.436 248.686 422.939 249.099C422.982 249.134 423.021 249.168 425.217 251.423C425.506 251.719 425.501 252.194 425.204 252.483C424.908 252.774 424.432 252.765 424.143 252.469C424.143 252.469 422.094 250.366 421.948 250.224C421.793 250.097 421.544 250.023 421.299 250.047C421.05 250.072 420.826 250.191 420.667 250.384C418.343 253.203 418.315 253.23 418.277 253.267C417.419 254.109 416.034 254.095 415.191 253.235C415.191 253.235 414.261 252.291 414.245 252.272C414.014 252.058 413.602 252.072 413.355 252.333L411.825 253.946C411.677 254.102 411.479 254.18 411.281 254.18Z" fill="#AFB1B6"/>
<path fill-rule="evenodd" clip-rule="evenodd" d="M414.558 245.129C414.005 245.129 413.555 245.579 413.555 246.133C413.555 246.687 414.005 247.138 414.559 247.138C415.113 247.138 415.564 246.687 415.564 246.133C415.564 245.58 415.113 245.13 414.558 245.129ZM414.559 248.638C413.178 248.638 412.055 247.514 412.055 246.133C412.055 244.752 413.178 243.629 414.559 243.629C415.941 243.63 417.064 244.754 417.064 246.133C417.064 247.514 415.94 248.638 414.559 248.638Z" fill="#AFB1B6"/>
<g clip-path="url(#clip0_238_2644)">
<rect width="497" height="78" transform="translate(292 1058)" fill="#B8E8AF"/>
<path d="M302 1058.75H540.5V1135.25H302C296.891 1135.25 292.75 1131.11 292.75 1126V1068C292.75 1062.89 296.891 1058.75 302 1058.75Z" stroke="#3A00E5" stroke-width="1.5"/>
<g clip-path="url(#clip1_238_2644)">
<path d="M384.08 1096.98C384.08 1098.53 383.884 1099.93 383.492 1101.2C383.1 1102.45 382.512 1103.54 381.728 1104.45C380.963 1105.37 380.001 1106.07 378.844 1106.55C377.705 1107.04 376.38 1107.28 374.868 1107.28C373.3 1107.28 371.937 1107.04 370.78 1106.55C369.623 1106.05 368.661 1105.35 367.896 1104.45C367.131 1103.54 366.561 1102.45 366.188 1101.18C365.815 1099.91 365.628 1098.5 365.628 1096.95C365.628 1094.89 365.964 1093.1 366.636 1091.57C367.308 1090.04 368.325 1088.85 369.688 1087.99C371.069 1087.13 372.805 1086.7 374.896 1086.7C376.893 1086.7 378.573 1087.13 379.936 1087.99C381.299 1088.83 382.325 1090.02 383.016 1091.57C383.725 1093.1 384.08 1094.9 384.08 1096.98ZM368.288 1096.98C368.288 1098.66 368.521 1100.1 368.988 1101.32C369.455 1102.53 370.173 1103.46 371.144 1104.12C372.133 1104.77 373.375 1105.1 374.868 1105.1C376.38 1105.1 377.612 1104.77 378.564 1104.12C379.535 1103.46 380.253 1102.53 380.72 1101.32C381.187 1100.1 381.42 1098.66 381.42 1096.98C381.42 1094.46 380.897 1092.49 379.852 1091.07C378.807 1089.63 377.155 1088.91 374.896 1088.91C373.384 1088.91 372.133 1089.24 371.144 1089.89C370.173 1090.53 369.455 1091.45 368.988 1092.66C368.521 1093.86 368.288 1095.3 368.288 1096.98ZM398.535 1094.06H393.635V1107H391.199V1094.06H386.355V1091.99H398.535V1094.06ZM417.591 1091.99V1107H415.379V1097.42C415.379 1097.03 415.389 1096.62 415.407 1096.19C415.445 1095.76 415.482 1095.34 415.519 1094.93H415.435L410.535 1107H408.463L403.703 1094.93H403.619C403.657 1095.34 403.675 1095.76 403.675 1096.19C403.694 1096.62 403.703 1097.06 403.703 1097.51V1107H401.491V1091.99H404.767L409.499 1104.06L414.315 1091.99H417.591ZM428.178 1091.71C429.466 1091.71 430.567 1091.99 431.482 1092.55C432.415 1093.11 433.125 1093.91 433.61 1094.93C434.114 1095.94 434.366 1097.13 434.366 1098.49V1099.97H424.09C424.127 1101.67 424.557 1102.97 425.378 1103.86C426.218 1104.74 427.385 1105.18 428.878 1105.18C429.83 1105.18 430.67 1105.1 431.398 1104.93C432.145 1104.74 432.91 1104.48 433.694 1104.14V1106.3C432.929 1106.64 432.173 1106.88 431.426 1107.03C430.679 1107.2 429.793 1107.28 428.766 1107.28C427.347 1107.28 426.087 1106.99 424.986 1106.41C423.903 1105.83 423.054 1104.97 422.438 1103.84C421.841 1102.68 421.542 1101.27 421.542 1099.61C421.542 1097.97 421.813 1096.56 422.354 1095.38C422.914 1094.2 423.689 1093.3 424.678 1092.66C425.686 1092.03 426.853 1091.71 428.178 1091.71ZM428.15 1093.73C426.974 1093.73 426.041 1094.11 425.35 1094.88C424.678 1095.62 424.277 1096.67 424.146 1098.01H431.79C431.79 1097.15 431.659 1096.41 431.398 1095.77C431.137 1095.14 430.735 1094.64 430.194 1094.29C429.671 1093.91 428.99 1093.73 428.15 1093.73ZM440.651 1091.99V1098.24H448.799V1091.99H451.263V1107H448.799V1100.31H440.651V1107H438.187V1091.99H440.651ZM461.699 1091.74C463.528 1091.74 464.881 1092.14 465.759 1092.94C466.636 1093.75 467.075 1095.03 467.075 1096.78V1107H465.283L464.807 1104.87H464.695C464.265 1105.41 463.817 1105.87 463.351 1106.24C462.903 1106.6 462.38 1106.86 461.783 1107.03C461.204 1107.2 460.495 1107.28 459.655 1107.28C458.759 1107.28 457.947 1107.12 457.219 1106.8C456.509 1106.49 455.949 1106 455.539 1105.35C455.128 1104.68 454.923 1103.84 454.923 1102.83C454.923 1101.33 455.511 1100.19 456.687 1099.38C457.863 1098.56 459.673 1098.11 462.119 1098.04L464.667 1097.96V1097.06C464.667 1095.81 464.396 1094.94 463.855 1094.46C463.313 1093.97 462.548 1093.73 461.559 1093.73C460.775 1093.73 460.028 1093.85 459.319 1094.09C458.609 1094.32 457.947 1094.58 457.331 1094.88L456.575 1093.03C457.228 1092.67 458.003 1092.37 458.899 1092.13C459.795 1091.87 460.728 1091.74 461.699 1091.74ZM462.427 1099.75C460.56 1099.82 459.263 1100.12 458.535 1100.64C457.825 1101.17 457.471 1101.9 457.471 1102.86C457.471 1103.7 457.723 1104.31 458.227 1104.7C458.749 1105.1 459.412 1105.29 460.215 1105.29C461.484 1105.29 462.539 1104.95 463.379 1104.26C464.219 1103.55 464.639 1102.46 464.639 1101.01V1099.66L462.427 1099.75Z" fill="#19191B"/>
</g>
<path d="M779 1058.75C784.109 1058.75 788.25 1062.89 788.25 1068V1126C788.25 1131.11 784.109 1135.25 779 1135.25H540.5V1058.75H779Z" stroke="#3A00E5" stroke-width="1.5"/>
<g clip-path="url(#clip2_238_2644)">
<path d="M614.141 1087.01V1104.76H616.689V1112.26H614.281V1107H600.533V1112.26H598.125V1104.76H599.665C600.337 1103.6 600.972 1102.31 601.569 1100.87C602.185 1099.43 602.726 1097.93 603.193 1096.36C603.66 1094.77 604.042 1093.19 604.341 1091.6C604.64 1090.01 604.826 1088.48 604.901 1087.01H614.141ZM607.113 1089.28C607.038 1090.36 606.852 1091.58 606.553 1092.94C606.273 1094.31 605.909 1095.71 605.461 1097.14C605.032 1098.56 604.546 1099.93 604.005 1101.26C603.482 1102.59 602.922 1103.75 602.325 1104.76H611.649V1089.28H607.113ZM632.744 1099.47C632.744 1100.72 632.576 1101.83 632.24 1102.8C631.923 1103.75 631.456 1104.56 630.84 1105.24C630.243 1105.91 629.506 1106.42 628.628 1106.78C627.77 1107.11 626.808 1107.28 625.744 1107.28C624.755 1107.28 623.84 1107.11 623 1106.78C622.16 1106.42 621.432 1105.91 620.816 1105.24C620.2 1104.56 619.715 1103.75 619.36 1102.8C619.024 1101.83 618.856 1100.72 618.856 1099.47C618.856 1097.81 619.136 1096.41 619.696 1095.27C620.256 1094.11 621.059 1093.23 622.104 1092.64C623.15 1092.02 624.391 1091.71 625.828 1091.71C627.191 1091.71 628.386 1092.02 629.412 1092.64C630.458 1093.23 631.27 1094.11 631.848 1095.27C632.446 1096.41 632.744 1097.81 632.744 1099.47ZM621.404 1099.47C621.404 1100.64 621.554 1101.67 621.852 1102.55C622.17 1103.41 622.655 1104.07 623.308 1104.54C623.962 1105 624.792 1105.24 625.8 1105.24C626.808 1105.24 627.639 1105 628.292 1104.54C628.946 1104.07 629.422 1103.41 629.72 1102.55C630.038 1101.67 630.196 1100.64 630.196 1099.47C630.196 1098.27 630.038 1097.26 629.72 1096.42C629.403 1095.58 628.918 1094.93 628.264 1094.48C627.63 1094.02 626.799 1093.78 625.772 1093.78C624.242 1093.78 623.131 1094.29 622.44 1095.3C621.75 1096.3 621.404 1097.69 621.404 1099.47ZM635.866 1097.98C635.866 1095.8 636.08 1093.94 636.51 1092.41C636.958 1090.86 637.639 1089.63 638.554 1088.72C639.487 1087.78 640.682 1087.16 642.138 1086.84C643.351 1086.58 644.536 1086.35 645.694 1086.14C646.851 1085.93 647.934 1085.75 648.942 1085.58L649.362 1087.74C648.876 1087.81 648.335 1087.9 647.738 1088.02C647.14 1088.11 646.534 1088.21 645.918 1088.32C645.302 1088.42 644.704 1088.52 644.126 1088.63C643.566 1088.73 643.071 1088.82 642.642 1088.91C642.026 1089.04 641.475 1089.27 640.99 1089.58C640.504 1089.88 640.084 1090.29 639.73 1090.82C639.394 1091.34 639.123 1091.98 638.918 1092.75C638.712 1093.51 638.591 1094.42 638.554 1095.46H638.722C638.983 1095.11 639.338 1094.75 639.786 1094.37C640.252 1094 640.803 1093.68 641.438 1093.42C642.091 1093.16 642.828 1093.03 643.65 1093.03C644.956 1093.03 646.039 1093.32 646.898 1093.9C647.775 1094.46 648.428 1095.24 648.858 1096.25C649.306 1097.26 649.53 1098.43 649.53 1099.78C649.53 1101.44 649.24 1102.83 648.662 1103.95C648.083 1105.07 647.28 1105.91 646.254 1106.47C645.227 1107.01 644.032 1107.28 642.67 1107.28C641.643 1107.28 640.71 1107.08 639.87 1106.69C639.03 1106.28 638.311 1105.68 637.714 1104.9C637.116 1104.12 636.659 1103.15 636.342 1101.99C636.024 1100.83 635.866 1099.5 635.866 1097.98ZM642.866 1105.24C643.687 1105.24 644.396 1105.07 644.994 1104.73C645.61 1104.4 646.086 1103.85 646.422 1103.08C646.758 1102.31 646.926 1101.3 646.926 1100.03C646.926 1098.5 646.636 1097.29 646.058 1096.42C645.498 1095.52 644.564 1095.07 643.258 1095.07C642.436 1095.07 641.69 1095.26 641.018 1095.63C640.346 1095.99 639.786 1096.4 639.338 1096.86C638.89 1097.33 638.572 1097.72 638.386 1098.04C638.386 1098.95 638.451 1099.84 638.582 1100.7C638.712 1101.56 638.936 1102.33 639.254 1103.02C639.59 1103.7 640.047 1104.24 640.626 1104.65C641.223 1105.04 641.97 1105.24 642.866 1105.24ZM659.095 1091.74C660.925 1091.74 662.278 1092.14 663.155 1092.94C664.033 1093.75 664.471 1095.03 664.471 1096.78V1107H662.679L662.203 1104.87H662.091C661.662 1105.41 661.214 1105.87 660.747 1106.24C660.299 1106.6 659.777 1106.86 659.179 1107.03C658.601 1107.2 657.891 1107.28 657.051 1107.28C656.155 1107.28 655.343 1107.12 654.615 1106.8C653.906 1106.49 653.346 1106 652.935 1105.35C652.525 1104.68 652.319 1103.84 652.319 1102.83C652.319 1101.33 652.907 1100.19 654.083 1099.38C655.259 1098.56 657.07 1098.11 659.515 1098.04L662.063 1097.96V1097.06C662.063 1095.81 661.793 1094.94 661.251 1094.46C660.71 1093.97 659.945 1093.73 658.955 1093.73C658.171 1093.73 657.425 1093.85 656.715 1094.09C656.006 1094.32 655.343 1094.58 654.727 1094.88L653.971 1093.03C654.625 1092.67 655.399 1092.37 656.295 1092.13C657.191 1091.87 658.125 1091.74 659.095 1091.74ZM659.823 1099.75C657.957 1099.82 656.659 1100.12 655.931 1100.64C655.222 1101.17 654.867 1101.9 654.867 1102.86C654.867 1103.7 655.119 1104.31 655.623 1104.7C656.146 1105.1 656.809 1105.29 657.611 1105.29C658.881 1105.29 659.935 1104.95 660.775 1104.26C661.615 1103.55 662.035 1102.46 662.035 1101.01V1099.66L659.823 1099.75ZM681.175 1095.77C681.175 1096.71 680.895 1097.43 680.335 1097.96C679.775 1098.48 679.056 1098.83 678.179 1099.02V1099.13C679.112 1099.26 679.924 1099.6 680.615 1100.14C681.305 1100.66 681.651 1101.48 681.651 1102.6C681.651 1103.24 681.529 1103.83 681.287 1104.37C681.063 1104.91 680.708 1105.38 680.223 1105.77C679.737 1106.16 679.112 1106.47 678.347 1106.69C677.581 1106.9 676.657 1107 675.575 1107H669.107V1091.99H675.547C676.611 1091.99 677.563 1092.11 678.403 1092.36C679.261 1092.58 679.933 1092.97 680.419 1093.53C680.923 1094.07 681.175 1094.82 681.175 1095.77ZM679.103 1102.6C679.103 1101.75 678.776 1101.13 678.123 1100.76C677.469 1100.38 676.508 1100.2 675.239 1100.2H671.571V1105.01H675.295C676.527 1105.01 677.469 1104.83 678.123 1104.48C678.776 1104.11 679.103 1103.48 679.103 1102.6ZM678.683 1096.08C678.683 1095.37 678.421 1094.86 677.899 1094.54C677.395 1094.2 676.564 1094.04 675.407 1094.04H671.571V1098.15H674.959C676.172 1098.15 677.096 1097.98 677.731 1097.65C678.365 1097.31 678.683 1096.79 678.683 1096.08ZM687.563 1101.15C687.563 1101.32 687.554 1101.56 687.535 1101.88C687.535 1102.17 687.526 1102.5 687.507 1102.86C687.489 1103.19 687.47 1103.52 687.451 1103.84C687.433 1104.13 687.414 1104.38 687.395 1104.56L695.431 1091.99H698.455V1107H696.159V1098.15C696.159 1097.85 696.159 1097.46 696.159 1096.98C696.178 1096.49 696.197 1096.01 696.215 1095.55C696.234 1095.06 696.253 1094.7 696.271 1094.46L688.291 1107H685.239V1091.99H687.563V1101.15ZM713.592 1094.06H708.692V1107H706.256V1094.06H701.412V1091.99H713.592V1094.06ZM723.464 1098.15C724.771 1098.15 725.853 1098.31 726.712 1098.63C727.571 1098.95 728.215 1099.42 728.644 1100.06C729.092 1100.67 729.316 1101.46 729.316 1102.41C729.316 1103.34 729.101 1104.15 728.672 1104.84C728.261 1105.53 727.617 1106.07 726.74 1106.44C725.863 1106.81 724.733 1107 723.352 1107H716.548V1091.99H719.012V1098.15H723.464ZM726.852 1102.55C726.852 1101.63 726.525 1101.02 725.872 1100.7C725.237 1100.36 724.341 1100.2 723.184 1100.2H719.012V1105.01H723.24C724.285 1105.01 725.144 1104.83 725.816 1104.45C726.507 1104.08 726.852 1103.44 726.852 1102.55Z" fill="#19191B"/>
</g>
</g>
<rect x="425.5" y="513.5" width="318" height="129" rx="9.5" stroke="#AFB1B6"/>
<g clip-path="url(#clip3_238_2644)">
<path d="M562.729 535.008H565.081V545.984C565.081 546.451 565.072 546.964 565.053 547.524C565.053 548.065 565.044 548.607 565.025 549.148C565.007 549.689 564.979 550.175 564.941 550.604C564.923 551.015 564.904 551.332 564.885 551.556H564.997L576.001 535.008H578.801V555H576.449V544.136C576.449 543.632 576.459 543.091 576.477 542.512C576.496 541.915 576.515 541.345 576.533 540.804C576.571 540.244 576.599 539.749 576.617 539.32C576.636 538.891 576.655 538.573 576.673 538.368H576.561L565.529 555H562.729V535.008ZM586.322 539.992V546.236H594.47V539.992H596.934V555H594.47V548.308H586.322V555H583.858V539.992H586.322ZM610.842 539.992V542.064H604.15V555H601.686V539.992H610.842ZM620.939 539.712C622.787 539.712 624.271 540.356 625.391 541.644C626.53 542.932 627.099 544.873 627.099 547.468C627.099 549.167 626.838 550.604 626.315 551.78C625.811 552.937 625.092 553.815 624.159 554.412C623.244 554.991 622.162 555.28 620.911 555.28C620.146 555.28 619.464 555.177 618.867 554.972C618.27 554.767 617.756 554.505 617.327 554.188C616.916 553.852 616.562 553.488 616.263 553.096H616.095C616.132 553.413 616.17 553.815 616.207 554.3C616.244 554.785 616.263 555.205 616.263 555.56V561.72H613.799V539.992H615.815L616.151 542.036H616.263C616.562 541.607 616.916 541.215 617.327 540.86C617.756 540.505 618.26 540.225 618.839 540.02C619.436 539.815 620.136 539.712 620.939 539.712ZM620.491 541.784C619.483 541.784 618.671 541.98 618.055 542.372C617.439 542.745 616.991 543.315 616.711 544.08C616.431 544.845 616.282 545.816 616.263 546.992V547.468C616.263 548.7 616.394 549.745 616.655 550.604C616.916 551.463 617.355 552.116 617.971 552.564C618.606 553.012 619.464 553.236 620.547 553.236C621.462 553.236 622.208 552.984 622.787 552.48C623.384 551.976 623.823 551.295 624.103 550.436C624.402 549.559 624.551 548.56 624.551 547.44C624.551 545.723 624.215 544.351 623.543 543.324C622.89 542.297 621.872 541.784 620.491 541.784ZM636.822 539.712C638.11 539.712 639.211 539.992 640.126 540.552C641.059 541.112 641.768 541.905 642.254 542.932C642.758 543.94 643.01 545.125 643.01 546.488V547.972H632.734C632.771 549.671 633.2 550.968 634.022 551.864C634.862 552.741 636.028 553.18 637.522 553.18C638.474 553.18 639.314 553.096 640.042 552.928C640.788 552.741 641.554 552.48 642.338 552.144V554.3C641.572 554.636 640.816 554.879 640.07 555.028C639.323 555.196 638.436 555.28 637.41 555.28C635.991 555.28 634.731 554.991 633.63 554.412C632.547 553.833 631.698 552.975 631.082 551.836C630.484 550.679 630.186 549.269 630.186 547.608C630.186 545.965 630.456 544.556 630.998 543.38C631.558 542.204 632.332 541.299 633.322 540.664C634.33 540.029 635.496 539.712 636.822 539.712ZM636.794 541.728C635.618 541.728 634.684 542.111 633.994 542.876C633.322 543.623 632.92 544.668 632.79 546.012H640.434C640.434 545.153 640.303 544.407 640.042 543.772C639.78 543.137 639.379 542.643 638.838 542.288C638.315 541.915 637.634 541.728 636.794 541.728ZM657.974 539.992V552.928H660.158V560.208H657.778V555H647.334V560.208H644.982V552.928H646.186C647.045 551.733 647.754 550.436 648.314 549.036C648.893 547.617 649.322 546.143 649.602 544.612C649.901 543.063 650.06 541.523 650.078 539.992H657.974ZM652.262 541.924C652.188 543.193 651.992 544.509 651.674 545.872C651.357 547.216 650.946 548.504 650.442 549.736C649.957 550.968 649.388 552.032 648.734 552.928H655.594V541.924H652.262ZM665.424 549.148C665.424 549.316 665.414 549.559 665.396 549.876C665.396 550.175 665.386 550.501 665.368 550.856C665.349 551.192 665.33 551.519 665.312 551.836C665.293 552.135 665.274 552.377 665.256 552.564L673.292 539.992H676.316V555H674.02V546.152C674.02 545.853 674.02 545.461 674.02 544.976C674.038 544.491 674.057 544.015 674.076 543.548C674.094 543.063 674.113 542.699 674.132 542.456L666.152 555H663.1V539.992H665.424V549.148ZM686.888 539.712C688.176 539.712 689.277 539.992 690.192 540.552C691.125 541.112 691.835 541.905 692.32 542.932C692.824 543.94 693.076 545.125 693.076 546.488V547.972H682.8C682.837 549.671 683.267 550.968 684.088 551.864C684.928 552.741 686.095 553.18 687.588 553.18C688.54 553.18 689.38 553.096 690.108 552.928C690.855 552.741 691.62 552.48 692.404 552.144V554.3C691.639 554.636 690.883 554.879 690.136 555.028C689.389 555.196 688.503 555.28 687.476 555.28C686.057 555.28 684.797 554.991 683.696 554.412C682.613 553.833 681.764 552.975 681.148 551.836C680.551 550.679 680.252 549.269 680.252 547.608C680.252 545.965 680.523 544.556 681.064 543.38C681.624 542.204 682.399 541.299 683.388 540.664C684.396 540.029 685.563 539.712 686.888 539.712ZM686.86 541.728C685.684 541.728 684.751 542.111 684.06 542.876C683.388 543.623 682.987 544.668 682.856 546.012H690.5C690.5 545.153 690.369 544.407 690.108 543.772C689.847 543.137 689.445 542.643 688.904 542.288C688.381 541.915 687.7 541.728 686.86 541.728ZM699.361 539.992V546.236H707.509V539.992H709.973V555H707.509V548.308H699.361V555H696.897V539.992H699.361ZM725.085 542.064H720.185V555H717.749V542.064H712.905V539.992H725.085V542.064Z" fill="#3A00E5"/>
</g>
<rect x="440.779" y="528" width="96.5294" height="98" rx="7" fill="#EFEFF0"/>
<rect x="440.779" y="528" width="96.5294" height="98" rx="7" stroke="#AFB1B6" stroke-width="2"/>
<mask id="mask1_238_2644" style="mask-type:luminance" maskUnits="userSpaceOnUse" x="478" y="567" width="21" height="20">
<path fill-rule="evenodd" clip-rule="evenodd" d="M478.779 567H498.739V586.95H478.779V567Z" fill="white"/>
</mask>
<g mask="url(#mask1_238_2644)">
<path fill-rule="evenodd" clip-rule="evenodd" d="M484.429 568.5C481.908 568.5 480.279 570.227 480.279 572.899V581.051C480.279 583.724 481.908 585.45 484.429 585.45H493.079C495.606 585.45 497.239 583.724 497.239 581.051V572.899C497.239 570.227 495.606 568.5 493.079 568.5H484.429ZM493.079 586.95H484.429C481.049 586.95 478.779 584.579 478.779 581.051V572.899C478.779 569.371 481.049 567 484.429 567H493.079C496.464 567 498.739 569.371 498.739 572.899V581.051C498.739 584.579 496.464 586.95 493.079 586.95Z" fill="#AFB1B6"/>
</g>
<path fill-rule="evenodd" clip-rule="evenodd" d="M482.061 582.18C481.875 582.18 481.69 582.112 481.545 581.974C481.244 581.69 481.232 581.214 481.517 580.915L483.045 579.302C483.854 578.443 485.219 578.401 486.082 579.211L487.04 580.183C487.307 580.453 487.741 580.458 488.009 580.194C488.11 580.075 490.288 577.43 490.288 577.43C490.702 576.928 491.286 576.618 491.935 576.554C492.585 576.497 493.216 576.686 493.719 577.099C493.762 577.134 493.801 577.168 495.997 579.423C496.286 579.719 496.281 580.194 495.984 580.483C495.688 580.774 495.212 580.765 494.923 580.469C494.923 580.469 492.874 578.366 492.728 578.224C492.573 578.097 492.324 578.023 492.079 578.047C491.83 578.072 491.606 578.191 491.447 578.384C489.123 581.203 489.095 581.23 489.057 581.267C488.199 582.109 486.814 582.095 485.971 581.235C485.971 581.235 485.041 580.291 485.025 580.272C484.794 580.058 484.382 580.072 484.135 580.333L482.605 581.946C482.457 582.102 482.259 582.18 482.061 582.18Z" fill="#AFB1B6"/>
<path fill-rule="evenodd" clip-rule="evenodd" d="M485.337 573.129C484.784 573.129 484.334 573.579 484.334 574.133C484.334 574.687 484.784 575.138 485.338 575.138C485.892 575.138 486.343 574.687 486.343 574.133C486.343 573.58 485.892 573.13 485.337 573.129ZM485.338 576.638C483.957 576.638 482.834 575.514 482.834 574.133C482.834 572.752 483.957 571.629 485.338 571.629C486.72 571.63 487.843 572.754 487.843 574.133C487.843 575.514 486.719 576.638 485.338 576.638Z" fill="#AFB1B6"/>
<path fill-rule="evenodd" clip-rule="evenodd" d="M667.052 604.5C664.56 604.5 662.949 606.233 662.949 608.916V617.084C662.949 619.767 664.56 621.5 667.052 621.5H675.593C678.087 621.5 679.699 619.767 679.699 617.084V608.916C679.699 606.233 678.087 604.5 675.594 604.5H667.052ZM675.593 623H667.052C663.713 623 661.471 620.622 661.471 617.084V608.916C661.471 605.378 663.713 603 667.052 603H675.594C678.933 603 681.177 605.378 681.177 608.916V617.084C681.177 620.622 678.933 623 675.593 623Z" fill="black"/>
<path fill-rule="evenodd" clip-rule="evenodd" d="M670.155 616.123C669.967 616.123 669.777 616.05 669.633 615.903L667.294 613.53C667.005 613.237 667.005 612.763 667.294 612.47C667.582 612.177 668.049 612.177 668.338 612.47L670.155 614.312L674.309 610.097C674.598 609.804 675.065 609.804 675.353 610.097C675.642 610.39 675.642 610.864 675.353 611.157L670.677 615.903C670.533 616.05 670.344 616.123 670.155 616.123Z" fill="black"/>
<mask id="path-20-inside-1_238_2644" fill="white">
<path d="M565.897 589H639.795V629H565.897V589Z"/>
</mask>
<path d="M565.897 589H639.795V629H565.897V589Z" fill="#F7F5FF"/>
<path d="M639.795 629V628H565.897V629V630H639.795V629Z" fill="#3A00E5" mask="url(#path-20-inside-1_238_2644)"/>
<g clip-path="url(#clip4_238_2644)">
<path d="M587.827 614.056V615.172H581.359V614.056H587.827ZM594.896 614.056V615.172H588.428V614.056H594.896ZM601.965 614.056V615.172H595.497V614.056H601.965ZM605.998 604.432C607.118 604.432 607.934 604.652 608.446 605.092C608.958 605.532 609.214 606.152 609.214 606.952C609.214 607.304 609.154 607.644 609.034 607.972C608.922 608.292 608.734 608.58 608.47 608.836C608.206 609.092 607.854 609.296 607.414 609.448C606.974 609.592 606.434 609.664 605.794 609.664H604.81V613H603.73V604.432H605.998ZM605.902 605.356H604.81V608.74H605.674C606.218 608.74 606.67 608.684 607.03 608.572C607.39 608.452 607.658 608.264 607.834 608.008C608.01 607.752 608.098 607.416 608.098 607C608.098 606.448 607.922 606.036 607.57 605.764C607.218 605.492 606.662 605.356 605.902 605.356ZM610.443 606.568H611.571L612.963 610.228C613.043 610.444 613.115 610.652 613.179 610.852C613.251 611.052 613.315 611.248 613.371 611.44C613.427 611.624 613.471 611.804 613.503 611.98H613.551C613.599 611.78 613.675 611.52 613.779 611.2C613.883 610.872 613.991 610.544 614.103 610.216L615.411 606.568H616.551L613.779 613.888C613.627 614.288 613.447 614.636 613.239 614.932C613.039 615.236 612.791 615.468 612.495 615.628C612.207 615.796 611.855 615.88 611.439 615.88C611.247 615.88 611.079 615.868 610.935 615.844C610.791 615.828 610.667 615.808 610.563 615.784V614.944C610.651 614.96 610.755 614.976 610.875 614.992C611.003 615.008 611.135 615.016 611.271 615.016C611.519 615.016 611.731 614.968 611.907 614.872C612.091 614.784 612.247 614.652 612.375 614.476C612.503 614.308 612.611 614.108 612.699 613.876L613.035 613.024L610.443 606.568ZM617.832 609.136C617.832 608.2 617.924 607.404 618.108 606.748C618.3 606.084 618.592 605.556 618.984 605.164C619.384 604.764 619.896 604.496 620.52 604.36C621.04 604.248 621.548 604.148 622.044 604.06C622.54 603.972 623.004 603.892 623.436 603.82L623.616 604.744C623.408 604.776 623.176 604.816 622.92 604.864C622.664 604.904 622.404 604.948 622.14 604.996C621.876 605.036 621.62 605.08 621.372 605.128C621.132 605.168 620.92 605.208 620.736 605.248C620.472 605.304 620.236 605.4 620.028 605.536C619.82 605.664 619.64 605.84 619.488 606.064C619.344 606.288 619.228 606.564 619.14 606.892C619.052 607.22 619 607.608 618.984 608.056H619.056C619.168 607.904 619.32 607.748 619.512 607.588C619.712 607.428 619.948 607.292 620.22 607.18C620.5 607.068 620.816 607.012 621.168 607.012C621.728 607.012 622.192 607.136 622.56 607.384C622.936 607.624 623.216 607.96 623.4 608.392C623.592 608.824 623.688 609.328 623.688 609.904C623.688 610.616 623.564 611.212 623.316 611.692C623.068 612.172 622.724 612.532 622.284 612.772C621.844 613.004 621.332 613.12 620.748 613.12C620.308 613.12 619.908 613.036 619.548 612.868C619.188 612.692 618.88 612.436 618.624 612.1C618.368 611.764 618.172 611.348 618.036 610.852C617.9 610.356 617.832 609.784 617.832 609.136ZM620.832 612.244C621.184 612.244 621.488 612.172 621.744 612.028C622.008 611.884 622.212 611.648 622.356 611.32C622.5 610.992 622.572 610.556 622.572 610.012C622.572 609.356 622.448 608.84 622.2 608.464C621.96 608.08 621.56 607.888 621 607.888C620.648 607.888 620.328 607.968 620.04 608.128C619.752 608.28 619.512 608.456 619.32 608.656C619.128 608.856 618.992 609.024 618.912 609.16C618.912 609.552 618.94 609.932 618.996 610.3C619.052 610.668 619.148 611 619.284 611.296C619.428 611.584 619.624 611.816 619.872 611.992C620.128 612.16 620.448 612.244 620.832 612.244Z" fill="#3A00E5"/>
</g>
<rect x="425.5" y="837.5" width="318" height="129" rx="9.5" stroke="#AFB1B6"/>
<g clip-path="url(#clip5_238_2644)">
<path d="M562.729 859.008H565.081V869.984C565.081 870.451 565.072 870.964 565.053 871.524C565.053 872.065 565.044 872.607 565.025 873.148C565.007 873.689 564.979 874.175 564.941 874.604C564.923 875.015 564.904 875.332 564.885 875.556H564.997L576.001 859.008H578.801V879H576.449V868.136C576.449 867.632 576.459 867.091 576.477 866.512C576.496 865.915 576.515 865.345 576.533 864.804C576.571 864.244 576.599 863.749 576.617 863.32C576.636 862.891 576.655 862.573 576.673 862.368H576.561L565.529 879H562.729V859.008ZM586.322 863.992V870.236H594.47V863.992H596.934V879H594.47V872.308H586.322V879H583.858V863.992H586.322ZM610.842 863.992V866.064H604.15V879H601.686V863.992H610.842ZM620.939 863.712C622.787 863.712 624.271 864.356 625.391 865.644C626.53 866.932 627.099 868.873 627.099 871.468C627.099 873.167 626.838 874.604 626.315 875.78C625.811 876.937 625.092 877.815 624.159 878.412C623.244 878.991 622.162 879.28 620.911 879.28C620.146 879.28 619.464 879.177 618.867 878.972C618.27 878.767 617.756 878.505 617.327 878.188C616.916 877.852 616.562 877.488 616.263 877.096H616.095C616.132 877.413 616.17 877.815 616.207 878.3C616.244 878.785 616.263 879.205 616.263 879.56V885.72H613.799V863.992H615.815L616.151 866.036H616.263C616.562 865.607 616.916 865.215 617.327 864.86C617.756 864.505 618.26 864.225 618.839 864.02C619.436 863.815 620.136 863.712 620.939 863.712ZM620.491 865.784C619.483 865.784 618.671 865.98 618.055 866.372C617.439 866.745 616.991 867.315 616.711 868.08C616.431 868.845 616.282 869.816 616.263 870.992V871.468C616.263 872.7 616.394 873.745 616.655 874.604C616.916 875.463 617.355 876.116 617.971 876.564C618.606 877.012 619.464 877.236 620.547 877.236C621.462 877.236 622.208 876.984 622.787 876.48C623.384 875.976 623.823 875.295 624.103 874.436C624.402 873.559 624.551 872.56 624.551 871.44C624.551 869.723 624.215 868.351 623.543 867.324C622.89 866.297 621.872 865.784 620.491 865.784ZM636.822 863.712C638.11 863.712 639.211 863.992 640.126 864.552C641.059 865.112 641.768 865.905 642.254 866.932C642.758 867.94 643.01 869.125 643.01 870.488V871.972H632.734C632.771 873.671 633.2 874.968 634.022 875.864C634.862 876.741 636.028 877.18 637.522 877.18C638.474 877.18 639.314 877.096 640.042 876.928C640.788 876.741 641.554 876.48 642.338 876.144V878.3C641.572 878.636 640.816 878.879 640.07 879.028C639.323 879.196 638.436 879.28 637.41 879.28C635.991 879.28 634.731 878.991 633.63 878.412C632.547 877.833 631.698 876.975 631.082 875.836C630.484 874.679 630.186 873.269 630.186 871.608C630.186 869.965 630.456 868.556 630.998 867.38C631.558 866.204 632.332 865.299 633.322 864.664C634.33 864.029 635.496 863.712 636.822 863.712ZM636.794 865.728C635.618 865.728 634.684 866.111 633.994 866.876C633.322 867.623 632.92 868.668 632.79 870.012H640.434C640.434 869.153 640.303 868.407 640.042 867.772C639.78 867.137 639.379 866.643 638.838 866.288C638.315 865.915 637.634 865.728 636.794 865.728ZM657.974 863.992V876.928H660.158V884.208H657.778V879H647.334V884.208H644.982V876.928H646.186C647.045 875.733 647.754 874.436 648.314 873.036C648.893 871.617 649.322 870.143 649.602 868.612C649.901 867.063 650.06 865.523 650.078 863.992H657.974ZM652.262 865.924C652.188 867.193 651.992 868.509 651.674 869.872C651.357 871.216 650.946 872.504 650.442 873.736C649.957 874.968 649.388 876.032 648.734 876.928H655.594V865.924H652.262ZM665.424 873.148C665.424 873.316 665.414 873.559 665.396 873.876C665.396 874.175 665.386 874.501 665.368 874.856C665.349 875.192 665.33 875.519 665.312 875.836C665.293 876.135 665.274 876.377 665.256 876.564L673.292 863.992H676.316V879H674.02V870.152C674.02 869.853 674.02 869.461 674.02 868.976C674.038 868.491 674.057 868.015 674.076 867.548C674.094 867.063 674.113 866.699 674.132 866.456L666.152 879H663.1V863.992H665.424V873.148ZM686.888 863.712C688.176 863.712 689.277 863.992 690.192 864.552C691.125 865.112 691.835 865.905 692.32 866.932C692.824 867.94 693.076 869.125 693.076 870.488V871.972H682.8C682.837 873.671 683.267 874.968 684.088 875.864C684.928 876.741 686.095 877.18 687.588 877.18C688.54 877.18 689.38 877.096 690.108 876.928C690.855 876.741 691.62 876.48 692.404 876.144V878.3C691.639 878.636 690.883 878.879 690.136 879.028C689.389 879.196 688.503 879.28 687.476 879.28C686.057 879.28 684.797 878.991 683.696 878.412C682.613 877.833 681.764 876.975 681.148 875.836C680.551 874.679 680.252 873.269 680.252 871.608C680.252 869.965 680.523 868.556 681.064 867.38C681.624 866.204 682.399 865.299 683.388 864.664C684.396 864.029 685.563 863.712 686.888 863.712ZM686.86 865.728C685.684 865.728 684.751 866.111 684.06 866.876C683.388 867.623 682.987 868.668 682.856 870.012H690.5C690.5 869.153 690.369 868.407 690.108 867.772C689.847 867.137 689.445 866.643 688.904 866.288C688.381 865.915 687.7 865.728 686.86 865.728ZM699.361 863.992V870.236H707.509V863.992H709.973V879H707.509V872.308H699.361V879H696.897V863.992H699.361ZM725.085 866.064H720.185V879H717.749V866.064H712.905V863.992H725.085V866.064Z" fill="#3A00E5"/>
</g>
<rect x="440.779" y="852" width="96.5294" height="98" rx="7" fill="#EFEFF0"/>
<rect x="440.779" y="852" width="96.5294" height="98" rx="7" stroke="#AFB1B6" stroke-width="2"/>
<mask id="mask2_238_2644" style="mask-type:luminance" maskUnits="userSpaceOnUse" x="478" y="891" width="21" height="20">
<path fill-rule="evenodd" clip-rule="evenodd" d="M478.779 891H498.739V910.95H478.779V891Z" fill="white"/>
</mask>
<g mask="url(#mask2_238_2644)">
<path fill-rule="evenodd" clip-rule="evenodd" d="M484.429 892.5C481.908 892.5 480.279 894.227 480.279 896.899V905.051C480.279 907.724 481.908 909.45 484.429 909.45H493.079C495.606 909.45 497.239 907.724 497.239 905.051V896.899C497.239 894.227 495.606 892.5 493.079 892.5H484.429ZM493.079 910.95H484.429C481.049 910.95 478.779 908.579 478.779 905.051V896.899C478.779 893.371 481.049 891 484.429 891H493.079C496.464 891 498.739 893.371 498.739 896.899V905.051C498.739 908.579 496.464 910.95 493.079 910.95Z" fill="#AFB1B6"/>
</g>
<path fill-rule="evenodd" clip-rule="evenodd" d="M482.061 906.18C481.875 906.18 481.69 906.112 481.545 905.974C481.244 905.69 481.232 905.214 481.517 904.915L483.045 903.302C483.854 902.443 485.219 902.401 486.082 903.211L487.04 904.183C487.307 904.453 487.741 904.458 488.009 904.194C488.11 904.075 490.288 901.43 490.288 901.43C490.702 900.928 491.286 900.618 491.935 900.554C492.585 900.497 493.216 900.686 493.719 901.099C493.762 901.134 493.801 901.168 495.997 903.423C496.286 903.719 496.281 904.194 495.984 904.483C495.688 904.774 495.212 904.765 494.923 904.469C494.923 904.469 492.874 902.366 492.728 902.224C492.573 902.097 492.324 902.023 492.079 902.047C491.83 902.072 491.606 902.191 491.447 902.384C489.123 905.203 489.095 905.23 489.057 905.267C488.199 906.109 486.814 906.095 485.971 905.235C485.971 905.235 485.041 904.291 485.025 904.272C484.794 904.058 484.382 904.072 484.135 904.333L482.605 905.946C482.457 906.102 482.259 906.18 482.061 906.18Z" fill="#AFB1B6"/>
<path fill-rule="evenodd" clip-rule="evenodd" d="M485.337 897.129C484.784 897.129 484.334 897.579 484.334 898.133C484.334 898.687 484.784 899.138 485.338 899.138C485.892 899.138 486.343 898.687 486.343 898.133C486.343 897.58 485.892 897.13 485.337 897.129ZM485.338 900.638C483.957 900.638 482.834 899.514 482.834 898.133C482.834 896.752 483.957 895.629 485.338 895.629C486.72 895.63 487.843 896.754 487.843 898.133C487.843 899.514 486.719 900.638 485.338 900.638Z" fill="#AFB1B6"/>
<path fill-rule="evenodd" clip-rule="evenodd" d="M667.052 928.5C664.56 928.5 662.949 930.233 662.949 932.916V941.084C662.949 943.767 664.56 945.5 667.052 945.5H675.593C678.087 945.5 679.699 943.767 679.699 941.084V932.916C679.699 930.233 678.087 928.5 675.594 928.5H667.052ZM675.593 947H667.052C663.713 947 661.471 944.622 661.471 941.084V932.916C661.471 929.378 663.713 927 667.052 927H675.594C678.933 927 681.177 929.378 681.177 932.916V941.084C681.177 944.622 678.933 947 675.593 947Z" fill="black"/>
<path fill-rule="evenodd" clip-rule="evenodd" d="M670.155 940.123C669.967 940.123 669.777 940.05 669.633 939.903L667.294 937.53C667.005 937.237 667.005 936.763 667.294 936.47C667.582 936.177 668.049 936.177 668.338 936.47L670.155 938.312L674.309 934.097C674.598 933.804 675.065 933.804 675.353 934.097C675.642 934.39 675.642 934.864 675.353 935.157L670.677 939.903C670.533 940.05 670.344 940.123 670.155 940.123Z" fill="black"/>
<mask id="path-32-inside-2_238_2644" fill="white">
<path d="M565.897 913H639.795V953H565.897V913Z"/>
</mask>
<path d="M565.897 913H639.795V953H565.897V913Z" fill="#F7F5FF"/>
<path d="M639.795 953V952H565.897V953V954H639.795V953Z" fill="#3A00E5" mask="url(#path-32-inside-2_238_2644)"/>
<g clip-path="url(#clip6_238_2644)">
<path d="M587.827 938.056V939.172H581.359V938.056H587.827ZM594.896 938.056V939.172H588.428V938.056H594.896ZM601.965 938.056V939.172H595.497V938.056H601.965ZM605.998 928.432C607.118 928.432 607.934 928.652 608.446 929.092C608.958 929.532 609.214 930.152 609.214 930.952C609.214 931.304 609.154 931.644 609.034 931.972C608.922 932.292 608.734 932.58 608.47 932.836C608.206 933.092 607.854 933.296 607.414 933.448C606.974 933.592 606.434 933.664 605.794 933.664H604.81V937H603.73V928.432H605.998ZM605.902 929.356H604.81V932.74H605.674C606.218 932.74 606.67 932.684 607.03 932.572C607.39 932.452 607.658 932.264 607.834 932.008C608.01 931.752 608.098 931.416 608.098 931C608.098 930.448 607.922 930.036 607.57 929.764C607.218 929.492 606.662 929.356 605.902 929.356ZM610.443 930.568H611.571L612.963 934.228C613.043 934.444 613.115 934.652 613.179 934.852C613.251 935.052 613.315 935.248 613.371 935.44C613.427 935.624 613.471 935.804 613.503 935.98H613.551C613.599 935.78 613.675 935.52 613.779 935.2C613.883 934.872 613.991 934.544 614.103 934.216L615.411 930.568H616.551L613.779 937.888C613.627 938.288 613.447 938.636 613.239 938.932C613.039 939.236 612.791 939.468 612.495 939.628C612.207 939.796 611.855 939.88 611.439 939.88C611.247 939.88 611.079 939.868 610.935 939.844C610.791 939.828 610.667 939.808 610.563 939.784V938.944C610.651 938.96 610.755 938.976 610.875 938.992C611.003 939.008 611.135 939.016 611.271 939.016C611.519 939.016 611.731 938.968 611.907 938.872C612.091 938.784 612.247 938.652 612.375 938.476C612.503 938.308 612.611 938.108 612.699 937.876L613.035 937.024L610.443 930.568ZM617.832 933.136C617.832 932.2 617.924 931.404 618.108 930.748C618.3 930.084 618.592 929.556 618.984 929.164C619.384 928.764 619.896 928.496 620.52 928.36C621.04 928.248 621.548 928.148 622.044 928.06C622.54 927.972 623.004 927.892 623.436 927.82L623.616 928.744C623.408 928.776 623.176 928.816 622.92 928.864C622.664 928.904 622.404 928.948 622.14 928.996C621.876 929.036 621.62 929.08 621.372 929.128C621.132 929.168 620.92 929.208 620.736 929.248C620.472 929.304 620.236 929.4 620.028 929.536C619.82 929.664 619.64 929.84 619.488 930.064C619.344 930.288 619.228 930.564 619.14 930.892C619.052 931.22 619 931.608 618.984 932.056H619.056C619.168 931.904 619.32 931.748 619.512 931.588C619.712 931.428 619.948 931.292 620.22 931.18C620.5 931.068 620.816 931.012 621.168 931.012C621.728 931.012 622.192 931.136 622.56 931.384C622.936 931.624 623.216 931.96 623.4 932.392C623.592 932.824 623.688 933.328 623.688 933.904C623.688 934.616 623.564 935.212 623.316 935.692C623.068 936.172 622.724 936.532 622.284 936.772C621.844 937.004 621.332 937.12 620.748 937.12C620.308 937.12 619.908 937.036 619.548 936.868C619.188 936.692 618.88 936.436 618.624 936.1C618.368 935.764 618.172 935.348 618.036 934.852C617.9 934.356 617.832 933.784 617.832 933.136ZM620.832 936.244C621.184 936.244 621.488 936.172 621.744 936.028C622.008 935.884 622.212 935.648 622.356 935.32C622.5 934.992 622.572 934.556 622.572 934.012C622.572 933.356 622.448 932.84 622.2 932.464C621.96 932.08 621.56 931.888 621 931.888C620.648 931.888 620.328 931.968 620.04 932.128C619.752 932.28 619.512 932.456 619.32 932.656C619.128 932.856 618.992 933.024 618.912 933.16C618.912 933.552 618.94 933.932 618.996 934.3C619.052 934.668 619.148 935 619.284 935.296C619.428 935.584 619.624 935.816 619.872 935.992C620.128 936.16 620.448 936.244 620.832 936.244Z" fill="#3A00E5"/>
</g>
<rect x="68.5" y="837.5" width="318" height="129" rx="9.5" stroke="#AFB1B6"/>
<g clip-path="url(#clip7_238_2644)">
<path d="M205.729 859.008H208.081V869.984C208.081 870.451 208.072 870.964 208.053 871.524C208.053 872.065 208.044 872.607 208.025 873.148C208.007 873.689 207.979 874.175 207.941 874.604C207.923 875.015 207.904 875.332 207.885 875.556H207.997L219.001 859.008H221.801V879H219.449V868.136C219.449 867.632 219.459 867.091 219.477 866.512C219.496 865.915 219.515 865.345 219.533 864.804C219.571 864.244 219.599 863.749 219.617 863.32C219.636 862.891 219.655 862.573 219.673 862.368H219.561L208.529 879H205.729V859.008ZM229.322 863.992V870.236H237.47V863.992H239.934V879H237.47V872.308H229.322V879H226.858V863.992H229.322ZM253.842 863.992V866.064H247.15V879H244.686V863.992H253.842ZM263.939 863.712C265.787 863.712 267.271 864.356 268.391 865.644C269.53 866.932 270.099 868.873 270.099 871.468C270.099 873.167 269.838 874.604 269.315 875.78C268.811 876.937 268.092 877.815 267.159 878.412C266.244 878.991 265.162 879.28 263.911 879.28C263.146 879.28 262.464 879.177 261.867 878.972C261.27 878.767 260.756 878.505 260.327 878.188C259.916 877.852 259.562 877.488 259.263 877.096H259.095C259.132 877.413 259.17 877.815 259.207 878.3C259.244 878.785 259.263 879.205 259.263 879.56V885.72H256.799V863.992H258.815L259.151 866.036H259.263C259.562 865.607 259.916 865.215 260.327 864.86C260.756 864.505 261.26 864.225 261.839 864.02C262.436 863.815 263.136 863.712 263.939 863.712ZM263.491 865.784C262.483 865.784 261.671 865.98 261.055 866.372C260.439 866.745 259.991 867.315 259.711 868.08C259.431 868.845 259.282 869.816 259.263 870.992V871.468C259.263 872.7 259.394 873.745 259.655 874.604C259.916 875.463 260.355 876.116 260.971 876.564C261.606 877.012 262.464 877.236 263.547 877.236C264.462 877.236 265.208 876.984 265.787 876.48C266.384 875.976 266.823 875.295 267.103 874.436C267.402 873.559 267.551 872.56 267.551 871.44C267.551 869.723 267.215 868.351 266.543 867.324C265.89 866.297 264.872 865.784 263.491 865.784ZM279.822 863.712C281.11 863.712 282.211 863.992 283.126 864.552C284.059 865.112 284.768 865.905 285.254 866.932C285.758 867.94 286.01 869.125 286.01 870.488V871.972H275.734C275.771 873.671 276.2 874.968 277.022 875.864C277.862 876.741 279.028 877.18 280.522 877.18C281.474 877.18 282.314 877.096 283.042 876.928C283.788 876.741 284.554 876.48 285.338 876.144V878.3C284.572 878.636 283.816 878.879 283.07 879.028C282.323 879.196 281.436 879.28 280.41 879.28C278.991 879.28 277.731 878.991 276.63 878.412C275.547 877.833 274.698 876.975 274.082 875.836C273.484 874.679 273.186 873.269 273.186 871.608C273.186 869.965 273.456 868.556 273.998 867.38C274.558 866.204 275.332 865.299 276.322 864.664C277.33 864.029 278.496 863.712 279.822 863.712ZM279.794 865.728C278.618 865.728 277.684 866.111 276.994 866.876C276.322 867.623 275.92 868.668 275.79 870.012H283.434C283.434 869.153 283.303 868.407 283.042 867.772C282.78 867.137 282.379 866.643 281.838 866.288C281.315 865.915 280.634 865.728 279.794 865.728ZM300.974 863.992V876.928H303.158V884.208H300.778V879H290.334V884.208H287.982V876.928H289.186C290.045 875.733 290.754 874.436 291.314 873.036C291.893 871.617 292.322 870.143 292.602 868.612C292.901 867.063 293.06 865.523 293.078 863.992H300.974ZM295.262 865.924C295.188 867.193 294.992 868.509 294.674 869.872C294.357 871.216 293.946 872.504 293.442 873.736C292.957 874.968 292.388 876.032 291.734 876.928H298.594V865.924H295.262ZM308.424 873.148C308.424 873.316 308.414 873.559 308.396 873.876C308.396 874.175 308.386 874.501 308.368 874.856C308.349 875.192 308.33 875.519 308.312 875.836C308.293 876.135 308.274 876.377 308.256 876.564L316.292 863.992H319.316V879H317.02V870.152C317.02 869.853 317.02 869.461 317.02 868.976C317.038 868.491 317.057 868.015 317.076 867.548C317.094 867.063 317.113 866.699 317.132 866.456L309.152 879H306.1V863.992H308.424V873.148ZM329.888 863.712C331.176 863.712 332.277 863.992 333.192 864.552C334.125 865.112 334.835 865.905 335.32 866.932C335.824 867.94 336.076 869.125 336.076 870.488V871.972H325.8C325.837 873.671 326.267 874.968 327.088 875.864C327.928 876.741 329.095 877.18 330.588 877.18C331.54 877.18 332.38 877.096 333.108 876.928C333.855 876.741 334.62 876.48 335.404 876.144V878.3C334.639 878.636 333.883 878.879 333.136 879.028C332.389 879.196 331.503 879.28 330.476 879.28C329.057 879.28 327.797 878.991 326.696 878.412C325.613 877.833 324.764 876.975 324.148 875.836C323.551 874.679 323.252 873.269 323.252 871.608C323.252 869.965 323.523 868.556 324.064 867.38C324.624 866.204 325.399 865.299 326.388 864.664C327.396 864.029 328.563 863.712 329.888 863.712ZM329.86 865.728C328.684 865.728 327.751 866.111 327.06 866.876C326.388 867.623 325.987 868.668 325.856 870.012H333.5C333.5 869.153 333.369 868.407 333.108 867.772C332.847 867.137 332.445 866.643 331.904 866.288C331.381 865.915 330.7 865.728 329.86 865.728ZM342.361 863.992V870.236H350.509V863.992H352.973V879H350.509V872.308H342.361V879H339.897V863.992H342.361ZM368.085 866.064H363.185V879H360.749V866.064H355.905V863.992H368.085V866.064Z" fill="#3A00E5"/>
</g>
<rect x="83.7793" y="852" width="96.5294" height="98" rx="7" fill="#EFEFF0"/>
<rect x="83.7793" y="852" width="96.5294" height="98" rx="7" stroke="#AFB1B6" stroke-width="2"/>
<mask id="mask3_238_2644" style="mask-type:luminance" maskUnits="userSpaceOnUse" x="121" y="891" width="21" height="20">
<path fill-rule="evenodd" clip-rule="evenodd" d="M121.78 891H141.739V910.95H121.78V891Z" fill="white"/>
</mask>
<g mask="url(#mask3_238_2644)">
<path fill-rule="evenodd" clip-rule="evenodd" d="M127.43 892.5C124.909 892.5 123.28 894.227 123.28 896.899V905.051C123.28 907.724 124.909 909.45 127.43 909.45H136.08C138.607 909.45 140.24 907.724 140.24 905.051V896.899C140.24 894.227 138.607 892.5 136.08 892.5H127.43ZM136.08 910.95H127.43C124.05 910.95 121.78 908.579 121.78 905.051V896.899C121.78 893.371 124.05 891 127.43 891H136.08C139.465 891 141.74 893.371 141.74 896.899V905.051C141.74 908.579 139.465 910.95 136.08 910.95Z" fill="#AFB1B6"/>
</g>
<path fill-rule="evenodd" clip-rule="evenodd" d="M125.061 906.18C124.875 906.18 124.69 906.112 124.545 905.974C124.244 905.69 124.232 905.214 124.517 904.915L126.045 903.302C126.854 902.443 128.219 902.401 129.082 903.211L130.04 904.183C130.307 904.453 130.741 904.458 131.009 904.194C131.11 904.075 133.288 901.43 133.288 901.43C133.702 900.928 134.286 900.618 134.935 900.554C135.585 900.497 136.216 900.686 136.719 901.099C136.762 901.134 136.801 901.168 138.997 903.423C139.286 903.719 139.281 904.194 138.984 904.483C138.688 904.774 138.212 904.765 137.923 904.469C137.923 904.469 135.874 902.366 135.728 902.224C135.573 902.097 135.324 902.023 135.079 902.047C134.83 902.072 134.606 902.191 134.447 902.384C132.123 905.203 132.095 905.23 132.057 905.267C131.199 906.109 129.814 906.095 128.971 905.235C128.971 905.235 128.041 904.291 128.025 904.272C127.794 904.058 127.382 904.072 127.135 904.333L125.605 905.946C125.457 906.102 125.259 906.18 125.061 906.18Z" fill="#AFB1B6"/>
<path fill-rule="evenodd" clip-rule="evenodd" d="M128.337 897.129C127.784 897.129 127.334 897.579 127.334 898.133C127.334 898.687 127.784 899.138 128.338 899.138C128.892 899.138 129.343 898.687 129.343 898.133C129.343 897.58 128.892 897.13 128.337 897.129ZM128.338 900.638C126.957 900.638 125.834 899.514 125.834 898.133C125.834 896.752 126.957 895.629 128.338 895.629C129.72 895.63 130.843 896.754 130.843 898.133C130.843 899.514 129.719 900.638 128.338 900.638Z" fill="#AFB1B6"/>
<path fill-rule="evenodd" clip-rule="evenodd" d="M310.052 928.5C307.56 928.5 305.949 930.233 305.949 932.916V941.084C305.949 943.767 307.56 945.5 310.052 945.5H318.593C321.087 945.5 322.699 943.767 322.699 941.084V932.916C322.699 930.233 321.087 928.5 318.594 928.5H310.052ZM318.593 947H310.052C306.713 947 304.471 944.622 304.471 941.084V932.916C304.471 929.378 306.713 927 310.052 927H318.594C321.933 927 324.177 929.378 324.177 932.916V941.084C324.177 944.622 321.933 947 318.593 947Z" fill="black"/>
<path fill-rule="evenodd" clip-rule="evenodd" d="M313.154 940.123C312.966 940.123 312.776 940.05 312.632 939.903L310.293 937.53C310.004 937.237 310.004 936.763 310.293 936.47C310.582 936.177 311.049 936.177 311.338 936.47L313.154 938.312L317.308 934.097C317.597 933.804 318.064 933.804 318.353 934.097C318.642 934.39 318.642 934.864 318.353 935.157L313.677 939.903C313.533 940.05 313.344 940.123 313.154 940.123Z" fill="black"/>
<mask id="path-44-inside-3_238_2644" fill="white">
<path d="M208.897 913H282.794V953H208.897V913Z"/>
</mask>
<path d="M208.897 913H282.794V953H208.897V913Z" fill="#F7F5FF"/>
<path d="M282.794 953V952H208.897V953V954H282.794V953Z" fill="#3A00E5" mask="url(#path-44-inside-3_238_2644)"/>
<g clip-path="url(#clip8_238_2644)">
<path d="M230.827 938.056V939.172H224.359V938.056H230.827ZM237.896 938.056V939.172H231.428V938.056H237.896ZM244.965 938.056V939.172H238.497V938.056H244.965ZM248.998 928.432C250.118 928.432 250.934 928.652 251.446 929.092C251.958 929.532 252.214 930.152 252.214 930.952C252.214 931.304 252.154 931.644 252.034 931.972C251.922 932.292 251.734 932.58 251.47 932.836C251.206 933.092 250.854 933.296 250.414 933.448C249.974 933.592 249.434 933.664 248.794 933.664H247.81V937H246.73V928.432H248.998ZM248.902 929.356H247.81V932.74H248.674C249.218 932.74 249.67 932.684 250.03 932.572C250.39 932.452 250.658 932.264 250.834 932.008C251.01 931.752 251.098 931.416 251.098 931C251.098 930.448 250.922 930.036 250.57 929.764C250.218 929.492 249.662 929.356 248.902 929.356ZM253.443 930.568H254.571L255.963 934.228C256.043 934.444 256.115 934.652 256.179 934.852C256.251 935.052 256.315 935.248 256.371 935.44C256.427 935.624 256.471 935.804 256.503 935.98H256.551C256.599 935.78 256.675 935.52 256.779 935.2C256.883 934.872 256.991 934.544 257.103 934.216L258.411 930.568H259.551L256.779 937.888C256.627 938.288 256.447 938.636 256.239 938.932C256.039 939.236 255.791 939.468 255.495 939.628C255.207 939.796 254.855 939.88 254.439 939.88C254.247 939.88 254.079 939.868 253.935 939.844C253.791 939.828 253.667 939.808 253.563 939.784V938.944C253.651 938.96 253.755 938.976 253.875 938.992C254.003 939.008 254.135 939.016 254.271 939.016C254.519 939.016 254.731 938.968 254.907 938.872C255.091 938.784 255.247 938.652 255.375 938.476C255.503 938.308 255.611 938.108 255.699 937.876L256.035 937.024L253.443 930.568ZM260.832 933.136C260.832 932.2 260.924 931.404 261.108 930.748C261.3 930.084 261.592 929.556 261.984 929.164C262.384 928.764 262.896 928.496 263.52 928.36C264.04 928.248 264.548 928.148 265.044 928.06C265.54 927.972 266.004 927.892 266.436 927.82L266.616 928.744C266.408 928.776 266.176 928.816 265.92 928.864C265.664 928.904 265.404 928.948 265.14 928.996C264.876 929.036 264.62 929.08 264.372 929.128C264.132 929.168 263.92 929.208 263.736 929.248C263.472 929.304 263.236 929.4 263.028 929.536C262.82 929.664 262.64 929.84 262.488 930.064C262.344 930.288 262.228 930.564 262.14 930.892C262.052 931.22 262 931.608 261.984 932.056H262.056C262.168 931.904 262.32 931.748 262.512 931.588C262.712 931.428 262.948 931.292 263.22 931.18C263.5 931.068 263.816 931.012 264.168 931.012C264.728 931.012 265.192 931.136 265.56 931.384C265.936 931.624 266.216 931.96 266.4 932.392C266.592 932.824 266.688 933.328 266.688 933.904C266.688 934.616 266.564 935.212 266.316 935.692C266.068 936.172 265.724 936.532 265.284 936.772C264.844 937.004 264.332 937.12 263.748 937.12C263.308 937.12 262.908 937.036 262.548 936.868C262.188 936.692 261.88 936.436 261.624 936.1C261.368 935.764 261.172 935.348 261.036 934.852C260.9 934.356 260.832 933.784 260.832 933.136ZM263.832 936.244C264.184 936.244 264.488 936.172 264.744 936.028C265.008 935.884 265.212 935.648 265.356 935.32C265.5 934.992 265.572 934.556 265.572 934.012C265.572 933.356 265.448 932.84 265.2 932.464C264.96 932.08 264.56 931.888 264 931.888C263.648 931.888 263.328 931.968 263.04 932.128C262.752 932.28 262.512 932.456 262.32 932.656C262.128 932.856 261.992 933.024 261.912 933.16C261.912 933.552 261.94 933.932 261.996 934.3C262.052 934.668 262.148 935 262.284 935.296C262.428 935.584 262.624 935.816 262.872 935.992C263.128 936.16 263.448 936.244 263.832 936.244Z" fill="#3A00E5"/>
</g>
<rect x="68.5" y="675.5" width="318" height="129" rx="9.5" stroke="#AFB1B6"/>
<g clip-path="url(#clip9_238_2644)">
<path d="M205.729 697.008H208.081V707.984C208.081 708.451 208.072 708.964 208.053 709.524C208.053 710.065 208.044 710.607 208.025 711.148C208.007 711.689 207.979 712.175 207.941 712.604C207.923 713.015 207.904 713.332 207.885 713.556H207.997L219.001 697.008H221.801V717H219.449V706.136C219.449 705.632 219.459 705.091 219.477 704.512C219.496 703.915 219.515 703.345 219.533 702.804C219.571 702.244 219.599 701.749 219.617 701.32C219.636 700.891 219.655 700.573 219.673 700.368H219.561L208.529 717H205.729V697.008ZM229.322 701.992V708.236H237.47V701.992H239.934V717H237.47V710.308H229.322V717H226.858V701.992H229.322ZM253.842 701.992V704.064H247.15V717H244.686V701.992H253.842ZM263.939 701.712C265.787 701.712 267.271 702.356 268.391 703.644C269.53 704.932 270.099 706.873 270.099 709.468C270.099 711.167 269.838 712.604 269.315 713.78C268.811 714.937 268.092 715.815 267.159 716.412C266.244 716.991 265.162 717.28 263.911 717.28C263.146 717.28 262.464 717.177 261.867 716.972C261.27 716.767 260.756 716.505 260.327 716.188C259.916 715.852 259.562 715.488 259.263 715.096H259.095C259.132 715.413 259.17 715.815 259.207 716.3C259.244 716.785 259.263 717.205 259.263 717.56V723.72H256.799V701.992H258.815L259.151 704.036H259.263C259.562 703.607 259.916 703.215 260.327 702.86C260.756 702.505 261.26 702.225 261.839 702.02C262.436 701.815 263.136 701.712 263.939 701.712ZM263.491 703.784C262.483 703.784 261.671 703.98 261.055 704.372C260.439 704.745 259.991 705.315 259.711 706.08C259.431 706.845 259.282 707.816 259.263 708.992V709.468C259.263 710.7 259.394 711.745 259.655 712.604C259.916 713.463 260.355 714.116 260.971 714.564C261.606 715.012 262.464 715.236 263.547 715.236C264.462 715.236 265.208 714.984 265.787 714.48C266.384 713.976 266.823 713.295 267.103 712.436C267.402 711.559 267.551 710.56 267.551 709.44C267.551 707.723 267.215 706.351 266.543 705.324C265.89 704.297 264.872 703.784 263.491 703.784ZM279.822 701.712C281.11 701.712 282.211 701.992 283.126 702.552C284.059 703.112 284.768 703.905 285.254 704.932C285.758 705.94 286.01 707.125 286.01 708.488V709.972H275.734C275.771 711.671 276.2 712.968 277.022 713.864C277.862 714.741 279.028 715.18 280.522 715.18C281.474 715.18 282.314 715.096 283.042 714.928C283.788 714.741 284.554 714.48 285.338 714.144V716.3C284.572 716.636 283.816 716.879 283.07 717.028C282.323 717.196 281.436 717.28 280.41 717.28C278.991 717.28 277.731 716.991 276.63 716.412C275.547 715.833 274.698 714.975 274.082 713.836C273.484 712.679 273.186 711.269 273.186 709.608C273.186 707.965 273.456 706.556 273.998 705.38C274.558 704.204 275.332 703.299 276.322 702.664C277.33 702.029 278.496 701.712 279.822 701.712ZM279.794 703.728C278.618 703.728 277.684 704.111 276.994 704.876C276.322 705.623 275.92 706.668 275.79 708.012H283.434C283.434 707.153 283.303 706.407 283.042 705.772C282.78 705.137 282.379 704.643 281.838 704.288C281.315 703.915 280.634 703.728 279.794 703.728ZM300.974 701.992V714.928H303.158V722.208H300.778V717H290.334V722.208H287.982V714.928H289.186C290.045 713.733 290.754 712.436 291.314 711.036C291.893 709.617 292.322 708.143 292.602 706.612C292.901 705.063 293.06 703.523 293.078 701.992H300.974ZM295.262 703.924C295.188 705.193 294.992 706.509 294.674 707.872C294.357 709.216 293.946 710.504 293.442 711.736C292.957 712.968 292.388 714.032 291.734 714.928H298.594V703.924H295.262ZM308.424 711.148C308.424 711.316 308.414 711.559 308.396 711.876C308.396 712.175 308.386 712.501 308.368 712.856C308.349 713.192 308.33 713.519 308.312 713.836C308.293 714.135 308.274 714.377 308.256 714.564L316.292 701.992H319.316V717H317.02V708.152C317.02 707.853 317.02 707.461 317.02 706.976C317.038 706.491 317.057 706.015 317.076 705.548C317.094 705.063 317.113 704.699 317.132 704.456L309.152 717H306.1V701.992H308.424V711.148ZM329.888 701.712C331.176 701.712 332.277 701.992 333.192 702.552C334.125 703.112 334.835 703.905 335.32 704.932C335.824 705.94 336.076 707.125 336.076 708.488V709.972H325.8C325.837 711.671 326.267 712.968 327.088 713.864C327.928 714.741 329.095 715.18 330.588 715.18C331.54 715.18 332.38 715.096 333.108 714.928C333.855 714.741 334.62 714.48 335.404 714.144V716.3C334.639 716.636 333.883 716.879 333.136 717.028C332.389 717.196 331.503 717.28 330.476 717.28C329.057 717.28 327.797 716.991 326.696 716.412C325.613 715.833 324.764 714.975 324.148 713.836C323.551 712.679 323.252 711.269 323.252 709.608C323.252 707.965 323.523 706.556 324.064 705.38C324.624 704.204 325.399 703.299 326.388 702.664C327.396 702.029 328.563 701.712 329.888 701.712ZM329.86 703.728C328.684 703.728 327.751 704.111 327.06 704.876C326.388 705.623 325.987 706.668 325.856 708.012H333.5C333.5 707.153 333.369 706.407 333.108 705.772C332.847 705.137 332.445 704.643 331.904 704.288C331.381 703.915 330.7 703.728 329.86 703.728ZM342.361 701.992V708.236H350.509V701.992H352.973V717H350.509V710.308H342.361V717H339.897V701.992H342.361ZM368.085 704.064H363.185V717H360.749V704.064H355.905V701.992H368.085V704.064Z" fill="#3A00E5"/>
</g>
<rect x="83.7793" y="690" width="96.5294" height="98" rx="7" fill="#EFEFF0"/>
<rect x="83.7793" y="690" width="96.5294" height="98" rx="7" stroke="#AFB1B6" stroke-width="2"/>
<mask id="mask4_238_2644" style="mask-type:luminance" maskUnits="userSpaceOnUse" x="121" y="729" width="21" height="20">
<path fill-rule="evenodd" clip-rule="evenodd" d="M121.78 729H141.739V748.95H121.78V729Z" fill="white"/>
</mask>
<g mask="url(#mask4_238_2644)">
<path fill-rule="evenodd" clip-rule="evenodd" d="M127.43 730.5C124.909 730.5 123.28 732.227 123.28 734.899V743.051C123.28 745.724 124.909 747.45 127.43 747.45H136.08C138.607 747.45 140.24 745.724 140.24 743.051V734.899C140.24 732.227 138.607 730.5 136.08 730.5H127.43ZM136.08 748.95H127.43C124.05 748.95 121.78 746.579 121.78 743.051V734.899C121.78 731.371 124.05 729 127.43 729H136.08C139.465 729 141.74 731.371 141.74 734.899V743.051C141.74 746.579 139.465 748.95 136.08 748.95Z" fill="#AFB1B6"/>
</g>
<path fill-rule="evenodd" clip-rule="evenodd" d="M125.061 744.18C124.875 744.18 124.69 744.112 124.545 743.974C124.244 743.69 124.232 743.214 124.517 742.915L126.045 741.302C126.854 740.443 128.219 740.401 129.082 741.211L130.04 742.183C130.307 742.453 130.741 742.458 131.009 742.194C131.11 742.075 133.288 739.43 133.288 739.43C133.702 738.928 134.286 738.618 134.935 738.554C135.585 738.497 136.216 738.686 136.719 739.099C136.762 739.134 136.801 739.168 138.997 741.423C139.286 741.719 139.281 742.194 138.984 742.483C138.688 742.774 138.212 742.765 137.923 742.469C137.923 742.469 135.874 740.366 135.728 740.224C135.573 740.097 135.324 740.023 135.079 740.047C134.83 740.072 134.606 740.191 134.447 740.384C132.123 743.203 132.095 743.23 132.057 743.267C131.199 744.109 129.814 744.095 128.971 743.235C128.971 743.235 128.041 742.291 128.025 742.272C127.794 742.058 127.382 742.072 127.135 742.333L125.605 743.946C125.457 744.102 125.259 744.18 125.061 744.18Z" fill="#AFB1B6"/>
<path fill-rule="evenodd" clip-rule="evenodd" d="M128.337 735.129C127.784 735.129 127.334 735.579 127.334 736.133C127.334 736.687 127.784 737.138 128.338 737.138C128.892 737.138 129.343 736.687 129.343 736.133C129.343 735.58 128.892 735.13 128.337 735.129ZM128.338 738.638C126.957 738.638 125.834 737.514 125.834 736.133C125.834 734.752 126.957 733.629 128.338 733.629C129.72 733.63 130.843 734.754 130.843 736.133C130.843 737.514 129.719 738.638 128.338 738.638Z" fill="#AFB1B6"/>
<path fill-rule="evenodd" clip-rule="evenodd" d="M310.052 766.5C307.56 766.5 305.949 768.233 305.949 770.916V779.084C305.949 781.767 307.56 783.5 310.052 783.5H318.593C321.087 783.5 322.699 781.767 322.699 779.084V770.916C322.699 768.233 321.087 766.5 318.594 766.5H310.052ZM318.593 785H310.052C306.713 785 304.471 782.622 304.471 779.084V770.916C304.471 767.378 306.713 765 310.052 765H318.594C321.933 765 324.177 767.378 324.177 770.916V779.084C324.177 782.622 321.933 785 318.593 785Z" fill="black"/>
<path fill-rule="evenodd" clip-rule="evenodd" d="M313.154 778.123C312.966 778.123 312.776 778.05 312.632 777.903L310.293 775.53C310.004 775.237 310.004 774.763 310.293 774.47C310.582 774.177 311.049 774.177 311.338 774.47L313.154 776.312L317.308 772.097C317.597 771.804 318.064 771.804 318.353 772.097C318.642 772.39 318.642 772.864 318.353 773.157L313.677 777.903C313.533 778.05 313.344 778.123 313.154 778.123Z" fill="black"/>
<mask id="path-56-inside-4_238_2644" fill="white">
<path d="M208.897 751H282.794V791H208.897V751Z"/>
</mask>
<path d="M208.897 751H282.794V791H208.897V751Z" fill="#F7F5FF"/>
<path d="M282.794 791V790H208.897V791V792H282.794V791Z" fill="#3A00E5" mask="url(#path-56-inside-4_238_2644)"/>
<g clip-path="url(#clip10_238_2644)">
<path d="M230.827 776.056V777.172H224.359V776.056H230.827ZM237.896 776.056V777.172H231.428V776.056H237.896ZM244.965 776.056V777.172H238.497V776.056H244.965ZM248.998 766.432C250.118 766.432 250.934 766.652 251.446 767.092C251.958 767.532 252.214 768.152 252.214 768.952C252.214 769.304 252.154 769.644 252.034 769.972C251.922 770.292 251.734 770.58 251.47 770.836C251.206 771.092 250.854 771.296 250.414 771.448C249.974 771.592 249.434 771.664 248.794 771.664H247.81V775H246.73V766.432H248.998ZM248.902 767.356H247.81V770.74H248.674C249.218 770.74 249.67 770.684 250.03 770.572C250.39 770.452 250.658 770.264 250.834 770.008C251.01 769.752 251.098 769.416 251.098 769C251.098 768.448 250.922 768.036 250.57 767.764C250.218 767.492 249.662 767.356 248.902 767.356ZM253.443 768.568H254.571L255.963 772.228C256.043 772.444 256.115 772.652 256.179 772.852C256.251 773.052 256.315 773.248 256.371 773.44C256.427 773.624 256.471 773.804 256.503 773.98H256.551C256.599 773.78 256.675 773.52 256.779 773.2C256.883 772.872 256.991 772.544 257.103 772.216L258.411 768.568H259.551L256.779 775.888C256.627 776.288 256.447 776.636 256.239 776.932C256.039 777.236 255.791 777.468 255.495 777.628C255.207 777.796 254.855 777.88 254.439 777.88C254.247 777.88 254.079 777.868 253.935 777.844C253.791 777.828 253.667 777.808 253.563 777.784V776.944C253.651 776.96 253.755 776.976 253.875 776.992C254.003 777.008 254.135 777.016 254.271 777.016C254.519 777.016 254.731 776.968 254.907 776.872C255.091 776.784 255.247 776.652 255.375 776.476C255.503 776.308 255.611 776.108 255.699 775.876L256.035 775.024L253.443 768.568ZM260.832 771.136C260.832 770.2 260.924 769.404 261.108 768.748C261.3 768.084 261.592 767.556 261.984 767.164C262.384 766.764 262.896 766.496 263.52 766.36C264.04 766.248 264.548 766.148 265.044 766.06C265.54 765.972 266.004 765.892 266.436 765.82L266.616 766.744C266.408 766.776 266.176 766.816 265.92 766.864C265.664 766.904 265.404 766.948 265.14 766.996C264.876 767.036 264.62 767.08 264.372 767.128C264.132 767.168 263.92 767.208 263.736 767.248C263.472 767.304 263.236 767.4 263.028 767.536C262.82 767.664 262.64 767.84 262.488 768.064C262.344 768.288 262.228 768.564 262.14 768.892C262.052 769.22 262 769.608 261.984 770.056H262.056C262.168 769.904 262.32 769.748 262.512 769.588C262.712 769.428 262.948 769.292 263.22 769.18C263.5 769.068 263.816 769.012 264.168 769.012C264.728 769.012 265.192 769.136 265.56 769.384C265.936 769.624 266.216 769.96 266.4 770.392C266.592 770.824 266.688 771.328 266.688 771.904C266.688 772.616 266.564 773.212 266.316 773.692C266.068 774.172 265.724 774.532 265.284 774.772C264.844 775.004 264.332 775.12 263.748 775.12C263.308 775.12 262.908 775.036 262.548 774.868C262.188 774.692 261.88 774.436 261.624 774.1C261.368 773.764 261.172 773.348 261.036 772.852C260.9 772.356 260.832 771.784 260.832 771.136ZM263.832 774.244C264.184 774.244 264.488 774.172 264.744 774.028C265.008 773.884 265.212 773.648 265.356 773.32C265.5 772.992 265.572 772.556 265.572 772.012C265.572 771.356 265.448 770.84 265.2 770.464C264.96 770.08 264.56 769.888 264 769.888C263.648 769.888 263.328 769.968 263.04 770.128C262.752 770.28 262.512 770.456 262.32 770.656C262.128 770.856 261.992 771.024 261.912 771.16C261.912 771.552 261.94 771.932 261.996 772.3C262.052 772.668 262.148 773 262.284 773.296C262.428 773.584 262.624 773.816 262.872 773.992C263.128 774.16 263.448 774.244 263.832 774.244Z" fill="#3A00E5"/>
</g>
<rect x="425.5" y="676.5" width="318" height="129" rx="9.5" stroke="#AFB1B6"/>
<g clip-path="url(#clip11_238_2644)">
<path d="M562.729 698.008H565.081V708.984C565.081 709.451 565.072 709.964 565.053 710.524C565.053 711.065 565.044 711.607 565.025 712.148C565.007 712.689 564.979 713.175 564.941 713.604C564.923 714.015 564.904 714.332 564.885 714.556H564.997L576.001 698.008H578.801V718H576.449V707.136C576.449 706.632 576.459 706.091 576.477 705.512C576.496 704.915 576.515 704.345 576.533 703.804C576.571 703.244 576.599 702.749 576.617 702.32C576.636 701.891 576.655 701.573 576.673 701.368H576.561L565.529 718H562.729V698.008ZM586.322 702.992V709.236H594.47V702.992H596.934V718H594.47V711.308H586.322V718H583.858V702.992H586.322ZM610.842 702.992V705.064H604.15V718H601.686V702.992H610.842ZM620.939 702.712C622.787 702.712 624.271 703.356 625.391 704.644C626.53 705.932 627.099 707.873 627.099 710.468C627.099 712.167 626.838 713.604 626.315 714.78C625.811 715.937 625.092 716.815 624.159 717.412C623.244 717.991 622.162 718.28 620.911 718.28C620.146 718.28 619.464 718.177 618.867 717.972C618.27 717.767 617.756 717.505 617.327 717.188C616.916 716.852 616.562 716.488 616.263 716.096H616.095C616.132 716.413 616.17 716.815 616.207 717.3C616.244 717.785 616.263 718.205 616.263 718.56V724.72H613.799V702.992H615.815L616.151 705.036H616.263C616.562 704.607 616.916 704.215 617.327 703.86C617.756 703.505 618.26 703.225 618.839 703.02C619.436 702.815 620.136 702.712 620.939 702.712ZM620.491 704.784C619.483 704.784 618.671 704.98 618.055 705.372C617.439 705.745 616.991 706.315 616.711 707.08C616.431 707.845 616.282 708.816 616.263 709.992V710.468C616.263 711.7 616.394 712.745 616.655 713.604C616.916 714.463 617.355 715.116 617.971 715.564C618.606 716.012 619.464 716.236 620.547 716.236C621.462 716.236 622.208 715.984 622.787 715.48C623.384 714.976 623.823 714.295 624.103 713.436C624.402 712.559 624.551 711.56 624.551 710.44C624.551 708.723 624.215 707.351 623.543 706.324C622.89 705.297 621.872 704.784 620.491 704.784ZM636.822 702.712C638.11 702.712 639.211 702.992 640.126 703.552C641.059 704.112 641.768 704.905 642.254 705.932C642.758 706.94 643.01 708.125 643.01 709.488V710.972H632.734C632.771 712.671 633.2 713.968 634.022 714.864C634.862 715.741 636.028 716.18 637.522 716.18C638.474 716.18 639.314 716.096 640.042 715.928C640.788 715.741 641.554 715.48 642.338 715.144V717.3C641.572 717.636 640.816 717.879 640.07 718.028C639.323 718.196 638.436 718.28 637.41 718.28C635.991 718.28 634.731 717.991 633.63 717.412C632.547 716.833 631.698 715.975 631.082 714.836C630.484 713.679 630.186 712.269 630.186 710.608C630.186 708.965 630.456 707.556 630.998 706.38C631.558 705.204 632.332 704.299 633.322 703.664C634.33 703.029 635.496 702.712 636.822 702.712ZM636.794 704.728C635.618 704.728 634.684 705.111 633.994 705.876C633.322 706.623 632.92 707.668 632.79 709.012H640.434C640.434 708.153 640.303 707.407 640.042 706.772C639.78 706.137 639.379 705.643 638.838 705.288C638.315 704.915 637.634 704.728 636.794 704.728ZM657.974 702.992V715.928H660.158V723.208H657.778V718H647.334V723.208H644.982V715.928H646.186C647.045 714.733 647.754 713.436 648.314 712.036C648.893 710.617 649.322 709.143 649.602 707.612C649.901 706.063 650.06 704.523 650.078 702.992H657.974ZM652.262 704.924C652.188 706.193 651.992 707.509 651.674 708.872C651.357 710.216 650.946 711.504 650.442 712.736C649.957 713.968 649.388 715.032 648.734 715.928H655.594V704.924H652.262ZM665.424 712.148C665.424 712.316 665.414 712.559 665.396 712.876C665.396 713.175 665.386 713.501 665.368 713.856C665.349 714.192 665.33 714.519 665.312 714.836C665.293 715.135 665.274 715.377 665.256 715.564L673.292 702.992H676.316V718H674.02V709.152C674.02 708.853 674.02 708.461 674.02 707.976C674.038 707.491 674.057 707.015 674.076 706.548C674.094 706.063 674.113 705.699 674.132 705.456L666.152 718H663.1V702.992H665.424V712.148ZM686.888 702.712C688.176 702.712 689.277 702.992 690.192 703.552C691.125 704.112 691.835 704.905 692.32 705.932C692.824 706.94 693.076 708.125 693.076 709.488V710.972H682.8C682.837 712.671 683.267 713.968 684.088 714.864C684.928 715.741 686.095 716.18 687.588 716.18C688.54 716.18 689.38 716.096 690.108 715.928C690.855 715.741 691.62 715.48 692.404 715.144V717.3C691.639 717.636 690.883 717.879 690.136 718.028C689.389 718.196 688.503 718.28 687.476 718.28C686.057 718.28 684.797 717.991 683.696 717.412C682.613 716.833 681.764 715.975 681.148 714.836C680.551 713.679 680.252 712.269 680.252 710.608C680.252 708.965 680.523 707.556 681.064 706.38C681.624 705.204 682.399 704.299 683.388 703.664C684.396 703.029 685.563 702.712 686.888 702.712ZM686.86 704.728C685.684 704.728 684.751 705.111 684.06 705.876C683.388 706.623 682.987 707.668 682.856 709.012H690.5C690.5 708.153 690.369 707.407 690.108 706.772C689.847 706.137 689.445 705.643 688.904 705.288C688.381 704.915 687.7 704.728 686.86 704.728ZM699.361 702.992V709.236H707.509V702.992H709.973V718H707.509V711.308H699.361V718H696.897V702.992H699.361ZM725.085 705.064H720.185V718H717.749V705.064H712.905V702.992H725.085V705.064Z" fill="#3A00E5"/>
</g>
<rect x="440.779" y="691" width="96.5294" height="98" rx="7" fill="#EFEFF0"/>
<rect x="440.779" y="691" width="96.5294" height="98" rx="7" stroke="#AFB1B6" stroke-width="2"/>
<mask id="mask5_238_2644" style="mask-type:luminance" maskUnits="userSpaceOnUse" x="478" y="730" width="21" height="20">
<path fill-rule="evenodd" clip-rule="evenodd" d="M478.779 730H498.739V749.95H478.779V730Z" fill="white"/>
</mask>
<g mask="url(#mask5_238_2644)">
<path fill-rule="evenodd" clip-rule="evenodd" d="M484.429 731.5C481.908 731.5 480.279 733.227 480.279 735.899V744.051C480.279 746.724 481.908 748.45 484.429 748.45H493.079C495.606 748.45 497.239 746.724 497.239 744.051V735.899C497.239 733.227 495.606 731.5 493.079 731.5H484.429ZM493.079 749.95H484.429C481.049 749.95 478.779 747.579 478.779 744.051V735.899C478.779 732.371 481.049 730 484.429 730H493.079C496.464 730 498.739 732.371 498.739 735.899V744.051C498.739 747.579 496.464 749.95 493.079 749.95Z" fill="#AFB1B6"/>
</g>
<path fill-rule="evenodd" clip-rule="evenodd" d="M482.061 745.18C481.875 745.18 481.69 745.112 481.545 744.974C481.244 744.69 481.232 744.214 481.517 743.915L483.045 742.302C483.854 741.443 485.219 741.401 486.082 742.211L487.04 743.183C487.307 743.453 487.741 743.458 488.009 743.194C488.11 743.075 490.288 740.43 490.288 740.43C490.702 739.928 491.286 739.618 491.935 739.554C492.585 739.497 493.216 739.686 493.719 740.099C493.762 740.134 493.801 740.168 495.997 742.423C496.286 742.719 496.281 743.194 495.984 743.483C495.688 743.774 495.212 743.765 494.923 743.469C494.923 743.469 492.874 741.366 492.728 741.224C492.573 741.097 492.324 741.023 492.079 741.047C491.83 741.072 491.606 741.191 491.447 741.384C489.123 744.203 489.095 744.23 489.057 744.267C488.199 745.109 486.814 745.095 485.971 744.235C485.971 744.235 485.041 743.291 485.025 743.272C484.794 743.058 484.382 743.072 484.135 743.333L482.605 744.946C482.457 745.102 482.259 745.18 482.061 745.18Z" fill="#AFB1B6"/>
<path fill-rule="evenodd" clip-rule="evenodd" d="M485.337 736.129C484.784 736.129 484.334 736.579 484.334 737.133C484.334 737.687 484.784 738.138 485.338 738.138C485.892 738.138 486.343 737.687 486.343 737.133C486.343 736.58 485.892 736.13 485.337 736.129ZM485.338 739.638C483.957 739.638 482.834 738.514 482.834 737.133C482.834 735.752 483.957 734.629 485.338 734.629C486.72 734.63 487.843 735.754 487.843 737.133C487.843 738.514 486.719 739.638 485.338 739.638Z" fill="#AFB1B6"/>
<path fill-rule="evenodd" clip-rule="evenodd" d="M667.052 767.5C664.56 767.5 662.949 769.233 662.949 771.916V780.084C662.949 782.767 664.56 784.5 667.052 784.5H675.593C678.087 784.5 679.699 782.767 679.699 780.084V771.916C679.699 769.233 678.087 767.5 675.594 767.5H667.052ZM675.593 786H667.052C663.713 786 661.471 783.622 661.471 780.084V771.916C661.471 768.378 663.713 766 667.052 766H675.594C678.933 766 681.177 768.378 681.177 771.916V780.084C681.177 783.622 678.933 786 675.593 786Z" fill="black"/>
<path fill-rule="evenodd" clip-rule="evenodd" d="M670.155 779.123C669.967 779.123 669.777 779.05 669.633 778.903L667.294 776.53C667.005 776.237 667.005 775.763 667.294 775.47C667.582 775.177 668.049 775.177 668.338 775.47L670.155 777.312L674.309 773.097C674.598 772.804 675.065 772.804 675.353 773.097C675.642 773.39 675.642 773.864 675.353 774.157L670.677 778.903C670.533 779.05 670.344 779.123 670.155 779.123Z" fill="black"/>
<mask id="path-68-inside-5_238_2644" fill="white">
<path d="M565.897 752H639.795V792H565.897V752Z"/>
</mask>
<path d="M565.897 752H639.795V792H565.897V752Z" fill="#F7F5FF"/>
<path d="M639.795 792V791H565.897V792V793H639.795V792Z" fill="#3A00E5" mask="url(#path-68-inside-5_238_2644)"/>
<g clip-path="url(#clip12_238_2644)">
<path d="M587.827 777.056V778.172H581.359V777.056H587.827ZM594.896 777.056V778.172H588.428V777.056H594.896ZM601.965 777.056V778.172H595.497V777.056H601.965ZM605.998 767.432C607.118 767.432 607.934 767.652 608.446 768.092C608.958 768.532 609.214 769.152 609.214 769.952C609.214 770.304 609.154 770.644 609.034 770.972C608.922 771.292 608.734 771.58 608.47 771.836C608.206 772.092 607.854 772.296 607.414 772.448C606.974 772.592 606.434 772.664 605.794 772.664H604.81V776H603.73V767.432H605.998ZM605.902 768.356H604.81V771.74H605.674C606.218 771.74 606.67 771.684 607.03 771.572C607.39 771.452 607.658 771.264 607.834 771.008C608.01 770.752 608.098 770.416 608.098 770C608.098 769.448 607.922 769.036 607.57 768.764C607.218 768.492 606.662 768.356 605.902 768.356ZM610.443 769.568H611.571L612.963 773.228C613.043 773.444 613.115 773.652 613.179 773.852C613.251 774.052 613.315 774.248 613.371 774.44C613.427 774.624 613.471 774.804 613.503 774.98H613.551C613.599 774.78 613.675 774.52 613.779 774.2C613.883 773.872 613.991 773.544 614.103 773.216L615.411 769.568H616.551L613.779 776.888C613.627 777.288 613.447 777.636 613.239 777.932C613.039 778.236 612.791 778.468 612.495 778.628C612.207 778.796 611.855 778.88 611.439 778.88C611.247 778.88 611.079 778.868 610.935 778.844C610.791 778.828 610.667 778.808 610.563 778.784V777.944C610.651 777.96 610.755 777.976 610.875 777.992C611.003 778.008 611.135 778.016 611.271 778.016C611.519 778.016 611.731 777.968 611.907 777.872C612.091 777.784 612.247 777.652 612.375 777.476C612.503 777.308 612.611 777.108 612.699 776.876L613.035 776.024L610.443 769.568ZM617.832 772.136C617.832 771.2 617.924 770.404 618.108 769.748C618.3 769.084 618.592 768.556 618.984 768.164C619.384 767.764 619.896 767.496 620.52 767.36C621.04 767.248 621.548 767.148 622.044 767.06C622.54 766.972 623.004 766.892 623.436 766.82L623.616 767.744C623.408 767.776 623.176 767.816 622.92 767.864C622.664 767.904 622.404 767.948 622.14 767.996C621.876 768.036 621.62 768.08 621.372 768.128C621.132 768.168 620.92 768.208 620.736 768.248C620.472 768.304 620.236 768.4 620.028 768.536C619.82 768.664 619.64 768.84 619.488 769.064C619.344 769.288 619.228 769.564 619.14 769.892C619.052 770.22 619 770.608 618.984 771.056H619.056C619.168 770.904 619.32 770.748 619.512 770.588C619.712 770.428 619.948 770.292 620.22 770.18C620.5 770.068 620.816 770.012 621.168 770.012C621.728 770.012 622.192 770.136 622.56 770.384C622.936 770.624 623.216 770.96 623.4 771.392C623.592 771.824 623.688 772.328 623.688 772.904C623.688 773.616 623.564 774.212 623.316 774.692C623.068 775.172 622.724 775.532 622.284 775.772C621.844 776.004 621.332 776.12 620.748 776.12C620.308 776.12 619.908 776.036 619.548 775.868C619.188 775.692 618.88 775.436 618.624 775.1C618.368 774.764 618.172 774.348 618.036 773.852C617.9 773.356 617.832 772.784 617.832 772.136ZM620.832 775.244C621.184 775.244 621.488 775.172 621.744 775.028C622.008 774.884 622.212 774.648 622.356 774.32C622.5 773.992 622.572 773.556 622.572 773.012C622.572 772.356 622.448 771.84 622.2 771.464C621.96 771.08 621.56 770.888 621 770.888C620.648 770.888 620.328 770.968 620.04 771.128C619.752 771.28 619.512 771.456 619.32 771.656C619.128 771.856 618.992 772.024 618.912 772.16C618.912 772.552 618.94 772.932 618.996 773.3C619.052 773.668 619.148 774 619.284 774.296C619.428 774.584 619.624 774.816 619.872 774.992C620.128 775.16 620.448 775.244 620.832 775.244Z" fill="#3A00E5"/>
</g>
<rect x="68.5" y="513.5" width="318" height="129" rx="9.5" stroke="#AFB1B6"/>
<g clip-path="url(#clip13_238_2644)">
<path d="M205.729 535.008H208.081V545.984C208.081 546.451 208.072 546.964 208.053 547.524C208.053 548.065 208.044 548.607 208.025 549.148C208.007 549.689 207.979 550.175 207.941 550.604C207.923 551.015 207.904 551.332 207.885 551.556H207.997L219.001 535.008H221.801V555H219.449V544.136C219.449 543.632 219.459 543.091 219.477 542.512C219.496 541.915 219.515 541.345 219.533 540.804C219.571 540.244 219.599 539.749 219.617 539.32C219.636 538.891 219.655 538.573 219.673 538.368H219.561L208.529 555H205.729V535.008ZM229.322 539.992V546.236H237.47V539.992H239.934V555H237.47V548.308H229.322V555H226.858V539.992H229.322ZM253.842 539.992V542.064H247.15V555H244.686V539.992H253.842ZM263.939 539.712C265.787 539.712 267.271 540.356 268.391 541.644C269.53 542.932 270.099 544.873 270.099 547.468C270.099 549.167 269.838 550.604 269.315 551.78C268.811 552.937 268.092 553.815 267.159 554.412C266.244 554.991 265.162 555.28 263.911 555.28C263.146 555.28 262.464 555.177 261.867 554.972C261.27 554.767 260.756 554.505 260.327 554.188C259.916 553.852 259.562 553.488 259.263 553.096H259.095C259.132 553.413 259.17 553.815 259.207 554.3C259.244 554.785 259.263 555.205 259.263 555.56V561.72H256.799V539.992H258.815L259.151 542.036H259.263C259.562 541.607 259.916 541.215 260.327 540.86C260.756 540.505 261.26 540.225 261.839 540.02C262.436 539.815 263.136 539.712 263.939 539.712ZM263.491 541.784C262.483 541.784 261.671 541.98 261.055 542.372C260.439 542.745 259.991 543.315 259.711 544.08C259.431 544.845 259.282 545.816 259.263 546.992V547.468C259.263 548.7 259.394 549.745 259.655 550.604C259.916 551.463 260.355 552.116 260.971 552.564C261.606 553.012 262.464 553.236 263.547 553.236C264.462 553.236 265.208 552.984 265.787 552.48C266.384 551.976 266.823 551.295 267.103 550.436C267.402 549.559 267.551 548.56 267.551 547.44C267.551 545.723 267.215 544.351 266.543 543.324C265.89 542.297 264.872 541.784 263.491 541.784ZM279.822 539.712C281.11 539.712 282.211 539.992 283.126 540.552C284.059 541.112 284.768 541.905 285.254 542.932C285.758 543.94 286.01 545.125 286.01 546.488V547.972H275.734C275.771 549.671 276.2 550.968 277.022 551.864C277.862 552.741 279.028 553.18 280.522 553.18C281.474 553.18 282.314 553.096 283.042 552.928C283.788 552.741 284.554 552.48 285.338 552.144V554.3C284.572 554.636 283.816 554.879 283.07 555.028C282.323 555.196 281.436 555.28 280.41 555.28C278.991 555.28 277.731 554.991 276.63 554.412C275.547 553.833 274.698 552.975 274.082 551.836C273.484 550.679 273.186 549.269 273.186 547.608C273.186 545.965 273.456 544.556 273.998 543.38C274.558 542.204 275.332 541.299 276.322 540.664C277.33 540.029 278.496 539.712 279.822 539.712ZM279.794 541.728C278.618 541.728 277.684 542.111 276.994 542.876C276.322 543.623 275.92 544.668 275.79 546.012H283.434C283.434 545.153 283.303 544.407 283.042 543.772C282.78 543.137 282.379 542.643 281.838 542.288C281.315 541.915 280.634 541.728 279.794 541.728ZM300.974 539.992V552.928H303.158V560.208H300.778V555H290.334V560.208H287.982V552.928H289.186C290.045 551.733 290.754 550.436 291.314 549.036C291.893 547.617 292.322 546.143 292.602 544.612C292.901 543.063 293.06 541.523 293.078 539.992H300.974ZM295.262 541.924C295.188 543.193 294.992 544.509 294.674 545.872C294.357 547.216 293.946 548.504 293.442 549.736C292.957 550.968 292.388 552.032 291.734 552.928H298.594V541.924H295.262ZM308.424 549.148C308.424 549.316 308.414 549.559 308.396 549.876C308.396 550.175 308.386 550.501 308.368 550.856C308.349 551.192 308.33 551.519 308.312 551.836C308.293 552.135 308.274 552.377 308.256 552.564L316.292 539.992H319.316V555H317.02V546.152C317.02 545.853 317.02 545.461 317.02 544.976C317.038 544.491 317.057 544.015 317.076 543.548C317.094 543.063 317.113 542.699 317.132 542.456L309.152 555H306.1V539.992H308.424V549.148ZM329.888 539.712C331.176 539.712 332.277 539.992 333.192 540.552C334.125 541.112 334.835 541.905 335.32 542.932C335.824 543.94 336.076 545.125 336.076 546.488V547.972H325.8C325.837 549.671 326.267 550.968 327.088 551.864C327.928 552.741 329.095 553.18 330.588 553.18C331.54 553.18 332.38 553.096 333.108 552.928C333.855 552.741 334.62 552.48 335.404 552.144V554.3C334.639 554.636 333.883 554.879 333.136 555.028C332.389 555.196 331.503 555.28 330.476 555.28C329.057 555.28 327.797 554.991 326.696 554.412C325.613 553.833 324.764 552.975 324.148 551.836C323.551 550.679 323.252 549.269 323.252 547.608C323.252 545.965 323.523 544.556 324.064 543.38C324.624 542.204 325.399 541.299 326.388 540.664C327.396 540.029 328.563 539.712 329.888 539.712ZM329.86 541.728C328.684 541.728 327.751 542.111 327.06 542.876C326.388 543.623 325.987 544.668 325.856 546.012H333.5C333.5 545.153 333.369 544.407 333.108 543.772C332.847 543.137 332.445 542.643 331.904 542.288C331.381 541.915 330.7 541.728 329.86 541.728ZM342.361 539.992V546.236H350.509V539.992H352.973V555H350.509V548.308H342.361V555H339.897V539.992H342.361ZM368.085 542.064H363.185V555H360.749V542.064H355.905V539.992H368.085V542.064Z" fill="#3A00E5"/>
</g>
<rect x="83.7793" y="528" width="96.5294" height="98" rx="7" fill="#EFEFF0"/>
<rect x="83.7793" y="528" width="96.5294" height="98" rx="7" stroke="#AFB1B6" stroke-width="2"/>
<mask id="mask6_238_2644" style="mask-type:luminance" maskUnits="userSpaceOnUse" x="121" y="567" width="21" height="20">
<path fill-rule="evenodd" clip-rule="evenodd" d="M121.78 567H141.739V586.95H121.78V567Z" fill="white"/>
</mask>
<g mask="url(#mask6_238_2644)">
<path fill-rule="evenodd" clip-rule="evenodd" d="M127.43 568.5C124.909 568.5 123.28 570.227 123.28 572.899V581.051C123.28 583.724 124.909 585.45 127.43 585.45H136.08C138.607 585.45 140.24 583.724 140.24 581.051V572.899C140.24 570.227 138.607 568.5 136.08 568.5H127.43ZM136.08 586.95H127.43C124.05 586.95 121.78 584.579 121.78 581.051V572.899C121.78 569.371 124.05 567 127.43 567H136.08C139.465 567 141.74 569.371 141.74 572.899V581.051C141.74 584.579 139.465 586.95 136.08 586.95Z" fill="#AFB1B6"/>
</g>
<path fill-rule="evenodd" clip-rule="evenodd" d="M125.061 582.18C124.875 582.18 124.69 582.112 124.545 581.974C124.244 581.69 124.232 581.214 124.517 580.915L126.045 579.302C126.854 578.443 128.219 578.401 129.082 579.211L130.04 580.183C130.307 580.453 130.741 580.458 131.009 580.194C131.11 580.075 133.288 577.43 133.288 577.43C133.702 576.928 134.286 576.618 134.935 576.554C135.585 576.497 136.216 576.686 136.719 577.099C136.762 577.134 136.801 577.168 138.997 579.423C139.286 579.719 139.281 580.194 138.984 580.483C138.688 580.774 138.212 580.765 137.923 580.469C137.923 580.469 135.874 578.366 135.728 578.224C135.573 578.097 135.324 578.023 135.079 578.047C134.83 578.072 134.606 578.191 134.447 578.384C132.123 581.203 132.095 581.23 132.057 581.267C131.199 582.109 129.814 582.095 128.971 581.235C128.971 581.235 128.041 580.291 128.025 580.272C127.794 580.058 127.382 580.072 127.135 580.333L125.605 581.946C125.457 582.102 125.259 582.18 125.061 582.18Z" fill="#AFB1B6"/>
<path fill-rule="evenodd" clip-rule="evenodd" d="M128.337 573.129C127.784 573.129 127.334 573.579 127.334 574.133C127.334 574.687 127.784 575.138 128.338 575.138C128.892 575.138 129.343 574.687 129.343 574.133C129.343 573.58 128.892 573.13 128.337 573.129ZM128.338 576.638C126.957 576.638 125.834 575.514 125.834 574.133C125.834 572.752 126.957 571.629 128.338 571.629C129.72 571.63 130.843 572.754 130.843 574.133C130.843 575.514 129.719 576.638 128.338 576.638Z" fill="#AFB1B6"/>
<path fill-rule="evenodd" clip-rule="evenodd" d="M310.052 604.5C307.56 604.5 305.949 606.233 305.949 608.916V617.084C305.949 619.767 307.56 621.5 310.052 621.5H318.593C321.087 621.5 322.699 619.767 322.699 617.084V608.916C322.699 606.233 321.087 604.5 318.594 604.5H310.052ZM318.593 623H310.052C306.713 623 304.471 620.622 304.471 617.084V608.916C304.471 605.378 306.713 603 310.052 603H318.594C321.933 603 324.177 605.378 324.177 608.916V617.084C324.177 620.622 321.933 623 318.593 623Z" fill="black"/>
<path fill-rule="evenodd" clip-rule="evenodd" d="M313.154 616.123C312.966 616.123 312.776 616.05 312.632 615.903L310.293 613.53C310.004 613.237 310.004 612.763 310.293 612.47C310.582 612.177 311.049 612.177 311.338 612.47L313.154 614.312L317.308 610.097C317.597 609.804 318.064 609.804 318.353 610.097C318.642 610.39 318.642 610.864 318.353 611.157L313.677 615.903C313.533 616.05 313.344 616.123 313.154 616.123Z" fill="black"/>
<mask id="path-80-inside-6_238_2644" fill="white">
<path d="M208.897 589H282.794V629H208.897V589Z"/>
</mask>
<path d="M208.897 589H282.794V629H208.897V589Z" fill="#F7F5FF"/>
<path d="M282.794 629V628H208.897V629V630H282.794V629Z" fill="#3A00E5" mask="url(#path-80-inside-6_238_2644)"/>
<g clip-path="url(#clip14_238_2644)">
<path d="M230.827 614.056V615.172H224.359V614.056H230.827ZM237.896 614.056V615.172H231.428V614.056H237.896ZM244.965 614.056V615.172H238.497V614.056H244.965ZM248.998 604.432C250.118 604.432 250.934 604.652 251.446 605.092C251.958 605.532 252.214 606.152 252.214 606.952C252.214 607.304 252.154 607.644 252.034 607.972C251.922 608.292 251.734 608.58 251.47 608.836C251.206 609.092 250.854 609.296 250.414 609.448C249.974 609.592 249.434 609.664 248.794 609.664H247.81V613H246.73V604.432H248.998ZM248.902 605.356H247.81V608.74H248.674C249.218 608.74 249.67 608.684 250.03 608.572C250.39 608.452 250.658 608.264 250.834 608.008C251.01 607.752 251.098 607.416 251.098 607C251.098 606.448 250.922 606.036 250.57 605.764C250.218 605.492 249.662 605.356 248.902 605.356ZM253.443 606.568H254.571L255.963 610.228C256.043 610.444 256.115 610.652 256.179 610.852C256.251 611.052 256.315 611.248 256.371 611.44C256.427 611.624 256.471 611.804 256.503 611.98H256.551C256.599 611.78 256.675 611.52 256.779 611.2C256.883 610.872 256.991 610.544 257.103 610.216L258.411 606.568H259.551L256.779 613.888C256.627 614.288 256.447 614.636 256.239 614.932C256.039 615.236 255.791 615.468 255.495 615.628C255.207 615.796 254.855 615.88 254.439 615.88C254.247 615.88 254.079 615.868 253.935 615.844C253.791 615.828 253.667 615.808 253.563 615.784V614.944C253.651 614.96 253.755 614.976 253.875 614.992C254.003 615.008 254.135 615.016 254.271 615.016C254.519 615.016 254.731 614.968 254.907 614.872C255.091 614.784 255.247 614.652 255.375 614.476C255.503 614.308 255.611 614.108 255.699 613.876L256.035 613.024L253.443 606.568ZM260.832 609.136C260.832 608.2 260.924 607.404 261.108 606.748C261.3 606.084 261.592 605.556 261.984 605.164C262.384 604.764 262.896 604.496 263.52 604.36C264.04 604.248 264.548 604.148 265.044 604.06C265.54 603.972 266.004 603.892 266.436 603.82L266.616 604.744C266.408 604.776 266.176 604.816 265.92 604.864C265.664 604.904 265.404 604.948 265.14 604.996C264.876 605.036 264.62 605.08 264.372 605.128C264.132 605.168 263.92 605.208 263.736 605.248C263.472 605.304 263.236 605.4 263.028 605.536C262.82 605.664 262.64 605.84 262.488 606.064C262.344 606.288 262.228 606.564 262.14 606.892C262.052 607.22 262 607.608 261.984 608.056H262.056C262.168 607.904 262.32 607.748 262.512 607.588C262.712 607.428 262.948 607.292 263.22 607.18C263.5 607.068 263.816 607.012 264.168 607.012C264.728 607.012 265.192 607.136 265.56 607.384C265.936 607.624 266.216 607.96 266.4 608.392C266.592 608.824 266.688 609.328 266.688 609.904C266.688 610.616 266.564 611.212 266.316 611.692C266.068 612.172 265.724 612.532 265.284 612.772C264.844 613.004 264.332 613.12 263.748 613.12C263.308 613.12 262.908 613.036 262.548 612.868C262.188 612.692 261.88 612.436 261.624 612.1C261.368 611.764 261.172 611.348 261.036 610.852C260.9 610.356 260.832 609.784 260.832 609.136ZM263.832 612.244C264.184 612.244 264.488 612.172 264.744 612.028C265.008 611.884 265.212 611.648 265.356 611.32C265.5 610.992 265.572 610.556 265.572 610.012C265.572 609.356 265.448 608.84 265.2 608.464C264.96 608.08 264.56 607.888 264 607.888C263.648 607.888 263.328 607.968 263.04 608.128C262.752 608.28 262.512 608.456 262.32 608.656C262.128 608.856 261.992 609.024 261.912 609.16C261.912 609.552 261.94 609.932 261.996 610.3C262.052 610.668 262.148 611 262.284 611.296C262.428 611.584 262.624 611.816 262.872 611.992C263.128 612.16 263.448 612.244 263.832 612.244Z" fill="#3A00E5"/>
</g>
<mask id="path-83-inside-7_238_2644" fill="white">
<path d="M69 1058H232V1136H69V1058Z"/>
</mask>
<path d="M69 1058H232V1136H69V1058Z" fill="#F7F5FF"/>
<path d="M232 1136V1135H69V1136V1137H232V1136Z" fill="#3A00E5" mask="url(#path-83-inside-7_238_2644)"/>
<g clip-path="url(#clip15_238_2644)">
<path d="M121.28 1111.4C118.293 1111.4 115.907 1110.24 114.12 1107.92C112.333 1105.6 111.44 1102.23 111.44 1097.8C111.44 1093.37 112.333 1090 114.12 1087.68C115.907 1085.36 118.293 1084.2 121.28 1084.2C124.293 1084.2 126.68 1085.36 128.44 1087.68C130.227 1090 131.12 1093.37 131.12 1097.8C131.12 1102.23 130.227 1105.6 128.44 1107.92C126.68 1110.24 124.293 1111.4 121.28 1111.4ZM121.28 1108.52C122.693 1108.52 123.88 1108.12 124.84 1107.32C125.827 1106.49 126.56 1105.28 127.04 1103.68C127.547 1102.08 127.8 1100.12 127.8 1097.8C127.8 1095.48 127.547 1093.52 127.04 1091.92C126.56 1090.32 125.827 1089.12 124.84 1088.32C123.88 1087.49 122.693 1087.08 121.28 1087.08C119.867 1087.08 118.667 1087.49 117.68 1088.32C116.72 1089.12 115.987 1090.32 115.48 1091.92C115 1093.52 114.76 1095.48 114.76 1097.8C114.76 1100.12 115 1102.08 115.48 1103.68C115.987 1105.28 116.72 1106.49 117.68 1107.32C118.667 1108.12 119.867 1108.52 121.28 1108.52ZM138.066 1106.2C138.839 1106.2 139.466 1106.44 139.946 1106.92C140.426 1107.4 140.666 1108.03 140.666 1108.8C140.666 1109.57 140.426 1110.2 139.946 1110.68C139.466 1111.16 138.839 1111.4 138.066 1111.4C137.293 1111.4 136.666 1111.16 136.186 1110.68C135.706 1110.2 135.466 1109.57 135.466 1108.8C135.466 1108.03 135.706 1107.4 136.186 1106.92C136.666 1106.44 137.293 1106.2 138.066 1106.2ZM154.835 1111.4C151.848 1111.4 149.461 1110.24 147.675 1107.92C145.888 1105.6 144.995 1102.23 144.995 1097.8C144.995 1093.37 145.888 1090 147.675 1087.68C149.461 1085.36 151.848 1084.2 154.835 1084.2C157.848 1084.2 160.235 1085.36 161.995 1087.68C163.781 1090 164.675 1093.37 164.675 1097.8C164.675 1102.23 163.781 1105.6 161.995 1107.92C160.235 1110.24 157.848 1111.4 154.835 1111.4ZM154.835 1108.52C156.248 1108.52 157.435 1108.12 158.395 1107.32C159.381 1106.49 160.115 1105.28 160.595 1103.68C161.101 1102.08 161.355 1100.12 161.355 1097.8C161.355 1095.48 161.101 1093.52 160.595 1091.92C160.115 1090.32 159.381 1089.12 158.395 1088.32C157.435 1087.49 156.248 1087.08 154.835 1087.08C153.421 1087.08 152.221 1087.49 151.235 1088.32C150.275 1089.12 149.541 1090.32 149.035 1091.92C148.555 1093.52 148.315 1095.48 148.315 1097.8C148.315 1100.12 148.555 1102.08 149.035 1103.68C149.541 1105.28 150.275 1106.49 151.235 1107.32C152.221 1108.12 153.421 1108.52 154.835 1108.52ZM179.717 1111.4C176.731 1111.4 174.344 1110.24 172.557 1107.92C170.771 1105.6 169.877 1102.23 169.877 1097.8C169.877 1093.37 170.771 1090 172.557 1087.68C174.344 1085.36 176.731 1084.2 179.717 1084.2C182.731 1084.2 185.117 1085.36 186.877 1087.68C188.664 1090 189.557 1093.37 189.557 1097.8C189.557 1102.23 188.664 1105.6 186.877 1107.92C185.117 1110.24 182.731 1111.4 179.717 1111.4ZM179.717 1108.52C181.131 1108.52 182.317 1108.12 183.277 1107.32C184.264 1106.49 184.997 1105.28 185.477 1103.68C185.984 1102.08 186.237 1100.12 186.237 1097.8C186.237 1095.48 185.984 1093.52 185.477 1091.92C184.997 1090.32 184.264 1089.12 183.277 1088.32C182.317 1087.49 181.131 1087.08 179.717 1087.08C178.304 1087.08 177.104 1087.49 176.117 1088.32C175.157 1089.12 174.424 1090.32 173.917 1091.92C173.437 1093.52 173.197 1095.48 173.197 1097.8C173.197 1100.12 173.437 1102.08 173.917 1103.68C174.424 1105.28 175.157 1106.49 176.117 1107.32C177.104 1108.12 178.304 1108.52 179.717 1108.52Z" fill="#19191B"/>
</g>
<defs>
<clipPath id="clip0_238_2644">
<rect width="497" height="78" fill="white" transform="translate(292 1058)"/>
</clipPath>
<clipPath id="clip1_238_2644">
<rect width="209.25" height="36" fill="white" transform="translate(312 1079)"/>
</clipPath>
<clipPath id="clip2_238_2644">
<rect width="209.25" height="36" fill="white" transform="translate(559.75 1079)"/>
</clipPath>
<clipPath id="clip3_238_2644">
<rect width="170.456" height="36" fill="white" transform="translate(559.985 527)"/>
</clipPath>
<clipPath id="clip4_238_2644">
<rect width="43" height="16" fill="white" transform="translate(581.346 601)"/>
</clipPath>
<clipPath id="clip5_238_2644">
<rect width="170.456" height="36" fill="white" transform="translate(559.985 851)"/>
</clipPath>
<clipPath id="clip6_238_2644">
<rect width="43" height="16" fill="white" transform="translate(581.346 925)"/>
</clipPath>
<clipPath id="clip7_238_2644">
<rect width="170.456" height="36" fill="white" transform="translate(202.985 851)"/>
</clipPath>
<clipPath id="clip8_238_2644">
<rect width="43" height="16" fill="white" transform="translate(224.346 925)"/>
</clipPath>
<clipPath id="clip9_238_2644">
<rect width="170.456" height="36" fill="white" transform="translate(202.985 689)"/>
</clipPath>
<clipPath id="clip10_238_2644">
<rect width="43" height="16" fill="white" transform="translate(224.346 763)"/>
</clipPath>
<clipPath id="clip11_238_2644">
<rect width="170.456" height="36" fill="white" transform="translate(559.985 690)"/>
</clipPath>
<clipPath id="clip12_238_2644">
<rect width="43" height="16" fill="white" transform="translate(581.346 764)"/>
</clipPath>
<clipPath id="clip13_238_2644">
<rect width="170.456" height="36" fill="white" transform="translate(202.985 527)"/>
</clipPath>
<clipPath id="clip14_238_2644">
<rect width="43" height="16" fill="white" transform="translate(224.346 601)"/>
</clipPath>
<clipPath id="clip15_238_2644">
<rect width="84" height="48" fill="white" transform="translate(108.5 1073)"/>
</clipPath>
</defs>
</svg>
