<?xml version="1.0" encoding="us-ascii" standalone="no"?><svg xmlns="http://www.w3.org/2000/svg" xmlns:xlink="http://www.w3.org/1999/xlink" contentStyleType="text/css" height="808px" preserveAspectRatio="none" style="width:832px;height:808px;background:#FFFFFF;" version="1.1" viewBox="0 0 832 808" width="832px" zoomAndPan="magnify"><defs/><g><!--class ??????--><g id="elem_&#1050;&#1083;&#1080;&#1077;&#1085;&#1090;"><rect codeLine="1" fill="#F1F1F1" height="83.2188" id="&#1050;&#1083;&#1080;&#1077;&#1085;&#1090;" rx="2.5" ry="2.5" style="stroke:#181818;stroke-width:0.5;" width="125" x="426.5" y="7"/><ellipse cx="462.2" cy="23" fill="#ADD1B2" rx="11" ry="11" style="stroke:#181818;stroke-width:1.0;"/><path d="M461.0594,23.7969 L461.0594,26.2969 L465.3875,26.2969 L465.3875,25.375 Q465.3875,24.7656 465.6219,24.5 Q465.8719,24.2344 466.2469,24.2344 Q466.6219,24.2344 466.8563,24.5 Q467.0906,24.7656 467.0906,25.375 L467.0906,28 L459.0906,28 Q458.4656,28 458.2,27.7656 Q457.95,27.5313 457.95,27.1406 Q457.95,26.7656 458.2156,26.5313 Q458.4813,26.2969 459.0906,26.2969 L459.3563,26.2969 L459.3563,19.6406 L459.0906,19.6406 Q458.4656,19.6406 458.2,19.4063 Q457.95,19.1719 457.95,18.7813 Q457.95,18.4063 458.2,18.1719 Q458.4656,17.9375 459.0906,17.9375 L466.7156,17.9375 L466.7156,20.5313 Q466.7156,21.1406 466.4813,21.4063 Q466.2625,21.6563 465.8719,21.6563 Q465.4969,21.6563 465.2625,21.4063 Q465.0281,21.1406 465.0281,20.5313 L465.0281,19.6406 L461.0594,19.6406 L461.0594,22.0938 L462.5438,22.0938 Q462.5438,21.4375 462.6688,21.25 Q462.9344,20.8438 463.4031,20.8438 Q463.7781,20.8438 464.0125,21.1094 Q464.2469,21.3594 464.2469,21.9688 L464.2469,23.9375 Q464.2469,24.4844 464.1219,24.6719 Q463.8563,25.0625 463.4031,25.0625 Q462.9344,25.0625 462.6688,24.6563 Q462.5438,24.4688 462.5438,23.7969 L461.0594,23.7969 Z " fill="#000000"/><text fill="#000000" font-family="sans-serif" font-size="14" lengthAdjust="spacing" textLength="47" x="480.8" y="28.7285">&#1050;&#1083;&#1080;&#1077;&#1085;&#1090;</text><line style="stroke:#181818;stroke-width:0.5;" x1="427.5" x2="550.5" y1="39" y2="39"/><text fill="#000000" font-family="sans-serif" font-size="14" lengthAdjust="spacing" textLength="105" x="432.5" y="57.5332">&#1048;&#1076;&#1077;&#1085;&#1090;&#1080;&#1092;&#1080;&#1082;&#1072;&#1090;&#1086;&#1088;</text><text fill="#000000" font-family="sans-serif" font-size="14" lengthAdjust="spacing" textLength="113" x="432.5" y="75.1426">&#1053;&#1086;&#1084;&#1077;&#1088; &#1090;&#1077;&#1083;&#1077;&#1092;&#1086;&#1085;&#1072;</text><line style="stroke:#181818;stroke-width:0.5;" x1="427.5" x2="550.5" y1="82.2188" y2="82.2188"/></g><!--class ????--><g id="elem_&#1052;&#1077;&#1085;&#1102;"><rect codeLine="7" fill="#F1F1F1" height="118.4375" id="&#1052;&#1077;&#1085;&#1102;" rx="2.5" ry="2.5" style="stroke:#181818;stroke-width:0.5;" width="106" x="7" y="381.5"/><ellipse cx="38.2" cy="397.5" fill="#ADD1B2" rx="11" ry="11" style="stroke:#181818;stroke-width:1.0;"/><path d="M37.0594,398.2969 L37.0594,400.7969 L41.3875,400.7969 L41.3875,399.875 Q41.3875,399.2656 41.6219,399 Q41.8719,398.7344 42.2469,398.7344 Q42.6219,398.7344 42.8563,399 Q43.0906,399.2656 43.0906,399.875 L43.0906,402.5 L35.0906,402.5 Q34.4656,402.5 34.2,402.2656 Q33.95,402.0313 33.95,401.6406 Q33.95,401.2656 34.2156,401.0313 Q34.4813,400.7969 35.0906,400.7969 L35.3563,400.7969 L35.3563,394.1406 L35.0906,394.1406 Q34.4656,394.1406 34.2,393.9063 Q33.95,393.6719 33.95,393.2813 Q33.95,392.9063 34.2,392.6719 Q34.4656,392.4375 35.0906,392.4375 L42.7156,392.4375 L42.7156,395.0313 Q42.7156,395.6406 42.4813,395.9063 Q42.2625,396.1563 41.8719,396.1563 Q41.4969,396.1563 41.2625,395.9063 Q41.0281,395.6406 41.0281,395.0313 L41.0281,394.1406 L37.0594,394.1406 L37.0594,396.5938 L38.5438,396.5938 Q38.5438,395.9375 38.6688,395.75 Q38.9344,395.3438 39.4031,395.3438 Q39.7781,395.3438 40.0125,395.6094 Q40.2469,395.8594 40.2469,396.4688 L40.2469,398.4375 Q40.2469,398.9844 40.1219,399.1719 Q39.8563,399.5625 39.4031,399.5625 Q38.9344,399.5625 38.6688,399.1563 Q38.5438,398.9688 38.5438,398.2969 L37.0594,398.2969 Z " fill="#000000"/><text fill="#000000" font-family="sans-serif" font-size="14" lengthAdjust="spacing" textLength="38" x="55.8" y="403.2285">&#1052;&#1077;&#1085;&#1102;</text><line style="stroke:#181818;stroke-width:0.5;" x1="8" x2="112" y1="413.5" y2="413.5"/><text fill="#000000" font-family="sans-serif" font-size="14" lengthAdjust="spacing" textLength="66" x="13" y="432.0332">&#1082;&#1072;&#1090;&#1077;&#1075;&#1086;&#1088;&#1080;&#1103;</text><text fill="#000000" font-family="sans-serif" font-size="14" lengthAdjust="spacing" textLength="61" x="13" y="449.6426">&#1085;&#1072;&#1079;&#1074;&#1072;&#1085;&#1080;&#1077;</text><text fill="#000000" font-family="sans-serif" font-size="14" lengthAdjust="spacing" textLength="74" x="13" y="467.252">&#1072;&#1082;&#1090;&#1080;&#1074;&#1085;&#1086;&#1089;&#1090;&#1100;</text><text fill="#000000" font-family="sans-serif" font-size="14" lengthAdjust="spacing" textLength="94" x="13" y="484.8613">&#1089;&#1088;&#1086;&#1082; &#1076;&#1077;&#1081;&#1089;&#1090;&#1074;&#1080;&#1103;</text><line style="stroke:#181818;stroke-width:0.5;" x1="8" x2="112" y1="491.9375" y2="491.9375"/></g><!--class ???????????--><g id="elem_&#1050;&#1086;&#1084;&#1073;&#1086;&#1073;&#1091;&#1088;&#1075;&#1077;&#1088;"><rect codeLine="15" fill="#F1F1F1" height="188.875" id="&#1050;&#1086;&#1084;&#1073;&#1086;&#1073;&#1091;&#1088;&#1075;&#1077;&#1088;" rx="2.5" ry="2.5" style="stroke:#181818;stroke-width:0.5;" width="183" x="321.5" y="346"/><ellipse cx="365.75" cy="362" fill="#ADD1B2" rx="11" ry="11" style="stroke:#181818;stroke-width:1.0;"/><path d="M364.6094,362.7969 L364.6094,365.2969 L368.9375,365.2969 L368.9375,364.375 Q368.9375,363.7656 369.1719,363.5 Q369.4219,363.2344 369.7969,363.2344 Q370.1719,363.2344 370.4063,363.5 Q370.6406,363.7656 370.6406,364.375 L370.6406,367 L362.6406,367 Q362.0156,367 361.75,366.7656 Q361.5,366.5313 361.5,366.1406 Q361.5,365.7656 361.7656,365.5313 Q362.0313,365.2969 362.6406,365.2969 L362.9063,365.2969 L362.9063,358.6406 L362.6406,358.6406 Q362.0156,358.6406 361.75,358.4063 Q361.5,358.1719 361.5,357.7813 Q361.5,357.4063 361.75,357.1719 Q362.0156,356.9375 362.6406,356.9375 L370.2656,356.9375 L370.2656,359.5313 Q370.2656,360.1406 370.0313,360.4063 Q369.8125,360.6563 369.4219,360.6563 Q369.0469,360.6563 368.8125,360.4063 Q368.5781,360.1406 368.5781,359.5313 L368.5781,358.6406 L364.6094,358.6406 L364.6094,361.0938 L366.0938,361.0938 Q366.0938,360.4375 366.2188,360.25 Q366.4844,359.8438 366.9531,359.8438 Q367.3281,359.8438 367.5625,360.1094 Q367.7969,360.3594 367.7969,360.9688 L367.7969,362.9375 Q367.7969,363.4844 367.6719,363.6719 Q367.4063,364.0625 366.9531,364.0625 Q366.4844,364.0625 366.2188,363.6563 Q366.0938,363.4688 366.0938,362.7969 L364.6094,362.7969 Z " fill="#000000"/><text fill="#000000" font-family="sans-serif" font-size="14" lengthAdjust="spacing" textLength="86" x="386.25" y="367.7285">&#1050;&#1086;&#1084;&#1073;&#1086;&#1073;&#1091;&#1088;&#1075;&#1077;&#1088;</text><line style="stroke:#181818;stroke-width:0.5;" x1="322.5" x2="503.5" y1="378" y2="378"/><text fill="#000000" font-family="sans-serif" font-size="14" lengthAdjust="spacing" textLength="63" x="327.5" y="396.5332">&#1086;&#1087;&#1080;&#1089;&#1072;&#1085;&#1080;&#1077;</text><text fill="#000000" font-family="sans-serif" font-size="14" lengthAdjust="spacing" textLength="73" x="327.5" y="414.1426">&#1057;&#1090;&#1086;&#1080;&#1084;&#1086;&#1089;&#1090;&#1100;</text><text fill="#000000" font-family="sans-serif" font-size="14" lengthAdjust="spacing" textLength="63" x="327.5" y="431.752">&#1053;&#1072;&#1094;&#1077;&#1085;&#1090;&#1082;&#1072;</text><text fill="#000000" font-family="sans-serif" font-size="14" lengthAdjust="spacing" textLength="92" x="327.5" y="449.3613">&#1082;&#1072;&#1083;&#1086;&#1088;&#1080;&#1081;&#1085;&#1086;&#1089;&#1090;&#1100;</text><text fill="#000000" font-family="sans-serif" font-size="14" lengthAdjust="spacing" textLength="31" x="327.5" y="466.9707">&#1041;&#1046;&#1059;</text><text fill="#000000" font-family="sans-serif" font-size="14" lengthAdjust="spacing" textLength="82" x="327.5" y="484.5801">&#1092;&#1086;&#1090;&#1086;&#1075;&#1088;&#1072;&#1092;&#1080;&#1103;</text><text fill="#000000" font-family="sans-serif" font-size="14" lengthAdjust="spacing" textLength="78" x="327.5" y="502.1895">&#1048;&#1085;&#1075;&#1088;&#1080;&#1076;&#1080;&#1077;&#1085;&#1090;</text><text fill="#000000" font-family="sans-serif" font-size="14" lengthAdjust="spacing" textLength="171" x="327.5" y="519.7988">&#1050;&#1086;&#1083;&#1080;&#1095;&#1077;&#1089;&#1090;&#1074;&#1086; &#1080;&#1085;&#1075;&#1088;&#1077;&#1076;&#1080;&#1077;&#1085;&#1090;&#1086;&#1074;</text><line style="stroke:#181818;stroke-width:0.5;" x1="322.5" x2="503.5" y1="526.875" y2="526.875"/></g><!--class ?????--><g id="elem_&#1058;&#1086;&#1074;&#1072;&#1088;"><rect codeLine="28" fill="#F1F1F1" height="136.0469" id="&#1058;&#1086;&#1074;&#1072;&#1088;" rx="2.5" ry="2.5" style="stroke:#181818;stroke-width:0.5;" width="130" x="152" y="630"/><ellipse cx="193.1" cy="646" fill="#ADD1B2" rx="11" ry="11" style="stroke:#181818;stroke-width:1.0;"/><path d="M191.9594,646.7969 L191.9594,649.2969 L196.2875,649.2969 L196.2875,648.375 Q196.2875,647.7656 196.5219,647.5 Q196.7719,647.2344 197.1469,647.2344 Q197.5219,647.2344 197.7563,647.5 Q197.9906,647.7656 197.9906,648.375 L197.9906,651 L189.9906,651 Q189.3656,651 189.1,650.7656 Q188.85,650.5313 188.85,650.1406 Q188.85,649.7656 189.1156,649.5313 Q189.3813,649.2969 189.9906,649.2969 L190.2563,649.2969 L190.2563,642.6406 L189.9906,642.6406 Q189.3656,642.6406 189.1,642.4063 Q188.85,642.1719 188.85,641.7813 Q188.85,641.4063 189.1,641.1719 Q189.3656,640.9375 189.9906,640.9375 L197.6156,640.9375 L197.6156,643.5313 Q197.6156,644.1406 197.3813,644.4063 Q197.1625,644.6563 196.7719,644.6563 Q196.3969,644.6563 196.1625,644.4063 Q195.9281,644.1406 195.9281,643.5313 L195.9281,642.6406 L191.9594,642.6406 L191.9594,645.0938 L193.4438,645.0938 Q193.4438,644.4375 193.5688,644.25 Q193.8344,643.8438 194.3031,643.8438 Q194.6781,643.8438 194.9125,644.1094 Q195.1469,644.3594 195.1469,644.9688 L195.1469,646.9375 Q195.1469,647.4844 195.0219,647.6719 Q194.7563,648.0625 194.3031,648.0625 Q193.8344,648.0625 193.5688,647.6563 Q193.4438,647.4688 193.4438,646.7969 L191.9594,646.7969 Z " fill="#000000"/><text fill="#000000" font-family="sans-serif" font-size="14" lengthAdjust="spacing" textLength="40" x="212.9" y="651.7285">&#1058;&#1086;&#1074;&#1072;&#1088;</text><line style="stroke:#181818;stroke-width:0.5;" x1="153" x2="281" y1="662" y2="662"/><text fill="#000000" font-family="sans-serif" font-size="14" lengthAdjust="spacing" textLength="62" x="158" y="680.5332">&#1053;&#1072;&#1079;&#1074;&#1072;&#1085;&#1080;&#1077;</text><text fill="#000000" font-family="sans-serif" font-size="14" lengthAdjust="spacing" textLength="73" x="158" y="698.1426">&#1057;&#1090;&#1086;&#1080;&#1084;&#1086;&#1089;&#1090;&#1100;</text><text fill="#000000" font-family="sans-serif" font-size="14" lengthAdjust="spacing" textLength="66" x="158" y="715.752">&#1054;&#1087;&#1080;&#1089;&#1072;&#1085;&#1080;&#1077;</text><text fill="#000000" font-family="sans-serif" font-size="14" lengthAdjust="spacing" textLength="82" x="158" y="733.3613">&#1060;&#1086;&#1090;&#1086;&#1075;&#1088;&#1072;&#1092;&#1080;&#1103;</text><text fill="#000000" font-family="sans-serif" font-size="14" lengthAdjust="spacing" textLength="118" x="158" y="750.9707">&#1050;&#1072;&#1090;&#1077;&#1075;&#1086;&#1088;&#1080;&#1103; &#1090;&#1086;&#1074;&#1072;&#1088;&#1072;</text><line style="stroke:#181818;stroke-width:0.5;" x1="153" x2="281" y1="758.0469" y2="758.0469"/></g><!--class ??????????--><g id="elem_&#1048;&#1085;&#1075;&#1088;&#1077;&#1076;&#1080;&#1077;&#1085;&#1090;"><rect codeLine="38" fill="#F1F1F1" height="206.4844" id="&#1048;&#1085;&#1075;&#1088;&#1077;&#1076;&#1080;&#1077;&#1085;&#1090;" rx="2.5" ry="2.5" style="stroke:#181818;stroke-width:0.5;" width="156" x="335" y="595"/><ellipse cx="370.7" cy="611" fill="#ADD1B2" rx="11" ry="11" style="stroke:#181818;stroke-width:1.0;"/><path d="M369.5594,611.7969 L369.5594,614.2969 L373.8875,614.2969 L373.8875,613.375 Q373.8875,612.7656 374.1219,612.5 Q374.3719,612.2344 374.7469,612.2344 Q375.1219,612.2344 375.3563,612.5 Q375.5906,612.7656 375.5906,613.375 L375.5906,616 L367.5906,616 Q366.9656,616 366.7,615.7656 Q366.45,615.5313 366.45,615.1406 Q366.45,614.7656 366.7156,614.5313 Q366.9813,614.2969 367.5906,614.2969 L367.8563,614.2969 L367.8563,607.6406 L367.5906,607.6406 Q366.9656,607.6406 366.7,607.4063 Q366.45,607.1719 366.45,606.7813 Q366.45,606.4063 366.7,606.1719 Q366.9656,605.9375 367.5906,605.9375 L375.2156,605.9375 L375.2156,608.5313 Q375.2156,609.1406 374.9813,609.4063 Q374.7625,609.6563 374.3719,609.6563 Q373.9969,609.6563 373.7625,609.4063 Q373.5281,609.1406 373.5281,608.5313 L373.5281,607.6406 L369.5594,607.6406 L369.5594,610.0938 L371.0438,610.0938 Q371.0438,609.4375 371.1688,609.25 Q371.4344,608.8438 371.9031,608.8438 Q372.2781,608.8438 372.5125,609.1094 Q372.7469,609.3594 372.7469,609.9688 L372.7469,611.9375 Q372.7469,612.4844 372.6219,612.6719 Q372.3563,613.0625 371.9031,613.0625 Q371.4344,613.0625 371.1688,612.6563 Q371.0438,612.4688 371.0438,611.7969 L369.5594,611.7969 Z " fill="#000000"/><text fill="#000000" font-family="sans-serif" font-size="14" lengthAdjust="spacing" textLength="78" x="389.3" y="616.7285">&#1048;&#1085;&#1075;&#1088;&#1077;&#1076;&#1080;&#1077;&#1085;&#1090;</text><line style="stroke:#181818;stroke-width:0.5;" x1="336" x2="490" y1="627" y2="627"/><text fill="#000000" font-family="sans-serif" font-size="14" lengthAdjust="spacing" textLength="62" x="341" y="645.5332">&#1053;&#1072;&#1079;&#1074;&#1072;&#1085;&#1080;&#1077;</text><text fill="#000000" font-family="sans-serif" font-size="14" lengthAdjust="spacing" textLength="39" x="341" y="663.1426">&#1041;&#1077;&#1083;&#1082;&#1080;</text><text fill="#000000" font-family="sans-serif" font-size="14" lengthAdjust="spacing" textLength="39" x="341" y="680.752">&#1046;&#1080;&#1088;&#1099;</text><text fill="#000000" font-family="sans-serif" font-size="14" lengthAdjust="spacing" textLength="63" x="341" y="698.3613">&#1059;&#1075;&#1083;&#1077;&#1074;&#1086;&#1076;&#1099;</text><text fill="#000000" font-family="sans-serif" font-size="14" lengthAdjust="spacing" textLength="56" x="341" y="715.9707">&#1050;&#1072;&#1083;&#1086;&#1088;&#1080;&#1080;</text><text fill="#000000" font-family="sans-serif" font-size="14" lengthAdjust="spacing" textLength="73" x="341" y="733.5801">&#1057;&#1090;&#1086;&#1080;&#1084;&#1086;&#1089;&#1090;&#1100;</text><text fill="#000000" font-family="sans-serif" font-size="14" lengthAdjust="spacing" textLength="88" x="341" y="751.1895">&#1054;&#1095;&#1077;&#1088;&#1077;&#1076;&#1085;&#1086;&#1089;&#1090;&#1100;</text><text fill="#000000" font-family="sans-serif" font-size="14" lengthAdjust="spacing" textLength="68" x="341" y="768.7988">&#1050;&#1072;&#1090;&#1077;&#1075;&#1086;&#1088;&#1080;&#1103;</text><text fill="#000000" font-family="sans-serif" font-size="14" lengthAdjust="spacing" textLength="144" x="341" y="786.4082">&#1050;&#1086;&#1101;&#1092;&#1092;&#1080;&#1094;&#1077;&#1085;&#1090; &#1085;&#1072;&#1094;&#1077;&#1085;&#1082;&#1080;</text><line style="stroke:#181818;stroke-width:0.5;" x1="336" x2="490" y1="793.4844" y2="793.4844"/></g><!--class ???????--><g id="elem_&#1050;&#1086;&#1088;&#1079;&#1080;&#1085;&#1072;"><rect codeLine="51" fill="#F1F1F1" height="100.8281" id="&#1050;&#1086;&#1088;&#1079;&#1080;&#1085;&#1072;" rx="2.5" ry="2.5" style="stroke:#181818;stroke-width:0.5;" width="138" x="148" y="390"/><ellipse cx="186.4" cy="406" fill="#ADD1B2" rx="11" ry="11" style="stroke:#181818;stroke-width:1.0;"/><path d="M185.2594,406.7969 L185.2594,409.2969 L189.5875,409.2969 L189.5875,408.375 Q189.5875,407.7656 189.8219,407.5 Q190.0719,407.2344 190.4469,407.2344 Q190.8219,407.2344 191.0563,407.5 Q191.2906,407.7656 191.2906,408.375 L191.2906,411 L183.2906,411 Q182.6656,411 182.4,410.7656 Q182.15,410.5313 182.15,410.1406 Q182.15,409.7656 182.4156,409.5313 Q182.6813,409.2969 183.2906,409.2969 L183.5563,409.2969 L183.5563,402.6406 L183.2906,402.6406 Q182.6656,402.6406 182.4,402.4063 Q182.15,402.1719 182.15,401.7813 Q182.15,401.4063 182.4,401.1719 Q182.6656,400.9375 183.2906,400.9375 L190.9156,400.9375 L190.9156,403.5313 Q190.9156,404.1406 190.6813,404.4063 Q190.4625,404.6563 190.0719,404.6563 Q189.6969,404.6563 189.4625,404.4063 Q189.2281,404.1406 189.2281,403.5313 L189.2281,402.6406 L185.2594,402.6406 L185.2594,405.0938 L186.7438,405.0938 Q186.7438,404.4375 186.8688,404.25 Q187.1344,403.8438 187.6031,403.8438 Q187.9781,403.8438 188.2125,404.1094 Q188.4469,404.3594 188.4469,404.9688 L188.4469,406.9375 Q188.4469,407.4844 188.3219,407.6719 Q188.0563,408.0625 187.6031,408.0625 Q187.1344,408.0625 186.8688,407.6563 Q186.7438,407.4688 186.7438,406.7969 L185.2594,406.7969 Z " fill="#000000"/><text fill="#000000" font-family="sans-serif" font-size="14" lengthAdjust="spacing" textLength="54" x="205.6" y="411.7285">&#1050;&#1086;&#1088;&#1079;&#1080;&#1085;&#1072;</text><line style="stroke:#181818;stroke-width:0.5;" x1="149" x2="285" y1="422" y2="422"/><text fill="#000000" font-family="sans-serif" font-size="14" lengthAdjust="spacing" textLength="40" x="154" y="440.5332">&#1058;&#1086;&#1074;&#1072;&#1088;</text><text fill="#000000" font-family="sans-serif" font-size="14" lengthAdjust="spacing" textLength="126" x="154" y="458.1426">&#1050;&#1086;&#1083;&#1080;&#1095;&#1077;&#1089;&#1090;&#1074;&#1086; &#1090;&#1086;&#1074;&#1072;&#1088;&#1072;</text><text fill="#000000" font-family="sans-serif" font-size="14" lengthAdjust="spacing" textLength="45" x="154" y="475.752">&#1057;&#1091;&#1084;&#1084;&#1072;</text><line style="stroke:#181818;stroke-width:0.5;" x1="149" x2="285" y1="482.8281" y2="482.8281"/></g><!--class ?????--><g id="elem_&#1047;&#1072;&#1082;&#1072;&#1079;"><rect codeLine="58" fill="#F1F1F1" height="136.0469" id="&#1047;&#1072;&#1082;&#1072;&#1079;" rx="2.5" ry="2.5" style="stroke:#181818;stroke-width:0.5;" width="135" x="421.5" y="150"/><ellipse cx="466.75" cy="166" fill="#ADD1B2" rx="11" ry="11" style="stroke:#181818;stroke-width:1.0;"/><path d="M465.6094,166.7969 L465.6094,169.2969 L469.9375,169.2969 L469.9375,168.375 Q469.9375,167.7656 470.1719,167.5 Q470.4219,167.2344 470.7969,167.2344 Q471.1719,167.2344 471.4063,167.5 Q471.6406,167.7656 471.6406,168.375 L471.6406,171 L463.6406,171 Q463.0156,171 462.75,170.7656 Q462.5,170.5313 462.5,170.1406 Q462.5,169.7656 462.7656,169.5313 Q463.0313,169.2969 463.6406,169.2969 L463.9063,169.2969 L463.9063,162.6406 L463.6406,162.6406 Q463.0156,162.6406 462.75,162.4063 Q462.5,162.1719 462.5,161.7813 Q462.5,161.4063 462.75,161.1719 Q463.0156,160.9375 463.6406,160.9375 L471.2656,160.9375 L471.2656,163.5313 Q471.2656,164.1406 471.0313,164.4063 Q470.8125,164.6563 470.4219,164.6563 Q470.0469,164.6563 469.8125,164.4063 Q469.5781,164.1406 469.5781,163.5313 L469.5781,162.6406 L465.6094,162.6406 L465.6094,165.0938 L467.0938,165.0938 Q467.0938,164.4375 467.2188,164.25 Q467.4844,163.8438 467.9531,163.8438 Q468.3281,163.8438 468.5625,164.1094 Q468.7969,164.3594 468.7969,164.9688 L468.7969,166.9375 Q468.7969,167.4844 468.6719,167.6719 Q468.4063,168.0625 467.9531,168.0625 Q467.4844,168.0625 467.2188,167.6563 Q467.0938,167.4688 467.0938,166.7969 L465.6094,166.7969 Z " fill="#000000"/><text fill="#000000" font-family="sans-serif" font-size="14" lengthAdjust="spacing" textLength="36" x="487.25" y="171.7285">&#1047;&#1072;&#1082;&#1072;&#1079;</text><line style="stroke:#181818;stroke-width:0.5;" x1="422.5" x2="555.5" y1="182" y2="182"/><text fill="#000000" font-family="sans-serif" font-size="14" lengthAdjust="spacing" textLength="32" x="427.5" y="200.5332">&#1044;&#1072;&#1090;&#1072;</text><text fill="#000000" font-family="sans-serif" font-size="14" lengthAdjust="spacing" textLength="43" x="427.5" y="218.1426">&#1053;&#1086;&#1084;&#1077;&#1088;</text><text fill="#000000" font-family="sans-serif" font-size="14" lengthAdjust="spacing" textLength="46" x="427.5" y="235.752">&#1057;&#1090;&#1072;&#1090;&#1091;&#1089;</text><text fill="#000000" font-family="sans-serif" font-size="14" lengthAdjust="spacing" textLength="123" x="427.5" y="253.3613">&#1057;&#1087;&#1086;&#1089;&#1086;&#1073; &#1087;&#1086;&#1083;&#1091;&#1095;&#1077;&#1085;&#1080;&#1103;</text><text fill="#000000" font-family="sans-serif" font-size="14" lengthAdjust="spacing" textLength="117" x="427.5" y="270.9707">&#1042;&#1088;&#1077;&#1084;&#1103; &#1087;&#1086;&#1083;&#1091;&#1095;&#1077;&#1085;&#1080;&#1103;</text><line style="stroke:#181818;stroke-width:0.5;" x1="422.5" x2="555.5" y1="278.0469" y2="278.0469"/></g><!--class ??????--><g id="elem_&#1054;&#1087;&#1083;&#1072;&#1090;&#1072;"><rect codeLine="67" fill="#F1F1F1" height="171.2656" id="&#1054;&#1087;&#1083;&#1072;&#1090;&#1072;" rx="2.5" ry="2.5" style="stroke:#181818;stroke-width:0.5;" width="198" x="540" y="355"/><ellipse cx="609.75" cy="371" fill="#ADD1B2" rx="11" ry="11" style="stroke:#181818;stroke-width:1.0;"/><path d="M608.6094,371.7969 L608.6094,374.2969 L612.9375,374.2969 L612.9375,373.375 Q612.9375,372.7656 613.1719,372.5 Q613.4219,372.2344 613.7969,372.2344 Q614.1719,372.2344 614.4063,372.5 Q614.6406,372.7656 614.6406,373.375 L614.6406,376 L606.6406,376 Q606.0156,376 605.75,375.7656 Q605.5,375.5313 605.5,375.1406 Q605.5,374.7656 605.7656,374.5313 Q606.0313,374.2969 606.6406,374.2969 L606.9063,374.2969 L606.9063,367.6406 L606.6406,367.6406 Q606.0156,367.6406 605.75,367.4063 Q605.5,367.1719 605.5,366.7813 Q605.5,366.4063 605.75,366.1719 Q606.0156,365.9375 606.6406,365.9375 L614.2656,365.9375 L614.2656,368.5313 Q614.2656,369.1406 614.0313,369.4063 Q613.8125,369.6563 613.4219,369.6563 Q613.0469,369.6563 612.8125,369.4063 Q612.5781,369.1406 612.5781,368.5313 L612.5781,367.6406 L608.6094,367.6406 L608.6094,370.0938 L610.0938,370.0938 Q610.0938,369.4375 610.2188,369.25 Q610.4844,368.8438 610.9531,368.8438 Q611.3281,368.8438 611.5625,369.1094 Q611.7969,369.3594 611.7969,369.9688 L611.7969,371.9375 Q611.7969,372.4844 611.6719,372.6719 Q611.4063,373.0625 610.9531,373.0625 Q610.4844,373.0625 610.2188,372.6563 Q610.0938,372.4688 610.0938,371.7969 L608.6094,371.7969 Z " fill="#000000"/><text fill="#000000" font-family="sans-serif" font-size="14" lengthAdjust="spacing" textLength="50" x="630.25" y="376.7285">&#1054;&#1087;&#1083;&#1072;&#1090;&#1072;</text><line style="stroke:#181818;stroke-width:0.5;" x1="541" x2="737" y1="387" y2="387"/><text fill="#000000" font-family="sans-serif" font-size="14" lengthAdjust="spacing" textLength="102" x="546" y="405.5332">&#1057;&#1087;&#1086;&#1089;&#1086;&#1073; &#1086;&#1087;&#1083;&#1072;&#1090;&#1099;</text><text fill="#000000" font-family="sans-serif" font-size="14" lengthAdjust="spacing" textLength="137" x="546" y="423.1426">&#8470; &#1073;&#1072;&#1085;&#1082;&#1086;&#1074;&#1089;&#1082;&#1086;&#1081; &#1082;&#1072;&#1088;&#1090;&#1099;</text><text fill="#000000" font-family="sans-serif" font-size="14" lengthAdjust="spacing" textLength="99" x="546" y="440.752">&#1057;&#1090;&#1072;&#1090;&#1091;&#1089; &#1086;&#1087;&#1083;&#1072;&#1090;&#1099;</text><text fill="#000000" font-family="sans-serif" font-size="14" lengthAdjust="spacing" textLength="22" x="546" y="458.3613">&#1063;&#1077;&#1082;</text><text fill="#000000" font-family="sans-serif" font-size="14" lengthAdjust="spacing" textLength="106" x="546" y="475.9707">&#1057;&#1091;&#1084;&#1084;&#1072; &#1082; &#1086;&#1087;&#1083;&#1072;&#1090;&#1077;</text><text fill="#000000" font-family="sans-serif" font-size="14" lengthAdjust="spacing" textLength="174" x="546" y="493.5801">&#1050;&#1086;&#1083;-&#1074;&#1086; &#1074;&#1085;&#1077;&#1089;&#1077;&#1085;&#1085;&#1099;&#1093; &#1089;&#1088;&#1077;&#1076;&#1089;&#1090;&#1074;</text><text fill="#000000" font-family="sans-serif" font-size="14" lengthAdjust="spacing" textLength="186" x="546" y="511.1895">&#1050;&#1086;&#1083;-&#1074;&#1086; &#1087;&#1086;&#1088;&#1072;&#1095;&#1077;&#1085;&#1085;&#1099;&#1093; &#1073;&#1072;&#1083;&#1083;&#1083;&#1086;&#1074;</text><line style="stroke:#181818;stroke-width:0.5;" x1="541" x2="737" y1="518.2656" y2="518.2656"/></g><!--class ???????????????--><g id="elem_&#1041;&#1086;&#1085;&#1091;&#1089;&#1085;&#1072;&#1103;&#1057;&#1080;&#1089;&#1090;&#1077;&#1084;&#1072;"><rect codeLine="78" fill="#F1F1F1" height="153.6563" id="&#1041;&#1086;&#1085;&#1091;&#1089;&#1085;&#1072;&#1103;&#1057;&#1080;&#1089;&#1090;&#1077;&#1084;&#1072;" rx="2.5" ry="2.5" style="stroke:#181818;stroke-width:0.5;" width="211" x="614.5" y="621"/><ellipse cx="655.6" cy="637" fill="#ADD1B2" rx="11" ry="11" style="stroke:#181818;stroke-width:1.0;"/><path d="M654.4594,637.7969 L654.4594,640.2969 L658.7875,640.2969 L658.7875,639.375 Q658.7875,638.7656 659.0219,638.5 Q659.2719,638.2344 659.6469,638.2344 Q660.0219,638.2344 660.2563,638.5 Q660.4906,638.7656 660.4906,639.375 L660.4906,642 L652.4906,642 Q651.8656,642 651.6,641.7656 Q651.35,641.5313 651.35,641.1406 Q651.35,640.7656 651.6156,640.5313 Q651.8813,640.2969 652.4906,640.2969 L652.7563,640.2969 L652.7563,633.6406 L652.4906,633.6406 Q651.8656,633.6406 651.6,633.4063 Q651.35,633.1719 651.35,632.7813 Q651.35,632.4063 651.6,632.1719 Q651.8656,631.9375 652.4906,631.9375 L660.1156,631.9375 L660.1156,634.5313 Q660.1156,635.1406 659.8813,635.4063 Q659.6625,635.6563 659.2719,635.6563 Q658.8969,635.6563 658.6625,635.4063 Q658.4281,635.1406 658.4281,634.5313 L658.4281,633.6406 L654.4594,633.6406 L654.4594,636.0938 L655.9438,636.0938 Q655.9438,635.4375 656.0688,635.25 Q656.3344,634.8438 656.8031,634.8438 Q657.1781,634.8438 657.4125,635.1094 Q657.6469,635.3594 657.6469,635.9688 L657.6469,637.9375 Q657.6469,638.4844 657.5219,638.6719 Q657.2563,639.0625 656.8031,639.0625 Q656.3344,639.0625 656.0688,638.6563 Q655.9438,638.4688 655.9438,637.7969 L654.4594,637.7969 Z " fill="#000000"/><text fill="#000000" font-family="sans-serif" font-size="14" lengthAdjust="spacing" textLength="121" x="675.4" y="642.7285">&#1041;&#1086;&#1085;&#1091;&#1089;&#1085;&#1072;&#1103;&#1057;&#1080;&#1089;&#1090;&#1077;&#1084;&#1072;</text><line style="stroke:#181818;stroke-width:0.5;" x1="615.5" x2="824.5" y1="653" y2="653"/><text fill="#000000" font-family="sans-serif" font-size="14" lengthAdjust="spacing" textLength="162" x="620.5" y="671.5332">&#1048;&#1076;&#1077;&#1085;&#1090;&#1080;&#1092;&#1080;&#1082;&#1072;&#1090;&#1086;&#1088; &#1082;&#1083;&#1080;&#1077;&#1085;&#1090;&#1072;</text><text fill="#000000" font-family="sans-serif" font-size="14" lengthAdjust="spacing" textLength="103" x="620.5" y="689.1426">&#1050;&#1086;&#1083;-&#1074;&#1086; &#1073;&#1072;&#1083;&#1083;&#1083;&#1086;&#1074;</text><text fill="#000000" font-family="sans-serif" font-size="14" lengthAdjust="spacing" textLength="86" x="620.5" y="706.752">&#1040;&#1074;&#1090;&#1086;&#1088;&#1080;&#1079;&#1072;&#1094;&#1080;&#1103;</text><text fill="#000000" font-family="sans-serif" font-size="14" lengthAdjust="spacing" textLength="199" x="620.5" y="724.3613">&#1050;&#1086;&#1101;&#1092;&#1092;&#1080;&#1094;&#1080;&#1077;&#1085;&#1090; &#1073;&#1086;&#1085;&#1091;&#1089;&#1072; &#1082; &#1088;&#1091;&#1073;&#1083;&#1102;</text><text fill="#000000" font-family="sans-serif" font-size="14" lengthAdjust="spacing" textLength="114" x="620.5" y="741.9707">&#1054;&#1073;&#1099;&#1095;&#1085;&#1099;&#1077; &#1073;&#1086;&#1085;&#1091;&#1089;&#1099;</text><text fill="#000000" font-family="sans-serif" font-size="14" lengthAdjust="spacing" textLength="118" x="620.5" y="759.5801">&#1054;&#1075;&#1085;&#1077;&#1085;&#1085;&#1099;&#1077; &#1073;&#1086;&#1085;&#1091;&#1089;&#1099;</text><line style="stroke:#181818;stroke-width:0.5;" x1="615.5" x2="824.5" y1="766.6563" y2="766.6563"/></g><!--reverse link ???? to ?????--><g id="link_&#1052;&#1077;&#1085;&#1102;_&#1058;&#1086;&#1074;&#1072;&#1088;"><path codeLine="89" d="M102.1027,510.0239 C125.9027,548.7539 150.95,589.51 175.78,629.93 " fill="none" id="&#1052;&#1077;&#1085;&#1102;-backto-&#1058;&#1086;&#1074;&#1072;&#1088;" style="stroke:#181818;stroke-width:1.0;"/><polygon fill="none" points="95.82,499.8,95.5534,507.0062,102.1027,510.0239,102.3693,502.8177,95.82,499.8" style="stroke:#181818;stroke-width:1.0;"/><text fill="#000000" font-family="sans-serif" font-size="13" lengthAdjust="spacing" textLength="20" x="78.9668" y="521.4921">1..*</text><text fill="#000000" font-family="sans-serif" font-size="13" lengthAdjust="spacing" textLength="20" x="150.1778" y="619.1216">1..*</text></g><!--link ??????? to ?????--><g id="link_&#1050;&#1086;&#1088;&#1079;&#1080;&#1085;&#1072;_&#1058;&#1086;&#1074;&#1072;&#1088;"><path codeLine="90" d="M217,491.07 C217,530.54 217,586.19 217,629.69 " fill="none" id="&#1050;&#1086;&#1088;&#1079;&#1080;&#1085;&#1072;-&#1058;&#1086;&#1074;&#1072;&#1088;" style="stroke:#181818;stroke-width:1.0;"/><text fill="#000000" font-family="sans-serif" font-size="13" lengthAdjust="spacing" textLength="20" x="195.6563" y="512.4706">1..*</text><text fill="#000000" font-family="sans-serif" font-size="13" lengthAdjust="spacing" textLength="20" x="195.9688" y="619.3314">1..*</text></g><!--link ????? to ???????--><g id="link_&#1047;&#1072;&#1082;&#1072;&#1079;_&#1050;&#1086;&#1088;&#1079;&#1080;&#1085;&#1072;"><path codeLine="91" d="M421.35,260.32 C385.14,283.67 340.59,314.46 304,346 C288.55,359.32 285.1545,361.8909 271.5345,376.7009 " fill="none" id="&#1047;&#1072;&#1082;&#1072;&#1079;-to-&#1050;&#1086;&#1088;&#1079;&#1080;&#1085;&#1072;" style="stroke:#181818;stroke-width:1.0;"/><polygon fill="none" points="259.35,389.95,275.9509,380.7624,267.1181,372.6394,259.35,389.95" style="stroke:#181818;stroke-width:1.0;"/><text fill="#000000" font-family="sans-serif" font-size="13" lengthAdjust="spacing" textLength="7" x="406.568" y="261.5855">1</text><text fill="#000000" font-family="sans-serif" font-size="13" lengthAdjust="spacing" textLength="7" x="257.8133" y="379.2483">1</text></g><!--reverse link ??????????? to ??????????--><g id="link_&#1050;&#1086;&#1084;&#1073;&#1086;&#1073;&#1091;&#1088;&#1075;&#1077;&#1088;_&#1048;&#1085;&#1075;&#1088;&#1077;&#1076;&#1080;&#1077;&#1085;&#1090;"><path codeLine="92" d="M413,547.19 C413,566.56 413,575.05 413,594.71 " fill="none" id="&#1050;&#1086;&#1084;&#1073;&#1086;&#1073;&#1091;&#1088;&#1075;&#1077;&#1088;-backto-&#1048;&#1085;&#1075;&#1088;&#1077;&#1076;&#1080;&#1077;&#1085;&#1090;" style="stroke:#181818;stroke-width:1.0;"/><polygon fill="none" points="413,535.19,409,541.19,413,547.19,417,541.19,413,535.19" style="stroke:#181818;stroke-width:1.0;"/><text fill="#000000" font-family="sans-serif" font-size="13" lengthAdjust="spacing" textLength="20" x="392.2656" y="556.2439">1..*</text><text fill="#000000" font-family="sans-serif" font-size="13" lengthAdjust="spacing" textLength="20" x="392.2656" y="584.0274">1..*</text></g><!--link ??????????? to ?????--><g id="link_&#1050;&#1086;&#1084;&#1073;&#1086;&#1073;&#1091;&#1088;&#1075;&#1077;&#1088;_&#1058;&#1086;&#1074;&#1072;&#1088;"><path codeLine="93" d="M341.13,535.19 C317.09,566.52 301.7566,586.5188 279.5766,615.4288 " fill="none" id="&#1050;&#1086;&#1084;&#1073;&#1086;&#1073;&#1091;&#1088;&#1075;&#1077;&#1088;-to-&#1058;&#1086;&#1074;&#1072;&#1088;" style="stroke:#181818;stroke-width:1.0;"/><polygon fill="none" points="268.62,629.71,284.337,619.081,274.8162,611.7766,268.62,629.71" style="stroke:#181818;stroke-width:1.0;"/><text fill="#000000" font-family="sans-serif" font-size="13" lengthAdjust="spacing" textLength="20" x="315.1177" y="556.2439">1..*</text><text fill="#000000" font-family="sans-serif" font-size="13" lengthAdjust="spacing" textLength="20" x="252.9121" y="619.3534">0..*</text></g><!--link ?????? to ?????--><g id="link_&#1050;&#1083;&#1080;&#1077;&#1085;&#1090;_&#1047;&#1072;&#1082;&#1072;&#1079;"><path codeLine="94" d="M489,90.05 C489,107.96 489,123.5 489,143.71 " fill="none" id="&#1050;&#1083;&#1080;&#1077;&#1085;&#1090;-to-&#1047;&#1072;&#1082;&#1072;&#1079;" style="stroke:#181818;stroke-width:1.0;"/><polygon fill="#181818" points="489,149.71,493,140.71,489,144.71,485,140.71,489,149.71" style="stroke:#181818;stroke-width:1.0;"/><text fill="#000000" font-family="sans-serif" font-size="13" lengthAdjust="spacing" textLength="7" x="481.4203" y="111.7628">1</text><text fill="#000000" font-family="sans-serif" font-size="13" lengthAdjust="spacing" textLength="20" x="467.9688" y="139.3534">0..*</text></g><!--link ?????? to ???????--><g id="link_&#1050;&#1083;&#1080;&#1077;&#1085;&#1090;_&#1050;&#1086;&#1088;&#1079;&#1080;&#1085;&#1072;"><path codeLine="95" d="M452.62,90.09 C437.09,108.02 419.1,129.62 404,150 C343.88,231.12 281.77,331.09 246.41,389.81 " fill="none" id="&#1050;&#1083;&#1080;&#1077;&#1085;&#1090;-&#1050;&#1086;&#1088;&#1079;&#1080;&#1085;&#1072;" style="stroke:#181818;stroke-width:1.0;"/><text fill="#000000" font-family="sans-serif" font-size="13" lengthAdjust="spacing" textLength="7" x="439.0149" y="111.8095">1</text><text fill="#000000" font-family="sans-serif" font-size="13" lengthAdjust="spacing" textLength="7" x="243.0536" y="379.0886">1</text></g><!--link ?????? to ???????????????--><g id="link_&#1054;&#1087;&#1083;&#1072;&#1090;&#1072;_&#1041;&#1086;&#1085;&#1091;&#1089;&#1085;&#1072;&#1103;&#1057;&#1080;&#1089;&#1090;&#1077;&#1084;&#1072;"><path codeLine="96" d="M665.86,526.22 C675.53,556.73 686.38,590.94 695.81,620.68 " fill="none" id="&#1054;&#1087;&#1083;&#1072;&#1090;&#1072;-&#1041;&#1086;&#1085;&#1091;&#1089;&#1085;&#1072;&#1103;&#1057;&#1080;&#1089;&#1090;&#1077;&#1084;&#1072;" style="stroke:#181818;stroke-width:1.0;"/></g><!--reverse link ?????? to ???????????????--><g id="link_&#1050;&#1083;&#1080;&#1077;&#1085;&#1090;_&#1041;&#1086;&#1085;&#1091;&#1089;&#1085;&#1072;&#1103;&#1057;&#1080;&#1089;&#1090;&#1077;&#1084;&#1072;"><path codeLine="97" d="M553.7851,97.4402 C618.5751,148.6402 712.91,236.05 755,346 C789.43,435.93 768.36,547.82 746.97,620.76 " fill="none" id="&#1050;&#1083;&#1080;&#1077;&#1085;&#1090;-backto-&#1041;&#1086;&#1085;&#1091;&#1089;&#1085;&#1072;&#1103;&#1057;&#1080;&#1089;&#1090;&#1077;&#1084;&#1072;" style="stroke:#181818;stroke-width:1.0;"/><polygon fill="#181818" points="544.37,90,546.5975,96.8585,553.7851,97.4402,551.5576,90.5818,544.37,90" style="stroke:#181818;stroke-width:1.0;"/><text fill="#000000" font-family="sans-serif" font-size="13" lengthAdjust="spacing" textLength="7" x="545.961" y="111.7046">1</text><text fill="#000000" font-family="sans-serif" font-size="13" lengthAdjust="spacing" textLength="7" x="742.207" y="610.1638">1</text></g><!--reverse link ????? to ??????--><g id="link_&#1047;&#1072;&#1082;&#1072;&#1079;_&#1054;&#1087;&#1083;&#1072;&#1090;&#1072;"><path codeLine="98" d="M541.3681,295.9829 C556.0981,317.6429 565.89,332.03 581.38,354.8 " fill="none" id="&#1047;&#1072;&#1082;&#1072;&#1079;-backto-&#1054;&#1087;&#1083;&#1072;&#1090;&#1072;" style="stroke:#181818;stroke-width:1.0;"/><polygon fill="#181818" points="534.62,286.06,534.6864,293.2708,541.3681,295.9829,541.3017,288.7721,534.62,286.06" style="stroke:#181818;stroke-width:1.0;"/><text fill="#000000" font-family="sans-serif" font-size="13" lengthAdjust="spacing" textLength="22" x="516.1902" y="307.4145">1..1</text><text fill="#000000" font-family="sans-serif" font-size="13" lengthAdjust="spacing" textLength="22" x="553.483" y="344.2465">1..1</text></g><!--reverse link ????? to ?????--><g id="link_&#1058;&#1086;&#1074;&#1072;&#1088;_&#1058;&#1086;&#1074;&#1072;&#1088;"><path codeLine="99" d="M294.3677,650.9894 C313.8277,652.4194 317,667.5 317,698 C317,728.5 301.86,744.46 282.4,745.89 " fill="none" id="&#1058;&#1086;&#1074;&#1072;&#1088;-backto-&#1058;&#1086;&#1074;&#1072;&#1088;" style="stroke:#181818;stroke-width:1.0;"/><polygon fill="none" points="282.4,650.11,288.0907,654.539,294.3677,650.9894,288.677,646.5605,282.4,650.11" style="stroke:#181818;stroke-width:1.0;"/><text fill="#000000" font-family="sans-serif" font-size="13" lengthAdjust="spacing" textLength="7" x="289.9359" y="641.5088">1</text><text fill="#000000" font-family="sans-serif" font-size="13" lengthAdjust="spacing" textLength="20" x="290.1756" y="747.5145">1..*</text></g><!--link ?????????? to ??????????--><g id="link_&#1048;&#1085;&#1075;&#1088;&#1077;&#1076;&#1080;&#1077;&#1085;&#1090;_&#1048;&#1085;&#1075;&#1088;&#1077;&#1076;&#1080;&#1077;&#1085;&#1090;"><path codeLine="100" d="M491.16,650.57 C511.06,653.69 526,669.5 526,698 C526,726.5 511.06,742.31 491.16,745.43 " fill="none" id="&#1048;&#1085;&#1075;&#1088;&#1077;&#1076;&#1080;&#1077;&#1085;&#1090;-&#1048;&#1085;&#1075;&#1088;&#1077;&#1076;&#1080;&#1077;&#1085;&#1090;" style="stroke:#181818;stroke-width:1.0;"/></g><!--SRC=[XLNDRjD04BxlKwnwGOgKg5mvSEjhSET2BhsW2idvWHmABK6eH14jWY9nTPfOSPpOUONPL-19-6PsRQ_jfLMaUBqxFz_tpSpwxCtvw_EtcfQqfvGIoirONIXQqCQ-K6gcECWenhemaQ9RAkX0YOaqTXAu9R0eAATOlLFgpCNxBkvN7Clw9hHcVyIxLcnCMth0VyvP5HOPvy9M3gkH6PkF2ey8WJCjM7QyYtFsz_8i1SqA_oipWVsQaN7MWewm7TKfVZ81B0zL0b29pGV74oW5AWW9JDfvK6XEDtIlcAX4MSCYPc6Op0A6Qt7PL18ABYXgPi1ZWHSQfzOogIrXzi1yAaA_U0V1XSHjMwS0YRisqTyXaCjs4RJDpPbivIe4YoxA89QvL3-ZL46Sr4JcKj4z4g0Zc2vjU6FfAPg6yOj6Dfsd-BBRDT3KV39JeUJAfhcLx8iWQNO67BSYUim4QcM3rMde0Q0JW3mqc_eRzodBmE6-2i3O6mXB3xlen15UK1ZGuTRKlAGzzcS2LUXy4T87b29mwcNb0kzTiejMsA8yWzP_fpSQan2B5A026txkj4nW93O-mgOt_K7kp2EkUV8g2owugDQthSo32kq4RsukpNijuueYMa6RraUfHUpuMNk1kfUVcu6Iy9ol4qOenRq6urI29bAFnsudfbhTOrmR7qGp7ts6GcFNcLjfea2JfMMRhIfC8Wpad61lZniEzLc1q8nfKU9PigXtwD-y9Dq-vQ4hBqfzydmmw9teORzVBkk6rQhPpQL5o5RLNOf3jdabpzOyX2_E48hGTV2ujwGyxU3oFZ4EsSlAh9wiW5aGlpSLRF94qtIYzigmJ_ZvOWu6bQCi6vFfLOlZ3iEr2OWfw4CYA_Mi2VjKilgo_U3l8phno1Zr2yrraC6CfDVzncx6uX9rlLc1aTpV6mlPNVLjtrx0DvEEu8jiQoSda7COy8iTx_L_aOQSK2BSW3AWpkqV]--></g></svg>