<?xml version="1.0" encoding="us-ascii" standalone="no"?><svg xmlns="http://www.w3.org/2000/svg" xmlns:xlink="http://www.w3.org/1999/xlink" contentStyleType="text/css" height="1493px" preserveAspectRatio="none" style="width:1053px;height:1493px;background:#FFFFFF;" version="1.1" viewBox="0 0 1053 1493" width="1053px" zoomAndPan="magnify"><defs/><g><text fill="#000000" font-family="sans-serif" font-size="14" font-weight="bold" lengthAdjust="spacing" textLength="92" x="476.75" y="29.5332">&#1040;&#1074;&#1090;&#1086;&#1088;&#1080;&#1079;&#1072;&#1094;&#1080;&#1103;</text><rect fill="#ADD8E6" height="1443.2109" style="stroke:#181818;stroke-width:0.5;" width="96" x="288.5" y="44.6094"/><text fill="#000000" font-family="sans-serif" font-size="13" font-weight="bold" lengthAdjust="spacing" textLength="66" x="303.5" y="58.1045">&#1060;&#1088;&#1086;&#1085;&#1090;&#1077;&#1085;&#1076;</text><rect fill="#90EE90" height="1443.2109" style="stroke:#181818;stroke-width:0.5;" width="316" x="506.5" y="44.6094"/><text fill="#000000" font-family="sans-serif" font-size="13" font-weight="bold" lengthAdjust="spacing" textLength="200" x="564.5" y="58.1045">&#1041;&#1101;&#1082;&#1077;&#1085;&#1076; (&#1057;&#1080;&#1085;&#1093;&#1088;&#1086;&#1085;&#1085;&#1099;&#1077; &#1074;&#1099;&#1079;&#1086;&#1074;&#1099;)</text><rect fill="#FFFFFF" height="1189.3281" style="stroke:#181818;stroke-width:1.0;" width="10" x="331.5" y="208.8828"/><rect fill="#FFFFFF" height="1142.625" style="stroke:#181818;stroke-width:1.0;" width="10" x="548.5" y="255.5859"/><rect fill="#FFFFFF" height="1112.2734" style="stroke:#181818;stroke-width:1.0;" width="10" x="765.5" y="285.9375"/><rect fill="none" height="1045.9219" style="stroke:#000000;stroke-width:1.5;" width="1026.5" x="10" y="344.2891"/><rect fill="none" height="534.8125" style="stroke:#000000;stroke-width:1.5;" width="920.5" x="20" y="698.1563"/><rect fill="none" height="459.1094" style="stroke:#000000;stroke-width:1.5;" width="900.5" x="30" y="766.8594"/><rect fill="none" height="125.7578" style="stroke:#000000;stroke-width:1.5;" width="788.5" x="40" y="1093.2109"/><line style="stroke:#181818;stroke-width:0.5;stroke-dasharray:5.0,5.0;" x1="76" x2="76" y1="132.1797" y2="1407.2109"/><line style="stroke:#181818;stroke-width:0.5;stroke-dasharray:5.0,5.0;" x1="336.5" x2="336.5" y1="132.1797" y2="1407.2109"/><line style="stroke:#181818;stroke-width:0.5;stroke-dasharray:5.0,5.0;" x1="553.5" x2="553.5" y1="132.1797" y2="1407.2109"/><line style="stroke:#181818;stroke-width:0.5;stroke-dasharray:5.0,5.0;" x1="770.5" x2="770.5" y1="132.1797" y2="1407.2109"/><text fill="#000000" font-family="sans-serif" font-size="14" lengthAdjust="spacing" textLength="47" x="50" y="129.1035">&#1050;&#1083;&#1080;&#1077;&#1085;&#1090;</text><ellipse cx="76.5" cy="63.0703" fill="#E2E2F0" rx="8" ry="8" style="stroke:#181818;stroke-width:0.5;"/><path d="M76.5,71.0703 L76.5,98.0703 M63.5,79.0703 L89.5,79.0703 M76.5,98.0703 L63.5,113.0703 M76.5,98.0703 L89.5,113.0703 " fill="none" style="stroke:#181818;stroke-width:0.5;"/><text fill="#000000" font-family="sans-serif" font-size="14" lengthAdjust="spacing" textLength="47" x="50" y="1420.7441">&#1050;&#1083;&#1080;&#1077;&#1085;&#1090;</text><ellipse cx="76.5" cy="1432.3203" fill="#E2E2F0" rx="8" ry="8" style="stroke:#181818;stroke-width:0.5;"/><path d="M76.5,1440.3203 L76.5,1467.3203 M63.5,1448.3203 L89.5,1448.3203 M76.5,1467.3203 L63.5,1482.3203 M76.5,1467.3203 L89.5,1482.3203 " fill="none" style="stroke:#181818;stroke-width:0.5;"/><text fill="#000000" font-family="sans-serif" font-size="14" lengthAdjust="spacing" textLength="82" x="292.5" y="129.1035">&#1055;&#1088;&#1080;&#1083;&#1086;&#1078;&#1077;&#1085;&#1080;&#1077;</text><path d="M316,86.5703 L316,110.5703 M316,98.5703 L333,98.5703 " fill="none" style="stroke:#181818;stroke-width:0.5;"/><ellipse cx="345" cy="98.5703" fill="#E2E2F0" rx="12" ry="12" style="stroke:#181818;stroke-width:0.5;"/><text fill="#000000" font-family="sans-serif" font-size="14" lengthAdjust="spacing" textLength="82" x="292.5" y="1420.7441">&#1055;&#1088;&#1080;&#1083;&#1086;&#1078;&#1077;&#1085;&#1080;&#1077;</text><path d="M316,1427.8203 L316,1451.8203 M316,1439.8203 L333,1439.8203 " fill="none" style="stroke:#181818;stroke-width:0.5;"/><ellipse cx="345" cy="1439.8203" fill="#E2E2F0" rx="12" ry="12" style="stroke:#181818;stroke-width:0.5;"/><text fill="#000000" font-family="sans-serif" font-size="14" lengthAdjust="spacing" textLength="80" x="510.5" y="129.1035">API Gateway</text><path d="M533,86.5703 L533,110.5703 M533,98.5703 L550,98.5703 " fill="none" style="stroke:#181818;stroke-width:0.5;"/><ellipse cx="562" cy="98.5703" fill="#E2E2F0" rx="12" ry="12" style="stroke:#181818;stroke-width:0.5;"/><text fill="#000000" font-family="sans-serif" font-size="14" lengthAdjust="spacing" textLength="80" x="510.5" y="1420.7441">API Gateway</text><path d="M533,1427.8203 L533,1451.8203 M533,1439.8203 L550,1439.8203 " fill="none" style="stroke:#181818;stroke-width:0.5;"/><ellipse cx="562" cy="1439.8203" fill="#E2E2F0" rx="12" ry="12" style="stroke:#181818;stroke-width:0.5;"/><text fill="#000000" font-family="sans-serif" font-size="14" lengthAdjust="spacing" textLength="48" x="743.5" y="111.4941">&#1057;&#1077;&#1088;&#1074;&#1080;&#1089;</text><text fill="#000000" font-family="sans-serif" font-size="14" lengthAdjust="spacing" textLength="86" x="726.5" y="129.1035">&#1040;&#1074;&#1090;&#1086;&#1088;&#1080;&#1079;&#1072;&#1094;&#1080;&#1080;</text><ellipse cx="770.5" cy="80.9609" fill="#E2E2F0" rx="12" ry="12" style="stroke:#181818;stroke-width:0.5;"/><line style="stroke:#181818;stroke-width:0.5;" x1="758.5" x2="782.5" y1="94.9609" y2="94.9609"/><text fill="#000000" font-family="sans-serif" font-size="14" lengthAdjust="spacing" textLength="48" x="743.5" y="1420.7441">&#1057;&#1077;&#1088;&#1074;&#1080;&#1089;</text><text fill="#000000" font-family="sans-serif" font-size="14" lengthAdjust="spacing" textLength="86" x="726.5" y="1438.3535">&#1040;&#1074;&#1090;&#1086;&#1088;&#1080;&#1079;&#1072;&#1094;&#1080;&#1080;</text><ellipse cx="770.5" cy="1457.4297" fill="#E2E2F0" rx="12" ry="12" style="stroke:#181818;stroke-width:0.5;"/><line style="stroke:#181818;stroke-width:0.5;" x1="758.5" x2="782.5" y1="1471.4297" y2="1471.4297"/><rect fill="#FFFFFF" height="1189.3281" style="stroke:#181818;stroke-width:1.0;" width="10" x="331.5" y="208.8828"/><rect fill="#FFFFFF" height="1142.625" style="stroke:#181818;stroke-width:1.0;" width="10" x="548.5" y="255.5859"/><rect fill="#FFFFFF" height="1112.2734" style="stroke:#181818;stroke-width:1.0;" width="10" x="765.5" y="285.9375"/><rect fill="#EEEEEE" height="3" style="stroke:#EEEEEE;stroke-width:1.0;" width="1046.5" x="0" y="163.3555"/><line style="stroke:#000000;stroke-width:1.0;" x1="0" x2="1046.5" y1="163.3555" y2="163.3555"/><line style="stroke:#000000;stroke-width:1.0;" x1="0" x2="1046.5" y1="166.3555" y2="166.3555"/><rect fill="#EEEEEE" height="24.3516" style="stroke:#000000;stroke-width:2.0;" width="119" x="463.75" y="152.1797"/><text fill="#000000" font-family="sans-serif" font-size="13" font-weight="bold" lengthAdjust="spacing" textLength="101" x="469.75" y="169.6748">1. &#1040;&#1074;&#1090;&#1086;&#1088;&#1080;&#1079;&#1072;&#1094;&#1080;&#1103;</text><polygon fill="#181818" points="319.5,204.8828,329.5,208.8828,319.5,212.8828,323.5,208.8828" style="stroke:#181818;stroke-width:1.0;"/><line style="stroke:#181818;stroke-width:1.0;" x1="76.5" x2="325.5" y1="208.8828" y2="208.8828"/><text fill="#000000" font-family="sans-serif" font-size="13" lengthAdjust="spacing" textLength="157" x="83.5" y="204.0264">&#1042;&#1093;&#1086;&#1076; &#1087;&#1086; &#1085;&#1086;&#1084;&#1077;&#1088;&#1091; &#1090;&#1077;&#1083;&#1077;&#1092;&#1086;&#1085;&#1072;</text><polygon fill="#181818" points="536.5,251.5859,546.5,255.5859,536.5,259.5859,540.5,255.5859" style="stroke:#181818;stroke-width:1.0;"/><line style="stroke:#181818;stroke-width:1.0;" x1="341.5" x2="542.5" y1="255.5859" y2="255.5859"/><text fill="#000000" font-family="sans-serif" font-size="13" lengthAdjust="spacing" textLength="153" x="348.5" y="234.3779">POST /api/auth/quick-auth</text><text fill="#000000" font-family="sans-serif" font-size="13" lengthAdjust="spacing" textLength="43" x="348.5" y="250.7295">{phone}</text><polygon fill="#181818" points="753.5,281.9375,763.5,285.9375,753.5,289.9375,757.5,285.9375" style="stroke:#181818;stroke-width:1.0;"/><line style="stroke:#181818;stroke-width:1.0;" x1="558.5" x2="759.5" y1="285.9375" y2="285.9375"/><text fill="#000000" font-family="sans-serif" font-size="13" lengthAdjust="spacing" textLength="178" x="565.5" y="281.0811">POST /internal/auth/quick-auth</text><line style="stroke:#181818;stroke-width:1.0;" x1="775.5" x2="817.5" y1="316.2891" y2="316.2891"/><line style="stroke:#181818;stroke-width:1.0;" x1="817.5" x2="817.5" y1="316.2891" y2="329.2891"/><line style="stroke:#181818;stroke-width:1.0;" x1="776.5" x2="817.5" y1="329.2891" y2="329.2891"/><polygon fill="#181818" points="786.5,325.2891,776.5,329.2891,786.5,333.2891,782.5,329.2891" style="stroke:#181818;stroke-width:1.0;"/><text fill="#000000" font-family="sans-serif" font-size="13" lengthAdjust="spacing" textLength="121" x="782.5" y="311.4326">&#1055;&#1086;&#1080;&#1089;&#1082; &#1087;&#1086;&#1083;&#1100;&#1079;&#1086;&#1074;&#1072;&#1090;&#1077;&#1083;&#1103;</text><path d="M10,344.2891 L71,344.2891 L71,352.6406 L61,362.6406 L10,362.6406 L10,344.2891 " fill="#EEEEEE" style="stroke:#000000;stroke-width:1.5;"/><rect fill="none" height="1045.9219" style="stroke:#000000;stroke-width:1.5;" width="1026.5" x="10" y="344.2891"/><text fill="#000000" font-family="sans-serif" font-size="13" font-weight="bold" lengthAdjust="spacing" textLength="16" x="25" y="358.7842">alt</text><text fill="#000000" font-family="sans-serif" font-size="11" font-weight="bold" lengthAdjust="spacing" textLength="233" x="86" y="357.708">[&#1053;&#1086;&#1074;&#1099;&#1081; &#1087;&#1086;&#1083;&#1100;&#1079;&#1086;&#1074;&#1072;&#1090;&#1077;&#1083;&#1100; (&#1040;&#1074;&#1090;&#1086;&#1088;&#1077;&#1075;&#1080;&#1089;&#1090;&#1088;&#1072;&#1094;&#1080;&#1103;)]</text><line style="stroke:#181818;stroke-width:1.0;" x1="775.5" x2="817.5" y1="384.9922" y2="384.9922"/><line style="stroke:#181818;stroke-width:1.0;" x1="817.5" x2="817.5" y1="384.9922" y2="397.9922"/><line style="stroke:#181818;stroke-width:1.0;" x1="776.5" x2="817.5" y1="397.9922" y2="397.9922"/><polygon fill="#181818" points="786.5,393.9922,776.5,397.9922,786.5,401.9922,782.5,397.9922" style="stroke:#181818;stroke-width:1.0;"/><text fill="#000000" font-family="sans-serif" font-size="13" lengthAdjust="spacing" textLength="242" x="782.5" y="380.1357">&#1040;&#1074;&#1090;&#1086;&#1084;&#1072;&#1090;&#1080;&#1095;&#1077;&#1089;&#1082;&#1086;&#1077; &#1089;&#1086;&#1079;&#1076;&#1072;&#1085;&#1080;&#1077; &#1087;&#1086;&#1083;&#1100;&#1079;&#1086;&#1074;&#1072;&#1090;&#1077;&#1083;&#1103;</text><line style="stroke:#181818;stroke-width:1.0;" x1="775.5" x2="817.5" y1="428.3438" y2="428.3438"/><line style="stroke:#181818;stroke-width:1.0;" x1="817.5" x2="817.5" y1="428.3438" y2="441.3438"/><line style="stroke:#181818;stroke-width:1.0;" x1="776.5" x2="817.5" y1="441.3438" y2="441.3438"/><polygon fill="#181818" points="786.5,437.3438,776.5,441.3438,786.5,445.3438,782.5,441.3438" style="stroke:#181818;stroke-width:1.0;"/><text fill="#000000" font-family="sans-serif" font-size="13" lengthAdjust="spacing" textLength="183" x="782.5" y="423.4873">&#1043;&#1077;&#1085;&#1077;&#1088;&#1072;&#1094;&#1080;&#1103; &#1074;&#1088;&#1077;&#1084;&#1077;&#1085;&#1085;&#1086;&#1075;&#1086; &#1087;&#1072;&#1088;&#1086;&#1083;&#1103;</text><line style="stroke:#181818;stroke-width:1.0;" x1="775.5" x2="817.5" y1="471.6953" y2="471.6953"/><line style="stroke:#181818;stroke-width:1.0;" x1="817.5" x2="817.5" y1="471.6953" y2="484.6953"/><line style="stroke:#181818;stroke-width:1.0;" x1="776.5" x2="817.5" y1="484.6953" y2="484.6953"/><polygon fill="#181818" points="786.5,480.6953,776.5,484.6953,786.5,488.6953,782.5,484.6953" style="stroke:#181818;stroke-width:1.0;"/><text fill="#000000" font-family="sans-serif" font-size="13" lengthAdjust="spacing" textLength="155" x="782.5" y="466.8389">&#1054;&#1090;&#1087;&#1088;&#1072;&#1074;&#1082;&#1072; SMS &#1089; &#1087;&#1072;&#1088;&#1086;&#1083;&#1077;&#1084;</text><polygon fill="#181818" points="569.5,511.0469,559.5,515.0469,569.5,519.0469,565.5,515.0469" style="stroke:#181818;stroke-width:1.0;"/><line style="stroke:#181818;stroke-width:1.0;stroke-dasharray:2.0,2.0;" x1="563.5" x2="764.5" y1="515.0469" y2="515.0469"/><text fill="#000000" font-family="sans-serif" font-size="13" lengthAdjust="spacing" textLength="183" x="575.5" y="510.1904">201 Created + temporary_token</text><polygon fill="#181818" points="352.5,541.3984,342.5,545.3984,352.5,549.3984,348.5,545.3984" style="stroke:#181818;stroke-width:1.0;"/><line style="stroke:#181818;stroke-width:1.0;stroke-dasharray:2.0,2.0;" x1="346.5" x2="547.5" y1="545.3984" y2="545.3984"/><text fill="#000000" font-family="sans-serif" font-size="13" lengthAdjust="spacing" textLength="183" x="358.5" y="540.542">201 Created + temporary_token</text><polygon fill="#181818" points="87.5,571.75,77.5,575.75,87.5,579.75,83.5,575.75" style="stroke:#181818;stroke-width:1.0;"/><line style="stroke:#181818;stroke-width:1.0;stroke-dasharray:2.0,2.0;" x1="81.5" x2="330.5" y1="575.75" y2="575.75"/><text fill="#000000" font-family="sans-serif" font-size="13" lengthAdjust="spacing" textLength="177" x="93.5" y="570.8936">"SMS &#1089; &#1087;&#1072;&#1088;&#1086;&#1083;&#1077;&#1084; &#1086;&#1090;&#1087;&#1088;&#1072;&#1074;&#1083;&#1077;&#1085;&#1086;"</text><polygon fill="#181818" points="319.5,602.1016,329.5,606.1016,319.5,610.1016,323.5,606.1016" style="stroke:#181818;stroke-width:1.0;"/><line style="stroke:#181818;stroke-width:1.0;" x1="76.5" x2="325.5" y1="606.1016" y2="606.1016"/><text fill="#000000" font-family="sans-serif" font-size="13" lengthAdjust="spacing" textLength="127" x="83.5" y="601.2451">&#1042;&#1074;&#1086;&#1076; &#1087;&#1072;&#1088;&#1086;&#1083;&#1103; &#1080;&#1079; SMS</text><polygon fill="#181818" points="536.5,648.8047,546.5,652.8047,536.5,656.8047,540.5,652.8047" style="stroke:#181818;stroke-width:1.0;"/><line style="stroke:#181818;stroke-width:1.0;" x1="341.5" x2="542.5" y1="652.8047" y2="652.8047"/><text fill="#000000" font-family="sans-serif" font-size="13" lengthAdjust="spacing" textLength="135" x="348.5" y="631.5967">POST /api/auth/confirm</text><text fill="#000000" font-family="sans-serif" font-size="13" lengthAdjust="spacing" textLength="142" x="348.5" y="647.9482">{phone, temp_password}</text><polygon fill="#181818" points="753.5,679.1563,763.5,683.1563,753.5,687.1563,757.5,683.1563" style="stroke:#181818;stroke-width:1.0;"/><line style="stroke:#181818;stroke-width:1.0;" x1="558.5" x2="759.5" y1="683.1563" y2="683.1563"/><text fill="#000000" font-family="sans-serif" font-size="13" lengthAdjust="spacing" textLength="160" x="565.5" y="678.2998">POST /internal/auth/confirm</text><path d="M20,698.1563 L93,698.1563 L93,706.5078 L83,716.5078 L20,716.5078 L20,698.1563 " fill="#EEEEEE" style="stroke:#000000;stroke-width:1.5;"/><rect fill="none" height="534.8125" style="stroke:#000000;stroke-width:1.5;" width="920.5" x="20" y="698.1563"/><text fill="#000000" font-family="sans-serif" font-size="13" font-weight="bold" lengthAdjust="spacing" textLength="28" x="35" y="712.6514">loop</text><text fill="#000000" font-family="sans-serif" font-size="11" font-weight="bold" lengthAdjust="spacing" textLength="125" x="108" y="711.5752">[&#1052;&#1072;&#1082;&#1089;&#1080;&#1084;&#1091;&#1084; 3 &#1087;&#1086;&#1087;&#1099;&#1090;&#1082;&#1080;]</text><line style="stroke:#181818;stroke-width:1.0;" x1="775.5" x2="817.5" y1="738.8594" y2="738.8594"/><line style="stroke:#181818;stroke-width:1.0;" x1="817.5" x2="817.5" y1="738.8594" y2="751.8594"/><line style="stroke:#181818;stroke-width:1.0;" x1="776.5" x2="817.5" y1="751.8594" y2="751.8594"/><polygon fill="#181818" points="786.5,747.8594,776.5,751.8594,786.5,755.8594,782.5,751.8594" style="stroke:#181818;stroke-width:1.0;"/><text fill="#000000" font-family="sans-serif" font-size="13" lengthAdjust="spacing" textLength="126" x="782.5" y="734.0029">&#1042;&#1077;&#1088;&#1080;&#1092;&#1080;&#1082;&#1072;&#1094;&#1080;&#1103; &#1087;&#1072;&#1088;&#1086;&#1083;&#1103;</text><path d="M30,766.8594 L91,766.8594 L91,775.2109 L81,785.2109 L30,785.2109 L30,766.8594 " fill="#EEEEEE" style="stroke:#000000;stroke-width:1.5;"/><rect fill="none" height="459.1094" style="stroke:#000000;stroke-width:1.5;" width="900.5" x="30" y="766.8594"/><text fill="#000000" font-family="sans-serif" font-size="13" font-weight="bold" lengthAdjust="spacing" textLength="16" x="45" y="781.3545">alt</text><text fill="#000000" font-family="sans-serif" font-size="11" font-weight="bold" lengthAdjust="spacing" textLength="96" x="106" y="780.2783">[&#1055;&#1072;&#1088;&#1086;&#1083;&#1100; &#1074;&#1077;&#1088;&#1085;&#1099;&#1081;]</text><line style="stroke:#181818;stroke-width:1.0;" x1="775.5" x2="817.5" y1="807.5625" y2="807.5625"/><line style="stroke:#181818;stroke-width:1.0;" x1="817.5" x2="817.5" y1="807.5625" y2="820.5625"/><line style="stroke:#181818;stroke-width:1.0;" x1="776.5" x2="817.5" y1="820.5625" y2="820.5625"/><polygon fill="#181818" points="786.5,816.5625,776.5,820.5625,786.5,824.5625,782.5,820.5625" style="stroke:#181818;stroke-width:1.0;"/><text fill="#000000" font-family="sans-serif" font-size="13" lengthAdjust="spacing" textLength="136" x="782.5" y="802.7061">&#1043;&#1077;&#1085;&#1077;&#1088;&#1072;&#1094;&#1080;&#1103; JWT &#1090;&#1086;&#1082;&#1077;&#1085;&#1072;</text><line style="stroke:#181818;stroke-width:1.0;" x1="775.5" x2="817.5" y1="850.9141" y2="850.9141"/><line style="stroke:#181818;stroke-width:1.0;" x1="817.5" x2="817.5" y1="850.9141" y2="863.9141"/><line style="stroke:#181818;stroke-width:1.0;" x1="776.5" x2="817.5" y1="863.9141" y2="863.9141"/><polygon fill="#181818" points="786.5,859.9141,776.5,863.9141,786.5,867.9141,782.5,863.9141" style="stroke:#181818;stroke-width:1.0;"/><text fill="#000000" font-family="sans-serif" font-size="13" lengthAdjust="spacing" textLength="118" x="782.5" y="846.0576">&#1040;&#1082;&#1090;&#1080;&#1074;&#1072;&#1094;&#1080;&#1103; &#1072;&#1082;&#1082;&#1072;&#1091;&#1085;&#1090;&#1072;</text><polygon fill="#181818" points="569.5,890.2656,559.5,894.2656,569.5,898.2656,565.5,894.2656" style="stroke:#181818;stroke-width:1.0;"/><line style="stroke:#181818;stroke-width:1.0;stroke-dasharray:2.0,2.0;" x1="563.5" x2="764.5" y1="894.2656" y2="894.2656"/><text fill="#000000" font-family="sans-serif" font-size="13" lengthAdjust="spacing" textLength="122" x="575.5" y="889.4092">200 OK + JWT &#1090;&#1086;&#1082;&#1077;&#1085;</text><polygon fill="#181818" points="352.5,920.6172,342.5,924.6172,352.5,928.6172,348.5,924.6172" style="stroke:#181818;stroke-width:1.0;"/><line style="stroke:#181818;stroke-width:1.0;stroke-dasharray:2.0,2.0;" x1="346.5" x2="547.5" y1="924.6172" y2="924.6172"/><text fill="#000000" font-family="sans-serif" font-size="13" lengthAdjust="spacing" textLength="115" x="358.5" y="919.7607">200 OK + full_token</text><polygon fill="#181818" points="87.5,950.9688,77.5,954.9688,87.5,958.9688,83.5,954.9688" style="stroke:#181818;stroke-width:1.0;"/><line style="stroke:#181818;stroke-width:1.0;stroke-dasharray:2.0,2.0;" x1="81.5" x2="330.5" y1="954.9688" y2="954.9688"/><text fill="#000000" font-family="sans-serif" font-size="13" lengthAdjust="spacing" textLength="180" x="93.5" y="950.1123">&#1055;&#1086;&#1083;&#1085;&#1099;&#1081; &#1076;&#1086;&#1089;&#1090;&#1091;&#1087; &#1082; &#1087;&#1088;&#1080;&#1083;&#1086;&#1078;&#1077;&#1085;&#1080;&#1102;</text><line style="stroke:#000000;stroke-width:1.0;stroke-dasharray:2.0,2.0;" x1="30" x2="930.5" y1="963.9688" y2="963.9688"/><text fill="#000000" font-family="sans-serif" font-size="11" font-weight="bold" lengthAdjust="spacing" textLength="110" x="35" y="975.3877">[&#1055;&#1072;&#1088;&#1086;&#1083;&#1100; &#1085;&#1077;&#1074;&#1077;&#1088;&#1085;&#1099;&#1081;]</text><polygon fill="#181818" points="569.5,1013.5078,559.5,1017.5078,569.5,1021.5078,565.5,1017.5078" style="stroke:#181818;stroke-width:1.0;"/><line style="stroke:#181818;stroke-width:1.0;stroke-dasharray:2.0,2.0;" x1="563.5" x2="764.5" y1="1017.5078" y2="1017.5078"/><text fill="#000000" font-family="sans-serif" font-size="13" lengthAdjust="spacing" textLength="101" x="575.5" y="996.2998">401 Unauthorized</text><text fill="#000000" font-family="sans-serif" font-size="13" lengthAdjust="spacing" textLength="116" x="575.5" y="1012.6514">"&#1053;&#1077;&#1074;&#1077;&#1088;&#1085;&#1099;&#1081; &#1087;&#1072;&#1088;&#1086;&#1083;&#1100;"</text><polygon fill="#181818" points="352.5,1043.8594,342.5,1047.8594,352.5,1051.8594,348.5,1047.8594" style="stroke:#181818;stroke-width:1.0;"/><line style="stroke:#181818;stroke-width:1.0;stroke-dasharray:2.0,2.0;" x1="346.5" x2="547.5" y1="1047.8594" y2="1047.8594"/><text fill="#000000" font-family="sans-serif" font-size="13" lengthAdjust="spacing" textLength="101" x="358.5" y="1043.0029">401 Unauthorized</text><polygon fill="#181818" points="87.5,1074.2109,77.5,1078.2109,87.5,1082.2109,83.5,1078.2109" style="stroke:#181818;stroke-width:1.0;"/><line style="stroke:#181818;stroke-width:1.0;stroke-dasharray:2.0,2.0;" x1="81.5" x2="330.5" y1="1078.2109" y2="1078.2109"/><text fill="#000000" font-family="sans-serif" font-size="13" lengthAdjust="spacing" textLength="231" x="93.5" y="1073.3545">"&#1053;&#1077;&#1074;&#1077;&#1088;&#1085;&#1099;&#1081; &#1087;&#1072;&#1088;&#1086;&#1083;&#1100;, &#1087;&#1086;&#1087;&#1088;&#1086;&#1073;&#1091;&#1081;&#1090;&#1077; &#1089;&#1085;&#1086;&#1074;&#1072;"</text><path d="M40,1093.2109 L105,1093.2109 L105,1101.5625 L95,1111.5625 L40,1111.5625 L40,1093.2109 " fill="#EEEEEE" style="stroke:#000000;stroke-width:1.5;"/><rect fill="none" height="125.7578" style="stroke:#000000;stroke-width:1.5;" width="788.5" x="40" y="1093.2109"/><text fill="#000000" font-family="sans-serif" font-size="13" font-weight="bold" lengthAdjust="spacing" textLength="20" x="55" y="1107.7061">opt</text><text fill="#000000" font-family="sans-serif" font-size="11" font-weight="bold" lengthAdjust="spacing" textLength="108" x="120" y="1106.6299">[&#1045;&#1089;&#1090;&#1100; &#1077;&#1097;&#1077; &#1087;&#1086;&#1087;&#1099;&#1090;&#1082;&#1080;]</text><polygon fill="#181818" points="319.5,1129.9141,329.5,1133.9141,319.5,1137.9141,323.5,1133.9141" style="stroke:#181818;stroke-width:1.0;"/><line style="stroke:#181818;stroke-width:1.0;" x1="76.5" x2="325.5" y1="1133.9141" y2="1133.9141"/><text fill="#000000" font-family="sans-serif" font-size="13" lengthAdjust="spacing" textLength="144" x="83.5" y="1129.0576">&#1055;&#1086;&#1074;&#1090;&#1086;&#1088;&#1085;&#1099;&#1081; &#1074;&#1074;&#1086;&#1076; &#1087;&#1072;&#1088;&#1086;&#1083;&#1103;</text><polygon fill="#181818" points="536.5,1176.6172,546.5,1180.6172,536.5,1184.6172,540.5,1180.6172" style="stroke:#181818;stroke-width:1.0;"/><line style="stroke:#181818;stroke-width:1.0;" x1="341.5" x2="542.5" y1="1180.6172" y2="1180.6172"/><text fill="#000000" font-family="sans-serif" font-size="13" lengthAdjust="spacing" textLength="135" x="348.5" y="1159.4092">POST /api/auth/confirm</text><text fill="#000000" font-family="sans-serif" font-size="13" lengthAdjust="spacing" textLength="142" x="348.5" y="1175.7607">{phone, temp_password}</text><polygon fill="#181818" points="753.5,1206.9688,763.5,1210.9688,753.5,1214.9688,757.5,1210.9688" style="stroke:#181818;stroke-width:1.0;"/><line style="stroke:#181818;stroke-width:1.0;" x1="558.5" x2="759.5" y1="1210.9688" y2="1210.9688"/><text fill="#000000" font-family="sans-serif" font-size="13" lengthAdjust="spacing" textLength="160" x="565.5" y="1206.1123">POST /internal/auth/confirm</text><line style="stroke:#000000;stroke-width:1.0;stroke-dasharray:2.0,2.0;" x1="10" x2="1036.5" y1="1240.9688" y2="1240.9688"/><text fill="#000000" font-family="sans-serif" font-size="11" font-weight="bold" lengthAdjust="spacing" textLength="174" x="15" y="1252.3877">[&#1057;&#1091;&#1097;&#1077;&#1089;&#1090;&#1074;&#1091;&#1102;&#1097;&#1080;&#1081; &#1087;&#1086;&#1083;&#1100;&#1079;&#1086;&#1074;&#1072;&#1090;&#1077;&#1083;&#1100;]</text><line style="stroke:#181818;stroke-width:1.0;" x1="775.5" x2="817.5" y1="1278.1563" y2="1278.1563"/><line style="stroke:#181818;stroke-width:1.0;" x1="817.5" x2="817.5" y1="1278.1563" y2="1291.1563"/><line style="stroke:#181818;stroke-width:1.0;" x1="776.5" x2="817.5" y1="1291.1563" y2="1291.1563"/><polygon fill="#181818" points="786.5,1287.1563,776.5,1291.1563,786.5,1295.1563,782.5,1291.1563" style="stroke:#181818;stroke-width:1.0;"/><text fill="#000000" font-family="sans-serif" font-size="13" lengthAdjust="spacing" textLength="136" x="782.5" y="1273.2998">&#1043;&#1077;&#1085;&#1077;&#1088;&#1072;&#1094;&#1080;&#1103; JWT &#1090;&#1086;&#1082;&#1077;&#1085;&#1072;</text><polygon fill="#181818" points="569.5,1317.5078,559.5,1321.5078,569.5,1325.5078,565.5,1321.5078" style="stroke:#181818;stroke-width:1.0;"/><line style="stroke:#181818;stroke-width:1.0;stroke-dasharray:2.0,2.0;" x1="563.5" x2="764.5" y1="1321.5078" y2="1321.5078"/><text fill="#000000" font-family="sans-serif" font-size="13" lengthAdjust="spacing" textLength="122" x="575.5" y="1316.6514">200 OK + JWT &#1090;&#1086;&#1082;&#1077;&#1085;</text><polygon fill="#181818" points="352.5,1347.8594,342.5,1351.8594,352.5,1355.8594,348.5,1351.8594" style="stroke:#181818;stroke-width:1.0;"/><line style="stroke:#181818;stroke-width:1.0;stroke-dasharray:2.0,2.0;" x1="346.5" x2="547.5" y1="1351.8594" y2="1351.8594"/><text fill="#000000" font-family="sans-serif" font-size="13" lengthAdjust="spacing" textLength="92" x="358.5" y="1347.0029">200 OK + token</text><polygon fill="#181818" points="87.5,1378.2109,77.5,1382.2109,87.5,1386.2109,83.5,1382.2109" style="stroke:#181818;stroke-width:1.0;"/><line style="stroke:#181818;stroke-width:1.0;stroke-dasharray:2.0,2.0;" x1="81.5" x2="330.5" y1="1382.2109" y2="1382.2109"/><text fill="#000000" font-family="sans-serif" font-size="13" lengthAdjust="spacing" textLength="107" x="93.5" y="1377.3545">&#1052;&#1075;&#1085;&#1086;&#1074;&#1077;&#1085;&#1085;&#1099;&#1081; &#1074;&#1093;&#1086;&#1076;</text><!--SRC=[hLRTRXj55BwVfpWoDx7ID8xZ8cGfY3QaeI5MezefDv6gZJr9LjtCBklPb88gbPY2K48fHTmW8Ah40vWaXesThbzXzequPtRNFvkr2OYzi6Szv-SxttpdUAGfBGxgbJeD3rKGFbU- -akrmw-L7txFc56NjWivzRFguKP7lGqFSs0qOTaokP1is_P4mt2VeiM9TksfGFr9TcIjBMyxpeZPxOrxi6f8_iHugdVZDSDWfgGmRrG70vrYzY-tH2OivKTnFRd7CF9dwFGxxWU4JMS-py4xw-RkdhnZUPm1FexXIhDkEeQG6WyN3K3FnFs7y3lLZLnX1X7u6Ef5519NHwe3YE88ymVqdK_2hxgSYolnaugkv2MyWyICBIt1miq9lCFI4cCHnJ3tFa6UdIs3UXs-G0ZdeFeg0CGMg4jYAso1hho7Brzfq6s6BkGPWo7lZVlL6imRZZbl89BvJpsp_dYEbblY2sVF5lmPYwrrIjmOUfb2SbSOLjgLaLbYZW1FC3iUdEfgYAeN7aUaOLqQe5QK9K7z6b6fBYOP7kD13Adfg3EA6nxYEgOehmbEvOyza1QAuuVV82E81d_f02u2J7Aksf4u9qFC2FoZLaTdc9uKGRWkzGOTnHcTIH_td-kmcM5-mnnz2eBvkgeDrKeLSOsuKSGHn-49bg5OM81bb-Dh0sP1ydt7Th6b7adxSQp2mV55ahcEYvO9caTQAqCk4n7W8Go1ztJ9GKu7q1zZIYMTebMiqm4TGFgcWeTvHufBYRDkYntJtK-KUKDZV-GOpUOJssqy6wysOJTBgd6W8LJBjXrGls0XNHI4hox35jQt68cX7nvXdLtbQzECytkj9U1Zb_bqVeaKqgTEZvRvoM3Z60MZdMcUN0oihYMrjKzge6KTpQZsDEzNM1SgN-ivHeUbQh0jFI2plCTbLe3x7wDSnhEEUMK8BNRQyInhH5w3D2cPwK7HYxW0RCb0ztPBzK6FZlG_IVXo48rRJPxY5Sdw1sv7wojXJsmA4eVjcf_pnfR8uJGQYp1weCUvwPMdmqqjUtgc6ua8wVqFPEE29XBDhRVHW1g7ClPYEwYsdpIBo4Wd_3QPRrSbdJpffZtH8pcQjp6uqum-lXBdVsZbJ8QlszO3POWX-ScQlbaacJTXYrWXYh3CLlWIt_mf_p_ilxVclskgoSqqUKpZ03kBLT69xoXqND7rW2uPx0DT-eQ5Du_DoZeSSBTfsW9l7CL2iNHpSQQsvy5TlWqBjw2uM2uLoeLRi5gfpHPAPKnFHdasixgnVb24fksvTGuDiobTSzkJ62VFrem30nvuU6lRvsMWjvbQ9G_LbUH7M147fckBVRechZsiH4RmaIshZYsryRkbkJkcX2ft4HuyhB0F-OxXuTnS4NMxOOhTCcpMxiwznzODiUiPkvZ8zTWotYMbYwG-sFmR]--></g></svg>