<svg width="834" height="1194" viewBox="0 0 834 1194" fill="none" xmlns="http://www.w3.org/2000/svg">
<rect x="0.5" y="0.5" width="833" height="1193" fill="white"/>
<rect x="0.5" y="0.5" width="833" height="1193" stroke="black"/>
<g clip-path="url(#clip0_232_1721)">
<path d="M278.768 309.292C280.074 309.292 281.166 309.417 282.046 309.666C282.941 309.915 283.608 310.326 284.048 310.898C284.503 311.47 284.73 312.233 284.73 313.186C284.73 313.802 284.613 314.352 284.378 314.836C284.158 315.305 283.821 315.701 283.366 316.024C282.926 316.332 282.384 316.545 281.738 316.662V316.772C282.398 316.875 282.992 317.065 283.52 317.344C284.063 317.623 284.488 318.019 284.796 318.532C285.104 319.045 285.258 319.713 285.258 320.534C285.258 321.487 285.038 322.301 284.598 322.976C284.158 323.636 283.528 324.142 282.706 324.494C281.9 324.831 280.932 325 279.802 325H274.28V309.292H278.768ZM279.164 315.98C280.514 315.98 281.438 315.767 281.936 315.342C282.435 314.902 282.684 314.257 282.684 313.406C282.684 312.541 282.376 311.925 281.76 311.558C281.159 311.177 280.191 310.986 278.856 310.986H276.26V315.98H279.164ZM276.26 317.63V323.328H279.428C280.822 323.328 281.79 323.057 282.332 322.514C282.875 321.971 283.146 321.26 283.146 320.38C283.146 319.823 283.022 319.339 282.772 318.928C282.538 318.517 282.134 318.202 281.562 317.982C281.005 317.747 280.242 317.63 279.274 317.63H276.26ZM297.895 316.178C297.895 316.911 297.675 317.483 297.235 317.894C296.795 318.305 296.23 318.583 295.541 318.73V318.818C296.274 318.921 296.912 319.185 297.455 319.61C297.998 320.021 298.269 320.666 298.269 321.546C298.269 322.045 298.174 322.507 297.983 322.932C297.807 323.357 297.528 323.724 297.147 324.032C296.766 324.34 296.274 324.582 295.673 324.758C295.072 324.919 294.346 325 293.495 325H288.413V313.208H293.473C294.309 313.208 295.057 313.303 295.717 313.494C296.392 313.67 296.92 313.978 297.301 314.418C297.697 314.843 297.895 315.43 297.895 316.178ZM296.267 321.546C296.267 320.871 296.01 320.387 295.497 320.094C294.984 319.801 294.228 319.654 293.231 319.654H290.349V323.438H293.275C294.243 323.438 294.984 323.299 295.497 323.02C296.01 322.727 296.267 322.235 296.267 321.546ZM295.937 316.42C295.937 315.863 295.732 315.459 295.321 315.21C294.925 314.946 294.272 314.814 293.363 314.814H290.349V318.048H293.011C293.964 318.048 294.69 317.916 295.189 317.652C295.688 317.388 295.937 316.977 295.937 316.42ZM305.731 312.988C306.743 312.988 307.608 313.208 308.327 313.648C309.06 314.088 309.617 314.711 309.999 315.518C310.395 316.31 310.593 317.241 310.593 318.312V319.478H302.519C302.548 320.813 302.885 321.832 303.531 322.536C304.191 323.225 305.107 323.57 306.281 323.57C307.029 323.57 307.689 323.504 308.261 323.372C308.847 323.225 309.449 323.02 310.065 322.756V324.45C309.463 324.714 308.869 324.905 308.283 325.022C307.696 325.154 306.999 325.22 306.193 325.22C305.078 325.22 304.088 324.993 303.223 324.538C302.372 324.083 301.705 323.409 301.221 322.514C300.751 321.605 300.517 320.497 300.517 319.192C300.517 317.901 300.729 316.794 301.155 315.87C301.595 314.946 302.203 314.235 302.981 313.736C303.773 313.237 304.689 312.988 305.731 312.988ZM305.709 314.572C304.785 314.572 304.051 314.873 303.509 315.474C302.981 316.061 302.665 316.882 302.563 317.938H308.569C308.569 317.263 308.466 316.677 308.261 316.178C308.055 315.679 307.74 315.291 307.315 315.012C306.904 314.719 306.369 314.572 305.709 314.572ZM322.439 313.208V323.372H324.155V329.092H322.285V325H314.079V329.092H312.231V323.372H313.177C313.851 322.433 314.409 321.414 314.849 320.314C315.303 319.199 315.641 318.041 315.861 316.838C316.095 315.621 316.22 314.411 316.235 313.208H322.439ZM317.951 314.726C317.892 315.723 317.738 316.757 317.489 317.828C317.239 318.884 316.917 319.896 316.521 320.864C316.139 321.832 315.692 322.668 315.179 323.372H320.569V314.726H317.951ZM328.38 320.402C328.38 320.534 328.372 320.725 328.358 320.974C328.358 321.209 328.35 321.465 328.336 321.744C328.321 322.008 328.306 322.265 328.292 322.514C328.277 322.749 328.262 322.939 328.248 323.086L334.562 313.208H336.938V325H335.134V318.048C335.134 317.813 335.134 317.505 335.134 317.124C335.148 316.743 335.163 316.369 335.178 316.002C335.192 315.621 335.207 315.335 335.222 315.144L328.952 325H326.554V313.208H328.38V320.402ZM348.919 314.836H345.069V325H343.155V314.836H339.349V313.208H348.919V314.836ZM355.669 312.988C356.681 312.988 357.546 313.208 358.265 313.648C358.998 314.088 359.555 314.711 359.937 315.518C360.333 316.31 360.531 317.241 360.531 318.312V319.478H352.457C352.486 320.813 352.823 321.832 353.469 322.536C354.129 323.225 355.045 323.57 356.219 323.57C356.967 323.57 357.627 323.504 358.199 323.372C358.785 323.225 359.387 323.02 360.003 322.756V324.45C359.401 324.714 358.807 324.905 358.221 325.022C357.634 325.154 356.937 325.22 356.131 325.22C355.016 325.22 354.026 324.993 353.161 324.538C352.31 324.083 351.643 323.409 351.159 322.514C350.689 321.605 350.455 320.497 350.455 319.192C350.455 317.901 350.667 316.794 351.093 315.87C351.533 314.946 352.141 314.235 352.919 313.736C353.711 313.237 354.627 312.988 355.669 312.988ZM355.647 314.572C354.723 314.572 353.989 314.873 353.447 315.474C352.919 316.061 352.603 316.882 352.501 317.938H358.507C358.507 317.263 358.404 316.677 358.199 316.178C357.993 315.679 357.678 315.291 357.253 315.012C356.842 314.719 356.307 314.572 355.647 314.572ZM378.181 313.208H380.293L375.255 318.884L380.711 325H378.467L373.143 319.016V325H371.207V313.208H373.143V318.928L378.181 313.208ZM392.761 319.082C392.761 320.065 392.629 320.937 392.365 321.7C392.116 322.448 391.749 323.086 391.265 323.614C390.796 324.142 390.217 324.545 389.527 324.824C388.853 325.088 388.097 325.22 387.261 325.22C386.484 325.22 385.765 325.088 385.105 324.824C384.445 324.545 383.873 324.142 383.389 323.614C382.905 323.086 382.524 322.448 382.245 321.7C381.981 320.937 381.849 320.065 381.849 319.082C381.849 317.777 382.069 316.677 382.509 315.782C382.949 314.873 383.58 314.183 384.401 313.714C385.223 313.23 386.198 312.988 387.327 312.988C388.398 312.988 389.337 313.23 390.143 313.714C390.965 314.183 391.603 314.873 392.057 315.782C392.527 316.677 392.761 317.777 392.761 319.082ZM383.851 319.082C383.851 320.006 383.969 320.813 384.203 321.502C384.453 322.177 384.834 322.697 385.347 323.064C385.861 323.431 386.513 323.614 387.305 323.614C388.097 323.614 388.75 323.431 389.263 323.064C389.777 322.697 390.151 322.177 390.385 321.502C390.635 320.813 390.759 320.006 390.759 319.082C390.759 318.143 390.635 317.344 390.385 316.684C390.136 316.024 389.755 315.518 389.241 315.166C388.743 314.799 388.09 314.616 387.283 314.616C386.081 314.616 385.208 315.012 384.665 315.804C384.123 316.596 383.851 317.689 383.851 319.082ZM404.674 313.208V323.372H406.39V329.092H404.52V325H396.314V329.092H394.466V323.372H395.412C396.086 322.433 396.644 321.414 397.084 320.314C397.538 319.199 397.876 318.041 398.096 316.838C398.33 315.621 398.455 314.411 398.47 313.208H404.674ZM400.186 314.726C400.127 315.723 399.973 316.757 399.724 317.828C399.474 318.884 399.152 319.896 398.756 320.864C398.374 321.832 397.927 322.668 397.414 323.372H402.804V314.726H400.186ZM418.201 320.402C418.201 320.534 418.194 320.725 418.179 320.974C418.179 321.209 418.172 321.465 418.157 321.744C418.142 322.008 418.128 322.265 418.113 322.514C418.098 322.749 418.084 322.939 418.069 323.086L424.383 313.208H426.759V325H424.955V318.048C424.955 317.813 424.955 317.505 424.955 317.124C424.97 316.743 424.984 316.369 424.999 316.002C425.014 315.621 425.028 315.335 425.043 315.144L418.773 325H416.375V313.208H418.201V320.402ZM433.702 312.988C434.596 312.988 435.374 313.113 436.034 313.362C436.694 313.597 437.207 313.949 437.574 314.418C437.94 314.873 438.124 315.43 438.124 316.09C438.124 316.809 437.926 317.381 437.53 317.806C437.134 318.217 436.591 318.517 435.902 318.708V318.796C436.371 318.928 436.804 319.111 437.2 319.346C437.596 319.581 437.911 319.889 438.146 320.27C438.395 320.651 438.52 321.143 438.52 321.744C438.52 322.389 438.336 322.976 437.97 323.504C437.618 324.032 437.068 324.45 436.32 324.758C435.586 325.066 434.64 325.22 433.482 325.22C432.924 325.22 432.389 325.191 431.876 325.132C431.377 325.073 430.922 324.985 430.512 324.868C430.116 324.751 429.764 324.611 429.456 324.45V322.712C429.954 322.947 430.541 323.159 431.216 323.35C431.905 323.541 432.653 323.636 433.46 323.636C434.046 323.636 434.574 323.57 435.044 323.438C435.528 323.306 435.909 323.101 436.188 322.822C436.466 322.529 436.606 322.133 436.606 321.634C436.606 321.179 436.481 320.813 436.232 320.534C435.982 320.241 435.608 320.021 435.11 319.874C434.626 319.727 434.002 319.654 433.24 319.654H431.656V318.07H432.932C433.944 318.07 434.75 317.938 435.352 317.674C435.968 317.395 436.276 316.926 436.276 316.266C436.276 315.709 436.041 315.291 435.572 315.012C435.117 314.733 434.457 314.594 433.592 314.594C432.946 314.594 432.374 314.66 431.876 314.792C431.392 314.909 430.856 315.093 430.27 315.342L429.588 313.802C430.218 313.523 430.878 313.318 431.568 313.186C432.257 313.054 432.968 312.988 433.702 312.988ZM456.055 310.81C455.219 310.81 454.464 310.957 453.789 311.25C453.114 311.529 452.542 311.947 452.073 312.504C451.604 313.047 451.244 313.714 450.995 314.506C450.746 315.283 450.621 316.163 450.621 317.146C450.621 318.437 450.819 319.559 451.215 320.512C451.626 321.465 452.227 322.199 453.019 322.712C453.826 323.225 454.83 323.482 456.033 323.482C456.722 323.482 457.375 323.423 457.991 323.306C458.607 323.189 459.208 323.042 459.795 322.866V324.582C459.208 324.802 458.6 324.963 457.969 325.066C457.353 325.169 456.612 325.22 455.747 325.22C454.148 325.22 452.814 324.89 451.743 324.23C450.672 323.57 449.866 322.631 449.323 321.414C448.795 320.197 448.531 318.767 448.531 317.124C448.531 315.936 448.692 314.851 449.015 313.868C449.352 312.885 449.836 312.035 450.467 311.316C451.112 310.597 451.904 310.047 452.843 309.666C453.782 309.27 454.86 309.072 456.077 309.072C456.884 309.072 457.661 309.153 458.409 309.314C459.157 309.475 459.824 309.703 460.411 309.996L459.619 311.668C459.135 311.448 458.592 311.25 457.991 311.074C457.404 310.898 456.759 310.81 456.055 310.81ZM470.241 325L465.071 311.228H464.983C465.013 311.521 465.035 311.895 465.049 312.35C465.079 312.805 465.101 313.303 465.115 313.846C465.13 314.374 465.137 314.917 465.137 315.474V325H463.311V309.292H466.237L471.077 322.162H471.165L476.093 309.292H478.997V325H477.039V315.342C477.039 314.829 477.047 314.323 477.061 313.824C477.076 313.311 477.098 312.834 477.127 312.394C477.157 311.939 477.179 311.558 477.193 311.25H477.105L471.869 325H470.241ZM490.09 310.81C489.254 310.81 488.499 310.957 487.824 311.25C487.15 311.529 486.578 311.947 486.108 312.504C485.639 313.047 485.28 313.714 485.03 314.506C484.781 315.283 484.656 316.163 484.656 317.146C484.656 318.437 484.854 319.559 485.25 320.512C485.661 321.465 486.262 322.199 487.054 322.712C487.861 323.225 488.866 323.482 490.068 323.482C490.758 323.482 491.41 323.423 492.026 323.306C492.642 323.189 493.244 323.042 493.83 322.866V324.582C493.244 324.802 492.635 324.963 492.004 325.066C491.388 325.169 490.648 325.22 489.782 325.22C488.184 325.22 486.849 324.89 485.778 324.23C484.708 323.57 483.901 322.631 483.358 321.414C482.83 320.197 482.566 318.767 482.566 317.124C482.566 315.936 482.728 314.851 483.05 313.868C483.388 312.885 483.872 312.035 484.502 311.316C485.148 310.597 485.94 310.047 486.878 309.666C487.817 309.27 488.895 309.072 490.112 309.072C490.919 309.072 491.696 309.153 492.444 309.314C493.192 309.475 493.86 309.703 494.446 309.996L493.654 311.668C493.17 311.448 492.628 311.25 492.026 311.074C491.44 310.898 490.794 310.81 490.09 310.81ZM513.425 313.208V323.372H515.141V329.092H513.271V325H505.065V329.092H503.217V323.372H504.163C504.837 322.433 505.395 321.414 505.835 320.314C506.289 319.199 506.627 318.041 506.847 316.838C507.081 315.621 507.206 314.411 507.221 313.208H513.425ZM508.937 314.726C508.878 315.723 508.724 316.757 508.475 317.828C508.225 318.884 507.903 319.896 507.507 320.864C507.125 321.832 506.678 322.668 506.165 323.372H511.555V314.726H508.937ZM526.516 325H524.558V314.814H521.082C520.935 316.677 520.752 318.268 520.532 319.588C520.312 320.893 520.033 321.957 519.696 322.778C519.359 323.599 518.955 324.201 518.486 324.582C518.017 324.963 517.467 325.154 516.836 325.154C516.645 325.154 516.455 325.139 516.264 325.11C516.088 325.095 515.941 325.059 515.824 325V323.548C515.912 323.577 516.007 323.599 516.11 323.614C516.213 323.629 516.315 323.636 516.418 323.636C516.741 323.636 517.034 323.504 517.298 323.24C517.562 322.976 517.797 322.573 518.002 322.03C518.222 321.487 518.42 320.805 518.596 319.984C518.772 319.148 518.926 318.165 519.058 317.036C519.19 315.907 519.307 314.631 519.41 313.208H526.516V325ZM531.073 325H528.829L532.195 320.05C531.74 319.933 531.3 319.749 530.875 319.5C530.449 319.236 530.105 318.877 529.841 318.422C529.577 317.953 529.445 317.373 529.445 316.684C529.445 315.555 529.826 314.697 530.589 314.11C531.351 313.509 532.363 313.208 533.625 313.208H538.905V325H536.969V320.314H534.109L531.073 325ZM531.315 316.706C531.315 317.381 531.564 317.887 532.063 318.224C532.576 318.547 533.287 318.708 534.197 318.708H536.969V314.814H533.823C532.928 314.814 532.283 314.99 531.887 315.342C531.505 315.694 531.315 316.149 531.315 316.706ZM266.956 341.01C268.393 341.01 269.457 341.325 270.146 341.956C270.835 342.587 271.18 343.591 271.18 344.97V353H269.772L269.398 351.328H269.31C268.973 351.753 268.621 352.113 268.254 352.406C267.902 352.685 267.491 352.89 267.022 353.022C266.567 353.154 266.01 353.22 265.35 353.22C264.646 353.22 264.008 353.095 263.436 352.846C262.879 352.597 262.439 352.215 262.116 351.702C261.793 351.174 261.632 350.514 261.632 349.722C261.632 348.549 262.094 347.647 263.018 347.016C263.942 346.371 265.365 346.019 267.286 345.96L269.288 345.894V345.19C269.288 344.207 269.075 343.525 268.65 343.144C268.225 342.763 267.623 342.572 266.846 342.572C266.23 342.572 265.643 342.667 265.086 342.858C264.529 343.034 264.008 343.239 263.524 343.474L262.93 342.022C263.443 341.743 264.052 341.509 264.756 341.318C265.46 341.113 266.193 341.01 266.956 341.01ZM267.528 347.302C266.061 347.361 265.042 347.595 264.47 348.006C263.913 348.417 263.634 348.996 263.634 349.744C263.634 350.404 263.832 350.888 264.228 351.196C264.639 351.504 265.159 351.658 265.79 351.658C266.787 351.658 267.616 351.387 268.276 350.844C268.936 350.287 269.266 349.436 269.266 348.292V347.236L267.528 347.302ZM284.392 344.178C284.392 344.911 284.172 345.483 283.732 345.894C283.292 346.305 282.727 346.583 282.038 346.73V346.818C282.771 346.921 283.409 347.185 283.952 347.61C284.495 348.021 284.766 348.666 284.766 349.546C284.766 350.045 284.671 350.507 284.48 350.932C284.304 351.357 284.025 351.724 283.644 352.032C283.263 352.34 282.771 352.582 282.17 352.758C281.569 352.919 280.843 353 279.992 353H274.91V341.208H279.97C280.806 341.208 281.554 341.303 282.214 341.494C282.889 341.67 283.417 341.978 283.798 342.418C284.194 342.843 284.392 343.43 284.392 344.178ZM282.764 349.546C282.764 348.871 282.507 348.387 281.994 348.094C281.481 347.801 280.725 347.654 279.728 347.654H276.846V351.438H279.772C280.74 351.438 281.481 351.299 281.994 351.02C282.507 350.727 282.764 350.235 282.764 349.546ZM282.434 344.42C282.434 343.863 282.229 343.459 281.818 343.21C281.422 342.946 280.769 342.814 279.86 342.814H276.846V346.048H279.508C280.461 346.048 281.187 345.916 281.686 345.652C282.185 345.388 282.434 344.977 282.434 344.42ZM295.814 342.836H291.964V353H290.05V342.836H286.244V341.208H295.814V342.836ZM308.262 347.082C308.262 348.065 308.13 348.937 307.866 349.7C307.616 350.448 307.25 351.086 306.766 351.614C306.296 352.142 305.717 352.545 305.028 352.824C304.353 353.088 303.598 353.22 302.762 353.22C301.984 353.22 301.266 353.088 300.606 352.824C299.946 352.545 299.374 352.142 298.89 351.614C298.406 351.086 298.024 350.448 297.746 349.7C297.482 348.937 297.35 348.065 297.35 347.082C297.35 345.777 297.57 344.677 298.01 343.782C298.45 342.873 299.08 342.183 299.902 341.714C300.723 341.23 301.698 340.988 302.828 340.988C303.898 340.988 304.837 341.23 305.644 341.714C306.465 342.183 307.103 342.873 307.558 343.782C308.027 344.677 308.262 345.777 308.262 347.082ZM299.352 347.082C299.352 348.006 299.469 348.813 299.704 349.502C299.953 350.177 300.334 350.697 300.848 351.064C301.361 351.431 302.014 351.614 302.806 351.614C303.598 351.614 304.25 351.431 304.764 351.064C305.277 350.697 305.651 350.177 305.886 349.502C306.135 348.813 306.26 348.006 306.26 347.082C306.26 346.143 306.135 345.344 305.886 344.684C305.636 344.024 305.255 343.518 304.742 343.166C304.243 342.799 303.59 342.616 302.784 342.616C301.581 342.616 300.708 343.012 300.166 343.804C299.623 344.596 299.352 345.689 299.352 347.082ZM317.028 340.988C318.48 340.988 319.646 341.494 320.526 342.506C321.421 343.518 321.868 345.043 321.868 347.082C321.868 348.417 321.663 349.546 321.252 350.47C320.856 351.379 320.291 352.069 319.558 352.538C318.839 352.993 317.989 353.22 317.006 353.22C316.405 353.22 315.869 353.139 315.4 352.978C314.931 352.817 314.527 352.611 314.19 352.362C313.867 352.098 313.589 351.812 313.354 351.504H313.222C313.251 351.753 313.281 352.069 313.31 352.45C313.339 352.831 313.354 353.161 313.354 353.44V358.28H311.418V341.208H313.002L313.266 342.814H313.354C313.589 342.477 313.867 342.169 314.19 341.89C314.527 341.611 314.923 341.391 315.378 341.23C315.847 341.069 316.397 340.988 317.028 340.988ZM316.676 342.616C315.884 342.616 315.246 342.77 314.762 343.078C314.278 343.371 313.926 343.819 313.706 344.42C313.486 345.021 313.369 345.784 313.354 346.708V347.082C313.354 348.05 313.457 348.871 313.662 349.546C313.867 350.221 314.212 350.734 314.696 351.086C315.195 351.438 315.869 351.614 316.72 351.614C317.439 351.614 318.025 351.416 318.48 351.02C318.949 350.624 319.294 350.089 319.514 349.414C319.749 348.725 319.866 347.94 319.866 347.06C319.866 345.711 319.602 344.633 319.074 343.826C318.561 343.019 317.761 342.616 316.676 342.616ZM326.867 348.402C326.867 348.534 326.86 348.725 326.845 348.974C326.845 349.209 326.838 349.465 326.823 349.744C326.809 350.008 326.794 350.265 326.779 350.514C326.765 350.749 326.75 350.939 326.735 351.086L333.049 341.208H335.425V353H333.621V346.048C333.621 345.813 333.621 345.505 333.621 345.124C333.636 344.743 333.651 344.369 333.665 344.002C333.68 343.621 333.695 343.335 333.709 343.144L327.439 353H325.041V341.208H326.867V348.402ZM342.368 340.988C343.263 340.988 344.04 341.113 344.7 341.362C345.36 341.597 345.873 341.949 346.24 342.418C346.607 342.873 346.79 343.43 346.79 344.09C346.79 344.809 346.592 345.381 346.196 345.806C345.8 346.217 345.257 346.517 344.568 346.708V346.796C345.037 346.928 345.47 347.111 345.866 347.346C346.262 347.581 346.577 347.889 346.812 348.27C347.061 348.651 347.186 349.143 347.186 349.744C347.186 350.389 347.003 350.976 346.636 351.504C346.284 352.032 345.734 352.45 344.986 352.758C344.253 353.066 343.307 353.22 342.148 353.22C341.591 353.22 341.055 353.191 340.542 353.132C340.043 353.073 339.589 352.985 339.178 352.868C338.782 352.751 338.43 352.611 338.122 352.45V350.712C338.621 350.947 339.207 351.159 339.882 351.35C340.571 351.541 341.319 351.636 342.126 351.636C342.713 351.636 343.241 351.57 343.71 351.438C344.194 351.306 344.575 351.101 344.854 350.822C345.133 350.529 345.272 350.133 345.272 349.634C345.272 349.179 345.147 348.813 344.898 348.534C344.649 348.241 344.275 348.021 343.776 347.874C343.292 347.727 342.669 347.654 341.906 347.654H340.322V346.07H341.598C342.61 346.07 343.417 345.938 344.018 345.674C344.634 345.395 344.942 344.926 344.942 344.266C344.942 343.709 344.707 343.291 344.238 343.012C343.783 342.733 343.123 342.594 342.258 342.594C341.613 342.594 341.041 342.66 340.542 342.792C340.058 342.909 339.523 343.093 338.936 343.342L338.254 341.802C338.885 341.523 339.545 341.318 340.234 341.186C340.923 341.054 341.635 340.988 342.368 340.988ZM354.605 341.01C356.042 341.01 357.106 341.325 357.795 341.956C358.484 342.587 358.829 343.591 358.829 344.97V353H357.421L357.047 351.328H356.959C356.622 351.753 356.27 352.113 355.903 352.406C355.551 352.685 355.14 352.89 354.671 353.022C354.216 353.154 353.659 353.22 352.999 353.22C352.295 353.22 351.657 353.095 351.085 352.846C350.528 352.597 350.088 352.215 349.765 351.702C349.442 351.174 349.281 350.514 349.281 349.722C349.281 348.549 349.743 347.647 350.667 347.016C351.591 346.371 353.014 346.019 354.935 345.96L356.937 345.894V345.19C356.937 344.207 356.724 343.525 356.299 343.144C355.874 342.763 355.272 342.572 354.495 342.572C353.879 342.572 353.292 342.667 352.735 342.858C352.178 343.034 351.657 343.239 351.173 343.474L350.579 342.022C351.092 341.743 351.701 341.509 352.405 341.318C353.109 341.113 353.842 341.01 354.605 341.01ZM355.177 347.302C353.71 347.361 352.691 347.595 352.119 348.006C351.562 348.417 351.283 348.996 351.283 349.744C351.283 350.404 351.481 350.888 351.877 351.196C352.288 351.504 352.808 351.658 353.439 351.658C354.436 351.658 355.265 351.387 355.925 350.844C356.585 350.287 356.915 349.436 356.915 348.292V347.236L355.177 347.302ZM374.197 357.092H372.305V353H362.559V341.208H364.495V351.372H370.589V341.208H372.525V351.394H374.197V357.092ZM378.374 348.402C378.374 348.534 378.366 348.725 378.352 348.974C378.352 349.209 378.344 349.465 378.33 349.744C378.315 350.008 378.3 350.265 378.286 350.514C378.271 350.749 378.256 350.939 378.242 351.086L384.556 341.208H386.932V353H385.128V346.048C385.128 345.813 385.128 345.505 385.128 345.124C385.142 344.743 385.157 344.369 385.172 344.002C385.186 343.621 385.201 343.335 385.216 343.144L378.946 353H376.548V341.208H378.374V348.402ZM392.598 348.402C392.598 348.534 392.591 348.725 392.576 348.974C392.576 349.209 392.569 349.465 392.554 349.744C392.54 350.008 392.525 350.265 392.51 350.514C392.496 350.749 392.481 350.939 392.466 351.086L398.78 341.208H401.156V353H399.352V346.048C399.352 345.813 399.352 345.505 399.352 345.124C399.367 344.743 399.382 344.369 399.396 344.002C399.411 343.621 399.426 343.335 399.44 343.144L393.17 353H390.772V341.208H392.598V348.402ZM412.125 336.94L405.393 354.54H403.743L410.475 336.94H412.125ZM420.298 340.988C421.75 340.988 422.916 341.494 423.796 342.506C424.691 343.518 425.138 345.043 425.138 347.082C425.138 348.417 424.933 349.546 424.522 350.47C424.126 351.379 423.562 352.069 422.828 352.538C422.11 352.993 421.259 353.22 420.276 353.22C419.675 353.22 419.14 353.139 418.67 352.978C418.201 352.817 417.798 352.611 417.46 352.362C417.138 352.098 416.859 351.812 416.624 351.504H416.492C416.522 351.753 416.551 352.069 416.58 352.45C416.61 352.831 416.624 353.161 416.624 353.44V358.28H414.688V341.208H416.272L416.536 342.814H416.624C416.859 342.477 417.138 342.169 417.46 341.89C417.798 341.611 418.194 341.391 418.648 341.23C419.118 341.069 419.668 340.988 420.298 340.988ZM419.946 342.616C419.154 342.616 418.516 342.77 418.032 343.078C417.548 343.371 417.196 343.819 416.976 344.42C416.756 345.021 416.639 345.784 416.624 346.708V347.082C416.624 348.05 416.727 348.871 416.932 349.546C417.138 350.221 417.482 350.734 417.966 351.086C418.465 351.438 419.14 351.614 419.99 351.614C420.709 351.614 421.296 351.416 421.75 351.02C422.22 350.624 422.564 350.089 422.784 349.414C423.019 348.725 423.136 347.94 423.136 347.06C423.136 345.711 422.872 344.633 422.344 343.826C421.831 343.019 421.032 342.616 419.946 342.616ZM432.866 340.988C433.878 340.988 434.743 341.208 435.462 341.648C436.195 342.088 436.752 342.711 437.134 343.518C437.53 344.31 437.728 345.241 437.728 346.312V347.478H429.654C429.683 348.813 430.02 349.832 430.666 350.536C431.326 351.225 432.242 351.57 433.416 351.57C434.164 351.57 434.824 351.504 435.396 351.372C435.982 351.225 436.584 351.02 437.2 350.756V352.45C436.598 352.714 436.004 352.905 435.418 353.022C434.831 353.154 434.134 353.22 433.328 353.22C432.213 353.22 431.223 352.993 430.358 352.538C429.507 352.083 428.84 351.409 428.356 350.514C427.886 349.605 427.652 348.497 427.652 347.192C427.652 345.901 427.864 344.794 428.29 343.87C428.73 342.946 429.338 342.235 430.116 341.736C430.908 341.237 431.824 340.988 432.866 340.988ZM432.844 342.572C431.92 342.572 431.186 342.873 430.644 343.474C430.116 344.061 429.8 344.882 429.698 345.938H435.704C435.704 345.263 435.601 344.677 435.396 344.178C435.19 343.679 434.875 343.291 434.45 343.012C434.039 342.719 433.504 342.572 432.844 342.572ZM448.012 341.208V342.836H442.754V353H440.818V341.208H448.012ZM452.249 348.402C452.249 348.534 452.242 348.725 452.227 348.974C452.227 349.209 452.22 349.465 452.205 349.744C452.191 350.008 452.176 350.265 452.161 350.514C452.147 350.749 452.132 350.939 452.117 351.086L458.431 341.208H460.807V353H459.003V346.048C459.003 345.813 459.003 345.505 459.003 345.124C459.018 344.743 459.033 344.369 459.047 344.002C459.062 343.621 459.077 343.335 459.091 343.144L452.821 353H450.423V341.208H452.249V348.402ZM469.378 353.22C468.337 353.22 467.405 353.007 466.584 352.582C465.777 352.157 465.139 351.497 464.67 350.602C464.215 349.707 463.988 348.563 463.988 347.17C463.988 345.718 464.23 344.537 464.714 343.628C465.198 342.719 465.851 342.051 466.672 341.626C467.508 341.201 468.454 340.988 469.51 340.988C470.111 340.988 470.691 341.054 471.248 341.186C471.805 341.303 472.26 341.45 472.612 341.626L472.018 343.232C471.666 343.1 471.255 342.975 470.786 342.858C470.317 342.741 469.877 342.682 469.466 342.682C468.674 342.682 468.021 342.851 467.508 343.188C466.995 343.525 466.613 344.024 466.364 344.684C466.115 345.344 465.99 346.165 465.99 347.148C465.99 348.087 466.115 348.886 466.364 349.546C466.613 350.206 466.987 350.705 467.486 351.042C467.985 351.379 468.608 351.548 469.356 351.548C470.001 351.548 470.566 351.482 471.05 351.35C471.549 351.218 472.003 351.057 472.414 350.866V352.582C472.018 352.787 471.578 352.941 471.094 353.044C470.625 353.161 470.053 353.22 469.378 353.22ZM483.446 342.836H479.596V353H477.682V342.836H473.876V341.208H483.446V342.836ZM491.467 340.988C492.919 340.988 494.085 341.494 494.965 342.506C495.86 343.518 496.307 345.043 496.307 347.082C496.307 348.417 496.102 349.546 495.691 350.47C495.295 351.379 494.73 352.069 493.997 352.538C493.278 352.993 492.428 353.22 491.445 353.22C490.844 353.22 490.308 353.139 489.839 352.978C489.37 352.817 488.966 352.611 488.629 352.362C488.306 352.098 488.028 351.812 487.793 351.504H487.661C487.69 351.753 487.72 352.069 487.749 352.45C487.778 352.831 487.793 353.161 487.793 353.44V358.28H485.857V341.208H487.441L487.705 342.814H487.793C488.028 342.477 488.306 342.169 488.629 341.89C488.966 341.611 489.362 341.391 489.817 341.23C490.286 341.069 490.836 340.988 491.467 340.988ZM491.115 342.616C490.323 342.616 489.685 342.77 489.201 343.078C488.717 343.371 488.365 343.819 488.145 344.42C487.925 345.021 487.808 345.784 487.793 346.708V347.082C487.793 348.05 487.896 348.871 488.101 349.546C488.306 350.221 488.651 350.734 489.135 351.086C489.634 351.438 490.308 351.614 491.159 351.614C491.878 351.614 492.464 351.416 492.919 351.02C493.388 350.624 493.733 350.089 493.953 349.414C494.188 348.725 494.305 347.94 494.305 347.06C494.305 345.711 494.041 344.633 493.513 343.826C493 343.019 492.2 342.616 491.115 342.616ZM503.946 341.01C505.384 341.01 506.447 341.325 507.136 341.956C507.826 342.587 508.17 343.591 508.17 344.97V353H506.762L506.388 351.328H506.3C505.963 351.753 505.611 352.113 505.244 352.406C504.892 352.685 504.482 352.89 504.012 353.022C503.558 353.154 503 353.22 502.34 353.22C501.636 353.22 500.998 353.095 500.426 352.846C499.869 352.597 499.429 352.215 499.106 351.702C498.784 351.174 498.622 350.514 498.622 349.722C498.622 348.549 499.084 347.647 500.008 347.016C500.932 346.371 502.355 346.019 504.276 345.96L506.278 345.894V345.19C506.278 344.207 506.066 343.525 505.64 343.144C505.215 342.763 504.614 342.572 503.836 342.572C503.22 342.572 502.634 342.667 502.076 342.858C501.519 343.034 500.998 343.239 500.514 343.474L499.92 342.022C500.434 341.743 501.042 341.509 501.746 341.318C502.45 341.113 503.184 341.01 503.946 341.01ZM504.518 347.302C503.052 347.361 502.032 347.595 501.46 348.006C500.903 348.417 500.624 348.996 500.624 349.744C500.624 350.404 500.822 350.888 501.218 351.196C501.629 351.504 502.15 351.658 502.78 351.658C503.778 351.658 504.606 351.387 505.266 350.844C505.926 350.287 506.256 349.436 506.256 348.292V347.236L504.518 347.302ZM523.538 357.092H521.646V353H511.9V341.208H513.836V351.372H519.93V341.208H521.866V351.394H523.538V357.092ZM527.715 348.402C527.715 348.534 527.707 348.725 527.693 348.974C527.693 349.209 527.685 349.465 527.671 349.744C527.656 350.008 527.641 350.265 527.627 350.514C527.612 350.749 527.597 350.939 527.583 351.086L533.897 341.208H536.273V353H534.469V346.048C534.469 345.813 534.469 345.505 534.469 345.124C534.483 344.743 534.498 344.369 534.513 344.002C534.527 343.621 534.542 343.335 534.557 343.144L528.287 353H525.889V341.208H527.715V348.402ZM541.939 348.402C541.939 348.534 541.932 348.725 541.917 348.974C541.917 349.209 541.91 349.465 541.895 349.744C541.881 350.008 541.866 350.265 541.851 350.514C541.837 350.749 541.822 350.939 541.807 351.086L548.121 341.208H550.497V353H548.693V346.048C548.693 345.813 548.693 345.505 548.693 345.124C548.708 344.743 548.723 344.369 548.737 344.002C548.752 343.621 548.767 343.335 548.781 343.144L542.511 353H540.113V341.208H541.939V348.402Z" fill="#19191B"/>
</g>
<rect x="262" y="956" width="289" height="40" rx="8" fill="#0088FF"/>
<path d="M286.052 981V969.576H294.628V981H293.204V970.84H287.492V981H286.052ZM301.843 972.264C302.899 972.264 303.747 972.632 304.387 973.368C305.038 974.104 305.363 975.213 305.363 976.696C305.363 977.667 305.214 978.488 304.915 979.16C304.627 979.821 304.216 980.323 303.683 980.664C303.16 980.995 302.542 981.16 301.827 981.16C301.39 981.16 301 981.101 300.659 980.984C300.318 980.867 300.024 980.717 299.779 980.536C299.544 980.344 299.342 980.136 299.171 979.912H299.075C299.096 980.093 299.118 980.323 299.139 980.6C299.16 980.877 299.171 981.117 299.171 981.32V984.84H297.763V972.424H298.915L299.107 973.592H299.171C299.342 973.347 299.544 973.123 299.779 972.92C300.024 972.717 300.312 972.557 300.643 972.44C300.984 972.323 301.384 972.264 301.843 972.264ZM301.587 973.448C301.011 973.448 300.547 973.56 300.195 973.784C299.843 973.997 299.587 974.323 299.427 974.76C299.267 975.197 299.182 975.752 299.171 976.424V976.696C299.171 977.4 299.246 977.997 299.395 978.488C299.544 978.979 299.795 979.352 300.147 979.608C300.51 979.864 301 979.992 301.619 979.992C302.142 979.992 302.568 979.848 302.899 979.56C303.24 979.272 303.491 978.883 303.651 978.392C303.822 977.891 303.907 977.32 303.907 976.68C303.907 975.699 303.715 974.915 303.331 974.328C302.958 973.741 302.376 973.448 301.587 973.448ZM315.263 976.696C315.263 977.411 315.167 978.045 314.975 978.6C314.794 979.144 314.527 979.608 314.175 979.992C313.834 980.376 313.412 980.669 312.911 980.872C312.42 981.064 311.871 981.16 311.263 981.16C310.698 981.16 310.175 981.064 309.695 980.872C309.215 980.669 308.799 980.376 308.447 979.992C308.095 979.608 307.818 979.144 307.615 978.6C307.423 978.045 307.327 977.411 307.327 976.696C307.327 975.747 307.487 974.947 307.807 974.296C308.127 973.635 308.586 973.133 309.183 972.792C309.78 972.44 310.49 972.264 311.311 972.264C312.09 972.264 312.772 972.44 313.359 972.792C313.956 973.133 314.42 973.635 314.751 974.296C315.092 974.947 315.263 975.747 315.263 976.696ZM308.783 976.696C308.783 977.368 308.868 977.955 309.039 978.456C309.22 978.947 309.498 979.325 309.871 979.592C310.244 979.859 310.719 979.992 311.295 979.992C311.871 979.992 312.346 979.859 312.719 979.592C313.092 979.325 313.364 978.947 313.535 978.456C313.716 977.955 313.807 977.368 313.807 976.696C313.807 976.013 313.716 975.432 313.535 974.952C313.354 974.472 313.076 974.104 312.703 973.848C312.34 973.581 311.866 973.448 311.279 973.448C310.404 973.448 309.77 973.736 309.375 974.312C308.98 974.888 308.783 975.683 308.783 976.696ZM324.062 972.424V979.816H325.31V983.976H323.95V981H317.982V983.976H316.638V979.816H317.326C317.817 979.133 318.222 978.392 318.542 977.592C318.873 976.781 319.118 975.939 319.278 975.064C319.449 974.179 319.54 973.299 319.55 972.424H324.062ZM320.798 973.528C320.756 974.253 320.644 975.005 320.462 975.784C320.281 976.552 320.046 977.288 319.758 977.992C319.481 978.696 319.156 979.304 318.782 979.816H322.702V973.528H320.798ZM334.647 976.696C334.647 977.411 334.551 978.045 334.359 978.6C334.178 979.144 333.911 979.608 333.559 979.992C333.218 980.376 332.797 980.669 332.295 980.872C331.805 981.064 331.255 981.16 330.647 981.16C330.082 981.16 329.559 981.064 329.079 980.872C328.599 980.669 328.183 980.376 327.831 979.992C327.479 979.608 327.202 979.144 326.999 978.6C326.807 978.045 326.711 977.411 326.711 976.696C326.711 975.747 326.871 974.947 327.191 974.296C327.511 973.635 327.97 973.133 328.567 972.792C329.165 972.44 329.874 972.264 330.695 972.264C331.474 972.264 332.157 972.44 332.743 972.792C333.341 973.133 333.805 973.635 334.135 974.296C334.477 974.947 334.647 975.747 334.647 976.696ZM328.167 976.696C328.167 977.368 328.253 977.955 328.423 978.456C328.605 978.947 328.882 979.325 329.255 979.592C329.629 979.859 330.103 979.992 330.679 979.992C331.255 979.992 331.73 979.859 332.103 979.592C332.477 979.325 332.749 978.947 332.919 978.456C333.101 977.955 333.191 977.368 333.191 976.696C333.191 976.013 333.101 975.432 332.919 974.952C332.738 974.472 332.461 974.104 332.087 973.848C331.725 973.581 331.25 973.448 330.663 973.448C329.789 973.448 329.154 973.736 328.759 974.312C328.365 974.888 328.167 975.683 328.167 976.696ZM343.607 981H342.183V973.592H339.655C339.548 974.947 339.415 976.104 339.255 977.064C339.095 978.013 338.892 978.787 338.647 979.384C338.401 979.981 338.108 980.419 337.767 980.696C337.425 980.973 337.025 981.112 336.567 981.112C336.428 981.112 336.289 981.101 336.151 981.08C336.023 981.069 335.916 981.043 335.831 981V979.944C335.895 979.965 335.964 979.981 336.039 979.992C336.113 980.003 336.188 980.008 336.263 980.008C336.497 980.008 336.711 979.912 336.903 979.72C337.095 979.528 337.265 979.235 337.415 978.84C337.575 978.445 337.719 977.949 337.847 977.352C337.975 976.744 338.087 976.029 338.183 975.208C338.279 974.387 338.364 973.459 338.439 972.424H343.607V981ZM356.817 972.424L353.281 976.584L357.121 981H355.521L351.809 976.648V981H350.497V976.648L346.785 981H345.185L349.025 976.584L345.489 972.424H347.025L350.497 976.584V972.424H351.809V976.584L355.297 972.424H356.817ZM360.057 977.656C360.057 977.752 360.051 977.891 360.041 978.072C360.041 978.243 360.035 978.429 360.025 978.632C360.014 978.824 360.003 979.011 359.993 979.192C359.982 979.363 359.971 979.501 359.961 979.608L364.553 972.424H366.281V981H364.969V975.944C364.969 975.773 364.969 975.549 364.969 975.272C364.979 974.995 364.99 974.723 365.001 974.456C365.011 974.179 365.022 973.971 365.033 973.832L360.473 981H358.729V972.424H360.057V977.656ZM375.13 973.608H372.33V981H370.938V973.608H368.17V972.424H375.13V973.608ZM380.971 975.944C381.718 975.944 382.337 976.035 382.827 976.216C383.318 976.397 383.686 976.669 383.931 977.032C384.187 977.384 384.315 977.832 384.315 978.376C384.315 978.909 384.193 979.373 383.947 979.768C383.713 980.163 383.345 980.467 382.843 980.68C382.342 980.893 381.697 981 380.907 981H377.019V972.424H378.427V975.944H380.971ZM382.907 978.456C382.907 977.933 382.721 977.581 382.347 977.4C381.985 977.208 381.473 977.112 380.811 977.112H378.427V979.864H380.843C381.441 979.864 381.931 979.757 382.315 979.544C382.71 979.331 382.907 978.968 382.907 978.456ZM391.674 975.848C391.674 974.6 391.797 973.539 392.042 972.664C392.298 971.779 392.688 971.075 393.21 970.552C393.744 970.019 394.426 969.661 395.258 969.48C395.952 969.331 396.629 969.197 397.29 969.08C397.952 968.963 398.57 968.856 399.146 968.76L399.386 969.992C399.109 970.035 398.8 970.088 398.458 970.152C398.117 970.205 397.77 970.264 397.418 970.328C397.066 970.381 396.725 970.44 396.394 970.504C396.074 970.557 395.792 970.611 395.546 970.664C395.194 970.739 394.88 970.867 394.602 971.048C394.325 971.219 394.085 971.453 393.882 971.752C393.69 972.051 393.536 972.419 393.418 972.856C393.301 973.293 393.232 973.811 393.21 974.408H393.306C393.456 974.205 393.658 973.997 393.914 973.784C394.181 973.571 394.496 973.389 394.858 973.24C395.232 973.091 395.653 973.016 396.122 973.016C396.869 973.016 397.488 973.181 397.978 973.512C398.48 973.832 398.853 974.28 399.098 974.856C399.354 975.432 399.482 976.104 399.482 976.872C399.482 977.821 399.317 978.616 398.986 979.256C398.656 979.896 398.197 980.376 397.61 980.696C397.024 981.005 396.341 981.16 395.562 981.16C394.976 981.16 394.442 981.048 393.962 980.824C393.482 980.589 393.072 980.248 392.73 979.8C392.389 979.352 392.128 978.797 391.946 978.136C391.765 977.475 391.674 976.712 391.674 975.848ZM395.674 979.992C396.144 979.992 396.549 979.896 396.89 979.704C397.242 979.512 397.514 979.197 397.706 978.76C397.898 978.323 397.994 977.741 397.994 977.016C397.994 976.141 397.829 975.453 397.498 974.952C397.178 974.44 396.645 974.184 395.898 974.184C395.429 974.184 395.002 974.291 394.618 974.504C394.234 974.707 393.914 974.941 393.658 975.208C393.402 975.475 393.221 975.699 393.114 975.88C393.114 976.403 393.152 976.909 393.226 977.4C393.301 977.891 393.429 978.333 393.61 978.728C393.802 979.112 394.064 979.421 394.394 979.656C394.736 979.88 395.162 979.992 395.674 979.992ZM405.213 972.264C405.949 972.264 406.578 972.424 407.101 972.744C407.634 973.064 408.039 973.517 408.317 974.104C408.605 974.68 408.749 975.357 408.749 976.136V976.984H402.877C402.898 977.955 403.143 978.696 403.613 979.208C404.093 979.709 404.759 979.96 405.613 979.96C406.157 979.96 406.637 979.912 407.053 979.816C407.479 979.709 407.917 979.56 408.365 979.368V980.6C407.927 980.792 407.495 980.931 407.069 981.016C406.642 981.112 406.135 981.16 405.549 981.16C404.738 981.16 404.018 980.995 403.389 980.664C402.77 980.333 402.285 979.843 401.933 979.192C401.591 978.531 401.421 977.725 401.421 976.776C401.421 975.837 401.575 975.032 401.885 974.36C402.205 973.688 402.647 973.171 403.213 972.808C403.789 972.445 404.455 972.264 405.213 972.264ZM405.197 973.416C404.525 973.416 403.991 973.635 403.597 974.072C403.213 974.499 402.983 975.096 402.909 975.864H407.277C407.277 975.373 407.202 974.947 407.053 974.584C406.903 974.221 406.674 973.939 406.365 973.736C406.066 973.523 405.677 973.416 405.197 973.416ZM413.388 972.264C414.039 972.264 414.604 972.355 415.084 972.536C415.564 972.707 415.937 972.963 416.204 973.304C416.471 973.635 416.604 974.04 416.604 974.52C416.604 975.043 416.46 975.459 416.172 975.768C415.884 976.067 415.489 976.285 414.988 976.424V976.488C415.329 976.584 415.644 976.717 415.932 976.888C416.22 977.059 416.449 977.283 416.62 977.56C416.801 977.837 416.892 978.195 416.892 978.632C416.892 979.101 416.759 979.528 416.492 979.912C416.236 980.296 415.836 980.6 415.292 980.824C414.759 981.048 414.071 981.16 413.228 981.16C412.823 981.16 412.433 981.139 412.06 981.096C411.697 981.053 411.367 980.989 411.068 980.904C410.78 980.819 410.524 980.717 410.3 980.6V979.336C410.663 979.507 411.089 979.661 411.58 979.8C412.081 979.939 412.625 980.008 413.212 980.008C413.639 980.008 414.023 979.96 414.364 979.864C414.716 979.768 414.993 979.619 415.196 979.416C415.399 979.203 415.5 978.915 415.5 978.552C415.5 978.221 415.409 977.955 415.228 977.752C415.047 977.539 414.775 977.379 414.412 977.272C414.06 977.165 413.607 977.112 413.052 977.112H411.9V975.96H412.828C413.564 975.96 414.151 975.864 414.588 975.672C415.036 975.469 415.26 975.128 415.26 974.648C415.26 974.243 415.089 973.939 414.748 973.736C414.417 973.533 413.937 973.432 413.308 973.432C412.839 973.432 412.423 973.48 412.06 973.576C411.708 973.661 411.319 973.795 410.892 973.976L410.396 972.856C410.855 972.653 411.335 972.504 411.836 972.408C412.337 972.312 412.855 972.264 413.388 972.264ZM427.827 972.28C428.872 972.28 429.645 972.509 430.147 972.968C430.648 973.427 430.899 974.157 430.899 975.16V981H429.875L429.603 979.784H429.539C429.293 980.093 429.037 980.355 428.771 980.568C428.515 980.771 428.216 980.92 427.875 981.016C427.544 981.112 427.139 981.16 426.659 981.16C426.147 981.16 425.683 981.069 425.267 980.888C424.861 980.707 424.541 980.429 424.307 980.056C424.072 979.672 423.955 979.192 423.955 978.616C423.955 977.763 424.291 977.107 424.963 976.648C425.635 976.179 426.669 975.923 428.067 975.88L429.523 975.832V975.32C429.523 974.605 429.368 974.109 429.059 973.832C428.749 973.555 428.312 973.416 427.747 973.416C427.299 973.416 426.872 973.485 426.467 973.624C426.061 973.752 425.683 973.901 425.331 974.072L424.899 973.016C425.272 972.813 425.715 972.643 426.227 972.504C426.739 972.355 427.272 972.28 427.827 972.28ZM428.243 976.856C427.176 976.899 426.435 977.069 426.019 977.368C425.613 977.667 425.411 978.088 425.411 978.632C425.411 979.112 425.555 979.464 425.843 979.688C426.141 979.912 426.52 980.024 426.979 980.024C427.704 980.024 428.307 979.827 428.787 979.432C429.267 979.027 429.507 978.408 429.507 977.576V976.808L428.243 976.856ZM440.643 974.584C440.643 975.117 440.483 975.533 440.163 975.832C439.843 976.131 439.433 976.333 438.931 976.44V976.504C439.465 976.579 439.929 976.771 440.323 977.08C440.718 977.379 440.915 977.848 440.915 978.488C440.915 978.851 440.846 979.187 440.707 979.496C440.579 979.805 440.377 980.072 440.099 980.296C439.822 980.52 439.465 980.696 439.027 980.824C438.59 980.941 438.062 981 437.443 981H433.747V972.424H437.427C438.035 972.424 438.579 972.493 439.059 972.632C439.55 972.76 439.934 972.984 440.211 973.304C440.499 973.613 440.643 974.04 440.643 974.584ZM439.459 978.488C439.459 977.997 439.273 977.645 438.899 977.432C438.526 977.219 437.977 977.112 437.251 977.112H435.155V979.864H437.283C437.987 979.864 438.526 979.763 438.899 979.56C439.273 979.347 439.459 978.989 439.459 978.488ZM439.219 974.76C439.219 974.355 439.07 974.061 438.771 973.88C438.483 973.688 438.009 973.592 437.347 973.592H435.155V975.944H437.091C437.785 975.944 438.313 975.848 438.675 975.656C439.038 975.464 439.219 975.165 439.219 974.76ZM449.086 973.608H446.286V981H444.894V973.608H442.126V972.424H449.086V973.608ZM458.275 976.696C458.275 977.411 458.179 978.045 457.987 978.6C457.806 979.144 457.539 979.608 457.187 979.992C456.846 980.376 456.425 980.669 455.923 980.872C455.433 981.064 454.883 981.16 454.275 981.16C453.71 981.16 453.187 981.064 452.707 980.872C452.227 980.669 451.811 980.376 451.459 979.992C451.107 979.608 450.83 979.144 450.627 978.6C450.435 978.045 450.339 977.411 450.339 976.696C450.339 975.747 450.499 974.947 450.819 974.296C451.139 973.635 451.598 973.133 452.195 972.792C452.793 972.44 453.502 972.264 454.323 972.264C455.102 972.264 455.785 972.44 456.371 972.792C456.969 973.133 457.433 973.635 457.763 974.296C458.105 974.947 458.275 975.747 458.275 976.696ZM451.795 976.696C451.795 977.368 451.881 977.955 452.051 978.456C452.233 978.947 452.51 979.325 452.883 979.592C453.257 979.859 453.731 979.992 454.307 979.992C454.883 979.992 455.358 979.859 455.731 979.592C456.105 979.325 456.377 978.947 456.547 978.456C456.729 977.955 456.819 977.368 456.819 976.696C456.819 976.013 456.729 975.432 456.547 974.952C456.366 974.472 456.089 974.104 455.715 973.848C455.353 973.581 454.878 973.448 454.291 973.448C453.417 973.448 452.782 973.736 452.387 974.312C451.993 974.888 451.795 975.683 451.795 976.696ZM464.787 972.264C465.843 972.264 466.691 972.632 467.331 973.368C467.982 974.104 468.307 975.213 468.307 976.696C468.307 977.667 468.158 978.488 467.859 979.16C467.571 979.821 467.16 980.323 466.627 980.664C466.104 980.995 465.486 981.16 464.771 981.16C464.334 981.16 463.944 981.101 463.603 980.984C463.262 980.867 462.968 980.717 462.723 980.536C462.488 980.344 462.286 980.136 462.115 979.912H462.019C462.04 980.093 462.062 980.323 462.083 980.6C462.104 980.877 462.115 981.117 462.115 981.32V984.84H460.707V972.424H461.859L462.051 973.592H462.115C462.286 973.347 462.488 973.123 462.723 972.92C462.968 972.717 463.256 972.557 463.587 972.44C463.928 972.323 464.328 972.264 464.787 972.264ZM464.531 973.448C463.955 973.448 463.491 973.56 463.139 973.784C462.787 973.997 462.531 974.323 462.371 974.76C462.211 975.197 462.126 975.752 462.115 976.424V976.696C462.115 977.4 462.19 977.997 462.339 978.488C462.488 978.979 462.739 979.352 463.091 979.608C463.454 979.864 463.944 979.992 464.563 979.992C465.086 979.992 465.512 979.848 465.843 979.56C466.184 979.272 466.435 978.883 466.595 978.392C466.766 977.891 466.851 977.32 466.851 976.68C466.851 975.699 466.659 974.915 466.275 974.328C465.902 973.741 465.32 973.448 464.531 973.448ZM472.079 977.656C472.079 977.752 472.073 977.891 472.063 978.072C472.063 978.243 472.057 978.429 472.047 978.632C472.036 978.824 472.025 979.011 472.015 979.192C472.004 979.363 471.993 979.501 471.983 979.608L476.575 972.424H478.303V981H476.991V975.944C476.991 975.773 476.991 975.549 476.991 975.272C477.001 974.995 477.012 974.723 477.023 974.456C477.033 974.179 477.044 973.971 477.055 973.832L472.495 981H470.751V972.424H472.079V977.656ZM483.488 972.264C484.139 972.264 484.704 972.355 485.184 972.536C485.664 972.707 486.037 972.963 486.304 973.304C486.571 973.635 486.704 974.04 486.704 974.52C486.704 975.043 486.56 975.459 486.272 975.768C485.984 976.067 485.589 976.285 485.088 976.424V976.488C485.429 976.584 485.744 976.717 486.032 976.888C486.32 977.059 486.549 977.283 486.72 977.56C486.901 977.837 486.992 978.195 486.992 978.632C486.992 979.101 486.859 979.528 486.592 979.912C486.336 980.296 485.936 980.6 485.392 980.824C484.859 981.048 484.171 981.16 483.328 981.16C482.923 981.16 482.533 981.139 482.16 981.096C481.797 981.053 481.467 980.989 481.168 980.904C480.88 980.819 480.624 980.717 480.4 980.6V979.336C480.763 979.507 481.189 979.661 481.68 979.8C482.181 979.939 482.725 980.008 483.312 980.008C483.739 980.008 484.123 979.96 484.464 979.864C484.816 979.768 485.093 979.619 485.296 979.416C485.499 979.203 485.6 978.915 485.6 978.552C485.6 978.221 485.509 977.955 485.328 977.752C485.147 977.539 484.875 977.379 484.512 977.272C484.16 977.165 483.707 977.112 483.152 977.112H482V975.96H482.928C483.664 975.96 484.251 975.864 484.688 975.672C485.136 975.469 485.36 975.128 485.36 974.648C485.36 974.243 485.189 973.939 484.848 973.736C484.517 973.533 484.037 973.432 483.408 973.432C482.939 973.432 482.523 973.48 482.16 973.576C481.808 973.661 481.419 973.795 480.992 973.976L480.496 972.856C480.955 972.653 481.435 972.504 481.936 972.408C482.437 972.312 482.955 972.264 483.488 972.264ZM492.524 972.28C493.569 972.28 494.342 972.509 494.844 972.968C495.345 973.427 495.596 974.157 495.596 975.16V981H494.572L494.3 979.784H494.236C493.99 980.093 493.734 980.355 493.468 980.568C493.212 980.771 492.913 980.92 492.572 981.016C492.241 981.112 491.836 981.16 491.356 981.16C490.844 981.16 490.38 981.069 489.964 980.888C489.558 980.707 489.238 980.429 489.004 980.056C488.769 979.672 488.652 979.192 488.652 978.616C488.652 977.763 488.988 977.107 489.66 976.648C490.332 976.179 491.366 975.923 492.764 975.88L494.22 975.832V975.32C494.22 974.605 494.065 974.109 493.756 973.832C493.446 973.555 493.009 973.416 492.444 973.416C491.996 973.416 491.569 973.485 491.164 973.624C490.758 973.752 490.38 973.901 490.028 974.072L489.596 973.016C489.969 972.813 490.412 972.643 490.924 972.504C491.436 972.355 491.969 972.28 492.524 972.28ZM492.94 976.856C491.873 976.899 491.132 977.069 490.716 977.368C490.31 977.667 490.108 978.088 490.108 978.632C490.108 979.112 490.252 979.464 490.54 979.688C490.838 979.912 491.217 980.024 491.676 980.024C492.401 980.024 493.004 979.827 493.484 979.432C493.964 979.027 494.204 978.408 494.204 977.576V976.808L492.94 976.856ZM506.908 983.976H505.532V981H498.444V972.424H499.852V979.816H504.284V972.424H505.692V979.832H506.908V983.976ZM510.082 977.656C510.082 977.752 510.076 977.891 510.066 978.072C510.066 978.243 510.06 978.429 510.05 978.632C510.039 978.824 510.028 979.011 510.018 979.192C510.007 979.363 509.996 979.501 509.986 979.608L514.578 972.424H516.306V981H514.994V975.944C514.994 975.773 514.994 975.549 514.994 975.272C515.004 974.995 515.015 974.723 515.026 974.456C515.036 974.179 515.047 973.971 515.058 973.832L510.498 981H508.754V972.424H510.082V977.656ZM520.563 977.656C520.563 977.752 520.558 977.891 520.547 978.072C520.547 978.243 520.542 978.429 520.531 978.632C520.52 978.824 520.51 979.011 520.499 979.192C520.488 979.363 520.478 979.501 520.467 979.608L525.059 972.424H526.787V981H525.475V975.944C525.475 975.773 525.475 975.549 525.475 975.272C525.486 974.995 525.496 974.723 525.507 974.456C525.518 974.179 525.528 973.971 525.539 973.832L520.979 981H519.235V972.424H520.563V977.656Z" fill="white"/>
<rect x="238.5" y="389.5" width="335" height="80" stroke="#AFB1B6"/>
<path d="M355.583 445.656V449.256H329.711V445.656H355.583ZM397.817 445.656V449.256H371.945V445.656H397.817ZM440.052 445.656V449.256H414.18V445.656H440.052ZM482.286 445.656V449.256H456.414V445.656H482.286Z" fill="#61646B"/>
<g clip-path="url(#clip1_232_1721)">
<g clip-path="url(#clip2_232_1721)">
<g clip-path="url(#clip3_232_1721)">
<path d="M280.028 648V636.928H259.42V633.152L278.684 605.76H285.148V632.512H292.636V636.928H285.148V648H280.028ZM264.86 632.512H280.028V616.704C280.028 615.595 280.049 614.464 280.092 613.312C280.177 612.16 280.241 611.029 280.284 609.92H280.156C279.644 610.987 278.983 612.181 278.172 613.504C277.361 614.827 276.615 615.979 275.932 616.96L264.86 632.512Z" fill="#19191B"/>
</g>
</g>
<path d="M220 593.75H341.583V658.25H220C214.891 658.25 210.75 654.109 210.75 649V603C210.75 597.891 214.891 593.75 220 593.75Z" stroke="#19191B" stroke-width="1.5"/>
<g clip-path="url(#clip4_232_1721)">
<g clip-path="url(#clip5_232_1721)">
<path d="M406.743 648.64C402.988 648.64 399.959 647.787 397.655 646.08C395.394 644.373 393.644 642.005 392.407 638.976L397.399 636.352C398.082 638.571 399.127 640.384 400.535 641.792C401.986 643.157 404.098 643.84 406.871 643.84C408.834 643.84 410.498 643.477 411.863 642.752C413.271 642.027 414.359 641.003 415.127 639.68C415.895 638.315 416.279 636.693 416.279 634.816C416.279 632.811 415.916 631.147 415.191 629.824C414.508 628.459 413.506 627.435 412.183 626.752C410.86 626.069 409.239 625.728 407.319 625.728C405.954 625.728 404.674 625.877 403.479 626.176C402.327 626.432 401.282 626.859 400.343 627.456C399.404 628.053 398.594 628.843 397.911 629.824L393.431 628.992L395.927 605.76H419.671V610.56H400.279L398.615 623.872L398.487 624.448H398.615C399.639 623.381 400.94 622.528 402.519 621.888C404.14 621.248 406.06 620.928 408.279 620.928C410.967 620.928 413.292 621.504 415.255 622.656C417.26 623.765 418.818 625.344 419.927 627.392C421.036 629.44 421.591 631.829 421.591 634.56C421.591 636.736 421.228 638.699 420.503 640.448C419.778 642.197 418.754 643.691 417.431 644.928C416.108 646.123 414.53 647.04 412.695 647.68C410.903 648.32 408.919 648.64 406.743 648.64Z" fill="#19191B"/>
</g>
</g>
<rect x="341.583" y="593.75" width="130.833" height="64.5" stroke="#19191B" stroke-width="1.5"/>
<g clip-path="url(#clip6_232_1721)">
<g clip-path="url(#clip7_232_1721)">
<path d="M539.036 605.12C541.298 605.12 543.26 605.44 544.924 606.08C546.631 606.677 548.103 607.637 549.34 608.96C550.578 610.24 551.623 611.925 552.476 614.016L547.74 616.256C547.1 614.293 546.055 612.757 544.604 611.648C543.196 610.496 541.234 609.92 538.716 609.92C536.882 609.92 535.26 610.389 533.852 611.328C532.444 612.224 531.25 613.483 530.268 615.104C529.287 616.725 528.54 618.624 528.028 620.8C527.559 622.976 527.324 625.323 527.324 627.84C527.324 627.925 527.324 628.053 527.324 628.224C527.324 628.395 527.324 628.651 527.324 628.992H527.58C528.05 627.157 528.903 625.685 530.14 624.576C531.42 623.424 532.85 622.592 534.428 622.08C536.05 621.525 537.628 621.248 539.164 621.248C542.023 621.248 544.519 621.803 546.652 622.912C548.786 624.021 550.428 625.6 551.58 627.648C552.775 629.696 553.372 632.128 553.372 634.944C553.372 637.717 552.775 640.149 551.58 642.24C550.386 644.288 548.7 645.867 546.524 646.976C544.391 648.085 541.831 648.64 538.844 648.64C535.303 648.64 532.316 647.701 529.884 645.824C527.452 643.947 525.618 641.387 524.38 638.144C523.143 634.859 522.524 631.104 522.524 626.88C522.524 622.144 523.25 618.176 524.7 614.976C526.151 611.733 528.114 609.28 530.588 607.616C533.106 605.952 535.922 605.12 539.036 605.12ZM538.78 626.176C536.946 626.176 535.324 626.56 533.916 627.328C532.551 628.053 531.484 629.077 530.716 630.4C529.948 631.68 529.564 633.173 529.564 634.88C529.564 636.501 529.97 637.995 530.78 639.36C531.591 640.683 532.679 641.749 534.044 642.56C535.452 643.328 537.031 643.712 538.78 643.712C541.682 643.712 543.943 642.944 545.564 641.408C547.186 639.829 547.996 637.653 547.996 634.88C547.996 633.088 547.634 631.552 546.908 630.272C546.183 628.949 545.138 627.947 543.772 627.264C542.407 626.539 540.743 626.176 538.78 626.176Z" fill="#19191B"/>
</g>
</g>
<path d="M594 593.75C599.108 593.75 603.25 597.891 603.25 603V649C603.25 654.109 599.108 658.25 594 658.25H472.417V593.75H594Z" stroke="#19191B" stroke-width="1.5"/>
</g>
<g clip-path="url(#clip8_232_1721)">
<g clip-path="url(#clip9_232_1721)">
<g clip-path="url(#clip10_232_1721)">
<path d="M276.01 555V524.024C276.01 523.299 276.01 522.531 276.01 521.72C276.053 520.867 276.095 519.992 276.138 519.096C274.687 520.504 273.002 521.741 271.082 522.808C269.162 523.832 267.199 524.579 265.194 525.048L263.85 520.376C264.618 520.291 265.578 520.013 266.73 519.544C267.925 519.032 269.162 518.413 270.442 517.688C271.765 516.92 272.981 516.109 274.09 515.256C275.199 514.403 276.053 513.571 276.65 512.76H281.13V555H276.01Z" fill="#19191B"/>
</g>
</g>
<path d="M219 500.75H340.583V565.25H219C213.891 565.25 209.75 561.109 209.75 556V510C209.75 504.891 213.891 500.75 219 500.75Z" stroke="#19191B" stroke-width="1.5"/>
<g clip-path="url(#clip11_232_1721)">
<g clip-path="url(#clip12_232_1721)">
<path d="M392.08 555V550.84C396.304 547.725 399.824 544.995 402.64 542.648C405.499 540.301 407.781 538.168 409.488 536.248C411.195 534.328 412.411 532.515 413.136 530.808C413.861 529.059 414.224 527.245 414.224 525.368C414.224 522.851 413.413 520.824 411.792 519.288C410.213 517.709 408.037 516.92 405.264 516.92C402.363 516.92 400.037 517.88 398.288 519.8C396.539 521.677 395.515 524.195 395.216 527.352L390.736 524.664C391.12 522.189 391.909 520.013 393.104 518.136C394.341 516.259 395.984 514.787 398.032 513.72C400.123 512.653 402.597 512.12 405.456 512.12C407.632 512.12 409.573 512.44 411.28 513.08C413.029 513.72 414.523 514.637 415.76 515.832C416.997 516.984 417.936 518.371 418.576 519.992C419.259 521.613 419.6 523.405 419.6 525.368C419.6 528.013 418.96 530.616 417.68 533.176C416.4 535.693 414.288 538.339 411.344 541.112C408.4 543.885 404.411 546.957 399.376 550.328V550.392C399.845 550.349 400.485 550.328 401.296 550.328C402.149 550.285 402.981 550.264 403.792 550.264C404.645 550.221 405.285 550.2 405.712 550.2H420.496V555H392.08Z" fill="#19191B"/>
</g>
</g>
<rect x="340.583" y="500.75" width="130.833" height="64.5" stroke="#19191B" stroke-width="1.5"/>
<g clip-path="url(#clip13_232_1721)">
<g clip-path="url(#clip14_232_1721)">
<path d="M536.737 555.64C532.982 555.64 529.654 554.765 526.753 553.016C523.894 551.224 521.953 548.771 520.929 545.656L526.049 543.032C526.561 544.611 527.265 545.997 528.161 547.192C529.057 548.344 530.23 549.24 531.681 549.88C533.174 550.52 535.03 550.84 537.249 550.84C539.126 550.84 540.705 550.499 541.985 549.816C543.265 549.133 544.246 548.216 544.929 547.064C545.612 545.869 545.953 544.504 545.953 542.968C545.953 541.432 545.654 540.152 545.057 539.128C544.502 538.104 543.606 537.357 542.369 536.888C541.132 536.376 539.51 536.12 537.505 536.12C537.036 536.12 536.524 536.141 535.969 536.184C535.414 536.184 534.838 536.227 534.241 536.312V531.192C534.625 531.235 534.988 531.256 535.329 531.256C535.713 531.256 536.054 531.256 536.353 531.256C539.468 531.256 541.686 530.659 543.009 529.464C544.332 528.227 544.993 526.307 544.993 523.704C544.993 521.485 544.31 519.8 542.945 518.648C541.58 517.496 539.638 516.92 537.121 516.92C534.433 516.92 532.385 517.517 530.977 518.712C529.569 519.864 528.46 521.443 527.649 523.448L522.785 521.144C523.468 519.352 524.492 517.773 525.857 516.408C527.222 515.043 528.865 513.976 530.785 513.208C532.748 512.44 534.902 512.056 537.249 512.056C540.193 512.056 542.625 512.568 544.545 513.592C546.465 514.573 547.894 515.896 548.833 517.56C549.814 519.224 550.305 521.059 550.305 523.064C550.305 524.6 550.092 525.987 549.665 527.224C549.238 528.419 548.641 529.464 547.873 530.36C547.148 531.256 546.316 531.981 545.377 532.536C544.438 533.048 543.436 533.389 542.369 533.56V533.688C543.777 533.731 545.014 534.008 546.081 534.52C547.19 535.032 548.129 535.715 548.897 536.568C549.665 537.421 550.241 538.403 550.625 539.512C551.052 540.579 551.265 541.709 551.265 542.904C551.265 545.379 550.646 547.576 549.409 549.496C548.214 551.416 546.529 552.931 544.353 554.04C542.177 555.107 539.638 555.64 536.737 555.64Z" fill="#19191B"/>
</g>
</g>
<path d="M593 500.75C598.108 500.75 602.25 504.891 602.25 510V556C602.25 561.109 598.108 565.25 593 565.25H471.417V500.75H593Z" stroke="#19191B" stroke-width="1.5"/>
</g>
<g clip-path="url(#clip15_232_1721)">
<g clip-path="url(#clip16_232_1721)">
<g clip-path="url(#clip17_232_1721)">
<path d="M260.789 699.76H291.893V704.56C288.352 708.315 285.45 712.176 283.189 716.144C280.97 720.069 279.349 724.165 278.325 728.432C277.301 732.699 276.789 737.221 276.789 742H271.541C271.541 737.264 272.117 732.635 273.269 728.112C274.464 723.547 276.256 719.173 278.645 714.992C281.034 710.811 284 706.907 287.541 703.28L288.373 704.56H260.789V699.76Z" fill="#19191B"/>
</g>
</g>
<path d="M220 687.75H341.583V752.25H220C214.891 752.25 210.75 748.109 210.75 743V697C210.75 691.891 214.891 687.75 220 687.75Z" stroke="#19191B" stroke-width="1.5"/>
<g clip-path="url(#clip18_232_1721)">
<g clip-path="url(#clip19_232_1721)">
<path d="M406.993 699.184C409.724 699.184 412.092 699.632 414.097 700.528C416.103 701.424 417.66 702.704 418.769 704.368C419.879 705.989 420.433 707.952 420.433 710.256C420.433 712.432 419.9 714.352 418.833 716.016C417.809 717.637 416.359 718.875 414.481 719.728V719.792C416.871 720.688 418.769 722.053 420.177 723.888C421.628 725.723 422.353 727.963 422.353 730.608C422.353 733.083 421.713 735.216 420.433 737.008C419.153 738.8 417.361 740.187 415.057 741.168C412.796 742.149 410.108 742.64 406.993 742.64C403.921 742.64 401.233 742.149 398.929 741.168C396.625 740.187 394.833 738.8 393.553 737.008C392.273 735.216 391.633 733.083 391.633 730.608C391.633 728.005 392.337 725.787 393.745 723.952C395.153 722.075 397.095 720.688 399.569 719.792V719.728C397.735 718.917 396.263 717.701 395.153 716.08C394.087 714.416 393.553 712.475 393.553 710.256C393.553 707.952 394.108 705.989 395.217 704.368C396.327 702.704 397.884 701.424 399.889 700.528C401.937 699.632 404.305 699.184 406.993 699.184ZM406.993 703.984C404.519 703.984 402.535 704.581 401.041 705.776C399.591 706.971 398.865 708.635 398.865 710.768C398.865 712.859 399.612 714.501 401.105 715.696C402.599 716.891 404.561 717.488 406.993 717.488C409.425 717.488 411.388 716.891 412.881 715.696C414.375 714.501 415.121 712.859 415.121 710.768C415.121 708.635 414.396 706.971 412.945 705.776C411.495 704.581 409.511 703.984 406.993 703.984ZM406.993 737.84C409.084 737.84 410.876 737.541 412.369 736.944C413.863 736.304 415.015 735.408 415.825 734.256C416.636 733.061 417.041 731.675 417.041 730.096C417.041 728.475 416.615 727.088 415.761 725.936C414.951 724.741 413.799 723.845 412.305 723.248C410.812 722.608 409.041 722.288 406.993 722.288C404.988 722.288 403.217 722.608 401.681 723.248C400.188 723.845 399.015 724.741 398.161 725.936C397.351 727.088 396.945 728.475 396.945 730.096C396.945 731.675 397.351 733.061 398.161 734.256C398.972 735.408 400.124 736.304 401.617 736.944C403.153 737.541 404.945 737.84 406.993 737.84Z" fill="#19191B"/>
</g>
</g>
<rect x="341.583" y="687.75" width="130.833" height="64.5" stroke="#19191B" stroke-width="1.5"/>
<g clip-path="url(#clip20_232_1721)">
<g clip-path="url(#clip21_232_1721)">
<path d="M537.091 699.12C540.633 699.12 543.619 700.059 546.051 701.936C548.483 703.771 550.318 706.331 551.555 709.616C552.793 712.859 553.411 716.613 553.411 720.88C553.411 725.616 552.793 729.605 551.555 732.848C550.318 736.048 548.483 738.48 546.051 740.144C543.662 741.808 540.697 742.64 537.155 742.64C533.657 742.64 530.649 741.829 528.131 740.208C525.614 738.587 523.737 736.219 522.499 733.104L527.555 730.416C528.238 732.635 529.347 734.427 530.883 735.792C532.462 737.157 534.617 737.84 537.347 737.84C539.566 737.84 541.401 737.413 542.851 736.56C544.345 735.664 545.518 734.405 546.371 732.784C547.225 731.12 547.822 729.136 548.163 726.832C548.547 724.528 548.739 721.968 548.739 719.152C548.739 719.067 548.739 718.981 548.739 718.896C548.739 718.768 548.739 718.661 548.739 718.576H548.483C547.971 720.496 547.075 722.053 545.795 723.248C544.515 724.4 543.065 725.232 541.443 725.744C539.865 726.256 538.286 726.512 536.707 726.512C533.934 726.512 531.481 725.979 529.347 724.912C527.214 723.803 525.55 722.267 524.355 720.304C523.161 718.341 522.563 716.016 522.563 713.328C522.563 710.427 523.139 707.931 524.291 705.84C525.443 703.707 527.107 702.064 529.283 700.912C531.459 699.717 534.062 699.12 537.091 699.12ZM537.155 704.048C534.169 704.048 531.886 704.88 530.307 706.544C528.729 708.165 527.939 710.448 527.939 713.392C527.939 715.909 528.771 717.915 530.435 719.408C532.099 720.859 534.339 721.584 537.155 721.584C538.99 721.584 540.59 721.221 541.955 720.496C543.363 719.728 544.451 718.704 545.219 717.424C545.987 716.101 546.371 714.587 546.371 712.88C546.371 711.088 545.987 709.531 545.219 708.208C544.451 706.885 543.363 705.861 541.955 705.136C540.59 704.411 538.99 704.048 537.155 704.048Z" fill="#19191B"/>
</g>
</g>
<path d="M594 687.75C599.108 687.75 603.25 691.891 603.25 697V743C603.25 748.109 599.108 752.25 594 752.25H472.417V687.75H594Z" stroke="#19191B" stroke-width="1.5"/>
</g>
<g clip-path="url(#clip22_232_1721)">
<rect x="340" y="780" width="132" height="67" rx="8" fill="white"/>
<path d="M405.904 836.14C401.125 836.14 397.307 834.284 394.448 830.572C391.589 826.86 390.16 821.463 390.16 814.38C390.16 807.297 391.589 801.9 394.448 798.188C397.307 794.476 401.125 792.62 405.904 792.62C410.725 792.62 414.544 794.476 417.36 798.188C420.219 801.9 421.648 807.297 421.648 814.38C421.648 821.463 420.219 826.86 417.36 830.572C414.544 834.284 410.725 836.14 405.904 836.14ZM405.904 831.532C408.165 831.532 410.064 830.892 411.6 829.612C413.179 828.289 414.352 826.348 415.12 823.788C415.931 821.228 416.336 818.092 416.336 814.38C416.336 810.668 415.931 807.532 415.12 804.972C414.352 802.412 413.179 800.492 411.6 799.212C410.064 797.889 408.165 797.228 405.904 797.228C403.643 797.228 401.723 797.889 400.144 799.212C398.608 800.492 397.435 802.412 396.624 804.972C395.856 807.532 395.472 810.668 395.472 814.38C395.472 818.092 395.856 821.228 396.624 823.788C397.435 826.348 398.608 828.289 400.144 829.612C401.723 830.892 403.643 831.532 405.904 831.532Z" fill="black"/>
</g>
<rect x="340.5" y="780.5" width="131" height="66" rx="7.5" stroke="black"/>
<rect x="309" y="868" width="193" height="68" rx="16" fill="#3A00E5"/>
<path d="M374.928 892.008C376.589 892.008 377.98 892.167 379.1 892.484C380.239 892.801 381.088 893.324 381.648 894.052C382.227 894.78 382.516 895.751 382.516 896.964C382.516 897.748 382.367 898.448 382.068 899.064C381.788 899.661 381.359 900.165 380.78 900.576C380.22 900.968 379.529 901.239 378.708 901.388V901.528C379.548 901.659 380.304 901.901 380.976 902.256C381.667 902.611 382.208 903.115 382.6 903.768C382.992 904.421 383.188 905.271 383.188 906.316C383.188 907.529 382.908 908.565 382.348 909.424C381.788 910.264 380.985 910.908 379.94 911.356C378.913 911.785 377.681 912 376.244 912H369.216V892.008H374.928ZM375.432 900.52C377.149 900.52 378.325 900.249 378.96 899.708C379.595 899.148 379.912 898.327 379.912 897.244C379.912 896.143 379.52 895.359 378.736 894.892C377.971 894.407 376.739 894.164 375.04 894.164H371.736V900.52H375.432ZM371.736 902.62V909.872H375.768C377.541 909.872 378.773 909.527 379.464 908.836C380.155 908.145 380.5 907.24 380.5 906.12C380.5 905.411 380.341 904.795 380.024 904.272C379.725 903.749 379.212 903.348 378.484 903.068C377.775 902.769 376.804 902.62 375.572 902.62H371.736ZM393.139 892.008C394.8 892.008 396.191 892.167 397.311 892.484C398.45 892.801 399.299 893.324 399.859 894.052C400.438 894.78 400.727 895.751 400.727 896.964C400.727 897.748 400.578 898.448 400.279 899.064C399.999 899.661 399.57 900.165 398.991 900.576C398.431 900.968 397.74 901.239 396.919 901.388V901.528C397.759 901.659 398.515 901.901 399.187 902.256C399.878 902.611 400.419 903.115 400.811 903.768C401.203 904.421 401.399 905.271 401.399 906.316C401.399 907.529 401.119 908.565 400.559 909.424C399.999 910.264 399.196 910.908 398.151 911.356C397.124 911.785 395.892 912 394.455 912H387.427V892.008H393.139ZM393.643 900.52C395.36 900.52 396.536 900.249 397.171 899.708C397.806 899.148 398.123 898.327 398.123 897.244C398.123 896.143 397.731 895.359 396.947 894.892C396.182 894.407 394.95 894.164 393.251 894.164H389.947V900.52H393.643ZM389.947 902.62V909.872H393.979C395.752 909.872 396.984 909.527 397.675 908.836C398.366 908.145 398.711 907.24 398.711 906.12C398.711 905.411 398.552 904.795 398.235 904.272C397.936 903.749 397.423 903.348 396.695 903.068C395.986 902.769 395.015 902.62 393.783 902.62H389.947ZM423.082 901.976C423.082 903.525 422.886 904.935 422.494 906.204C422.102 907.455 421.514 908.537 420.73 909.452C419.965 910.367 419.003 911.067 417.846 911.552C416.707 912.037 415.382 912.28 413.87 912.28C412.302 912.28 410.939 912.037 409.782 911.552C408.625 911.048 407.663 910.348 406.898 909.452C406.133 908.537 405.563 907.445 405.19 906.176C404.817 904.907 404.63 903.497 404.63 901.948C404.63 899.895 404.966 898.103 405.638 896.572C406.31 895.041 407.327 893.847 408.69 892.988C410.071 892.129 411.807 891.7 413.898 891.7C415.895 891.7 417.575 892.129 418.938 892.988C420.301 893.828 421.327 895.023 422.018 896.572C422.727 898.103 423.082 899.904 423.082 901.976ZM407.29 901.976C407.29 903.656 407.523 905.103 407.99 906.316C408.457 907.529 409.175 908.463 410.146 909.116C411.135 909.769 412.377 910.096 413.87 910.096C415.382 910.096 416.614 909.769 417.566 909.116C418.537 908.463 419.255 907.529 419.722 906.316C420.189 905.103 420.422 903.656 420.422 901.976C420.422 899.456 419.899 897.487 418.854 896.068C417.809 894.631 416.157 893.912 413.898 893.912C412.386 893.912 411.135 894.239 410.146 894.892C409.175 895.527 408.457 896.451 407.99 897.664C407.523 898.859 407.29 900.296 407.29 901.976ZM440.434 892.008V909.76H442.982V917.264H440.574V912H426.826V917.264H424.418V909.76H425.958C426.63 908.603 427.265 907.305 427.862 905.868C428.478 904.431 429.019 902.928 429.486 901.36C429.953 899.773 430.335 898.187 430.634 896.6C430.933 895.013 431.119 893.483 431.194 892.008H440.434ZM433.406 894.276C433.331 895.359 433.145 896.581 432.846 897.944C432.566 899.307 432.202 900.707 431.754 902.144C431.325 903.563 430.839 904.935 430.298 906.26C429.775 907.585 429.215 908.752 428.618 909.76H437.942V894.276H433.406Z" fill="white"/>
<defs>
<clipPath id="clip0_232_1721">
<rect width="371" height="56" fill="white" transform="translate(221 303)"/>
</clipPath>
<clipPath id="clip1_232_1721">
<rect width="394" height="66" fill="white" transform="translate(210 593)"/>
</clipPath>
<clipPath id="clip2_232_1721">
<path d="M210 603C210 597.477 214.477 593 220 593H342.333V659H220C214.477 659 210 654.523 210 649V603Z" fill="white"/>
</clipPath>
<clipPath id="clip3_232_1721">
<rect width="92.3333" height="72" fill="white" transform="translate(230 590)"/>
</clipPath>
<clipPath id="clip4_232_1721">
<rect x="340.833" y="593" width="132.333" height="66" fill="white"/>
</clipPath>
<clipPath id="clip5_232_1721">
<rect width="92.3333" height="72" fill="white" transform="translate(360.833 590)"/>
</clipPath>
<clipPath id="clip6_232_1721">
<path d="M471.667 593H594C599.523 593 604 597.477 604 603V649C604 654.523 599.523 659 594 659H471.667V593Z" fill="white"/>
</clipPath>
<clipPath id="clip7_232_1721">
<rect width="92.3333" height="72" fill="white" transform="translate(491.667 590)"/>
</clipPath>
<clipPath id="clip8_232_1721">
<rect width="394" height="66" fill="white" transform="translate(209 500)"/>
</clipPath>
<clipPath id="clip9_232_1721">
<path d="M209 510C209 504.477 213.477 500 219 500H341.333V566H219C213.477 566 209 561.523 209 556V510Z" fill="white"/>
</clipPath>
<clipPath id="clip10_232_1721">
<rect width="92.3333" height="72" fill="white" transform="translate(229 497)"/>
</clipPath>
<clipPath id="clip11_232_1721">
<rect x="339.833" y="500" width="132.333" height="66" fill="white"/>
</clipPath>
<clipPath id="clip12_232_1721">
<rect width="92.3333" height="72" fill="white" transform="translate(359.833 497)"/>
</clipPath>
<clipPath id="clip13_232_1721">
<path d="M470.667 500H593C598.523 500 603 504.477 603 510V556C603 561.523 598.523 566 593 566H470.667V500Z" fill="white"/>
</clipPath>
<clipPath id="clip14_232_1721">
<rect width="92.3333" height="72" fill="white" transform="translate(490.667 497)"/>
</clipPath>
<clipPath id="clip15_232_1721">
<rect width="394" height="66" fill="white" transform="translate(210 687)"/>
</clipPath>
<clipPath id="clip16_232_1721">
<path d="M210 697C210 691.477 214.477 687 220 687H342.333V753H220C214.477 753 210 748.523 210 743V697Z" fill="white"/>
</clipPath>
<clipPath id="clip17_232_1721">
<rect width="92.3333" height="72" fill="white" transform="translate(230 684)"/>
</clipPath>
<clipPath id="clip18_232_1721">
<rect x="340.833" y="687" width="132.333" height="66" fill="white"/>
</clipPath>
<clipPath id="clip19_232_1721">
<rect width="92.3333" height="72" fill="white" transform="translate(360.833 684)"/>
</clipPath>
<clipPath id="clip20_232_1721">
<path d="M471.667 687H594C599.523 687 604 691.477 604 697V743C604 748.523 599.523 753 594 753H471.667V687Z" fill="white"/>
</clipPath>
<clipPath id="clip21_232_1721">
<rect width="92.3333" height="72" fill="white" transform="translate(491.667 684)"/>
</clipPath>
<clipPath id="clip22_232_1721">
<rect x="340" y="780" width="132" height="67" rx="8" fill="white"/>
</clipPath>
</defs>
</svg>
