<svg width="834" height="1194" viewBox="0 0 834 1194" fill="none" xmlns="http://www.w3.org/2000/svg">
<rect x="0.5" y="0.5" width="833" height="1193" fill="white"/>
<rect x="0.5" y="0.5" width="833" height="1193" stroke="black"/>
<g clip-path="url(#clip0_232_1679)">
<path d="M243.787 309.292C245.092 309.292 246.185 309.417 247.065 309.666C247.959 309.915 248.627 310.326 249.067 310.898C249.521 311.47 249.749 312.233 249.749 313.186C249.749 313.802 249.631 314.352 249.397 314.836C249.177 315.305 248.839 315.701 248.385 316.024C247.945 316.332 247.402 316.545 246.757 316.662V316.772C247.417 316.875 248.011 317.065 248.539 317.344C249.081 317.623 249.507 318.019 249.815 318.532C250.123 319.045 250.277 319.713 250.277 320.534C250.277 321.487 250.057 322.301 249.617 322.976C249.177 323.636 248.546 324.142 247.725 324.494C246.918 324.831 245.95 325 244.821 325H239.299V309.292H243.787ZM244.183 315.98C245.532 315.98 246.456 315.767 246.955 315.342C247.453 314.902 247.703 314.257 247.703 313.406C247.703 312.541 247.395 311.925 246.779 311.558C246.177 311.177 245.209 310.986 243.875 310.986H241.279V315.98H244.183ZM241.279 317.63V323.328H244.447C245.84 323.328 246.808 323.057 247.351 322.514C247.893 321.971 248.165 321.26 248.165 320.38C248.165 319.823 248.04 319.339 247.791 318.928C247.556 318.517 247.153 318.202 246.581 317.982C246.023 317.747 245.261 317.63 244.293 317.63H241.279ZM262.913 316.178C262.913 316.911 262.693 317.483 262.253 317.894C261.813 318.305 261.248 318.583 260.559 318.73V318.818C261.292 318.921 261.93 319.185 262.473 319.61C263.016 320.021 263.287 320.666 263.287 321.546C263.287 322.045 263.192 322.507 263.001 322.932C262.825 323.357 262.546 323.724 262.165 324.032C261.784 324.34 261.292 324.582 260.691 324.758C260.09 324.919 259.364 325 258.513 325H253.431V313.208H258.491C259.327 313.208 260.075 313.303 260.735 313.494C261.41 313.67 261.938 313.978 262.319 314.418C262.715 314.843 262.913 315.43 262.913 316.178ZM261.285 321.546C261.285 320.871 261.028 320.387 260.515 320.094C260.002 319.801 259.246 319.654 258.249 319.654H255.367V323.438H258.293C259.261 323.438 260.002 323.299 260.515 323.02C261.028 322.727 261.285 322.235 261.285 321.546ZM260.955 316.42C260.955 315.863 260.75 315.459 260.339 315.21C259.943 314.946 259.29 314.814 258.381 314.814H255.367V318.048H258.029C258.982 318.048 259.708 317.916 260.207 317.652C260.706 317.388 260.955 316.977 260.955 316.42ZM270.749 312.988C271.761 312.988 272.626 313.208 273.345 313.648C274.078 314.088 274.636 314.711 275.017 315.518C275.413 316.31 275.611 317.241 275.611 318.312V319.478H267.537C267.566 320.813 267.904 321.832 268.549 322.536C269.209 323.225 270.126 323.57 271.299 323.57C272.047 323.57 272.707 323.504 273.279 323.372C273.866 323.225 274.467 323.02 275.083 322.756V324.45C274.482 324.714 273.888 324.905 273.301 325.022C272.714 325.154 272.018 325.22 271.211 325.22C270.096 325.22 269.106 324.993 268.241 324.538C267.39 324.083 266.723 323.409 266.239 322.514C265.77 321.605 265.535 320.497 265.535 319.192C265.535 317.901 265.748 316.794 266.173 315.87C266.613 314.946 267.222 314.235 267.999 313.736C268.791 313.237 269.708 312.988 270.749 312.988ZM270.727 314.572C269.803 314.572 269.07 314.873 268.527 315.474C267.999 316.061 267.684 316.882 267.581 317.938H273.587C273.587 317.263 273.484 316.677 273.279 316.178C273.074 315.679 272.758 315.291 272.333 315.012C271.922 314.719 271.387 314.572 270.727 314.572ZM287.457 313.208V323.372H289.173V329.092H287.303V325H279.097V329.092H277.249V323.372H278.195C278.87 322.433 279.427 321.414 279.867 320.314C280.322 319.199 280.659 318.041 280.879 316.838C281.114 315.621 281.238 314.411 281.253 313.208H287.457ZM282.969 314.726C282.91 315.723 282.756 316.757 282.507 317.828C282.258 318.884 281.935 319.896 281.539 320.864C281.158 321.832 280.71 322.668 280.197 323.372H285.587V314.726H282.969ZM293.398 320.402C293.398 320.534 293.391 320.725 293.376 320.974C293.376 321.209 293.369 321.465 293.354 321.744C293.339 322.008 293.325 322.265 293.31 322.514C293.295 322.749 293.281 322.939 293.266 323.086L299.58 313.208H301.956V325H300.152V318.048C300.152 317.813 300.152 317.505 300.152 317.124C300.167 316.743 300.181 316.369 300.196 316.002C300.211 315.621 300.225 315.335 300.24 315.144L293.97 325H291.572V313.208H293.398V320.402ZM313.937 314.836H310.087V325H308.173V314.836H304.367V313.208H313.937V314.836ZM320.687 312.988C321.699 312.988 322.564 313.208 323.283 313.648C324.016 314.088 324.574 314.711 324.955 315.518C325.351 316.31 325.549 317.241 325.549 318.312V319.478H317.475C317.504 320.813 317.842 321.832 318.487 322.536C319.147 323.225 320.064 323.57 321.237 323.57C321.985 323.57 322.645 323.504 323.217 323.372C323.804 323.225 324.405 323.02 325.021 322.756V324.45C324.42 324.714 323.826 324.905 323.239 325.022C322.652 325.154 321.956 325.22 321.149 325.22C320.034 325.22 319.044 324.993 318.179 324.538C317.328 324.083 316.661 323.409 316.177 322.514C315.708 321.605 315.473 320.497 315.473 319.192C315.473 317.901 315.686 316.794 316.111 315.87C316.551 314.946 317.16 314.235 317.937 313.736C318.729 313.237 319.646 312.988 320.687 312.988ZM320.665 314.572C319.741 314.572 319.008 314.873 318.465 315.474C317.937 316.061 317.622 316.882 317.519 317.938H323.525C323.525 317.263 323.422 316.677 323.217 316.178C323.012 315.679 322.696 315.291 322.271 315.012C321.86 314.719 321.325 314.572 320.665 314.572ZM338.161 313.208V318.114H344.563V313.208H346.499V325H344.563V319.742H338.161V325H336.225V313.208H338.161ZM360.573 319.082C360.573 320.065 360.441 320.937 360.177 321.7C359.927 322.448 359.561 323.086 359.077 323.614C358.607 324.142 358.028 324.545 357.339 324.824C356.664 325.088 355.909 325.22 355.073 325.22C354.295 325.22 353.577 325.088 352.917 324.824C352.257 324.545 351.685 324.142 351.201 323.614C350.717 323.086 350.335 322.448 350.057 321.7C349.793 320.937 349.661 320.065 349.661 319.082C349.661 317.777 349.881 316.677 350.321 315.782C350.761 314.873 351.391 314.183 352.213 313.714C353.034 313.23 354.009 312.988 355.139 312.988C356.209 312.988 357.148 313.23 357.955 313.714C358.776 314.183 359.414 314.873 359.869 315.782C360.338 316.677 360.573 317.777 360.573 319.082ZM351.663 319.082C351.663 320.006 351.78 320.813 352.015 321.502C352.264 322.177 352.645 322.697 353.159 323.064C353.672 323.431 354.325 323.614 355.117 323.614C355.909 323.614 356.561 323.431 357.075 323.064C357.588 322.697 357.962 322.177 358.197 321.502C358.446 320.813 358.571 320.006 358.571 319.082C358.571 318.143 358.446 317.344 358.197 316.684C357.947 316.024 357.566 315.518 357.053 315.166C356.554 314.799 355.901 314.616 355.095 314.616C353.892 314.616 353.019 315.012 352.477 315.804C351.934 316.596 351.663 317.689 351.663 319.082ZM376.379 313.208V325H374.641V317.476C374.641 317.168 374.648 316.845 374.663 316.508C374.692 316.171 374.722 315.841 374.751 315.518H374.685L370.835 325H369.207L365.467 315.518H365.401C365.43 315.841 365.445 316.171 365.445 316.508C365.46 316.845 365.467 317.19 365.467 317.542V325H363.729V313.208H366.303L370.021 322.69L373.805 313.208H376.379ZM384.785 312.988C385.797 312.988 386.662 313.208 387.381 313.648C388.114 314.088 388.672 314.711 389.053 315.518C389.449 316.31 389.647 317.241 389.647 318.312V319.478H381.573C381.602 320.813 381.94 321.832 382.585 322.536C383.245 323.225 384.162 323.57 385.335 323.57C386.083 323.57 386.743 323.504 387.315 323.372C387.902 323.225 388.503 323.02 389.119 322.756V324.45C388.518 324.714 387.924 324.905 387.337 325.022C386.75 325.154 386.054 325.22 385.247 325.22C384.132 325.22 383.142 324.993 382.277 324.538C381.426 324.083 380.759 323.409 380.275 322.514C379.806 321.605 379.571 320.497 379.571 319.192C379.571 317.901 379.784 316.794 380.209 315.87C380.649 314.946 381.258 314.235 382.035 313.736C382.827 313.237 383.744 312.988 384.785 312.988ZM384.763 314.572C383.839 314.572 383.106 314.873 382.563 315.474C382.035 316.061 381.72 316.882 381.617 317.938H387.623C387.623 317.263 387.52 316.677 387.315 316.178C387.11 315.679 386.794 315.291 386.369 315.012C385.958 314.719 385.423 314.572 384.763 314.572ZM398.347 312.988C399.799 312.988 400.965 313.494 401.845 314.506C402.74 315.518 403.187 317.043 403.187 319.082C403.187 320.417 402.982 321.546 402.571 322.47C402.175 323.379 401.61 324.069 400.877 324.538C400.158 324.993 399.308 325.22 398.325 325.22C397.724 325.22 397.188 325.139 396.719 324.978C396.25 324.817 395.846 324.611 395.509 324.362C395.186 324.098 394.908 323.812 394.673 323.504H394.541C394.57 323.753 394.6 324.069 394.629 324.45C394.658 324.831 394.673 325.161 394.673 325.44V330.28H392.737V313.208H394.321L394.585 314.814H394.673C394.908 314.477 395.186 314.169 395.509 313.89C395.846 313.611 396.242 313.391 396.697 313.23C397.166 313.069 397.716 312.988 398.347 312.988ZM397.995 314.616C397.203 314.616 396.565 314.77 396.081 315.078C395.597 315.371 395.245 315.819 395.025 316.42C394.805 317.021 394.688 317.784 394.673 318.708V319.082C394.673 320.05 394.776 320.871 394.981 321.546C395.186 322.221 395.531 322.734 396.015 323.086C396.514 323.438 397.188 323.614 398.039 323.614C398.758 323.614 399.344 323.416 399.799 323.02C400.268 322.624 400.613 322.089 400.833 321.414C401.068 320.725 401.185 319.94 401.185 319.06C401.185 317.711 400.921 316.633 400.393 315.826C399.88 315.019 399.08 314.616 397.995 314.616ZM422.702 313.208V323.372H424.418V329.092H422.548V325H414.342V329.092H412.494V323.372H413.44C414.115 322.433 414.672 321.414 415.112 320.314C415.567 319.199 415.904 318.041 416.124 316.838C416.359 315.621 416.484 314.411 416.498 313.208H422.702ZM418.214 314.726C418.156 315.723 418.002 316.757 417.752 317.828C417.503 318.884 417.18 319.896 416.784 320.864C416.403 321.832 415.956 322.668 415.442 323.372H420.832V314.726H418.214ZM435.793 325H433.835V314.814H430.359C430.213 316.677 430.029 318.268 429.809 319.588C429.589 320.893 429.311 321.957 428.973 322.778C428.636 323.599 428.233 324.201 427.763 324.582C427.294 324.963 426.744 325.154 426.113 325.154C425.923 325.154 425.732 325.139 425.541 325.11C425.365 325.095 425.219 325.059 425.101 325V323.548C425.189 323.577 425.285 323.599 425.387 323.614C425.49 323.629 425.593 323.636 425.695 323.636C426.018 323.636 426.311 323.504 426.575 323.24C426.839 322.976 427.074 322.573 427.279 322.03C427.499 321.487 427.697 320.805 427.873 319.984C428.049 319.148 428.203 318.165 428.335 317.036C428.467 315.907 428.585 314.631 428.687 313.208H435.793V325ZM440.35 325H438.106L441.472 320.05C441.018 319.933 440.578 319.749 440.152 319.5C439.727 319.236 439.382 318.877 439.118 318.422C438.854 317.953 438.722 317.373 438.722 316.684C438.722 315.555 439.104 314.697 439.866 314.11C440.629 313.509 441.641 313.208 442.902 313.208H448.182V325H446.246V320.314H443.386L440.35 325ZM440.592 316.706C440.592 317.381 440.842 317.887 441.34 318.224C441.854 318.547 442.565 318.708 443.474 318.708H446.246V314.814H443.1C442.206 314.814 441.56 314.99 441.164 315.342C440.783 315.694 440.592 316.149 440.592 316.706ZM469.553 313.208V325H467.617V314.858H461.523V325H459.587V313.208H469.553ZM483.656 319.082C483.656 320.065 483.524 320.937 483.26 321.7C483.01 322.448 482.644 323.086 482.16 323.614C481.69 324.142 481.111 324.545 480.422 324.824C479.747 325.088 478.992 325.22 478.156 325.22C477.378 325.22 476.66 325.088 476 324.824C475.34 324.545 474.768 324.142 474.284 323.614C473.8 323.086 473.418 322.448 473.14 321.7C472.876 320.937 472.744 320.065 472.744 319.082C472.744 317.777 472.964 316.677 473.404 315.782C473.844 314.873 474.474 314.183 475.296 313.714C476.117 313.23 477.092 312.988 478.222 312.988C479.292 312.988 480.231 313.23 481.038 313.714C481.859 314.183 482.497 314.873 482.952 315.782C483.421 316.677 483.656 317.777 483.656 319.082ZM474.746 319.082C474.746 320.006 474.863 320.813 475.098 321.502C475.347 322.177 475.728 322.697 476.242 323.064C476.755 323.431 477.408 323.614 478.2 323.614C478.992 323.614 479.644 323.431 480.158 323.064C480.671 322.697 481.045 322.177 481.28 321.502C481.529 320.813 481.654 320.006 481.654 319.082C481.654 318.143 481.529 317.344 481.28 316.684C481.03 316.024 480.649 315.518 480.136 315.166C479.637 314.799 478.984 314.616 478.178 314.616C476.975 314.616 476.102 315.012 475.56 315.804C475.017 316.596 474.746 317.689 474.746 319.082ZM495.788 325H493.83V314.814H490.354C490.207 316.677 490.024 318.268 489.804 319.588C489.584 320.893 489.305 321.957 488.968 322.778C488.631 323.599 488.227 324.201 487.758 324.582C487.289 324.963 486.739 325.154 486.108 325.154C485.917 325.154 485.727 325.139 485.536 325.11C485.36 325.095 485.213 325.059 485.096 325V323.548C485.184 323.577 485.279 323.599 485.382 323.614C485.485 323.629 485.587 323.636 485.69 323.636C486.013 323.636 486.306 323.504 486.57 323.24C486.834 322.976 487.069 322.573 487.274 322.03C487.494 321.487 487.692 320.805 487.868 319.984C488.044 319.148 488.198 318.165 488.33 317.036C488.462 315.907 488.579 314.631 488.682 313.208H495.788V325ZM497.771 313.208H499.839L502.391 319.918C502.538 320.314 502.67 320.695 502.787 321.062C502.919 321.429 503.036 321.788 503.139 322.14C503.242 322.477 503.322 322.807 503.381 323.13H503.469C503.557 322.763 503.696 322.287 503.887 321.7C504.078 321.099 504.276 320.497 504.481 319.896L506.879 313.208H508.969L503.887 326.628C503.608 327.361 503.278 327.999 502.897 328.542C502.53 329.099 502.076 329.525 501.533 329.818C501.005 330.126 500.36 330.28 499.597 330.28C499.245 330.28 498.937 330.258 498.673 330.214C498.409 330.185 498.182 330.148 497.991 330.104V328.564C498.152 328.593 498.343 328.623 498.563 328.652C498.798 328.681 499.04 328.696 499.289 328.696C499.744 328.696 500.132 328.608 500.455 328.432C500.792 328.271 501.078 328.029 501.313 327.706C501.548 327.398 501.746 327.031 501.907 326.606L502.523 325.044L497.771 313.208ZM512.616 317.498C512.616 318.187 512.806 318.701 513.188 319.038C513.584 319.361 514.148 319.522 514.882 319.522C515.615 319.522 516.282 319.412 516.884 319.192C517.485 318.957 518.101 318.649 518.732 318.268V313.208H520.668V325H518.732V319.742C518.072 320.167 517.419 320.505 516.774 320.754C516.143 320.989 515.38 321.106 514.486 321.106C513.283 321.106 512.344 320.791 511.67 320.16C511.01 319.529 510.68 318.686 510.68 317.63V313.208H512.616V317.498ZM529.056 312.988C530.068 312.988 530.933 313.208 531.652 313.648C532.385 314.088 532.943 314.711 533.324 315.518C533.72 316.31 533.918 317.241 533.918 318.312V319.478H525.844C525.873 320.813 526.211 321.832 526.856 322.536C527.516 323.225 528.433 323.57 529.606 323.57C530.354 323.57 531.014 323.504 531.586 323.372C532.173 323.225 532.774 323.02 533.39 322.756V324.45C532.789 324.714 532.195 324.905 531.608 325.022C531.021 325.154 530.325 325.22 529.518 325.22C528.403 325.22 527.413 324.993 526.548 324.538C525.697 324.083 525.03 323.409 524.546 322.514C524.077 321.605 523.842 320.497 523.842 319.192C523.842 317.901 524.055 316.794 524.48 315.87C524.92 314.946 525.529 314.235 526.306 313.736C527.098 313.237 528.015 312.988 529.056 312.988ZM529.034 314.572C528.11 314.572 527.377 314.873 526.834 315.474C526.306 316.061 525.991 316.882 525.888 317.938H531.894C531.894 317.263 531.791 316.677 531.586 316.178C531.381 315.679 531.065 315.291 530.64 315.012C530.229 314.719 529.694 314.572 529.034 314.572ZM538.944 313.208V318.114H545.346V313.208H547.282V325H545.346V319.742H538.944V325H537.008V313.208H538.944ZM552.93 320.402C552.93 320.534 552.922 320.725 552.908 320.974C552.908 321.209 552.9 321.465 552.886 321.744C552.871 322.008 552.856 322.265 552.842 322.514C552.827 322.749 552.812 322.939 552.798 323.086L559.112 313.208H561.488V325H559.684V318.048C559.684 317.813 559.684 317.505 559.684 317.124C559.698 316.743 559.713 316.369 559.728 316.002C559.742 315.621 559.757 315.335 559.772 315.144L553.502 325H551.104V313.208H552.93V320.402ZM566.054 325H563.81L567.176 320.05C566.722 319.933 566.282 319.749 565.856 319.5C565.431 319.236 565.086 318.877 564.822 318.422C564.558 317.953 564.426 317.373 564.426 316.684C564.426 315.555 564.808 314.697 565.57 314.11C566.333 313.509 567.345 313.208 568.606 313.208H573.886V325H571.95V320.314H569.09L566.054 325ZM566.296 316.706C566.296 317.381 566.546 317.887 567.044 318.224C567.558 318.547 568.269 318.708 569.178 318.708H571.95V314.814H568.804C567.91 314.814 567.264 314.99 566.868 315.342C566.487 315.694 566.296 316.149 566.296 316.706ZM292.056 348.402C292.056 348.534 292.049 348.725 292.034 348.974C292.034 349.209 292.027 349.465 292.012 349.744C291.998 350.008 291.983 350.265 291.968 350.514C291.954 350.749 291.939 350.939 291.924 351.086L298.238 341.208H300.614V353H298.81V346.048C298.81 345.813 298.81 345.505 298.81 345.124C298.825 344.743 298.84 344.369 298.854 344.002C298.869 343.621 298.884 343.335 298.898 343.144L292.628 353H290.23V341.208H292.056V348.402ZM313.431 353H311.473V342.814H307.997C307.85 344.677 307.667 346.268 307.447 347.588C307.227 348.893 306.948 349.957 306.611 350.778C306.274 351.599 305.87 352.201 305.401 352.582C304.932 352.963 304.382 353.154 303.751 353.154C303.56 353.154 303.37 353.139 303.179 353.11C303.003 353.095 302.856 353.059 302.739 353V351.548C302.827 351.577 302.922 351.599 303.025 351.614C303.128 351.629 303.23 351.636 303.333 351.636C303.656 351.636 303.949 351.504 304.213 351.24C304.477 350.976 304.712 350.573 304.917 350.03C305.137 349.487 305.335 348.805 305.511 347.984C305.687 347.148 305.841 346.165 305.973 345.036C306.105 343.907 306.222 342.631 306.325 341.208H313.431V353ZM319.088 348.402C319.088 348.534 319.08 348.725 319.066 348.974C319.066 349.209 319.058 349.465 319.044 349.744C319.029 350.008 319.014 350.265 319 350.514C318.985 350.749 318.97 350.939 318.956 351.086L325.27 341.208H327.646V353H325.842V346.048C325.842 345.813 325.842 345.505 325.842 345.124C325.856 344.743 325.871 344.369 325.886 344.002C325.9 343.621 325.915 343.335 325.93 343.144L319.66 353H317.262V341.208H319.088V348.402ZM343.803 353.22C342.761 353.22 341.83 353.007 341.009 352.582C340.202 352.157 339.564 351.497 339.095 350.602C338.64 349.707 338.413 348.563 338.413 347.17C338.413 345.718 338.655 344.537 339.139 343.628C339.623 342.719 340.275 342.051 341.097 341.626C341.933 341.201 342.879 340.988 343.935 340.988C344.536 340.988 345.115 341.054 345.673 341.186C346.23 341.303 346.685 341.45 347.037 341.626L346.443 343.232C346.091 343.1 345.68 342.975 345.211 342.858C344.741 342.741 344.301 342.682 343.891 342.682C343.099 342.682 342.446 342.851 341.933 343.188C341.419 343.525 341.038 344.024 340.789 344.684C340.539 345.344 340.415 346.165 340.415 347.148C340.415 348.087 340.539 348.886 340.789 349.546C341.038 350.206 341.412 350.705 341.911 351.042C342.409 351.379 343.033 351.548 343.781 351.548C344.426 351.548 344.991 351.482 345.475 351.35C345.973 351.218 346.428 351.057 346.839 350.866V352.582C346.443 352.787 346.003 352.941 345.519 353.044C345.049 353.161 344.477 353.22 343.803 353.22ZM359.697 341.208V353H357.761V342.858H351.667V353H349.731V341.208H359.697ZM365.373 348.402C365.373 348.534 365.366 348.725 365.351 348.974C365.351 349.209 365.344 349.465 365.329 349.744C365.315 350.008 365.3 350.265 365.285 350.514C365.271 350.749 365.256 350.939 365.241 351.086L371.555 341.208H373.931V353H372.127V346.048C372.127 345.813 372.127 345.505 372.127 345.124C372.142 344.743 372.157 344.369 372.171 344.002C372.186 343.621 372.201 343.335 372.215 343.144L365.945 353H363.547V341.208H365.373V348.402ZM382.502 353.22C381.461 353.22 380.529 353.007 379.708 352.582C378.901 352.157 378.263 351.497 377.794 350.602C377.339 349.707 377.112 348.563 377.112 347.17C377.112 345.718 377.354 344.537 377.838 343.628C378.322 342.719 378.975 342.051 379.796 341.626C380.632 341.201 381.578 340.988 382.634 340.988C383.235 340.988 383.815 341.054 384.372 341.186C384.929 341.303 385.384 341.45 385.736 341.626L385.142 343.232C384.79 343.1 384.379 342.975 383.91 342.858C383.441 342.741 383.001 342.682 382.59 342.682C381.798 342.682 381.145 342.851 380.632 343.188C380.119 343.525 379.737 344.024 379.488 344.684C379.239 345.344 379.114 346.165 379.114 347.148C379.114 348.087 379.239 348.886 379.488 349.546C379.737 350.206 380.111 350.705 380.61 351.042C381.109 351.379 381.732 351.548 382.48 351.548C383.125 351.548 383.69 351.482 384.174 351.35C384.673 351.218 385.127 351.057 385.538 350.866V352.582C385.142 352.787 384.702 352.941 384.218 353.044C383.749 353.161 383.177 353.22 382.502 353.22ZM392.896 341.01C394.334 341.01 395.397 341.325 396.086 341.956C396.776 342.587 397.12 343.591 397.12 344.97V353H395.712L395.338 351.328H395.25C394.913 351.753 394.561 352.113 394.194 352.406C393.842 352.685 393.432 352.89 392.962 353.022C392.508 353.154 391.95 353.22 391.29 353.22C390.586 353.22 389.948 353.095 389.376 352.846C388.819 352.597 388.379 352.215 388.056 351.702C387.734 351.174 387.572 350.514 387.572 349.722C387.572 348.549 388.034 347.647 388.958 347.016C389.882 346.371 391.305 346.019 393.226 345.96L395.228 345.894V345.19C395.228 344.207 395.016 343.525 394.59 343.144C394.165 342.763 393.564 342.572 392.786 342.572C392.17 342.572 391.584 342.667 391.026 342.858C390.469 343.034 389.948 343.239 389.464 343.474L388.87 342.022C389.384 341.743 389.992 341.509 390.696 341.318C391.4 341.113 392.134 341.01 392.896 341.01ZM393.468 347.302C392.002 347.361 390.982 347.595 390.41 348.006C389.853 348.417 389.574 348.996 389.574 349.744C389.574 350.404 389.772 350.888 390.168 351.196C390.579 351.504 391.1 351.658 391.73 351.658C392.728 351.658 393.556 351.387 394.216 350.844C394.876 350.287 395.206 349.436 395.206 348.292V347.236L393.468 347.302ZM402.786 341.208V346.114H409.188V341.208H411.124V353H409.188V347.742H402.786V353H400.85V341.208H402.786ZM416.772 348.402C416.772 348.534 416.765 348.725 416.75 348.974C416.75 349.209 416.743 349.465 416.728 349.744C416.714 350.008 416.699 350.265 416.684 350.514C416.67 350.749 416.655 350.939 416.64 351.086L422.954 341.208H425.33V353H423.526V346.048C423.526 345.813 423.526 345.505 423.526 345.124C423.541 344.743 423.556 344.369 423.57 344.002C423.585 343.621 423.6 343.335 423.614 343.144L417.344 353H414.946V341.208H416.772V348.402ZM429.897 353H427.653L431.019 348.05C430.564 347.933 430.124 347.749 429.699 347.5C429.274 347.236 428.929 346.877 428.665 346.422C428.401 345.953 428.269 345.373 428.269 344.684C428.269 343.555 428.65 342.697 429.413 342.11C430.176 341.509 431.188 341.208 432.449 341.208H437.729V353H435.793V348.314H432.933L429.897 353ZM430.139 344.706C430.139 345.381 430.388 345.887 430.887 346.224C431.4 346.547 432.112 346.708 433.021 346.708H435.793V342.814H432.647C431.752 342.814 431.107 342.99 430.711 343.342C430.33 343.694 430.139 344.149 430.139 344.706ZM448.518 345.916C448.518 344.2 448.687 342.741 449.024 341.538C449.376 340.321 449.911 339.353 450.63 338.634C451.363 337.901 452.302 337.409 453.446 337.16C454.399 336.955 455.331 336.771 456.24 336.61C457.149 336.449 458 336.302 458.792 336.17L459.122 337.864C458.741 337.923 458.315 337.996 457.846 338.084C457.377 338.157 456.9 338.238 456.416 338.326C455.932 338.399 455.463 338.48 455.008 338.568C454.568 338.641 454.179 338.715 453.842 338.788C453.358 338.891 452.925 339.067 452.544 339.316C452.163 339.551 451.833 339.873 451.554 340.284C451.29 340.695 451.077 341.201 450.916 341.802C450.755 342.403 450.659 343.115 450.63 343.936H450.762C450.967 343.657 451.246 343.371 451.598 343.078C451.965 342.785 452.397 342.535 452.896 342.33C453.409 342.125 453.989 342.022 454.634 342.022C455.661 342.022 456.511 342.249 457.186 342.704C457.875 343.144 458.389 343.76 458.726 344.552C459.078 345.344 459.254 346.268 459.254 347.324C459.254 348.629 459.027 349.722 458.572 350.602C458.117 351.482 457.487 352.142 456.68 352.582C455.873 353.007 454.935 353.22 453.864 353.22C453.057 353.22 452.324 353.066 451.664 352.758C451.004 352.435 450.439 351.966 449.97 351.35C449.501 350.734 449.141 349.971 448.892 349.062C448.643 348.153 448.518 347.104 448.518 345.916ZM454.018 351.614C454.663 351.614 455.221 351.482 455.69 351.218C456.174 350.954 456.548 350.521 456.812 349.92C457.076 349.319 457.208 348.519 457.208 347.522C457.208 346.319 456.981 345.373 456.526 344.684C456.086 343.98 455.353 343.628 454.326 343.628C453.681 343.628 453.094 343.775 452.566 344.068C452.038 344.347 451.598 344.669 451.246 345.036C450.894 345.403 450.645 345.711 450.498 345.96C450.498 346.679 450.549 347.375 450.652 348.05C450.755 348.725 450.931 349.333 451.18 349.876C451.444 350.404 451.803 350.829 452.258 351.152C452.727 351.46 453.314 351.614 454.018 351.614ZM466.858 341.01C468.295 341.01 469.359 341.325 470.048 341.956C470.737 342.587 471.082 343.591 471.082 344.97V353H469.674L469.3 351.328H469.212C468.875 351.753 468.523 352.113 468.156 352.406C467.804 352.685 467.393 352.89 466.924 353.022C466.469 353.154 465.912 353.22 465.252 353.22C464.548 353.22 463.91 353.095 463.338 352.846C462.781 352.597 462.341 352.215 462.018 351.702C461.695 351.174 461.534 350.514 461.534 349.722C461.534 348.549 461.996 347.647 462.92 347.016C463.844 346.371 465.267 346.019 467.188 345.96L469.19 345.894V345.19C469.19 344.207 468.977 343.525 468.552 343.144C468.127 342.763 467.525 342.572 466.748 342.572C466.132 342.572 465.545 342.667 464.988 342.858C464.431 343.034 463.91 343.239 463.426 343.474L462.832 342.022C463.345 341.743 463.954 341.509 464.658 341.318C465.362 341.113 466.095 341.01 466.858 341.01ZM467.43 347.302C465.963 347.361 464.944 347.595 464.372 348.006C463.815 348.417 463.536 348.996 463.536 349.744C463.536 350.404 463.734 350.888 464.13 351.196C464.541 351.504 465.061 351.658 465.692 351.658C466.689 351.658 467.518 351.387 468.178 350.844C468.838 350.287 469.168 349.436 469.168 348.292V347.236L467.43 347.302ZM483.788 353H481.83V342.814H478.354C478.207 344.677 478.024 346.268 477.804 347.588C477.584 348.893 477.305 349.957 476.968 350.778C476.631 351.599 476.227 352.201 475.758 352.582C475.289 352.963 474.739 353.154 474.108 353.154C473.917 353.154 473.727 353.139 473.536 353.11C473.36 353.095 473.213 353.059 473.096 353V351.548C473.184 351.577 473.279 351.599 473.382 351.614C473.485 351.629 473.587 351.636 473.69 351.636C474.013 351.636 474.306 351.504 474.57 351.24C474.834 350.976 475.069 350.573 475.274 350.03C475.494 349.487 475.692 348.805 475.868 347.984C476.044 347.148 476.198 346.165 476.33 345.036C476.462 343.907 476.579 342.631 476.682 341.208H483.788V353ZM496.595 353H494.637V342.814H491.161C491.014 344.677 490.831 346.268 490.611 347.588C490.391 348.893 490.112 349.957 489.775 350.778C489.437 351.599 489.034 352.201 488.565 352.582C488.095 352.963 487.545 353.154 486.915 353.154C486.724 353.154 486.533 353.139 486.343 353.11C486.167 353.095 486.02 353.059 485.903 353V351.548C485.991 351.577 486.086 351.599 486.189 351.614C486.291 351.629 486.394 351.636 486.497 351.636C486.819 351.636 487.113 351.504 487.377 351.24C487.641 350.976 487.875 350.573 488.081 350.03C488.301 349.487 488.499 348.805 488.675 347.984C488.851 347.148 489.005 346.165 489.137 345.036C489.269 343.907 489.386 342.631 489.489 341.208H496.595V353ZM510.678 347.082C510.678 348.065 510.546 348.937 510.282 349.7C510.032 350.448 509.666 351.086 509.182 351.614C508.712 352.142 508.133 352.545 507.444 352.824C506.769 353.088 506.014 353.22 505.178 353.22C504.4 353.22 503.682 353.088 503.022 352.824C502.362 352.545 501.79 352.142 501.306 351.614C500.822 351.086 500.44 350.448 500.162 349.7C499.898 348.937 499.766 348.065 499.766 347.082C499.766 345.777 499.986 344.677 500.426 343.782C500.866 342.873 501.496 342.183 502.318 341.714C503.139 341.23 504.114 340.988 505.244 340.988C506.314 340.988 507.253 341.23 508.06 341.714C508.881 342.183 509.519 342.873 509.974 343.782C510.443 344.677 510.678 345.777 510.678 347.082ZM501.768 347.082C501.768 348.006 501.885 348.813 502.12 349.502C502.369 350.177 502.75 350.697 503.264 351.064C503.777 351.431 504.43 351.614 505.222 351.614C506.014 351.614 506.666 351.431 507.18 351.064C507.693 350.697 508.067 350.177 508.302 349.502C508.551 348.813 508.676 348.006 508.676 347.082C508.676 346.143 508.551 345.344 508.302 344.684C508.052 344.024 507.671 343.518 507.158 343.166C506.659 342.799 506.006 342.616 505.2 342.616C503.997 342.616 503.124 343.012 502.582 343.804C502.039 344.596 501.768 345.689 501.768 347.082ZM523.316 344.178C523.316 344.911 523.096 345.483 522.656 345.894C522.216 346.305 521.651 346.583 520.962 346.73V346.818C521.695 346.921 522.333 347.185 522.876 347.61C523.419 348.021 523.69 348.666 523.69 349.546C523.69 350.045 523.595 350.507 523.404 350.932C523.228 351.357 522.949 351.724 522.568 352.032C522.187 352.34 521.695 352.582 521.094 352.758C520.493 352.919 519.767 353 518.916 353H513.834V341.208H518.894C519.73 341.208 520.478 341.303 521.138 341.494C521.813 341.67 522.341 341.978 522.722 342.418C523.118 342.843 523.316 343.43 523.316 344.178ZM521.688 349.546C521.688 348.871 521.431 348.387 520.918 348.094C520.405 347.801 519.649 347.654 518.652 347.654H515.77V351.438H518.696C519.664 351.438 520.405 351.299 520.918 351.02C521.431 350.727 521.688 350.235 521.688 349.546ZM521.358 344.42C521.358 343.863 521.153 343.459 520.742 343.21C520.346 342.946 519.693 342.814 518.784 342.814H515.77V346.048H518.432C519.385 346.048 520.111 345.916 520.61 345.652C521.109 345.388 521.358 344.977 521.358 344.42Z" fill="#19191B"/>
</g>
<rect x="262" y="956" width="289" height="40" rx="8" fill="#0088FF"/>
<path d="M286.052 981V969.576H294.628V981H293.204V970.84H287.492V981H286.052ZM301.843 972.264C302.899 972.264 303.747 972.632 304.387 973.368C305.038 974.104 305.363 975.213 305.363 976.696C305.363 977.667 305.214 978.488 304.915 979.16C304.627 979.821 304.216 980.323 303.683 980.664C303.16 980.995 302.542 981.16 301.827 981.16C301.39 981.16 301 981.101 300.659 980.984C300.318 980.867 300.024 980.717 299.779 980.536C299.544 980.344 299.342 980.136 299.171 979.912H299.075C299.096 980.093 299.118 980.323 299.139 980.6C299.16 980.877 299.171 981.117 299.171 981.32V984.84H297.763V972.424H298.915L299.107 973.592H299.171C299.342 973.347 299.544 973.123 299.779 972.92C300.024 972.717 300.312 972.557 300.643 972.44C300.984 972.323 301.384 972.264 301.843 972.264ZM301.587 973.448C301.011 973.448 300.547 973.56 300.195 973.784C299.843 973.997 299.587 974.323 299.427 974.76C299.267 975.197 299.182 975.752 299.171 976.424V976.696C299.171 977.4 299.246 977.997 299.395 978.488C299.544 978.979 299.795 979.352 300.147 979.608C300.51 979.864 301 979.992 301.619 979.992C302.142 979.992 302.568 979.848 302.899 979.56C303.24 979.272 303.491 978.883 303.651 978.392C303.822 977.891 303.907 977.32 303.907 976.68C303.907 975.699 303.715 974.915 303.331 974.328C302.958 973.741 302.376 973.448 301.587 973.448ZM315.263 976.696C315.263 977.411 315.167 978.045 314.975 978.6C314.794 979.144 314.527 979.608 314.175 979.992C313.834 980.376 313.412 980.669 312.911 980.872C312.42 981.064 311.871 981.16 311.263 981.16C310.698 981.16 310.175 981.064 309.695 980.872C309.215 980.669 308.799 980.376 308.447 979.992C308.095 979.608 307.818 979.144 307.615 978.6C307.423 978.045 307.327 977.411 307.327 976.696C307.327 975.747 307.487 974.947 307.807 974.296C308.127 973.635 308.586 973.133 309.183 972.792C309.78 972.44 310.49 972.264 311.311 972.264C312.09 972.264 312.772 972.44 313.359 972.792C313.956 973.133 314.42 973.635 314.751 974.296C315.092 974.947 315.263 975.747 315.263 976.696ZM308.783 976.696C308.783 977.368 308.868 977.955 309.039 978.456C309.22 978.947 309.498 979.325 309.871 979.592C310.244 979.859 310.719 979.992 311.295 979.992C311.871 979.992 312.346 979.859 312.719 979.592C313.092 979.325 313.364 978.947 313.535 978.456C313.716 977.955 313.807 977.368 313.807 976.696C313.807 976.013 313.716 975.432 313.535 974.952C313.354 974.472 313.076 974.104 312.703 973.848C312.34 973.581 311.866 973.448 311.279 973.448C310.404 973.448 309.77 973.736 309.375 974.312C308.98 974.888 308.783 975.683 308.783 976.696ZM324.062 972.424V979.816H325.31V983.976H323.95V981H317.982V983.976H316.638V979.816H317.326C317.817 979.133 318.222 978.392 318.542 977.592C318.873 976.781 319.118 975.939 319.278 975.064C319.449 974.179 319.54 973.299 319.55 972.424H324.062ZM320.798 973.528C320.756 974.253 320.644 975.005 320.462 975.784C320.281 976.552 320.046 977.288 319.758 977.992C319.481 978.696 319.156 979.304 318.782 979.816H322.702V973.528H320.798ZM334.647 976.696C334.647 977.411 334.551 978.045 334.359 978.6C334.178 979.144 333.911 979.608 333.559 979.992C333.218 980.376 332.797 980.669 332.295 980.872C331.805 981.064 331.255 981.16 330.647 981.16C330.082 981.16 329.559 981.064 329.079 980.872C328.599 980.669 328.183 980.376 327.831 979.992C327.479 979.608 327.202 979.144 326.999 978.6C326.807 978.045 326.711 977.411 326.711 976.696C326.711 975.747 326.871 974.947 327.191 974.296C327.511 973.635 327.97 973.133 328.567 972.792C329.165 972.44 329.874 972.264 330.695 972.264C331.474 972.264 332.157 972.44 332.743 972.792C333.341 973.133 333.805 973.635 334.135 974.296C334.477 974.947 334.647 975.747 334.647 976.696ZM328.167 976.696C328.167 977.368 328.253 977.955 328.423 978.456C328.605 978.947 328.882 979.325 329.255 979.592C329.629 979.859 330.103 979.992 330.679 979.992C331.255 979.992 331.73 979.859 332.103 979.592C332.477 979.325 332.749 978.947 332.919 978.456C333.101 977.955 333.191 977.368 333.191 976.696C333.191 976.013 333.101 975.432 332.919 974.952C332.738 974.472 332.461 974.104 332.087 973.848C331.725 973.581 331.25 973.448 330.663 973.448C329.789 973.448 329.154 973.736 328.759 974.312C328.365 974.888 328.167 975.683 328.167 976.696ZM343.607 981H342.183V973.592H339.655C339.548 974.947 339.415 976.104 339.255 977.064C339.095 978.013 338.892 978.787 338.647 979.384C338.401 979.981 338.108 980.419 337.767 980.696C337.425 980.973 337.025 981.112 336.567 981.112C336.428 981.112 336.289 981.101 336.151 981.08C336.023 981.069 335.916 981.043 335.831 981V979.944C335.895 979.965 335.964 979.981 336.039 979.992C336.113 980.003 336.188 980.008 336.263 980.008C336.497 980.008 336.711 979.912 336.903 979.72C337.095 979.528 337.265 979.235 337.415 978.84C337.575 978.445 337.719 977.949 337.847 977.352C337.975 976.744 338.087 976.029 338.183 975.208C338.279 974.387 338.364 973.459 338.439 972.424H343.607V981ZM356.817 972.424L353.281 976.584L357.121 981H355.521L351.809 976.648V981H350.497V976.648L346.785 981H345.185L349.025 976.584L345.489 972.424H347.025L350.497 976.584V972.424H351.809V976.584L355.297 972.424H356.817ZM360.057 977.656C360.057 977.752 360.051 977.891 360.041 978.072C360.041 978.243 360.035 978.429 360.025 978.632C360.014 978.824 360.003 979.011 359.993 979.192C359.982 979.363 359.971 979.501 359.961 979.608L364.553 972.424H366.281V981H364.969V975.944C364.969 975.773 364.969 975.549 364.969 975.272C364.979 974.995 364.99 974.723 365.001 974.456C365.011 974.179 365.022 973.971 365.033 973.832L360.473 981H358.729V972.424H360.057V977.656ZM375.13 973.608H372.33V981H370.938V973.608H368.17V972.424H375.13V973.608ZM380.971 975.944C381.718 975.944 382.337 976.035 382.827 976.216C383.318 976.397 383.686 976.669 383.931 977.032C384.187 977.384 384.315 977.832 384.315 978.376C384.315 978.909 384.193 979.373 383.947 979.768C383.713 980.163 383.345 980.467 382.843 980.68C382.342 980.893 381.697 981 380.907 981H377.019V972.424H378.427V975.944H380.971ZM382.907 978.456C382.907 977.933 382.721 977.581 382.347 977.4C381.985 977.208 381.473 977.112 380.811 977.112H378.427V979.864H380.843C381.441 979.864 381.931 979.757 382.315 979.544C382.71 979.331 382.907 978.968 382.907 978.456ZM391.674 975.848C391.674 974.6 391.797 973.539 392.042 972.664C392.298 971.779 392.688 971.075 393.21 970.552C393.744 970.019 394.426 969.661 395.258 969.48C395.952 969.331 396.629 969.197 397.29 969.08C397.952 968.963 398.57 968.856 399.146 968.76L399.386 969.992C399.109 970.035 398.8 970.088 398.458 970.152C398.117 970.205 397.77 970.264 397.418 970.328C397.066 970.381 396.725 970.44 396.394 970.504C396.074 970.557 395.792 970.611 395.546 970.664C395.194 970.739 394.88 970.867 394.602 971.048C394.325 971.219 394.085 971.453 393.882 971.752C393.69 972.051 393.536 972.419 393.418 972.856C393.301 973.293 393.232 973.811 393.21 974.408H393.306C393.456 974.205 393.658 973.997 393.914 973.784C394.181 973.571 394.496 973.389 394.858 973.24C395.232 973.091 395.653 973.016 396.122 973.016C396.869 973.016 397.488 973.181 397.978 973.512C398.48 973.832 398.853 974.28 399.098 974.856C399.354 975.432 399.482 976.104 399.482 976.872C399.482 977.821 399.317 978.616 398.986 979.256C398.656 979.896 398.197 980.376 397.61 980.696C397.024 981.005 396.341 981.16 395.562 981.16C394.976 981.16 394.442 981.048 393.962 980.824C393.482 980.589 393.072 980.248 392.73 979.8C392.389 979.352 392.128 978.797 391.946 978.136C391.765 977.475 391.674 976.712 391.674 975.848ZM395.674 979.992C396.144 979.992 396.549 979.896 396.89 979.704C397.242 979.512 397.514 979.197 397.706 978.76C397.898 978.323 397.994 977.741 397.994 977.016C397.994 976.141 397.829 975.453 397.498 974.952C397.178 974.44 396.645 974.184 395.898 974.184C395.429 974.184 395.002 974.291 394.618 974.504C394.234 974.707 393.914 974.941 393.658 975.208C393.402 975.475 393.221 975.699 393.114 975.88C393.114 976.403 393.152 976.909 393.226 977.4C393.301 977.891 393.429 978.333 393.61 978.728C393.802 979.112 394.064 979.421 394.394 979.656C394.736 979.88 395.162 979.992 395.674 979.992ZM405.213 972.264C405.949 972.264 406.578 972.424 407.101 972.744C407.634 973.064 408.039 973.517 408.317 974.104C408.605 974.68 408.749 975.357 408.749 976.136V976.984H402.877C402.898 977.955 403.143 978.696 403.613 979.208C404.093 979.709 404.759 979.96 405.613 979.96C406.157 979.96 406.637 979.912 407.053 979.816C407.479 979.709 407.917 979.56 408.365 979.368V980.6C407.927 980.792 407.495 980.931 407.069 981.016C406.642 981.112 406.135 981.16 405.549 981.16C404.738 981.16 404.018 980.995 403.389 980.664C402.77 980.333 402.285 979.843 401.933 979.192C401.591 978.531 401.421 977.725 401.421 976.776C401.421 975.837 401.575 975.032 401.885 974.36C402.205 973.688 402.647 973.171 403.213 972.808C403.789 972.445 404.455 972.264 405.213 972.264ZM405.197 973.416C404.525 973.416 403.991 973.635 403.597 974.072C403.213 974.499 402.983 975.096 402.909 975.864H407.277C407.277 975.373 407.202 974.947 407.053 974.584C406.903 974.221 406.674 973.939 406.365 973.736C406.066 973.523 405.677 973.416 405.197 973.416ZM413.388 972.264C414.039 972.264 414.604 972.355 415.084 972.536C415.564 972.707 415.937 972.963 416.204 973.304C416.471 973.635 416.604 974.04 416.604 974.52C416.604 975.043 416.46 975.459 416.172 975.768C415.884 976.067 415.489 976.285 414.988 976.424V976.488C415.329 976.584 415.644 976.717 415.932 976.888C416.22 977.059 416.449 977.283 416.62 977.56C416.801 977.837 416.892 978.195 416.892 978.632C416.892 979.101 416.759 979.528 416.492 979.912C416.236 980.296 415.836 980.6 415.292 980.824C414.759 981.048 414.071 981.16 413.228 981.16C412.823 981.16 412.433 981.139 412.06 981.096C411.697 981.053 411.367 980.989 411.068 980.904C410.78 980.819 410.524 980.717 410.3 980.6V979.336C410.663 979.507 411.089 979.661 411.58 979.8C412.081 979.939 412.625 980.008 413.212 980.008C413.639 980.008 414.023 979.96 414.364 979.864C414.716 979.768 414.993 979.619 415.196 979.416C415.399 979.203 415.5 978.915 415.5 978.552C415.5 978.221 415.409 977.955 415.228 977.752C415.047 977.539 414.775 977.379 414.412 977.272C414.06 977.165 413.607 977.112 413.052 977.112H411.9V975.96H412.828C413.564 975.96 414.151 975.864 414.588 975.672C415.036 975.469 415.26 975.128 415.26 974.648C415.26 974.243 415.089 973.939 414.748 973.736C414.417 973.533 413.937 973.432 413.308 973.432C412.839 973.432 412.423 973.48 412.06 973.576C411.708 973.661 411.319 973.795 410.892 973.976L410.396 972.856C410.855 972.653 411.335 972.504 411.836 972.408C412.337 972.312 412.855 972.264 413.388 972.264ZM427.827 972.28C428.872 972.28 429.645 972.509 430.147 972.968C430.648 973.427 430.899 974.157 430.899 975.16V981H429.875L429.603 979.784H429.539C429.293 980.093 429.037 980.355 428.771 980.568C428.515 980.771 428.216 980.92 427.875 981.016C427.544 981.112 427.139 981.16 426.659 981.16C426.147 981.16 425.683 981.069 425.267 980.888C424.861 980.707 424.541 980.429 424.307 980.056C424.072 979.672 423.955 979.192 423.955 978.616C423.955 977.763 424.291 977.107 424.963 976.648C425.635 976.179 426.669 975.923 428.067 975.88L429.523 975.832V975.32C429.523 974.605 429.368 974.109 429.059 973.832C428.749 973.555 428.312 973.416 427.747 973.416C427.299 973.416 426.872 973.485 426.467 973.624C426.061 973.752 425.683 973.901 425.331 974.072L424.899 973.016C425.272 972.813 425.715 972.643 426.227 972.504C426.739 972.355 427.272 972.28 427.827 972.28ZM428.243 976.856C427.176 976.899 426.435 977.069 426.019 977.368C425.613 977.667 425.411 978.088 425.411 978.632C425.411 979.112 425.555 979.464 425.843 979.688C426.141 979.912 426.52 980.024 426.979 980.024C427.704 980.024 428.307 979.827 428.787 979.432C429.267 979.027 429.507 978.408 429.507 977.576V976.808L428.243 976.856ZM440.643 974.584C440.643 975.117 440.483 975.533 440.163 975.832C439.843 976.131 439.433 976.333 438.931 976.44V976.504C439.465 976.579 439.929 976.771 440.323 977.08C440.718 977.379 440.915 977.848 440.915 978.488C440.915 978.851 440.846 979.187 440.707 979.496C440.579 979.805 440.377 980.072 440.099 980.296C439.822 980.52 439.465 980.696 439.027 980.824C438.59 980.941 438.062 981 437.443 981H433.747V972.424H437.427C438.035 972.424 438.579 972.493 439.059 972.632C439.55 972.76 439.934 972.984 440.211 973.304C440.499 973.613 440.643 974.04 440.643 974.584ZM439.459 978.488C439.459 977.997 439.273 977.645 438.899 977.432C438.526 977.219 437.977 977.112 437.251 977.112H435.155V979.864H437.283C437.987 979.864 438.526 979.763 438.899 979.56C439.273 979.347 439.459 978.989 439.459 978.488ZM439.219 974.76C439.219 974.355 439.07 974.061 438.771 973.88C438.483 973.688 438.009 973.592 437.347 973.592H435.155V975.944H437.091C437.785 975.944 438.313 975.848 438.675 975.656C439.038 975.464 439.219 975.165 439.219 974.76ZM449.086 973.608H446.286V981H444.894V973.608H442.126V972.424H449.086V973.608ZM458.275 976.696C458.275 977.411 458.179 978.045 457.987 978.6C457.806 979.144 457.539 979.608 457.187 979.992C456.846 980.376 456.425 980.669 455.923 980.872C455.433 981.064 454.883 981.16 454.275 981.16C453.71 981.16 453.187 981.064 452.707 980.872C452.227 980.669 451.811 980.376 451.459 979.992C451.107 979.608 450.83 979.144 450.627 978.6C450.435 978.045 450.339 977.411 450.339 976.696C450.339 975.747 450.499 974.947 450.819 974.296C451.139 973.635 451.598 973.133 452.195 972.792C452.793 972.44 453.502 972.264 454.323 972.264C455.102 972.264 455.785 972.44 456.371 972.792C456.969 973.133 457.433 973.635 457.763 974.296C458.105 974.947 458.275 975.747 458.275 976.696ZM451.795 976.696C451.795 977.368 451.881 977.955 452.051 978.456C452.233 978.947 452.51 979.325 452.883 979.592C453.257 979.859 453.731 979.992 454.307 979.992C454.883 979.992 455.358 979.859 455.731 979.592C456.105 979.325 456.377 978.947 456.547 978.456C456.729 977.955 456.819 977.368 456.819 976.696C456.819 976.013 456.729 975.432 456.547 974.952C456.366 974.472 456.089 974.104 455.715 973.848C455.353 973.581 454.878 973.448 454.291 973.448C453.417 973.448 452.782 973.736 452.387 974.312C451.993 974.888 451.795 975.683 451.795 976.696ZM464.787 972.264C465.843 972.264 466.691 972.632 467.331 973.368C467.982 974.104 468.307 975.213 468.307 976.696C468.307 977.667 468.158 978.488 467.859 979.16C467.571 979.821 467.16 980.323 466.627 980.664C466.104 980.995 465.486 981.16 464.771 981.16C464.334 981.16 463.944 981.101 463.603 980.984C463.262 980.867 462.968 980.717 462.723 980.536C462.488 980.344 462.286 980.136 462.115 979.912H462.019C462.04 980.093 462.062 980.323 462.083 980.6C462.104 980.877 462.115 981.117 462.115 981.32V984.84H460.707V972.424H461.859L462.051 973.592H462.115C462.286 973.347 462.488 973.123 462.723 972.92C462.968 972.717 463.256 972.557 463.587 972.44C463.928 972.323 464.328 972.264 464.787 972.264ZM464.531 973.448C463.955 973.448 463.491 973.56 463.139 973.784C462.787 973.997 462.531 974.323 462.371 974.76C462.211 975.197 462.126 975.752 462.115 976.424V976.696C462.115 977.4 462.19 977.997 462.339 978.488C462.488 978.979 462.739 979.352 463.091 979.608C463.454 979.864 463.944 979.992 464.563 979.992C465.086 979.992 465.512 979.848 465.843 979.56C466.184 979.272 466.435 978.883 466.595 978.392C466.766 977.891 466.851 977.32 466.851 976.68C466.851 975.699 466.659 974.915 466.275 974.328C465.902 973.741 465.32 973.448 464.531 973.448ZM472.079 977.656C472.079 977.752 472.073 977.891 472.063 978.072C472.063 978.243 472.057 978.429 472.047 978.632C472.036 978.824 472.025 979.011 472.015 979.192C472.004 979.363 471.993 979.501 471.983 979.608L476.575 972.424H478.303V981H476.991V975.944C476.991 975.773 476.991 975.549 476.991 975.272C477.001 974.995 477.012 974.723 477.023 974.456C477.033 974.179 477.044 973.971 477.055 973.832L472.495 981H470.751V972.424H472.079V977.656ZM483.488 972.264C484.139 972.264 484.704 972.355 485.184 972.536C485.664 972.707 486.037 972.963 486.304 973.304C486.571 973.635 486.704 974.04 486.704 974.52C486.704 975.043 486.56 975.459 486.272 975.768C485.984 976.067 485.589 976.285 485.088 976.424V976.488C485.429 976.584 485.744 976.717 486.032 976.888C486.32 977.059 486.549 977.283 486.72 977.56C486.901 977.837 486.992 978.195 486.992 978.632C486.992 979.101 486.859 979.528 486.592 979.912C486.336 980.296 485.936 980.6 485.392 980.824C484.859 981.048 484.171 981.16 483.328 981.16C482.923 981.16 482.533 981.139 482.16 981.096C481.797 981.053 481.467 980.989 481.168 980.904C480.88 980.819 480.624 980.717 480.4 980.6V979.336C480.763 979.507 481.189 979.661 481.68 979.8C482.181 979.939 482.725 980.008 483.312 980.008C483.739 980.008 484.123 979.96 484.464 979.864C484.816 979.768 485.093 979.619 485.296 979.416C485.499 979.203 485.6 978.915 485.6 978.552C485.6 978.221 485.509 977.955 485.328 977.752C485.147 977.539 484.875 977.379 484.512 977.272C484.16 977.165 483.707 977.112 483.152 977.112H482V975.96H482.928C483.664 975.96 484.251 975.864 484.688 975.672C485.136 975.469 485.36 975.128 485.36 974.648C485.36 974.243 485.189 973.939 484.848 973.736C484.517 973.533 484.037 973.432 483.408 973.432C482.939 973.432 482.523 973.48 482.16 973.576C481.808 973.661 481.419 973.795 480.992 973.976L480.496 972.856C480.955 972.653 481.435 972.504 481.936 972.408C482.437 972.312 482.955 972.264 483.488 972.264ZM492.524 972.28C493.569 972.28 494.342 972.509 494.844 972.968C495.345 973.427 495.596 974.157 495.596 975.16V981H494.572L494.3 979.784H494.236C493.99 980.093 493.734 980.355 493.468 980.568C493.212 980.771 492.913 980.92 492.572 981.016C492.241 981.112 491.836 981.16 491.356 981.16C490.844 981.16 490.38 981.069 489.964 980.888C489.558 980.707 489.238 980.429 489.004 980.056C488.769 979.672 488.652 979.192 488.652 978.616C488.652 977.763 488.988 977.107 489.66 976.648C490.332 976.179 491.366 975.923 492.764 975.88L494.22 975.832V975.32C494.22 974.605 494.065 974.109 493.756 973.832C493.446 973.555 493.009 973.416 492.444 973.416C491.996 973.416 491.569 973.485 491.164 973.624C490.758 973.752 490.38 973.901 490.028 974.072L489.596 973.016C489.969 972.813 490.412 972.643 490.924 972.504C491.436 972.355 491.969 972.28 492.524 972.28ZM492.94 976.856C491.873 976.899 491.132 977.069 490.716 977.368C490.31 977.667 490.108 978.088 490.108 978.632C490.108 979.112 490.252 979.464 490.54 979.688C490.838 979.912 491.217 980.024 491.676 980.024C492.401 980.024 493.004 979.827 493.484 979.432C493.964 979.027 494.204 978.408 494.204 977.576V976.808L492.94 976.856ZM506.908 983.976H505.532V981H498.444V972.424H499.852V979.816H504.284V972.424H505.692V979.832H506.908V983.976ZM510.082 977.656C510.082 977.752 510.076 977.891 510.066 978.072C510.066 978.243 510.06 978.429 510.05 978.632C510.039 978.824 510.028 979.011 510.018 979.192C510.007 979.363 509.996 979.501 509.986 979.608L514.578 972.424H516.306V981H514.994V975.944C514.994 975.773 514.994 975.549 514.994 975.272C515.004 974.995 515.015 974.723 515.026 974.456C515.036 974.179 515.047 973.971 515.058 973.832L510.498 981H508.754V972.424H510.082V977.656ZM520.563 977.656C520.563 977.752 520.558 977.891 520.547 978.072C520.547 978.243 520.542 978.429 520.531 978.632C520.52 978.824 520.51 979.011 520.499 979.192C520.488 979.363 520.478 979.501 520.467 979.608L525.059 972.424H526.787V981H525.475V975.944C525.475 975.773 525.475 975.549 525.475 975.272C525.486 974.995 525.496 974.723 525.507 974.456C525.518 974.179 525.528 973.971 525.539 973.832L520.979 981H519.235V972.424H520.563V977.656Z" fill="white"/>
<rect x="210.5" y="387.5" width="392" height="53" stroke="#AFB1B6"/>
<path d="M263.052 407.952V423.824H260.652V407.952H263.052ZM269.612 414.672V417.072H254.06V414.672H269.612ZM271.327 404.88H286.879V407.28C285.108 409.157 283.658 411.088 282.527 413.072C281.418 415.035 280.607 417.083 280.095 419.216C279.583 421.349 279.327 423.611 279.327 426H276.703C276.703 423.632 276.991 421.317 277.567 419.056C278.164 416.773 279.06 414.587 280.255 412.496C281.45 410.405 282.932 408.453 284.703 406.64L285.119 407.28H271.327V404.88ZM306.722 401.968L308.194 403.44C306.786 404.72 305.666 406.075 304.834 407.504C304.002 408.912 303.405 410.405 303.042 411.984C302.679 413.541 302.498 415.216 302.498 417.008C302.498 418.779 302.679 420.453 303.042 422.032C303.405 423.611 304.002 425.104 304.834 426.512C305.666 427.92 306.786 429.275 308.194 430.576L306.722 432.048C304.461 430.085 302.754 427.845 301.602 425.328C300.45 422.789 299.874 420.016 299.874 417.008C299.874 414 300.45 411.227 301.602 408.688C302.754 406.149 304.461 403.909 306.722 401.968ZM318.03 426.32C315.641 426.32 313.731 425.392 312.302 423.536C310.873 421.68 310.158 418.981 310.158 415.44C310.158 411.899 310.873 409.2 312.302 407.344C313.731 405.488 315.641 404.56 318.03 404.56C320.441 404.56 322.35 405.488 323.758 407.344C325.187 409.2 325.902 411.899 325.902 415.44C325.902 418.981 325.187 421.68 323.758 423.536C322.35 425.392 320.441 426.32 318.03 426.32ZM318.03 424.016C319.161 424.016 320.11 423.696 320.878 423.056C321.667 422.395 322.254 421.424 322.638 420.144C323.043 418.864 323.246 417.296 323.246 415.44C323.246 413.584 323.043 412.016 322.638 410.736C322.254 409.456 321.667 408.496 320.878 407.856C320.11 407.195 319.161 406.864 318.03 406.864C316.899 406.864 315.939 407.195 315.15 407.856C314.382 408.496 313.795 409.456 313.39 410.736C313.006 412.016 312.814 413.584 312.814 415.44C312.814 417.296 313.006 418.864 313.39 420.144C313.795 421.424 314.382 422.395 315.15 423.056C315.939 423.696 316.899 424.016 318.03 424.016ZM337.936 426.32C335.547 426.32 333.638 425.392 332.208 423.536C330.779 421.68 330.064 418.981 330.064 415.44C330.064 411.899 330.779 409.2 332.208 407.344C333.638 405.488 335.547 404.56 337.936 404.56C340.347 404.56 342.256 405.488 343.664 407.344C345.094 409.2 345.808 411.899 345.808 415.44C345.808 418.981 345.094 421.68 343.664 423.536C342.256 425.392 340.347 426.32 337.936 426.32ZM337.936 424.016C339.067 424.016 340.016 423.696 340.784 423.056C341.574 422.395 342.16 421.424 342.544 420.144C342.95 418.864 343.152 417.296 343.152 415.44C343.152 413.584 342.95 412.016 342.544 410.736C342.16 409.456 341.574 408.496 340.784 407.856C340.016 407.195 339.067 406.864 337.936 406.864C336.806 406.864 335.846 407.195 335.056 407.856C334.288 408.496 333.702 409.456 333.296 410.736C332.912 412.016 332.72 413.584 332.72 415.44C332.72 417.296 332.912 418.864 333.296 420.144C333.702 421.424 334.288 422.395 335.056 423.056C335.846 423.696 336.806 424.016 337.936 424.016ZM357.843 426.32C355.453 426.32 353.544 425.392 352.115 423.536C350.685 421.68 349.971 418.981 349.971 415.44C349.971 411.899 350.685 409.2 352.115 407.344C353.544 405.488 355.453 404.56 357.843 404.56C360.253 404.56 362.163 405.488 363.571 407.344C365 409.2 365.715 411.899 365.715 415.44C365.715 418.981 365 421.68 363.571 423.536C362.163 425.392 360.253 426.32 357.843 426.32ZM357.843 424.016C358.973 424.016 359.923 423.696 360.691 423.056C361.48 422.395 362.067 421.424 362.451 420.144C362.856 418.864 363.059 417.296 363.059 415.44C363.059 413.584 362.856 412.016 362.451 410.736C362.067 409.456 361.48 408.496 360.691 407.856C359.923 407.195 358.973 406.864 357.843 406.864C356.712 406.864 355.752 407.195 354.963 407.856C354.195 408.496 353.608 409.456 353.203 410.736C352.819 412.016 352.627 413.584 352.627 415.44C352.627 417.296 352.819 418.864 353.203 420.144C353.608 421.424 354.195 422.395 354.963 423.056C355.752 423.696 356.712 424.016 357.843 424.016ZM369.166 432.048L367.694 430.576C369.102 429.275 370.222 427.92 371.054 426.512C371.886 425.104 372.483 423.611 372.846 422.032C373.208 420.453 373.39 418.779 373.39 417.008C373.39 415.216 373.208 413.541 372.846 411.984C372.483 410.405 371.886 408.912 371.054 407.504C370.222 406.075 369.102 404.72 367.694 403.44L369.166 401.968C371.427 403.909 373.134 406.149 374.286 408.688C375.438 411.227 376.014 414 376.014 417.008C376.014 420.016 375.438 422.789 374.286 425.328C373.134 427.845 371.427 430.085 369.166 432.048ZM398.811 426.32C396.422 426.32 394.513 425.392 393.083 423.536C391.654 421.68 390.939 418.981 390.939 415.44C390.939 411.899 391.654 409.2 393.083 407.344C394.513 405.488 396.422 404.56 398.811 404.56C401.222 404.56 403.131 405.488 404.539 407.344C405.969 409.2 406.683 411.899 406.683 415.44C406.683 418.981 405.969 421.68 404.539 423.536C403.131 425.392 401.222 426.32 398.811 426.32ZM398.811 424.016C399.942 424.016 400.891 423.696 401.659 423.056C402.449 422.395 403.035 421.424 403.419 420.144C403.825 418.864 404.027 417.296 404.027 415.44C404.027 413.584 403.825 412.016 403.419 410.736C403.035 409.456 402.449 408.496 401.659 407.856C400.891 407.195 399.942 406.864 398.811 406.864C397.681 406.864 396.721 407.195 395.931 407.856C395.163 408.496 394.577 409.456 394.171 410.736C393.787 412.016 393.595 413.584 393.595 415.44C393.595 417.296 393.787 418.864 394.171 420.144C394.577 421.424 395.163 422.395 395.931 423.056C396.721 423.696 397.681 424.016 398.811 424.016ZM418.718 426.32C416.328 426.32 414.419 425.392 412.99 423.536C411.56 421.68 410.846 418.981 410.846 415.44C410.846 411.899 411.56 409.2 412.99 407.344C414.419 405.488 416.328 404.56 418.718 404.56C421.128 404.56 423.038 405.488 424.446 407.344C425.875 409.2 426.59 411.899 426.59 415.44C426.59 418.981 425.875 421.68 424.446 423.536C423.038 425.392 421.128 426.32 418.718 426.32ZM418.718 424.016C419.848 424.016 420.798 423.696 421.566 423.056C422.355 422.395 422.942 421.424 423.326 420.144C423.731 418.864 423.934 417.296 423.934 415.44C423.934 413.584 423.731 412.016 423.326 410.736C422.942 409.456 422.355 408.496 421.566 407.856C420.798 407.195 419.848 406.864 418.718 406.864C417.587 406.864 416.627 407.195 415.838 407.856C415.07 408.496 414.483 409.456 414.078 410.736C413.694 412.016 413.502 413.584 413.502 415.44C413.502 417.296 413.694 418.864 414.078 420.144C414.483 421.424 415.07 422.395 415.838 423.056C416.627 423.696 417.587 424.016 418.718 424.016ZM438.624 426.32C436.235 426.32 434.325 425.392 432.896 423.536C431.467 421.68 430.752 418.981 430.752 415.44C430.752 411.899 431.467 409.2 432.896 407.344C434.325 405.488 436.235 404.56 438.624 404.56C441.035 404.56 442.944 405.488 444.352 407.344C445.781 409.2 446.496 411.899 446.496 415.44C446.496 418.981 445.781 421.68 444.352 423.536C442.944 425.392 441.035 426.32 438.624 426.32ZM438.624 424.016C439.755 424.016 440.704 423.696 441.472 423.056C442.261 422.395 442.848 421.424 443.232 420.144C443.637 418.864 443.84 417.296 443.84 415.44C443.84 413.584 443.637 412.016 443.232 410.736C442.848 409.456 442.261 408.496 441.472 407.856C440.704 407.195 439.755 406.864 438.624 406.864C437.493 406.864 436.533 407.195 435.744 407.856C434.976 408.496 434.389 409.456 433.984 410.736C433.6 412.016 433.408 413.584 433.408 415.44C433.408 417.296 433.6 418.864 433.984 420.144C434.389 421.424 434.976 422.395 435.744 423.056C436.533 423.696 437.493 424.016 438.624 424.016ZM462.018 416.304V418.96H451.458V416.304H462.018ZM474.843 426.32C472.453 426.32 470.544 425.392 469.115 423.536C467.685 421.68 466.971 418.981 466.971 415.44C466.971 411.899 467.685 409.2 469.115 407.344C470.544 405.488 472.453 404.56 474.843 404.56C477.253 404.56 479.163 405.488 480.571 407.344C482 409.2 482.715 411.899 482.715 415.44C482.715 418.981 482 421.68 480.571 423.536C479.163 425.392 477.253 426.32 474.843 426.32ZM474.843 424.016C475.973 424.016 476.923 423.696 477.691 423.056C478.48 422.395 479.067 421.424 479.451 420.144C479.856 418.864 480.059 417.296 480.059 415.44C480.059 413.584 479.856 412.016 479.451 410.736C479.067 409.456 478.48 408.496 477.691 407.856C476.923 407.195 475.973 406.864 474.843 406.864C473.712 406.864 472.752 407.195 471.963 407.856C471.195 408.496 470.608 409.456 470.203 410.736C469.819 412.016 469.627 413.584 469.627 415.44C469.627 417.296 469.819 418.864 470.203 420.144C470.608 421.424 471.195 422.395 471.963 423.056C472.752 423.696 473.712 424.016 474.843 424.016ZM494.749 426.32C492.36 426.32 490.45 425.392 489.021 423.536C487.592 421.68 486.877 418.981 486.877 415.44C486.877 411.899 487.592 409.2 489.021 407.344C490.45 405.488 492.36 404.56 494.749 404.56C497.16 404.56 499.069 405.488 500.477 407.344C501.906 409.2 502.621 411.899 502.621 415.44C502.621 418.981 501.906 421.68 500.477 423.536C499.069 425.392 497.16 426.32 494.749 426.32ZM494.749 424.016C495.88 424.016 496.829 423.696 497.597 423.056C498.386 422.395 498.973 421.424 499.357 420.144C499.762 418.864 499.965 417.296 499.965 415.44C499.965 413.584 499.762 412.016 499.357 410.736C498.973 409.456 498.386 408.496 497.597 407.856C496.829 407.195 495.88 406.864 494.749 406.864C493.618 406.864 492.658 407.195 491.869 407.856C491.101 408.496 490.514 409.456 490.109 410.736C489.725 412.016 489.533 413.584 489.533 415.44C489.533 417.296 489.725 418.864 490.109 420.144C490.514 421.424 491.101 422.395 491.869 423.056C492.658 423.696 493.618 424.016 494.749 424.016ZM518.143 416.304V418.96H507.583V416.304H518.143ZM530.968 426.32C528.578 426.32 526.669 425.392 525.24 423.536C523.81 421.68 523.096 418.981 523.096 415.44C523.096 411.899 523.81 409.2 525.24 407.344C526.669 405.488 528.578 404.56 530.968 404.56C533.378 404.56 535.288 405.488 536.696 407.344C538.125 409.2 538.84 411.899 538.84 415.44C538.84 418.981 538.125 421.68 536.696 423.536C535.288 425.392 533.378 426.32 530.968 426.32ZM530.968 424.016C532.098 424.016 533.048 423.696 533.816 423.056C534.605 422.395 535.192 421.424 535.576 420.144C535.981 418.864 536.184 417.296 536.184 415.44C536.184 413.584 535.981 412.016 535.576 410.736C535.192 409.456 534.605 408.496 533.816 407.856C533.048 407.195 532.098 406.864 530.968 406.864C529.837 406.864 528.877 407.195 528.088 407.856C527.32 408.496 526.733 409.456 526.328 410.736C525.944 412.016 525.752 413.584 525.752 415.44C525.752 417.296 525.944 418.864 526.328 420.144C526.733 421.424 527.32 422.395 528.088 423.056C528.877 423.696 529.837 424.016 530.968 424.016ZM550.874 426.32C548.485 426.32 546.575 425.392 545.146 423.536C543.717 421.68 543.002 418.981 543.002 415.44C543.002 411.899 543.717 409.2 545.146 407.344C546.575 405.488 548.485 404.56 550.874 404.56C553.285 404.56 555.194 405.488 556.602 407.344C558.031 409.2 558.746 411.899 558.746 415.44C558.746 418.981 558.031 421.68 556.602 423.536C555.194 425.392 553.285 426.32 550.874 426.32ZM550.874 424.016C552.005 424.016 552.954 423.696 553.722 423.056C554.511 422.395 555.098 421.424 555.482 420.144C555.887 418.864 556.09 417.296 556.09 415.44C556.09 413.584 555.887 412.016 555.482 410.736C555.098 409.456 554.511 408.496 553.722 407.856C552.954 407.195 552.005 406.864 550.874 406.864C549.743 406.864 548.783 407.195 547.994 407.856C547.226 408.496 546.639 409.456 546.234 410.736C545.85 412.016 545.658 413.584 545.658 415.44C545.658 417.296 545.85 418.864 546.234 420.144C546.639 421.424 547.226 422.395 547.994 423.056C548.783 423.696 549.743 424.016 550.874 424.016Z" fill="#61646B"/>
<g clip-path="url(#clip1_232_1679)">
<g clip-path="url(#clip2_232_1679)">
<g clip-path="url(#clip3_232_1679)">
<path d="M280.028 648V636.928H259.42V633.152L278.684 605.76H285.148V632.512H292.636V636.928H285.148V648H280.028ZM264.86 632.512H280.028V616.704C280.028 615.595 280.049 614.464 280.092 613.312C280.177 612.16 280.241 611.029 280.284 609.92H280.156C279.644 610.987 278.983 612.181 278.172 613.504C277.361 614.827 276.615 615.979 275.932 616.96L264.86 632.512Z" fill="#19191B"/>
</g>
</g>
<path d="M220 593.75H341.583V658.25H220C214.891 658.25 210.75 654.109 210.75 649V603C210.75 597.891 214.891 593.75 220 593.75Z" stroke="#19191B" stroke-width="1.5"/>
<g clip-path="url(#clip4_232_1679)">
<g clip-path="url(#clip5_232_1679)">
<path d="M406.743 648.64C402.988 648.64 399.959 647.787 397.655 646.08C395.394 644.373 393.644 642.005 392.407 638.976L397.399 636.352C398.082 638.571 399.127 640.384 400.535 641.792C401.986 643.157 404.098 643.84 406.871 643.84C408.834 643.84 410.498 643.477 411.863 642.752C413.271 642.027 414.359 641.003 415.127 639.68C415.895 638.315 416.279 636.693 416.279 634.816C416.279 632.811 415.916 631.147 415.191 629.824C414.508 628.459 413.506 627.435 412.183 626.752C410.86 626.069 409.239 625.728 407.319 625.728C405.954 625.728 404.674 625.877 403.479 626.176C402.327 626.432 401.282 626.859 400.343 627.456C399.404 628.053 398.594 628.843 397.911 629.824L393.431 628.992L395.927 605.76H419.671V610.56H400.279L398.615 623.872L398.487 624.448H398.615C399.639 623.381 400.94 622.528 402.519 621.888C404.14 621.248 406.06 620.928 408.279 620.928C410.967 620.928 413.292 621.504 415.255 622.656C417.26 623.765 418.818 625.344 419.927 627.392C421.036 629.44 421.591 631.829 421.591 634.56C421.591 636.736 421.228 638.699 420.503 640.448C419.778 642.197 418.754 643.691 417.431 644.928C416.108 646.123 414.53 647.04 412.695 647.68C410.903 648.32 408.919 648.64 406.743 648.64Z" fill="#19191B"/>
</g>
</g>
<rect x="341.583" y="593.75" width="130.833" height="64.5" stroke="#19191B" stroke-width="1.5"/>
<g clip-path="url(#clip6_232_1679)">
<g clip-path="url(#clip7_232_1679)">
<path d="M539.036 605.12C541.298 605.12 543.26 605.44 544.924 606.08C546.631 606.677 548.103 607.637 549.34 608.96C550.578 610.24 551.623 611.925 552.476 614.016L547.74 616.256C547.1 614.293 546.055 612.757 544.604 611.648C543.196 610.496 541.234 609.92 538.716 609.92C536.882 609.92 535.26 610.389 533.852 611.328C532.444 612.224 531.25 613.483 530.268 615.104C529.287 616.725 528.54 618.624 528.028 620.8C527.559 622.976 527.324 625.323 527.324 627.84C527.324 627.925 527.324 628.053 527.324 628.224C527.324 628.395 527.324 628.651 527.324 628.992H527.58C528.05 627.157 528.903 625.685 530.14 624.576C531.42 623.424 532.85 622.592 534.428 622.08C536.05 621.525 537.628 621.248 539.164 621.248C542.023 621.248 544.519 621.803 546.652 622.912C548.786 624.021 550.428 625.6 551.58 627.648C552.775 629.696 553.372 632.128 553.372 634.944C553.372 637.717 552.775 640.149 551.58 642.24C550.386 644.288 548.7 645.867 546.524 646.976C544.391 648.085 541.831 648.64 538.844 648.64C535.303 648.64 532.316 647.701 529.884 645.824C527.452 643.947 525.618 641.387 524.38 638.144C523.143 634.859 522.524 631.104 522.524 626.88C522.524 622.144 523.25 618.176 524.7 614.976C526.151 611.733 528.114 609.28 530.588 607.616C533.106 605.952 535.922 605.12 539.036 605.12ZM538.78 626.176C536.946 626.176 535.324 626.56 533.916 627.328C532.551 628.053 531.484 629.077 530.716 630.4C529.948 631.68 529.564 633.173 529.564 634.88C529.564 636.501 529.97 637.995 530.78 639.36C531.591 640.683 532.679 641.749 534.044 642.56C535.452 643.328 537.031 643.712 538.78 643.712C541.682 643.712 543.943 642.944 545.564 641.408C547.186 639.829 547.996 637.653 547.996 634.88C547.996 633.088 547.634 631.552 546.908 630.272C546.183 628.949 545.138 627.947 543.772 627.264C542.407 626.539 540.743 626.176 538.78 626.176Z" fill="#19191B"/>
</g>
</g>
<path d="M594 593.75C599.108 593.75 603.25 597.891 603.25 603V649C603.25 654.109 599.108 658.25 594 658.25H472.417V593.75H594Z" stroke="#19191B" stroke-width="1.5"/>
</g>
<g clip-path="url(#clip8_232_1679)">
<g clip-path="url(#clip9_232_1679)">
<g clip-path="url(#clip10_232_1679)">
<path d="M276.01 555V524.024C276.01 523.299 276.01 522.531 276.01 521.72C276.053 520.867 276.095 519.992 276.138 519.096C274.687 520.504 273.002 521.741 271.082 522.808C269.162 523.832 267.199 524.579 265.194 525.048L263.85 520.376C264.618 520.291 265.578 520.013 266.73 519.544C267.925 519.032 269.162 518.413 270.442 517.688C271.765 516.92 272.981 516.109 274.09 515.256C275.199 514.403 276.053 513.571 276.65 512.76H281.13V555H276.01Z" fill="#19191B"/>
</g>
</g>
<path d="M219 500.75H340.583V565.25H219C213.891 565.25 209.75 561.109 209.75 556V510C209.75 504.891 213.891 500.75 219 500.75Z" stroke="#19191B" stroke-width="1.5"/>
<g clip-path="url(#clip11_232_1679)">
<g clip-path="url(#clip12_232_1679)">
<path d="M392.08 555V550.84C396.304 547.725 399.824 544.995 402.64 542.648C405.499 540.301 407.781 538.168 409.488 536.248C411.195 534.328 412.411 532.515 413.136 530.808C413.861 529.059 414.224 527.245 414.224 525.368C414.224 522.851 413.413 520.824 411.792 519.288C410.213 517.709 408.037 516.92 405.264 516.92C402.363 516.92 400.037 517.88 398.288 519.8C396.539 521.677 395.515 524.195 395.216 527.352L390.736 524.664C391.12 522.189 391.909 520.013 393.104 518.136C394.341 516.259 395.984 514.787 398.032 513.72C400.123 512.653 402.597 512.12 405.456 512.12C407.632 512.12 409.573 512.44 411.28 513.08C413.029 513.72 414.523 514.637 415.76 515.832C416.997 516.984 417.936 518.371 418.576 519.992C419.259 521.613 419.6 523.405 419.6 525.368C419.6 528.013 418.96 530.616 417.68 533.176C416.4 535.693 414.288 538.339 411.344 541.112C408.4 543.885 404.411 546.957 399.376 550.328V550.392C399.845 550.349 400.485 550.328 401.296 550.328C402.149 550.285 402.981 550.264 403.792 550.264C404.645 550.221 405.285 550.2 405.712 550.2H420.496V555H392.08Z" fill="#19191B"/>
</g>
</g>
<rect x="340.583" y="500.75" width="130.833" height="64.5" stroke="#19191B" stroke-width="1.5"/>
<g clip-path="url(#clip13_232_1679)">
<g clip-path="url(#clip14_232_1679)">
<path d="M536.737 555.64C532.982 555.64 529.654 554.765 526.753 553.016C523.894 551.224 521.953 548.771 520.929 545.656L526.049 543.032C526.561 544.611 527.265 545.997 528.161 547.192C529.057 548.344 530.23 549.24 531.681 549.88C533.174 550.52 535.03 550.84 537.249 550.84C539.126 550.84 540.705 550.499 541.985 549.816C543.265 549.133 544.246 548.216 544.929 547.064C545.612 545.869 545.953 544.504 545.953 542.968C545.953 541.432 545.654 540.152 545.057 539.128C544.502 538.104 543.606 537.357 542.369 536.888C541.132 536.376 539.51 536.12 537.505 536.12C537.036 536.12 536.524 536.141 535.969 536.184C535.414 536.184 534.838 536.227 534.241 536.312V531.192C534.625 531.235 534.988 531.256 535.329 531.256C535.713 531.256 536.054 531.256 536.353 531.256C539.468 531.256 541.686 530.659 543.009 529.464C544.332 528.227 544.993 526.307 544.993 523.704C544.993 521.485 544.31 519.8 542.945 518.648C541.58 517.496 539.638 516.92 537.121 516.92C534.433 516.92 532.385 517.517 530.977 518.712C529.569 519.864 528.46 521.443 527.649 523.448L522.785 521.144C523.468 519.352 524.492 517.773 525.857 516.408C527.222 515.043 528.865 513.976 530.785 513.208C532.748 512.44 534.902 512.056 537.249 512.056C540.193 512.056 542.625 512.568 544.545 513.592C546.465 514.573 547.894 515.896 548.833 517.56C549.814 519.224 550.305 521.059 550.305 523.064C550.305 524.6 550.092 525.987 549.665 527.224C549.238 528.419 548.641 529.464 547.873 530.36C547.148 531.256 546.316 531.981 545.377 532.536C544.438 533.048 543.436 533.389 542.369 533.56V533.688C543.777 533.731 545.014 534.008 546.081 534.52C547.19 535.032 548.129 535.715 548.897 536.568C549.665 537.421 550.241 538.403 550.625 539.512C551.052 540.579 551.265 541.709 551.265 542.904C551.265 545.379 550.646 547.576 549.409 549.496C548.214 551.416 546.529 552.931 544.353 554.04C542.177 555.107 539.638 555.64 536.737 555.64Z" fill="#19191B"/>
</g>
</g>
<path d="M593 500.75C598.108 500.75 602.25 504.891 602.25 510V556C602.25 561.109 598.108 565.25 593 565.25H471.417V500.75H593Z" stroke="#19191B" stroke-width="1.5"/>
</g>
<g clip-path="url(#clip15_232_1679)">
<g clip-path="url(#clip16_232_1679)">
<g clip-path="url(#clip17_232_1679)">
<path d="M260.789 699.76H291.893V704.56C288.352 708.315 285.45 712.176 283.189 716.144C280.97 720.069 279.349 724.165 278.325 728.432C277.301 732.699 276.789 737.221 276.789 742H271.541C271.541 737.264 272.117 732.635 273.269 728.112C274.464 723.547 276.256 719.173 278.645 714.992C281.034 710.811 284 706.907 287.541 703.28L288.373 704.56H260.789V699.76Z" fill="#19191B"/>
</g>
</g>
<path d="M220 687.75H341.583V752.25H220C214.891 752.25 210.75 748.109 210.75 743V697C210.75 691.891 214.891 687.75 220 687.75Z" stroke="#19191B" stroke-width="1.5"/>
<g clip-path="url(#clip18_232_1679)">
<g clip-path="url(#clip19_232_1679)">
<path d="M406.993 699.184C409.724 699.184 412.092 699.632 414.097 700.528C416.103 701.424 417.66 702.704 418.769 704.368C419.879 705.989 420.433 707.952 420.433 710.256C420.433 712.432 419.9 714.352 418.833 716.016C417.809 717.637 416.359 718.875 414.481 719.728V719.792C416.871 720.688 418.769 722.053 420.177 723.888C421.628 725.723 422.353 727.963 422.353 730.608C422.353 733.083 421.713 735.216 420.433 737.008C419.153 738.8 417.361 740.187 415.057 741.168C412.796 742.149 410.108 742.64 406.993 742.64C403.921 742.64 401.233 742.149 398.929 741.168C396.625 740.187 394.833 738.8 393.553 737.008C392.273 735.216 391.633 733.083 391.633 730.608C391.633 728.005 392.337 725.787 393.745 723.952C395.153 722.075 397.095 720.688 399.569 719.792V719.728C397.735 718.917 396.263 717.701 395.153 716.08C394.087 714.416 393.553 712.475 393.553 710.256C393.553 707.952 394.108 705.989 395.217 704.368C396.327 702.704 397.884 701.424 399.889 700.528C401.937 699.632 404.305 699.184 406.993 699.184ZM406.993 703.984C404.519 703.984 402.535 704.581 401.041 705.776C399.591 706.971 398.865 708.635 398.865 710.768C398.865 712.859 399.612 714.501 401.105 715.696C402.599 716.891 404.561 717.488 406.993 717.488C409.425 717.488 411.388 716.891 412.881 715.696C414.375 714.501 415.121 712.859 415.121 710.768C415.121 708.635 414.396 706.971 412.945 705.776C411.495 704.581 409.511 703.984 406.993 703.984ZM406.993 737.84C409.084 737.84 410.876 737.541 412.369 736.944C413.863 736.304 415.015 735.408 415.825 734.256C416.636 733.061 417.041 731.675 417.041 730.096C417.041 728.475 416.615 727.088 415.761 725.936C414.951 724.741 413.799 723.845 412.305 723.248C410.812 722.608 409.041 722.288 406.993 722.288C404.988 722.288 403.217 722.608 401.681 723.248C400.188 723.845 399.015 724.741 398.161 725.936C397.351 727.088 396.945 728.475 396.945 730.096C396.945 731.675 397.351 733.061 398.161 734.256C398.972 735.408 400.124 736.304 401.617 736.944C403.153 737.541 404.945 737.84 406.993 737.84Z" fill="#19191B"/>
</g>
</g>
<rect x="341.583" y="687.75" width="130.833" height="64.5" stroke="#19191B" stroke-width="1.5"/>
<g clip-path="url(#clip20_232_1679)">
<g clip-path="url(#clip21_232_1679)">
<path d="M537.091 699.12C540.633 699.12 543.619 700.059 546.051 701.936C548.483 703.771 550.318 706.331 551.555 709.616C552.793 712.859 553.411 716.613 553.411 720.88C553.411 725.616 552.793 729.605 551.555 732.848C550.318 736.048 548.483 738.48 546.051 740.144C543.662 741.808 540.697 742.64 537.155 742.64C533.657 742.64 530.649 741.829 528.131 740.208C525.614 738.587 523.737 736.219 522.499 733.104L527.555 730.416C528.238 732.635 529.347 734.427 530.883 735.792C532.462 737.157 534.617 737.84 537.347 737.84C539.566 737.84 541.401 737.413 542.851 736.56C544.345 735.664 545.518 734.405 546.371 732.784C547.225 731.12 547.822 729.136 548.163 726.832C548.547 724.528 548.739 721.968 548.739 719.152C548.739 719.067 548.739 718.981 548.739 718.896C548.739 718.768 548.739 718.661 548.739 718.576H548.483C547.971 720.496 547.075 722.053 545.795 723.248C544.515 724.4 543.065 725.232 541.443 725.744C539.865 726.256 538.286 726.512 536.707 726.512C533.934 726.512 531.481 725.979 529.347 724.912C527.214 723.803 525.55 722.267 524.355 720.304C523.161 718.341 522.563 716.016 522.563 713.328C522.563 710.427 523.139 707.931 524.291 705.84C525.443 703.707 527.107 702.064 529.283 700.912C531.459 699.717 534.062 699.12 537.091 699.12ZM537.155 704.048C534.169 704.048 531.886 704.88 530.307 706.544C528.729 708.165 527.939 710.448 527.939 713.392C527.939 715.909 528.771 717.915 530.435 719.408C532.099 720.859 534.339 721.584 537.155 721.584C538.99 721.584 540.59 721.221 541.955 720.496C543.363 719.728 544.451 718.704 545.219 717.424C545.987 716.101 546.371 714.587 546.371 712.88C546.371 711.088 545.987 709.531 545.219 708.208C544.451 706.885 543.363 705.861 541.955 705.136C540.59 704.411 538.99 704.048 537.155 704.048Z" fill="#19191B"/>
</g>
</g>
<path d="M594 687.75C599.108 687.75 603.25 691.891 603.25 697V743C603.25 748.109 599.108 752.25 594 752.25H472.417V687.75H594Z" stroke="#19191B" stroke-width="1.5"/>
</g>
<g clip-path="url(#clip22_232_1679)">
<rect x="340" y="780" width="132" height="67" rx="8" fill="white"/>
<path d="M405.904 836.14C401.125 836.14 397.307 834.284 394.448 830.572C391.589 826.86 390.16 821.463 390.16 814.38C390.16 807.297 391.589 801.9 394.448 798.188C397.307 794.476 401.125 792.62 405.904 792.62C410.725 792.62 414.544 794.476 417.36 798.188C420.219 801.9 421.648 807.297 421.648 814.38C421.648 821.463 420.219 826.86 417.36 830.572C414.544 834.284 410.725 836.14 405.904 836.14ZM405.904 831.532C408.165 831.532 410.064 830.892 411.6 829.612C413.179 828.289 414.352 826.348 415.12 823.788C415.931 821.228 416.336 818.092 416.336 814.38C416.336 810.668 415.931 807.532 415.12 804.972C414.352 802.412 413.179 800.492 411.6 799.212C410.064 797.889 408.165 797.228 405.904 797.228C403.643 797.228 401.723 797.889 400.144 799.212C398.608 800.492 397.435 802.412 396.624 804.972C395.856 807.532 395.472 810.668 395.472 814.38C395.472 818.092 395.856 821.228 396.624 823.788C397.435 826.348 398.608 828.289 400.144 829.612C401.723 830.892 403.643 831.532 405.904 831.532Z" fill="black"/>
</g>
<rect x="340.5" y="780.5" width="131" height="66" rx="7.5" stroke="black"/>
<rect x="309" y="868" width="193" height="68" rx="16" fill="#3A00E5"/>
<path d="M374.928 892.008C376.589 892.008 377.98 892.167 379.1 892.484C380.239 892.801 381.088 893.324 381.648 894.052C382.227 894.78 382.516 895.751 382.516 896.964C382.516 897.748 382.367 898.448 382.068 899.064C381.788 899.661 381.359 900.165 380.78 900.576C380.22 900.968 379.529 901.239 378.708 901.388V901.528C379.548 901.659 380.304 901.901 380.976 902.256C381.667 902.611 382.208 903.115 382.6 903.768C382.992 904.421 383.188 905.271 383.188 906.316C383.188 907.529 382.908 908.565 382.348 909.424C381.788 910.264 380.985 910.908 379.94 911.356C378.913 911.785 377.681 912 376.244 912H369.216V892.008H374.928ZM375.432 900.52C377.149 900.52 378.325 900.249 378.96 899.708C379.595 899.148 379.912 898.327 379.912 897.244C379.912 896.143 379.52 895.359 378.736 894.892C377.971 894.407 376.739 894.164 375.04 894.164H371.736V900.52H375.432ZM371.736 902.62V909.872H375.768C377.541 909.872 378.773 909.527 379.464 908.836C380.155 908.145 380.5 907.24 380.5 906.12C380.5 905.411 380.341 904.795 380.024 904.272C379.725 903.749 379.212 903.348 378.484 903.068C377.775 902.769 376.804 902.62 375.572 902.62H371.736ZM393.139 892.008C394.8 892.008 396.191 892.167 397.311 892.484C398.45 892.801 399.299 893.324 399.859 894.052C400.438 894.78 400.727 895.751 400.727 896.964C400.727 897.748 400.578 898.448 400.279 899.064C399.999 899.661 399.57 900.165 398.991 900.576C398.431 900.968 397.74 901.239 396.919 901.388V901.528C397.759 901.659 398.515 901.901 399.187 902.256C399.878 902.611 400.419 903.115 400.811 903.768C401.203 904.421 401.399 905.271 401.399 906.316C401.399 907.529 401.119 908.565 400.559 909.424C399.999 910.264 399.196 910.908 398.151 911.356C397.124 911.785 395.892 912 394.455 912H387.427V892.008H393.139ZM393.643 900.52C395.36 900.52 396.536 900.249 397.171 899.708C397.806 899.148 398.123 898.327 398.123 897.244C398.123 896.143 397.731 895.359 396.947 894.892C396.182 894.407 394.95 894.164 393.251 894.164H389.947V900.52H393.643ZM389.947 902.62V909.872H393.979C395.752 909.872 396.984 909.527 397.675 908.836C398.366 908.145 398.711 907.24 398.711 906.12C398.711 905.411 398.552 904.795 398.235 904.272C397.936 903.749 397.423 903.348 396.695 903.068C395.986 902.769 395.015 902.62 393.783 902.62H389.947ZM423.082 901.976C423.082 903.525 422.886 904.935 422.494 906.204C422.102 907.455 421.514 908.537 420.73 909.452C419.965 910.367 419.003 911.067 417.846 911.552C416.707 912.037 415.382 912.28 413.87 912.28C412.302 912.28 410.939 912.037 409.782 911.552C408.625 911.048 407.663 910.348 406.898 909.452C406.133 908.537 405.563 907.445 405.19 906.176C404.817 904.907 404.63 903.497 404.63 901.948C404.63 899.895 404.966 898.103 405.638 896.572C406.31 895.041 407.327 893.847 408.69 892.988C410.071 892.129 411.807 891.7 413.898 891.7C415.895 891.7 417.575 892.129 418.938 892.988C420.301 893.828 421.327 895.023 422.018 896.572C422.727 898.103 423.082 899.904 423.082 901.976ZM407.29 901.976C407.29 903.656 407.523 905.103 407.99 906.316C408.457 907.529 409.175 908.463 410.146 909.116C411.135 909.769 412.377 910.096 413.87 910.096C415.382 910.096 416.614 909.769 417.566 909.116C418.537 908.463 419.255 907.529 419.722 906.316C420.189 905.103 420.422 903.656 420.422 901.976C420.422 899.456 419.899 897.487 418.854 896.068C417.809 894.631 416.157 893.912 413.898 893.912C412.386 893.912 411.135 894.239 410.146 894.892C409.175 895.527 408.457 896.451 407.99 897.664C407.523 898.859 407.29 900.296 407.29 901.976ZM440.434 892.008V909.76H442.982V917.264H440.574V912H426.826V917.264H424.418V909.76H425.958C426.63 908.603 427.265 907.305 427.862 905.868C428.478 904.431 429.019 902.928 429.486 901.36C429.953 899.773 430.335 898.187 430.634 896.6C430.933 895.013 431.119 893.483 431.194 892.008H440.434ZM433.406 894.276C433.331 895.359 433.145 896.581 432.846 897.944C432.566 899.307 432.202 900.707 431.754 902.144C431.325 903.563 430.839 904.935 430.298 906.26C429.775 907.585 429.215 908.752 428.618 909.76H437.942V894.276H433.406Z" fill="white"/>
<defs>
<clipPath id="clip0_232_1679">
<rect width="371" height="56" fill="white" transform="translate(221 303)"/>
</clipPath>
<clipPath id="clip1_232_1679">
<rect width="394" height="66" fill="white" transform="translate(210 593)"/>
</clipPath>
<clipPath id="clip2_232_1679">
<path d="M210 603C210 597.477 214.477 593 220 593H342.333V659H220C214.477 659 210 654.523 210 649V603Z" fill="white"/>
</clipPath>
<clipPath id="clip3_232_1679">
<rect width="92.3333" height="72" fill="white" transform="translate(230 590)"/>
</clipPath>
<clipPath id="clip4_232_1679">
<rect x="340.833" y="593" width="132.333" height="66" fill="white"/>
</clipPath>
<clipPath id="clip5_232_1679">
<rect width="92.3333" height="72" fill="white" transform="translate(360.833 590)"/>
</clipPath>
<clipPath id="clip6_232_1679">
<path d="M471.667 593H594C599.523 593 604 597.477 604 603V649C604 654.523 599.523 659 594 659H471.667V593Z" fill="white"/>
</clipPath>
<clipPath id="clip7_232_1679">
<rect width="92.3333" height="72" fill="white" transform="translate(491.667 590)"/>
</clipPath>
<clipPath id="clip8_232_1679">
<rect width="394" height="66" fill="white" transform="translate(209 500)"/>
</clipPath>
<clipPath id="clip9_232_1679">
<path d="M209 510C209 504.477 213.477 500 219 500H341.333V566H219C213.477 566 209 561.523 209 556V510Z" fill="white"/>
</clipPath>
<clipPath id="clip10_232_1679">
<rect width="92.3333" height="72" fill="white" transform="translate(229 497)"/>
</clipPath>
<clipPath id="clip11_232_1679">
<rect x="339.833" y="500" width="132.333" height="66" fill="white"/>
</clipPath>
<clipPath id="clip12_232_1679">
<rect width="92.3333" height="72" fill="white" transform="translate(359.833 497)"/>
</clipPath>
<clipPath id="clip13_232_1679">
<path d="M470.667 500H593C598.523 500 603 504.477 603 510V556C603 561.523 598.523 566 593 566H470.667V500Z" fill="white"/>
</clipPath>
<clipPath id="clip14_232_1679">
<rect width="92.3333" height="72" fill="white" transform="translate(490.667 497)"/>
</clipPath>
<clipPath id="clip15_232_1679">
<rect width="394" height="66" fill="white" transform="translate(210 687)"/>
</clipPath>
<clipPath id="clip16_232_1679">
<path d="M210 697C210 691.477 214.477 687 220 687H342.333V753H220C214.477 753 210 748.523 210 743V697Z" fill="white"/>
</clipPath>
<clipPath id="clip17_232_1679">
<rect width="92.3333" height="72" fill="white" transform="translate(230 684)"/>
</clipPath>
<clipPath id="clip18_232_1679">
<rect x="340.833" y="687" width="132.333" height="66" fill="white"/>
</clipPath>
<clipPath id="clip19_232_1679">
<rect width="92.3333" height="72" fill="white" transform="translate(360.833 684)"/>
</clipPath>
<clipPath id="clip20_232_1679">
<path d="M471.667 687H594C599.523 687 604 691.477 604 697V743C604 748.523 599.523 753 594 753H471.667V687Z" fill="white"/>
</clipPath>
<clipPath id="clip21_232_1679">
<rect width="92.3333" height="72" fill="white" transform="translate(491.667 684)"/>
</clipPath>
<clipPath id="clip22_232_1679">
<rect x="340" y="780" width="132" height="67" rx="8" fill="white"/>
</clipPath>
</defs>
</svg>
