<svg width="834" height="1194" viewBox="0 0 834 1194" fill="none" xmlns="http://www.w3.org/2000/svg">
<rect x="0.5" y="0.5" width="833" height="1193" fill="white"/>
<rect x="0.5" y="0.5" width="833" height="1193" stroke="black"/>
<rect x="48.5" y="279.5" width="729" height="437" rx="9.5" stroke="#AFB1B6"/>
<rect x="97" y="513" width="297" height="168" rx="8" fill="#3A00E5"/>
<path d="M170.844 582.04C169.02 582.04 167.372 582.36 165.9 583C164.428 583.608 163.18 584.52 162.156 585.736C161.132 586.92 160.348 588.376 159.804 590.104C159.26 591.8 158.988 593.72 158.988 595.864C158.988 598.68 159.42 601.128 160.284 603.208C161.18 605.288 162.492 606.888 164.22 608.008C165.98 609.128 168.172 609.688 170.796 609.688C172.3 609.688 173.724 609.56 175.068 609.304C176.412 609.048 177.724 608.728 179.004 608.344V612.088C177.724 612.568 176.396 612.92 175.02 613.144C173.676 613.368 172.06 613.48 170.172 613.48C166.684 613.48 163.772 612.76 161.436 611.32C159.1 609.88 157.34 607.832 156.156 605.176C155.004 602.52 154.428 599.4 154.428 595.816C154.428 593.224 154.78 590.856 155.484 588.712C156.22 586.568 157.276 584.712 158.652 583.144C160.06 581.576 161.788 580.376 163.836 579.544C165.884 578.68 168.236 578.248 170.892 578.248C172.652 578.248 174.348 578.424 175.98 578.776C177.612 579.128 179.068 579.624 180.348 580.264L178.62 583.912C177.564 583.432 176.38 583 175.068 582.616C173.788 582.232 172.38 582.04 170.844 582.04ZM212.588 613.48C210.316 613.48 208.284 613.016 206.492 612.088C204.732 611.16 203.34 609.72 202.316 607.768C201.324 605.816 200.828 603.32 200.828 600.28C200.828 597.112 201.356 594.536 202.412 592.552C203.468 590.568 204.892 589.112 206.684 588.184C208.508 587.256 210.572 586.792 212.876 586.792C214.188 586.792 215.452 586.936 216.668 587.224C217.884 587.48 218.876 587.8 219.644 588.184L218.348 591.688C217.58 591.4 216.684 591.128 215.66 590.872C214.636 590.616 213.676 590.488 212.78 590.488C211.052 590.488 209.628 590.856 208.508 591.592C207.388 592.328 206.556 593.416 206.012 594.856C205.468 596.296 205.196 598.088 205.196 600.232C205.196 602.28 205.468 604.024 206.012 605.464C206.556 606.904 207.372 607.992 208.46 608.728C209.548 609.464 210.908 609.832 212.54 609.832C213.948 609.832 215.18 609.688 216.236 609.4C217.324 609.112 218.316 608.76 219.212 608.344V612.088C218.348 612.536 217.388 612.872 216.332 613.096C215.308 613.352 214.06 613.48 212.588 613.48ZM247.698 600.088C247.698 602.232 247.41 604.136 246.834 605.8C246.29 607.432 245.49 608.824 244.434 609.976C243.41 611.128 242.146 612.008 240.642 612.616C239.17 613.192 237.522 613.48 235.698 613.48C234.002 613.48 232.434 613.192 230.994 612.616C229.554 612.008 228.306 611.128 227.25 609.976C226.194 608.824 225.362 607.432 224.754 605.8C224.178 604.136 223.89 602.232 223.89 600.088C223.89 597.24 224.37 594.84 225.33 592.888C226.29 590.904 227.666 589.4 229.458 588.376C231.25 587.32 233.378 586.792 235.842 586.792C238.178 586.792 240.226 587.32 241.986 588.376C243.778 589.4 245.17 590.904 246.162 592.888C247.186 594.84 247.698 597.24 247.698 600.088ZM228.258 600.088C228.258 602.104 228.514 603.864 229.026 605.368C229.57 606.84 230.402 607.976 231.522 608.776C232.642 609.576 234.066 609.976 235.794 609.976C237.522 609.976 238.946 609.576 240.066 608.776C241.186 607.976 242.002 606.84 242.514 605.368C243.058 603.864 243.33 602.104 243.33 600.088C243.33 598.04 243.058 596.296 242.514 594.856C241.97 593.416 241.138 592.312 240.018 591.544C238.93 590.744 237.506 590.344 235.746 590.344C233.122 590.344 231.218 591.208 230.034 592.936C228.85 594.664 228.258 597.048 228.258 600.088ZM253.049 597.544C253.049 593.8 253.417 590.616 254.153 587.992C254.921 585.336 256.089 583.224 257.657 581.656C259.257 580.056 261.305 578.984 263.801 578.44C265.881 577.992 267.913 577.592 269.897 577.24C271.881 576.888 273.737 576.568 275.465 576.28L276.185 579.976C275.353 580.104 274.425 580.264 273.401 580.456C272.377 580.616 271.337 580.792 270.281 580.984C269.225 581.144 268.201 581.32 267.209 581.512C266.249 581.672 265.401 581.832 264.665 581.992C263.609 582.216 262.665 582.6 261.833 583.144C261.001 583.656 260.281 584.36 259.673 585.256C259.097 586.152 258.633 587.256 258.281 588.568C257.929 589.88 257.721 591.432 257.657 593.224H257.945C258.393 592.616 259.001 591.992 259.769 591.352C260.569 590.712 261.513 590.168 262.601 589.72C263.721 589.272 264.985 589.048 266.393 589.048C268.633 589.048 270.489 589.544 271.961 590.536C273.465 591.496 274.585 592.84 275.321 594.568C276.089 596.296 276.473 598.312 276.473 600.616C276.473 603.464 275.977 605.848 274.984 607.768C273.993 609.688 272.617 611.128 270.857 612.088C269.097 613.016 267.049 613.48 264.713 613.48C262.953 613.48 261.353 613.144 259.913 612.472C258.473 611.768 257.241 610.744 256.217 609.4C255.193 608.056 254.409 606.392 253.865 604.408C253.321 602.424 253.049 600.136 253.049 597.544ZM265.049 609.976C266.457 609.976 267.673 609.688 268.697 609.112C269.753 608.536 270.569 607.592 271.145 606.28C271.721 604.968 272.009 603.224 272.009 601.048C272.009 598.424 271.513 596.36 270.521 594.856C269.561 593.32 267.961 592.552 265.721 592.552C264.313 592.552 263.033 592.872 261.881 593.512C260.729 594.12 259.769 594.824 259.001 595.624C258.233 596.424 257.689 597.096 257.368 597.64C257.368 599.208 257.481 600.728 257.705 602.2C257.929 603.672 258.313 605 258.857 606.184C259.433 607.336 260.217 608.264 261.209 608.968C262.233 609.64 263.513 609.976 265.049 609.976ZM305.495 600.088C305.495 602.232 305.207 604.136 304.631 605.8C304.087 607.432 303.287 608.824 302.231 609.976C301.207 611.128 299.943 612.008 298.439 612.616C296.967 613.192 295.319 613.48 293.495 613.48C291.799 613.48 290.231 613.192 288.791 612.616C287.351 612.008 286.103 611.128 285.047 609.976C283.991 608.824 283.159 607.432 282.551 605.8C281.975 604.136 281.687 602.232 281.687 600.088C281.687 597.24 282.167 594.84 283.127 592.888C284.087 590.904 285.463 589.4 287.255 588.376C289.047 587.32 291.175 586.792 293.639 586.792C295.975 586.792 298.023 587.32 299.783 588.376C301.575 589.4 302.967 590.904 303.959 592.888C304.983 594.84 305.495 597.24 305.495 600.088ZM286.055 600.088C286.055 602.104 286.311 603.864 286.823 605.368C287.367 606.84 288.199 607.976 289.319 608.776C290.439 609.576 291.863 609.976 293.591 609.976C295.319 609.976 296.743 609.576 297.863 608.776C298.983 607.976 299.799 606.84 300.311 605.368C300.855 603.864 301.127 602.104 301.127 600.088C301.127 598.04 300.855 596.296 300.311 594.856C299.767 593.416 298.935 592.312 297.815 591.544C296.727 590.744 295.303 590.344 293.543 590.344C290.919 590.344 289.015 591.208 287.831 592.936C286.647 594.664 286.055 597.048 286.055 600.088ZM333.021 576.616C332.893 578.216 332.493 579.56 331.821 580.648C331.181 581.736 330.221 582.552 328.941 583.096C327.661 583.64 325.997 583.912 323.949 583.912C321.869 583.912 320.189 583.64 318.909 583.096C317.661 582.552 316.749 581.752 316.173 580.696C315.597 579.608 315.245 578.248 315.117 576.616H319.053C319.213 578.344 319.661 579.512 320.397 580.12C321.165 580.696 322.381 580.984 324.045 580.984C325.517 580.984 326.669 580.68 327.501 580.072C328.365 579.432 328.877 578.28 329.037 576.616H333.021ZM316.173 602.968C316.173 603.256 316.157 603.672 316.125 604.216C316.125 604.728 316.109 605.288 316.077 605.896C316.045 606.472 316.013 607.032 315.981 607.576C315.949 608.088 315.917 608.504 315.885 608.824L329.661 587.272H334.845V613H330.909V597.832C330.909 597.32 330.909 596.648 330.909 595.816C330.941 594.984 330.973 594.168 331.005 593.368C331.037 592.536 331.069 591.912 331.101 591.496L317.421 613H312.189V587.272H316.173V602.968Z" fill="white"/>
<rect x="433" y="513" width="297" height="168" rx="8" fill="#3A00E5"/>
<path d="M474.364 613H470.044V597.016H452.476V613H448.156V578.728H452.476V593.224H470.044V578.728H474.364V613ZM492.902 586.84C496.038 586.84 498.358 587.528 499.862 588.904C501.366 590.28 502.118 592.472 502.118 595.48V613H499.046L498.23 609.352H498.038C497.302 610.28 496.534 611.064 495.734 611.704C494.966 612.312 494.07 612.76 493.046 613.048C492.054 613.336 490.838 613.48 489.398 613.48C487.862 613.48 486.47 613.208 485.222 612.664C484.006 612.12 483.046 611.288 482.342 610.168C481.638 609.016 481.286 607.576 481.286 605.848C481.286 603.288 482.294 601.32 484.31 599.944C486.326 598.536 489.43 597.768 493.622 597.64L497.99 597.496V595.96C497.99 593.816 497.526 592.328 496.598 591.496C495.67 590.664 494.358 590.248 492.662 590.248C491.318 590.248 490.038 590.456 488.822 590.872C487.606 591.256 486.47 591.704 485.414 592.216L484.118 589.048C485.238 588.44 486.566 587.928 488.102 587.512C489.638 587.064 491.238 586.84 492.902 586.84ZM494.15 600.568C490.95 600.696 488.726 601.208 487.478 602.104C486.262 603 485.654 604.264 485.654 605.896C485.654 607.336 486.086 608.392 486.95 609.064C487.846 609.736 488.982 610.072 490.358 610.072C492.534 610.072 494.342 609.48 495.782 608.296C497.222 607.08 497.942 605.224 497.942 602.728V600.424L494.15 600.568ZM548.168 587.272V613H543.944V590.872H530.648V613H526.424V587.272H548.168ZM578.745 600.088C578.745 602.232 578.457 604.136 577.881 605.8C577.337 607.432 576.537 608.824 575.481 609.976C574.457 611.128 573.193 612.008 571.689 612.616C570.217 613.192 568.569 613.48 566.745 613.48C565.049 613.48 563.481 613.192 562.041 612.616C560.601 612.008 559.353 611.128 558.297 609.976C557.241 608.824 556.409 607.432 555.801 605.8C555.225 604.136 554.937 602.232 554.937 600.088C554.937 597.24 555.417 594.84 556.377 592.888C557.337 590.904 558.713 589.4 560.505 588.376C562.297 587.32 564.425 586.792 566.889 586.792C569.225 586.792 571.273 587.32 573.033 588.376C574.825 589.4 576.217 590.904 577.209 592.888C578.233 594.84 578.745 597.24 578.745 600.088ZM559.305 600.088C559.305 602.104 559.561 603.864 560.073 605.368C560.617 606.84 561.449 607.976 562.569 608.776C563.689 609.576 565.113 609.976 566.841 609.976C568.569 609.976 569.993 609.576 571.113 608.776C572.233 607.976 573.049 606.84 573.561 605.368C574.105 603.864 574.377 602.104 574.377 600.088C574.377 598.04 574.105 596.296 573.561 594.856C573.017 593.416 572.185 592.312 571.065 591.544C569.977 590.744 568.553 590.344 566.793 590.344C564.169 590.344 562.265 591.208 561.081 592.936C559.897 594.664 559.305 597.048 559.305 600.088ZM604.543 587.272V609.448H608.287V621.928H604.207V613H586.303V621.928H582.271V609.448H584.335C585.807 607.4 587.023 605.176 587.983 602.776C588.975 600.344 589.711 597.816 590.191 595.192C590.703 592.536 590.975 589.896 591.007 587.272H604.543ZM594.751 590.584C594.623 592.76 594.287 595.016 593.743 597.352C593.199 599.656 592.495 601.864 591.631 603.976C590.799 606.088 589.823 607.912 588.703 609.448H600.463V590.584H594.751ZM617.554 587.272V597.976H631.522V587.272H635.746V613H631.522V601.528H617.554V613H613.33V587.272H617.554ZM666.26 600.088C666.26 602.232 665.973 604.136 665.397 605.8C664.853 607.432 664.053 608.824 662.997 609.976C661.973 611.128 660.709 612.008 659.205 612.616C657.733 613.192 656.085 613.48 654.261 613.48C652.565 613.48 650.997 613.192 649.557 612.616C648.117 612.008 646.869 611.128 645.812 609.976C644.757 608.824 643.925 607.432 643.317 605.8C642.741 604.136 642.453 602.232 642.453 600.088C642.453 597.24 642.933 594.84 643.893 592.888C644.853 590.904 646.229 589.4 648.021 588.376C649.813 587.32 651.941 586.792 654.405 586.792C656.741 586.792 658.789 587.32 660.549 588.376C662.341 589.4 663.733 590.904 664.725 592.888C665.749 594.84 666.26 597.24 666.26 600.088ZM646.821 600.088C646.821 602.104 647.077 603.864 647.589 605.368C648.133 606.84 648.965 607.976 650.085 608.776C651.205 609.576 652.629 609.976 654.357 609.976C656.085 609.976 657.509 609.576 658.629 608.776C659.749 607.976 660.565 606.84 661.077 605.368C661.621 603.864 661.893 602.104 661.893 600.088C661.893 598.04 661.621 596.296 661.077 594.856C660.533 593.416 659.701 592.312 658.581 591.544C657.493 590.744 656.069 590.344 654.309 590.344C651.685 590.344 649.781 591.208 648.597 592.936C647.413 594.664 646.821 597.048 646.821 600.088ZM683.275 613.48C681.003 613.48 678.971 613.016 677.179 612.088C675.419 611.16 674.027 609.72 673.003 607.768C672.011 605.816 671.515 603.32 671.515 600.28C671.515 597.112 672.043 594.536 673.099 592.552C674.155 590.568 675.579 589.112 677.371 588.184C679.195 587.256 681.259 586.792 683.563 586.792C684.875 586.792 686.139 586.936 687.355 587.224C688.571 587.48 689.563 587.8 690.331 588.184L689.035 591.688C688.267 591.4 687.371 591.128 686.347 590.872C685.323 590.616 684.363 590.488 683.467 590.488C681.739 590.488 680.315 590.856 679.195 591.592C678.075 592.328 677.243 593.416 676.699 594.856C676.155 596.296 675.883 598.088 675.883 600.232C675.883 602.28 676.155 604.024 676.699 605.464C677.243 606.904 678.059 607.992 679.147 608.728C680.235 609.464 681.595 609.832 683.227 609.832C684.635 609.832 685.867 609.688 686.923 609.4C688.011 609.112 689.003 608.76 689.899 608.344V612.088C689.035 612.536 688.075 612.872 687.019 613.096C685.995 613.352 684.747 613.48 683.275 613.48ZM705.954 586.792C708.162 586.792 710.05 587.272 711.618 588.232C713.218 589.192 714.434 590.552 715.266 592.312C716.13 594.04 716.562 596.072 716.562 598.408V600.952H698.946C699.01 603.864 699.746 606.088 701.154 607.624C702.594 609.128 704.594 609.88 707.154 609.88C708.786 609.88 710.226 609.736 711.474 609.448C712.754 609.128 714.066 608.68 715.41 608.104V611.8C714.098 612.376 712.802 612.792 711.522 613.048C710.242 613.336 708.722 613.48 706.962 613.48C704.53 613.48 702.37 612.984 700.482 611.992C698.626 611 697.17 609.528 696.114 607.576C695.09 605.592 694.578 603.176 694.578 600.328C694.578 597.512 695.042 595.096 695.97 593.08C696.93 591.064 698.258 589.512 699.954 588.424C701.682 587.336 703.682 586.792 705.954 586.792ZM705.906 590.248C703.89 590.248 702.29 590.904 701.106 592.216C699.954 593.496 699.266 595.288 699.042 597.592H712.146C712.146 596.12 711.922 594.84 711.474 593.752C711.026 592.664 710.338 591.816 709.41 591.208C708.514 590.568 707.346 590.248 705.906 590.248Z" fill="white"/>
<g clip-path="url(#clip0_208_2046)">
<path d="M172.664 440H167.48L151.976 422.624V440H147.656V405.728H151.976V422.336L167.096 405.728H171.992L157.112 422.384L172.664 440ZM186.496 413.84C189.632 413.84 191.952 414.528 193.456 415.904C194.96 417.28 195.712 419.472 195.712 422.48V440H192.64L191.824 436.352H191.632C190.896 437.28 190.128 438.064 189.328 438.704C188.56 439.312 187.664 439.76 186.64 440.048C185.648 440.336 184.432 440.48 182.992 440.48C181.456 440.48 180.064 440.208 178.816 439.664C177.6 439.12 176.64 438.288 175.936 437.168C175.232 436.016 174.88 434.576 174.88 432.848C174.88 430.288 175.888 428.32 177.904 426.944C179.92 425.536 183.024 424.768 187.216 424.64L191.584 424.496V422.96C191.584 420.816 191.12 419.328 190.192 418.496C189.264 417.664 187.952 417.248 186.256 417.248C184.912 417.248 183.632 417.456 182.416 417.872C181.2 418.256 180.064 418.704 179.008 419.216L177.712 416.048C178.832 415.44 180.16 414.928 181.696 414.512C183.232 414.064 184.832 413.84 186.496 413.84ZM187.744 427.568C184.544 427.696 182.32 428.208 181.072 429.104C179.856 430 179.248 431.264 179.248 432.896C179.248 434.336 179.68 435.392 180.544 436.064C181.44 436.736 182.576 437.072 183.952 437.072C186.128 437.072 187.936 436.48 189.376 435.296C190.816 434.08 191.536 432.224 191.536 429.728V427.424L187.744 427.568ZM218.874 414.272H223.482L212.49 426.656L224.394 440H219.498L207.882 426.944V440H203.658V414.272H207.882V426.752L218.874 414.272ZM266.112 420.752C266.112 422.352 265.632 423.6 264.672 424.496C263.712 425.392 262.48 426 260.976 426.32V426.512C262.576 426.736 263.968 427.312 265.152 428.24C266.336 429.136 266.928 430.544 266.928 432.464C266.928 433.552 266.72 434.56 266.304 435.488C265.92 436.416 265.312 437.216 264.48 437.888C263.648 438.56 262.576 439.088 261.264 439.472C259.952 439.824 258.368 440 256.512 440H245.424V414.272H256.464C258.288 414.272 259.92 414.48 261.36 414.896C262.832 415.28 263.984 415.952 264.816 416.912C265.68 417.84 266.112 419.12 266.112 420.752ZM262.56 432.464C262.56 430.992 262 429.936 260.88 429.296C259.76 428.656 258.112 428.336 255.936 428.336H249.648V436.592H256.032C258.144 436.592 259.76 436.288 260.88 435.68C262 435.04 262.56 433.968 262.56 432.464ZM261.84 421.28C261.84 420.064 261.392 419.184 260.496 418.64C259.632 418.064 258.208 417.776 256.224 417.776H249.648V424.832H255.456C257.536 424.832 259.12 424.544 260.208 423.968C261.296 423.392 261.84 422.496 261.84 421.28ZM282.824 413.84C285.96 413.84 288.28 414.528 289.784 415.904C291.288 417.28 292.04 419.472 292.04 422.48V440H288.968L288.152 436.352H287.96C287.224 437.28 286.456 438.064 285.656 438.704C284.888 439.312 283.992 439.76 282.968 440.048C281.976 440.336 280.76 440.48 279.32 440.48C277.784 440.48 276.392 440.208 275.144 439.664C273.928 439.12 272.968 438.288 272.264 437.168C271.56 436.016 271.208 434.576 271.208 432.848C271.208 430.288 272.216 428.32 274.232 426.944C276.248 425.536 279.352 424.768 283.544 424.64L287.912 424.496V422.96C287.912 420.816 287.448 419.328 286.52 418.496C285.592 417.664 284.28 417.248 282.584 417.248C281.24 417.248 279.96 417.456 278.744 417.872C277.528 418.256 276.392 418.704 275.336 419.216L274.04 416.048C275.16 415.44 276.488 414.928 278.024 414.512C279.56 414.064 281.16 413.84 282.824 413.84ZM284.072 427.568C280.872 427.696 278.648 428.208 277.4 429.104C276.184 430 275.576 431.264 275.576 432.896C275.576 434.336 276.008 435.392 276.872 436.064C277.768 436.736 278.904 437.072 280.28 437.072C282.456 437.072 284.264 436.48 285.704 435.296C287.144 434.08 287.864 432.224 287.864 429.728V427.424L284.072 427.568ZM327.586 414.272V440H323.794V423.584C323.794 422.912 323.81 422.208 323.842 421.472C323.906 420.736 323.97 420.016 324.034 419.312H323.89L315.49 440H311.938L303.778 419.312H303.634C303.698 420.016 303.73 420.736 303.73 421.472C303.762 422.208 303.778 422.96 303.778 423.728V440H299.986V414.272H305.602L313.714 434.96L321.97 414.272H327.586ZM362.478 440.48C360.206 440.48 358.174 440.016 356.382 439.088C354.622 438.16 353.23 436.72 352.206 434.768C351.214 432.816 350.718 430.32 350.718 427.28C350.718 424.112 351.246 421.536 352.302 419.552C353.358 417.568 354.782 416.112 356.574 415.184C358.398 414.256 360.462 413.792 362.766 413.792C364.078 413.792 365.342 413.936 366.558 414.224C367.774 414.48 368.766 414.8 369.534 415.184L368.238 418.688C367.47 418.4 366.574 418.128 365.55 417.872C364.526 417.616 363.566 417.488 362.67 417.488C360.942 417.488 359.518 417.856 358.398 418.592C357.278 419.328 356.446 420.416 355.902 421.856C355.358 423.296 355.086 425.088 355.086 427.232C355.086 429.28 355.358 431.024 355.902 432.464C356.446 433.904 357.262 434.992 358.35 435.728C359.438 436.464 360.798 436.832 362.43 436.832C363.838 436.832 365.07 436.688 366.126 436.4C367.214 436.112 368.206 435.76 369.102 435.344V439.088C368.238 439.536 367.278 439.872 366.222 440.096C365.198 440.352 363.95 440.48 362.478 440.48ZM397.589 427.088C397.589 429.232 397.301 431.136 396.725 432.8C396.181 434.432 395.381 435.824 394.325 436.976C393.301 438.128 392.037 439.008 390.533 439.616C389.061 440.192 387.413 440.48 385.589 440.48C383.893 440.48 382.325 440.192 380.885 439.616C379.445 439.008 378.197 438.128 377.141 436.976C376.085 435.824 375.253 434.432 374.645 432.8C374.069 431.136 373.781 429.232 373.781 427.088C373.781 424.24 374.261 421.84 375.221 419.888C376.181 417.904 377.557 416.4 379.349 415.376C381.141 414.32 383.269 413.792 385.733 413.792C388.069 413.792 390.117 414.32 391.877 415.376C393.669 416.4 395.061 417.904 396.053 419.888C397.077 421.84 397.589 424.24 397.589 427.088ZM378.149 427.088C378.149 429.104 378.405 430.864 378.917 432.368C379.461 433.84 380.293 434.976 381.413 435.776C382.533 436.576 383.957 436.976 385.685 436.976C387.413 436.976 388.837 436.576 389.957 435.776C391.077 434.976 391.893 433.84 392.405 432.368C392.949 430.864 393.221 429.104 393.221 427.088C393.221 425.04 392.949 423.296 392.405 421.856C391.861 420.416 391.029 419.312 389.909 418.544C388.821 417.744 387.397 417.344 385.637 417.344C383.013 417.344 381.109 418.208 379.925 419.936C378.741 421.664 378.149 424.048 378.149 427.088ZM402.939 424.544C402.939 420.8 403.307 417.616 404.043 414.992C404.811 412.336 405.979 410.224 407.547 408.656C409.147 407.056 411.195 405.984 413.691 405.44C415.771 404.992 417.803 404.592 419.787 404.24C421.771 403.888 423.627 403.568 425.355 403.28L426.075 406.976C425.243 407.104 424.315 407.264 423.291 407.456C422.267 407.616 421.227 407.792 420.171 407.984C419.115 408.144 418.091 408.32 417.099 408.512C416.139 408.672 415.291 408.832 414.555 408.992C413.499 409.216 412.555 409.6 411.723 410.144C410.891 410.656 410.171 411.36 409.563 412.256C408.987 413.152 408.523 414.256 408.171 415.568C407.819 416.88 407.611 418.432 407.547 420.224H407.835C408.283 419.616 408.891 418.992 409.659 418.352C410.459 417.712 411.403 417.168 412.491 416.72C413.611 416.272 414.875 416.048 416.283 416.048C418.523 416.048 420.379 416.544 421.851 417.536C423.355 418.496 424.475 419.84 425.211 421.568C425.979 423.296 426.363 425.312 426.363 427.616C426.363 430.464 425.867 432.848 424.875 434.768C423.883 436.688 422.507 438.128 420.747 439.088C418.987 440.016 416.939 440.48 414.603 440.48C412.843 440.48 411.243 440.144 409.803 439.472C408.363 438.768 407.131 437.744 406.107 436.4C405.083 435.056 404.299 433.392 403.755 431.408C403.211 429.424 402.939 427.136 402.939 424.544ZM414.939 436.976C416.347 436.976 417.563 436.688 418.587 436.112C419.643 435.536 420.459 434.592 421.035 433.28C421.611 431.968 421.899 430.224 421.899 428.048C421.899 425.424 421.403 423.36 420.411 421.856C419.451 420.32 417.851 419.552 415.611 419.552C414.203 419.552 412.923 419.872 411.771 420.512C410.619 421.12 409.659 421.824 408.891 422.624C408.123 423.424 407.579 424.096 407.259 424.64C407.259 426.208 407.371 427.728 407.595 429.2C407.819 430.672 408.203 432 408.747 433.184C409.323 434.336 410.107 435.264 411.099 435.968C412.123 436.64 413.403 436.976 414.939 436.976ZM445.258 413.792C448.426 413.792 450.97 414.896 452.89 417.104C454.842 419.312 455.818 422.64 455.818 427.088C455.818 430 455.37 432.464 454.474 434.48C453.609 436.464 452.378 437.968 450.778 438.992C449.21 439.984 447.354 440.48 445.21 440.48C443.898 440.48 442.73 440.304 441.706 439.952C440.682 439.6 439.802 439.152 439.066 438.608C438.362 438.032 437.754 437.408 437.242 436.736H436.954C437.018 437.28 437.082 437.968 437.146 438.8C437.21 439.632 437.242 440.352 437.242 440.96V451.52H433.018V414.272H436.474L437.05 417.776H437.242C437.754 417.04 438.362 416.368 439.066 415.76C439.802 415.152 440.666 414.672 441.658 414.32C442.682 413.968 443.882 413.792 445.258 413.792ZM444.49 417.344C442.762 417.344 441.37 417.68 440.314 418.352C439.258 418.992 438.49 419.968 438.01 421.28C437.53 422.592 437.274 424.256 437.242 426.272V427.088C437.242 429.2 437.466 430.992 437.914 432.464C438.362 433.936 439.114 435.056 440.17 435.824C441.258 436.592 442.73 436.976 444.586 436.976C446.154 436.976 447.434 436.544 448.426 435.68C449.45 434.816 450.202 433.648 450.682 432.176C451.194 430.672 451.45 428.96 451.45 427.04C451.45 424.096 450.874 421.744 449.722 419.984C448.602 418.224 446.858 417.344 444.49 417.344ZM472.293 413.84C475.429 413.84 477.749 414.528 479.253 415.904C480.757 417.28 481.509 419.472 481.509 422.48V440H478.437L477.621 436.352H477.429C476.693 437.28 475.925 438.064 475.125 438.704C474.357 439.312 473.461 439.76 472.437 440.048C471.445 440.336 470.229 440.48 468.789 440.48C467.253 440.48 465.861 440.208 464.613 439.664C463.397 439.12 462.437 438.288 461.733 437.168C461.029 436.016 460.677 434.576 460.677 432.848C460.677 430.288 461.685 428.32 463.701 426.944C465.717 425.536 468.821 424.768 473.013 424.64L477.381 424.496V422.96C477.381 420.816 476.917 419.328 475.989 418.496C475.061 417.664 473.749 417.248 472.053 417.248C470.709 417.248 469.429 417.456 468.213 417.872C466.997 418.256 465.861 418.704 464.805 419.216L463.509 416.048C464.629 415.44 465.957 414.928 467.493 414.512C469.029 414.064 470.629 413.84 472.293 413.84ZM473.541 427.568C470.341 427.696 468.117 428.208 466.869 429.104C465.653 430 465.045 431.264 465.045 432.896C465.045 434.336 465.477 435.392 466.341 436.064C467.237 436.736 468.373 437.072 469.749 437.072C471.925 437.072 473.733 436.48 475.173 435.296C476.613 434.08 477.333 432.224 477.333 429.728V427.424L473.541 427.568ZM507.215 417.824H498.815V440H494.639V417.824H486.335V414.272H507.215V417.824ZM524.139 424.832C526.379 424.832 528.235 425.104 529.707 425.648C531.179 426.192 532.283 427.008 533.019 428.096C533.787 429.152 534.171 430.496 534.171 432.128C534.171 433.728 533.803 435.12 533.067 436.304C532.363 437.488 531.259 438.4 529.755 439.04C528.251 439.68 526.315 440 523.947 440H512.283V414.272H516.507V424.832H524.139ZM529.947 432.368C529.947 430.8 529.387 429.744 528.267 429.2C527.179 428.624 525.643 428.336 523.659 428.336H516.507V436.592H523.755C525.547 436.592 527.019 436.272 528.171 435.632C529.355 434.992 529.947 433.904 529.947 432.368ZM563.911 413.792C565.863 413.792 567.559 414.064 568.999 414.608C570.439 415.12 571.559 415.888 572.359 416.912C573.159 417.904 573.559 419.12 573.559 420.56C573.559 422.128 573.127 423.376 572.263 424.304C571.399 425.2 570.215 425.856 568.711 426.272V426.464C569.735 426.752 570.679 427.152 571.543 427.664C572.407 428.176 573.095 428.848 573.607 429.68C574.151 430.512 574.423 431.584 574.423 432.896C574.423 434.304 574.023 435.584 573.223 436.736C572.455 437.888 571.255 438.8 569.623 439.472C568.023 440.144 565.959 440.48 563.431 440.48C562.215 440.48 561.047 440.416 559.927 440.288C558.839 440.16 557.847 439.968 556.951 439.712C556.087 439.456 555.319 439.152 554.646 438.8V435.008C555.735 435.52 557.015 435.984 558.487 436.4C559.991 436.816 561.623 437.024 563.383 437.024C564.663 437.024 565.815 436.88 566.839 436.592C567.895 436.304 568.727 435.856 569.335 435.248C569.943 434.608 570.247 433.744 570.247 432.656C570.247 431.664 569.975 430.864 569.431 430.256C568.887 429.616 568.071 429.136 566.983 428.816C565.927 428.496 564.567 428.336 562.903 428.336H559.447V424.88H562.231C564.439 424.88 566.199 424.592 567.511 424.016C568.855 423.408 569.527 422.384 569.527 420.944C569.527 419.728 569.015 418.816 567.991 418.208C566.999 417.6 565.559 417.296 563.671 417.296C562.263 417.296 561.015 417.44 559.927 417.728C558.871 417.984 557.703 418.384 556.423 418.928L554.935 415.568C556.311 414.96 557.751 414.512 559.255 414.224C560.759 413.936 562.311 413.792 563.911 413.792ZM590.418 413.84C593.554 413.84 595.874 414.528 597.378 415.904C598.882 417.28 599.634 419.472 599.634 422.48V440H596.562L595.746 436.352H595.554C594.818 437.28 594.05 438.064 593.25 438.704C592.482 439.312 591.586 439.76 590.562 440.048C589.57 440.336 588.354 440.48 586.914 440.48C585.378 440.48 583.986 440.208 582.738 439.664C581.522 439.12 580.562 438.288 579.858 437.168C579.154 436.016 578.802 434.576 578.802 432.848C578.802 430.288 579.81 428.32 581.826 426.944C583.842 425.536 586.946 424.768 591.138 424.64L595.506 424.496V422.96C595.506 420.816 595.042 419.328 594.114 418.496C593.186 417.664 591.874 417.248 590.178 417.248C588.834 417.248 587.554 417.456 586.338 417.872C585.122 418.256 583.986 418.704 582.93 419.216L581.634 416.048C582.754 415.44 584.082 414.928 585.618 414.512C587.154 414.064 588.754 413.84 590.418 413.84ZM591.666 427.568C588.466 427.696 586.242 428.208 584.994 429.104C583.778 430 583.17 431.264 583.17 432.896C583.17 434.336 583.602 435.392 584.466 436.064C585.362 436.736 586.498 437.072 587.874 437.072C590.05 437.072 591.858 436.48 593.298 435.296C594.738 434.08 595.458 432.224 595.458 429.728V427.424L591.666 427.568ZM622.796 414.272H627.404L616.412 426.656L628.316 440H623.42L611.804 426.944V440H607.58V414.272H611.804V426.752L622.796 414.272ZM642.73 413.84C645.866 413.84 648.186 414.528 649.69 415.904C651.194 417.28 651.946 419.472 651.946 422.48V440H648.874L648.058 436.352H647.866C647.13 437.28 646.362 438.064 645.562 438.704C644.794 439.312 643.898 439.76 642.874 440.048C641.882 440.336 640.666 440.48 639.226 440.48C637.69 440.48 636.298 440.208 635.05 439.664C633.834 439.12 632.874 438.288 632.17 437.168C631.466 436.016 631.114 434.576 631.114 432.848C631.114 430.288 632.122 428.32 634.138 426.944C636.154 425.536 639.258 424.768 643.45 424.64L647.818 424.496V422.96C647.818 420.816 647.354 419.328 646.426 418.496C645.498 417.664 644.186 417.248 642.49 417.248C641.146 417.248 639.866 417.456 638.65 417.872C637.434 418.256 636.298 418.704 635.242 419.216L633.946 416.048C635.066 415.44 636.394 414.928 637.93 414.512C639.466 414.064 641.066 413.84 642.73 413.84ZM643.978 427.568C640.778 427.696 638.554 428.208 637.306 429.104C636.09 430 635.482 431.264 635.482 432.896C635.482 434.336 635.914 435.392 636.778 436.064C637.674 436.736 638.81 437.072 640.186 437.072C642.362 437.072 644.17 436.48 645.61 435.296C647.05 434.08 647.77 432.224 647.77 429.728V427.424L643.978 427.568ZM666.661 413.792C668.613 413.792 670.309 414.064 671.749 414.608C673.189 415.12 674.309 415.888 675.109 416.912C675.909 417.904 676.309 419.12 676.309 420.56C676.309 422.128 675.877 423.376 675.013 424.304C674.149 425.2 672.965 425.856 671.461 426.272V426.464C672.485 426.752 673.429 427.152 674.293 427.664C675.157 428.176 675.845 428.848 676.357 429.68C676.901 430.512 677.173 431.584 677.173 432.896C677.173 434.304 676.773 435.584 675.973 436.736C675.205 437.888 674.005 438.8 672.373 439.472C670.773 440.144 668.709 440.48 666.181 440.48C664.965 440.48 663.797 440.416 662.677 440.288C661.589 440.16 660.597 439.968 659.701 439.712C658.837 439.456 658.069 439.152 657.396 438.8V435.008C658.485 435.52 659.765 435.984 661.237 436.4C662.741 436.816 664.373 437.024 666.133 437.024C667.413 437.024 668.565 436.88 669.589 436.592C670.645 436.304 671.477 435.856 672.085 435.248C672.693 434.608 672.997 433.744 672.997 432.656C672.997 431.664 672.725 430.864 672.181 430.256C671.637 429.616 670.821 429.136 669.733 428.816C668.677 428.496 667.317 428.336 665.653 428.336H662.197V424.88H664.981C667.189 424.88 668.949 424.592 670.261 424.016C671.605 423.408 672.277 422.384 672.277 420.944C672.277 419.728 671.765 418.816 670.741 418.208C669.749 417.6 668.309 417.296 666.421 417.296C665.013 417.296 663.765 417.44 662.677 417.728C661.621 417.984 660.453 418.384 659.173 418.928L657.685 415.568C659.061 414.96 660.501 414.512 662.005 414.224C663.509 413.936 665.061 413.792 666.661 413.792ZM692.448 407.84C694.56 407.84 696.4 408.176 697.968 408.848C699.536 409.52 700.752 410.48 701.616 411.728C702.512 412.976 702.96 414.464 702.96 416.192C702.96 418.048 702.544 419.6 701.712 420.848C700.912 422.064 699.824 422.992 698.448 423.632C697.104 424.272 695.6 424.688 693.936 424.88V430.016H689.952V422.816C692.288 422.464 694.096 422.032 695.376 421.52C696.688 421.008 697.6 420.368 698.112 419.6C698.656 418.832 698.928 417.888 698.928 416.768C698.928 415.648 698.672 414.688 698.16 413.888C697.68 413.088 696.944 412.48 695.952 412.064C694.96 411.648 693.696 411.44 692.16 411.44C690.048 411.44 688.32 412.032 686.976 413.216C685.664 414.368 684.88 415.952 684.624 417.968L681.216 416C681.568 414.368 682.24 412.944 683.232 411.728C684.256 410.48 685.536 409.52 687.072 408.848C688.64 408.176 690.432 407.84 692.448 407.84ZM691.872 434.24C692.8 434.24 693.552 434.528 694.128 435.104C694.704 435.68 694.992 436.432 694.992 437.36C694.992 438.288 694.704 439.04 694.128 439.616C693.552 440.192 692.8 440.48 691.872 440.48C690.944 440.48 690.192 440.192 689.616 439.616C689.04 439.04 688.752 438.288 688.752 437.36C688.752 436.432 689.04 435.68 689.616 435.104C690.192 434.528 690.944 434.24 691.872 434.24Z" fill="#3A00E5"/>
</g>
<defs>
<clipPath id="clip0_208_2046">
<rect width="577" height="56" fill="white" transform="translate(143 396)"/>
</clipPath>
</defs>
</svg>
