<svg width="834" height="1194" viewBox="0 0 834 1194" fill="none" xmlns="http://www.w3.org/2000/svg">
<rect x="0.5" y="0.5" width="833" height="1193" fill="white"/>
<rect x="0.5" y="0.5" width="833" height="1193" stroke="black"/>
<g clip-path="url(#clip0_267_1904)">
<path d="M242.278 133.44C244.652 133.44 246.638 133.667 248.238 134.12C249.865 134.573 251.078 135.32 251.878 136.36C252.705 137.4 253.118 138.787 253.118 140.52C253.118 141.64 252.905 142.64 252.478 143.52C252.078 144.373 251.465 145.093 250.638 145.68C249.838 146.24 248.852 146.627 247.678 146.84V147.04C248.878 147.227 249.958 147.573 250.918 148.08C251.905 148.587 252.678 149.307 253.238 150.24C253.798 151.173 254.078 152.387 254.078 153.88C254.078 155.613 253.678 157.093 252.878 158.32C252.078 159.52 250.932 160.44 249.438 161.08C247.972 161.693 246.212 162 244.158 162H234.118V133.44H242.278ZM242.998 145.6C245.452 145.6 247.132 145.213 248.038 144.44C248.945 143.64 249.398 142.467 249.398 140.92C249.398 139.347 248.838 138.227 247.718 137.56C246.625 136.867 244.865 136.52 242.438 136.52H237.718V145.6H242.998ZM237.718 148.6V158.96H243.478C246.012 158.96 247.772 158.467 248.758 157.48C249.745 156.493 250.238 155.2 250.238 153.6C250.238 152.587 250.012 151.707 249.558 150.96C249.132 150.213 248.398 149.64 247.358 149.24C246.345 148.813 244.958 148.6 243.198 148.6H237.718ZM259.654 162V140.56H263.174V149.36H268.734C270.601 149.36 272.134 149.587 273.334 150.04C274.534 150.493 275.427 151.173 276.014 152.08C276.601 152.96 276.894 154.08 276.894 155.44C276.894 156.773 276.601 157.933 276.014 158.92C275.454 159.907 274.561 160.667 273.334 161.2C272.134 161.733 270.547 162 268.574 162H259.654ZM268.254 159.16C269.774 159.16 271.014 158.907 271.974 158.4C272.934 157.867 273.414 156.947 273.414 155.64C273.414 154.333 272.974 153.453 272.094 153C271.214 152.52 269.947 152.28 268.294 152.28H263.174V159.16H268.254ZM280.454 162V140.56H283.974V162H280.454ZM289.667 149.12C289.667 146 289.973 143.347 290.587 141.16C291.227 138.947 292.2 137.187 293.507 135.88C294.84 134.547 296.547 133.653 298.627 133.2C300.36 132.827 302.053 132.493 303.707 132.2C305.36 131.907 306.907 131.64 308.347 131.4L308.947 134.48C308.253 134.587 307.48 134.72 306.627 134.88C305.773 135.013 304.907 135.16 304.027 135.32C303.147 135.453 302.293 135.6 301.467 135.76C300.667 135.893 299.96 136.027 299.347 136.16C298.467 136.347 297.68 136.667 296.987 137.12C296.293 137.547 295.693 138.133 295.187 138.88C294.707 139.627 294.32 140.547 294.027 141.64C293.733 142.733 293.56 144.027 293.507 145.52H293.747C294.12 145.013 294.627 144.493 295.267 143.96C295.933 143.427 296.72 142.973 297.627 142.6C298.56 142.227 299.613 142.04 300.787 142.04C302.653 142.04 304.2 142.453 305.427 143.28C306.68 144.08 307.613 145.2 308.227 146.64C308.867 148.08 309.187 149.76 309.187 151.68C309.187 154.053 308.773 156.04 307.947 157.64C307.12 159.24 305.973 160.44 304.507 161.24C303.04 162.013 301.333 162.4 299.387 162.4C297.92 162.4 296.587 162.12 295.387 161.56C294.187 160.973 293.16 160.12 292.307 159C291.453 157.88 290.8 156.493 290.347 154.84C289.893 153.187 289.667 151.28 289.667 149.12ZM299.667 159.48C300.84 159.48 301.853 159.24 302.707 158.76C303.587 158.28 304.267 157.493 304.747 156.4C305.227 155.307 305.467 153.853 305.467 152.04C305.467 149.853 305.053 148.133 304.227 146.88C303.427 145.6 302.093 144.96 300.227 144.96C299.053 144.96 297.987 145.227 297.027 145.76C296.067 146.267 295.267 146.853 294.627 147.52C293.987 148.187 293.533 148.747 293.267 149.2C293.267 150.507 293.36 151.773 293.547 153C293.733 154.227 294.053 155.333 294.507 156.32C294.987 157.28 295.64 158.053 296.467 158.64C297.32 159.2 298.387 159.48 299.667 159.48ZM323.012 140.16C324.852 140.16 326.425 140.56 327.732 141.36C329.065 142.16 330.079 143.293 330.772 144.76C331.492 146.2 331.852 147.893 331.852 149.84V151.96H317.172C317.225 154.387 317.839 156.24 319.012 157.52C320.212 158.773 321.879 159.4 324.012 159.4C325.372 159.4 326.572 159.28 327.612 159.04C328.679 158.773 329.772 158.4 330.892 157.92V161C329.799 161.48 328.719 161.827 327.652 162.04C326.585 162.28 325.319 162.4 323.852 162.4C321.825 162.4 320.025 161.987 318.452 161.16C316.905 160.333 315.692 159.107 314.812 157.48C313.959 155.827 313.532 153.813 313.532 151.44C313.532 149.093 313.919 147.08 314.692 145.4C315.492 143.72 316.599 142.427 318.012 141.52C319.452 140.613 321.119 140.16 323.012 140.16ZM322.972 143.04C321.292 143.04 319.959 143.587 318.972 144.68C318.012 145.747 317.439 147.24 317.252 149.16H328.172C328.172 147.933 327.985 146.867 327.612 145.96C327.239 145.053 326.665 144.347 325.892 143.84C325.145 143.307 324.172 143.04 322.972 143.04ZM347.51 140.16C350.15 140.16 352.27 141.08 353.87 142.92C355.497 144.76 356.31 147.533 356.31 151.24C356.31 153.667 355.937 155.72 355.19 157.4C354.47 159.053 353.443 160.307 352.11 161.16C350.803 161.987 349.257 162.4 347.47 162.4C346.377 162.4 345.403 162.253 344.55 161.96C343.697 161.667 342.963 161.293 342.35 160.84C341.763 160.36 341.257 159.84 340.83 159.28H340.59C340.643 159.733 340.697 160.307 340.75 161C340.803 161.693 340.83 162.293 340.83 162.8V171.6H337.31V140.56H340.19L340.67 143.48H340.83C341.257 142.867 341.763 142.307 342.35 141.8C342.963 141.293 343.683 140.893 344.51 140.6C345.363 140.307 346.363 140.16 347.51 140.16ZM346.87 143.12C345.43 143.12 344.27 143.4 343.39 143.96C342.51 144.493 341.87 145.307 341.47 146.4C341.07 147.493 340.857 148.88 340.83 150.56V151.24C340.83 153 341.017 154.493 341.39 155.72C341.763 156.947 342.39 157.88 343.27 158.52C344.177 159.16 345.403 159.48 346.95 159.48C348.257 159.48 349.323 159.12 350.15 158.4C351.003 157.68 351.63 156.707 352.03 155.48C352.457 154.227 352.67 152.8 352.67 151.2C352.67 148.747 352.19 146.787 351.23 145.32C350.297 143.853 348.843 143.12 346.87 143.12ZM365.24 153.64C365.24 153.88 365.226 154.227 365.2 154.68C365.2 155.107 365.186 155.573 365.16 156.08C365.133 156.56 365.106 157.027 365.08 157.48C365.053 157.907 365.026 158.253 365 158.52L376.48 140.56H380.8V162H377.52V149.36C377.52 148.933 377.52 148.373 377.52 147.68C377.546 146.987 377.573 146.307 377.6 145.64C377.626 144.947 377.653 144.427 377.68 144.08L366.28 162H361.92V140.56H365.24V153.64ZM402.423 143.52H395.423V162H391.943V143.52H385.023V140.56H402.423V143.52ZM414.535 140.16C416.375 140.16 417.949 140.56 419.255 141.36C420.589 142.16 421.602 143.293 422.295 144.76C423.015 146.2 423.375 147.893 423.375 149.84V151.96H408.695C408.749 154.387 409.362 156.24 410.535 157.52C411.735 158.773 413.402 159.4 415.535 159.4C416.895 159.4 418.095 159.28 419.135 159.04C420.202 158.773 421.295 158.4 422.415 157.92V161C421.322 161.48 420.242 161.827 419.175 162.04C418.109 162.28 416.842 162.4 415.375 162.4C413.349 162.4 411.549 161.987 409.975 161.16C408.429 160.333 407.215 159.107 406.335 157.48C405.482 155.827 405.055 153.813 405.055 151.44C405.055 149.093 405.442 147.08 406.215 145.4C407.015 143.72 408.122 142.427 409.535 141.52C410.975 140.613 412.642 140.16 414.535 140.16ZM414.495 143.04C412.815 143.04 411.482 143.587 410.495 144.68C409.535 145.747 408.962 147.24 408.775 149.16H419.695C419.695 147.933 419.509 146.867 419.135 145.96C418.762 145.053 418.189 144.347 417.415 143.84C416.669 143.307 415.695 143.04 414.495 143.04ZM459.706 145.96C459.706 147.293 459.306 148.333 458.506 149.08C457.706 149.827 456.68 150.333 455.426 150.6V150.76C456.76 150.947 457.92 151.427 458.906 152.2C459.893 152.947 460.386 154.12 460.386 155.72C460.386 156.627 460.213 157.467 459.866 158.24C459.546 159.013 459.04 159.68 458.346 160.24C457.653 160.8 456.76 161.24 455.666 161.56C454.573 161.853 453.253 162 451.706 162H442.466V140.56H451.666C453.186 140.56 454.546 140.733 455.746 141.08C456.973 141.4 457.933 141.96 458.626 142.76C459.346 143.533 459.706 144.6 459.706 145.96ZM456.746 155.72C456.746 154.493 456.28 153.613 455.346 153.08C454.413 152.547 453.04 152.28 451.226 152.28H445.986V159.16H451.306C453.066 159.16 454.413 158.907 455.346 158.4C456.28 157.867 456.746 156.973 456.746 155.72ZM456.146 146.4C456.146 145.387 455.773 144.653 455.026 144.2C454.306 143.72 453.12 143.48 451.466 143.48H445.986V149.36H450.826C452.56 149.36 453.88 149.12 454.786 148.64C455.693 148.16 456.146 147.413 456.146 146.4ZM473.633 140.2C476.247 140.2 478.18 140.773 479.433 141.92C480.687 143.067 481.313 144.893 481.313 147.4V162H478.753L478.073 158.96H477.913C477.3 159.733 476.66 160.387 475.993 160.92C475.353 161.427 474.607 161.8 473.753 162.04C472.927 162.28 471.913 162.4 470.713 162.4C469.433 162.4 468.273 162.173 467.233 161.72C466.22 161.267 465.42 160.573 464.833 159.64C464.247 158.68 463.953 157.48 463.953 156.04C463.953 153.907 464.793 152.267 466.473 151.12C468.153 149.947 470.74 149.307 474.233 149.2L477.873 149.08V147.8C477.873 146.013 477.487 144.773 476.713 144.08C475.94 143.387 474.847 143.04 473.433 143.04C472.313 143.04 471.247 143.213 470.233 143.56C469.22 143.88 468.273 144.253 467.393 144.68L466.313 142.04C467.247 141.533 468.353 141.107 469.633 140.76C470.913 140.387 472.247 140.2 473.633 140.2ZM474.673 151.64C472.007 151.747 470.153 152.173 469.113 152.92C468.1 153.667 467.593 154.72 467.593 156.08C467.593 157.28 467.953 158.16 468.673 158.72C469.42 159.28 470.367 159.56 471.513 159.56C473.327 159.56 474.833 159.067 476.033 158.08C477.233 157.067 477.833 155.52 477.833 153.44V151.52L474.673 151.64ZM498.135 140.16C500.775 140.16 502.895 141.08 504.495 142.92C506.122 144.76 506.935 147.533 506.935 151.24C506.935 153.667 506.562 155.72 505.815 157.4C505.095 159.053 504.068 160.307 502.735 161.16C501.428 161.987 499.882 162.4 498.095 162.4C497.002 162.4 496.028 162.253 495.175 161.96C494.322 161.667 493.588 161.293 492.975 160.84C492.388 160.36 491.882 159.84 491.455 159.28H491.215C491.268 159.733 491.322 160.307 491.375 161C491.428 161.693 491.455 162.293 491.455 162.8V171.6H487.935V140.56H490.815L491.295 143.48H491.455C491.882 142.867 492.388 142.307 492.975 141.8C493.588 141.293 494.308 140.893 495.135 140.6C495.988 140.307 496.988 140.16 498.135 140.16ZM497.495 143.12C496.055 143.12 494.895 143.4 494.015 143.96C493.135 144.493 492.495 145.307 492.095 146.4C491.695 147.493 491.482 148.88 491.455 150.56V151.24C491.455 153 491.642 154.493 492.015 155.72C492.388 156.947 493.015 157.88 493.895 158.52C494.802 159.16 496.028 159.48 497.575 159.48C498.882 159.48 499.948 159.12 500.775 158.4C501.628 157.68 502.255 156.707 502.655 155.48C503.082 154.227 503.295 152.8 503.295 151.2C503.295 148.747 502.815 146.787 501.855 145.32C500.922 143.853 499.468 143.12 497.495 143.12ZM515.865 153.64C515.865 153.88 515.851 154.227 515.825 154.68C515.825 155.107 515.811 155.573 515.785 156.08C515.758 156.56 515.731 157.027 515.705 157.48C515.678 157.907 515.651 158.253 515.625 158.52L527.105 140.56H531.425V162H528.145V149.36C528.145 148.933 528.145 148.373 528.145 147.68C528.171 146.987 528.198 146.307 528.225 145.64C528.251 144.947 528.278 144.427 528.305 144.08L516.905 162H512.545V140.56H515.865V153.64ZM546.368 140.2C548.981 140.2 550.914 140.773 552.168 141.92C553.421 143.067 554.048 144.893 554.048 147.4V162H551.488L550.808 158.96H550.648C550.034 159.733 549.394 160.387 548.728 160.92C548.088 161.427 547.341 161.8 546.488 162.04C545.661 162.28 544.648 162.4 543.448 162.4C542.168 162.4 541.008 162.173 539.968 161.72C538.954 161.267 538.154 160.573 537.568 159.64C536.981 158.68 536.688 157.48 536.688 156.04C536.688 153.907 537.528 152.267 539.208 151.12C540.888 149.947 543.474 149.307 546.968 149.2L550.608 149.08V147.8C550.608 146.013 550.221 144.773 549.448 144.08C548.674 143.387 547.581 143.04 546.168 143.04C545.048 143.04 543.981 143.213 542.968 143.56C541.954 143.88 541.008 144.253 540.128 144.68L539.048 142.04C539.981 141.533 541.088 141.107 542.368 140.76C543.648 140.387 544.981 140.2 546.368 140.2ZM547.408 151.64C544.741 151.747 542.888 152.173 541.848 152.92C540.834 153.667 540.328 154.72 540.328 156.08C540.328 157.28 540.688 158.16 541.408 158.72C542.154 159.28 543.101 159.56 544.248 159.56C546.061 159.56 547.568 159.067 548.768 158.08C549.968 157.067 550.568 155.52 550.568 153.44V151.52L547.408 151.64ZM564.19 140.56V149.48H575.83V140.56H579.35V162H575.83V152.44H564.19V162H560.67V140.56H564.19ZM600.938 143.52H593.938V162H590.458V143.52H583.538V140.56H600.938V143.52ZM365.599 199.24C365.599 201.027 365.359 202.613 364.879 204C364.425 205.36 363.759 206.52 362.879 207.48C362.025 208.44 360.972 209.173 359.719 209.68C358.492 210.16 357.119 210.4 355.599 210.4C354.185 210.4 352.879 210.16 351.679 209.68C350.479 209.173 349.439 208.44 348.559 207.48C347.679 206.52 346.985 205.36 346.479 204C345.999 202.613 345.759 201.027 345.759 199.24C345.759 196.867 346.159 194.867 346.959 193.24C347.759 191.587 348.905 190.333 350.399 189.48C351.892 188.6 353.665 188.16 355.719 188.16C357.665 188.16 359.372 188.6 360.839 189.48C362.332 190.333 363.492 191.587 364.319 193.24C365.172 194.867 365.599 196.867 365.599 199.24ZM349.399 199.24C349.399 200.92 349.612 202.387 350.039 203.64C350.492 204.867 351.185 205.813 352.119 206.48C353.052 207.147 354.239 207.48 355.679 207.48C357.119 207.48 358.305 207.147 359.239 206.48C360.172 205.813 360.852 204.867 361.279 203.64C361.732 202.387 361.959 200.92 361.959 199.24C361.959 197.533 361.732 196.08 361.279 194.88C360.825 193.68 360.132 192.76 359.199 192.12C358.292 191.453 357.105 191.12 355.639 191.12C353.452 191.12 351.865 191.84 350.879 193.28C349.892 194.72 349.399 196.707 349.399 199.24ZM389.297 188.56V210H385.777V191.56H374.697V210H371.177V188.56H389.297ZM412.458 210H408.898V191.48H402.578C402.312 194.867 401.978 197.76 401.578 200.16C401.178 202.533 400.672 204.467 400.058 205.96C399.445 207.453 398.712 208.547 397.858 209.24C397.005 209.933 396.005 210.28 394.858 210.28C394.512 210.28 394.165 210.253 393.818 210.2C393.498 210.173 393.232 210.107 393.018 210V207.36C393.178 207.413 393.352 207.453 393.538 207.48C393.725 207.507 393.912 207.52 394.098 207.52C394.685 207.52 395.218 207.28 395.698 206.8C396.178 206.32 396.605 205.587 396.978 204.6C397.378 203.613 397.738 202.373 398.058 200.88C398.378 199.36 398.658 197.573 398.898 195.52C399.138 193.467 399.352 191.147 399.538 188.56H412.458V210ZM427.383 188.2C429.997 188.2 431.93 188.773 433.183 189.92C434.437 191.067 435.063 192.893 435.063 195.4V210H432.503L431.823 206.96H431.663C431.05 207.733 430.41 208.387 429.743 208.92C429.103 209.427 428.357 209.8 427.503 210.04C426.677 210.28 425.663 210.4 424.463 210.4C423.183 210.4 422.023 210.173 420.983 209.72C419.97 209.267 419.17 208.573 418.583 207.64C417.997 206.68 417.703 205.48 417.703 204.04C417.703 201.907 418.543 200.267 420.223 199.12C421.903 197.947 424.49 197.307 427.983 197.2L431.623 197.08V195.8C431.623 194.013 431.237 192.773 430.463 192.08C429.69 191.387 428.597 191.04 427.183 191.04C426.063 191.04 424.997 191.213 423.983 191.56C422.97 191.88 422.023 192.253 421.143 192.68L420.063 190.04C420.997 189.533 422.103 189.107 423.383 188.76C424.663 188.387 425.997 188.2 427.383 188.2ZM428.423 199.64C425.757 199.747 423.903 200.173 422.863 200.92C421.85 201.667 421.343 202.72 421.343 204.08C421.343 205.28 421.703 206.16 422.423 206.72C423.17 207.28 424.117 207.56 425.263 207.56C427.077 207.56 428.583 207.067 429.783 206.08C430.983 205.067 431.583 203.52 431.583 201.44V199.52L428.423 199.64ZM456.485 191.52H449.485V210H446.005V191.52H439.085V188.56H456.485V191.52ZM460.709 210V188.56H464.229V197.36H469.789C471.655 197.36 473.189 197.587 474.389 198.04C475.589 198.493 476.482 199.173 477.069 200.08C477.655 200.96 477.949 202.08 477.949 203.44C477.949 204.773 477.655 205.933 477.069 206.92C476.509 207.907 475.615 208.667 474.389 209.2C473.189 209.733 471.602 210 469.629 210H460.709ZM469.309 207.16C470.829 207.16 472.069 206.907 473.029 206.4C473.989 205.867 474.469 204.947 474.469 203.64C474.469 202.333 474.029 201.453 473.149 201C472.269 200.52 471.002 200.28 469.349 200.28H464.229V207.16H469.309ZM481.509 210V188.56H485.029V210H481.509Z" fill="#19191B"/>
</g>
<g clip-path="url(#clip1_267_1904)">
<path d="M91.284 889.94C90.22 889.94 89.2587 890.127 88.4 890.5C87.5413 890.855 86.8133 891.387 86.216 892.096C85.6187 892.787 85.1613 893.636 84.844 894.644C84.5267 895.633 84.368 896.753 84.368 898.004C84.368 899.647 84.62 901.075 85.124 902.288C85.6467 903.501 86.412 904.435 87.42 905.088C88.4467 905.741 89.7253 906.068 91.256 906.068C92.1333 906.068 92.964 905.993 93.748 905.844C94.532 905.695 95.2973 905.508 96.044 905.284V907.468C95.2973 907.748 94.5227 907.953 93.72 908.084C92.936 908.215 91.9933 908.28 90.892 908.28C88.8573 908.28 87.1587 907.86 85.796 907.02C84.4333 906.18 83.4067 904.985 82.716 903.436C82.044 901.887 81.708 900.067 81.708 897.976C81.708 896.464 81.9133 895.083 82.324 893.832C82.7533 892.581 83.3693 891.499 84.172 890.584C84.9933 889.669 86.0013 888.969 87.196 888.484C88.3907 887.98 89.7627 887.728 91.312 887.728C92.3387 887.728 93.328 887.831 94.28 888.036C95.232 888.241 96.0813 888.531 96.828 888.904L95.82 891.032C95.204 890.752 94.5133 890.5 93.748 890.276C93.0013 890.052 92.18 889.94 91.284 889.94ZM97.7194 892.992H100.351L103.599 901.532C103.786 902.036 103.954 902.521 104.103 902.988C104.271 903.455 104.421 903.912 104.551 904.36C104.682 904.789 104.785 905.209 104.859 905.62H104.971C105.083 905.153 105.261 904.547 105.503 903.8C105.746 903.035 105.998 902.269 106.259 901.504L109.311 892.992H111.971L105.503 910.072C105.149 911.005 104.729 911.817 104.243 912.508C103.777 913.217 103.198 913.759 102.507 914.132C101.835 914.524 101.014 914.72 100.043 914.72C99.5954 914.72 99.2034 914.692 98.8674 914.636C98.5314 914.599 98.2421 914.552 97.9994 914.496V912.536C98.2047 912.573 98.4474 912.611 98.7274 912.648C99.0261 912.685 99.3341 912.704 99.6514 912.704C100.23 912.704 100.725 912.592 101.135 912.368C101.565 912.163 101.929 911.855 102.227 911.444C102.526 911.052 102.778 910.585 102.983 910.044L103.767 908.056L97.7194 892.992ZM130.445 892.992V908H128.233V898.424C128.233 898.032 128.242 897.621 128.261 897.192C128.298 896.763 128.336 896.343 128.373 895.932H128.289L123.389 908H121.317L116.557 895.932H116.473C116.51 896.343 116.529 896.763 116.529 897.192C116.548 897.621 116.557 898.06 116.557 898.508V908H114.345V892.992H117.621L122.353 905.06L127.169 892.992H130.445ZM151.335 892.992V908H149.123V898.424C149.123 898.032 149.133 897.621 149.151 897.192C149.189 896.763 149.226 896.343 149.263 895.932H149.179L144.279 908H142.207L137.447 895.932H137.363C137.401 896.343 137.419 896.763 137.419 897.192C137.438 897.621 137.447 898.06 137.447 898.508V908H135.235V892.992H138.511L143.243 905.06L148.059 892.992H151.335ZM161.81 892.74C163.639 892.74 164.993 893.141 165.87 893.944C166.747 894.747 167.186 896.025 167.186 897.78V908H165.394L164.918 905.872H164.806C164.377 906.413 163.929 906.871 163.462 907.244C163.014 907.599 162.491 907.86 161.894 908.028C161.315 908.196 160.606 908.28 159.766 908.28C158.87 908.28 158.058 908.121 157.33 907.804C156.621 907.487 156.061 907.001 155.65 906.348C155.239 905.676 155.034 904.836 155.034 903.828C155.034 902.335 155.622 901.187 156.798 900.384C157.974 899.563 159.785 899.115 162.23 899.04L164.778 898.956V898.06C164.778 896.809 164.507 895.941 163.966 895.456C163.425 894.971 162.659 894.728 161.67 894.728C160.886 894.728 160.139 894.849 159.43 895.092C158.721 895.316 158.058 895.577 157.442 895.876L156.686 894.028C157.339 893.673 158.114 893.375 159.01 893.132C159.906 892.871 160.839 892.74 161.81 892.74ZM162.538 900.748C160.671 900.823 159.374 901.121 158.646 901.644C157.937 902.167 157.582 902.904 157.582 903.856C157.582 904.696 157.834 905.312 158.338 905.704C158.861 906.096 159.523 906.292 160.326 906.292C161.595 906.292 162.65 905.947 163.49 905.256C164.33 904.547 164.75 903.464 164.75 902.008V900.664L162.538 900.748ZM185.312 892.712C186.451 892.712 187.44 892.871 188.28 893.188C189.12 893.487 189.774 893.935 190.24 894.532C190.707 895.111 190.94 895.82 190.94 896.66C190.94 897.575 190.688 898.303 190.184 898.844C189.68 899.367 188.99 899.749 188.112 899.992V900.104C188.71 900.272 189.26 900.505 189.764 900.804C190.268 901.103 190.67 901.495 190.968 901.98C191.286 902.465 191.444 903.091 191.444 903.856C191.444 904.677 191.211 905.424 190.744 906.096C190.296 906.768 189.596 907.3 188.644 907.692C187.711 908.084 186.507 908.28 185.032 908.28C184.323 908.28 183.642 908.243 182.988 908.168C182.354 908.093 181.775 907.981 181.252 907.832C180.748 907.683 180.3 907.505 179.908 907.3V905.088C180.543 905.387 181.29 905.657 182.148 905.9C183.026 906.143 183.978 906.264 185.004 906.264C185.751 906.264 186.423 906.18 187.02 906.012C187.636 905.844 188.122 905.583 188.476 905.228C188.831 904.855 189.008 904.351 189.008 903.716C189.008 903.137 188.85 902.671 188.532 902.316C188.215 901.943 187.739 901.663 187.104 901.476C186.488 901.289 185.695 901.196 184.724 901.196H182.708V899.18H184.332C185.62 899.18 186.647 899.012 187.412 898.676C188.196 898.321 188.588 897.724 188.588 896.884C188.588 896.175 188.29 895.643 187.692 895.288C187.114 894.933 186.274 894.756 185.172 894.756C184.351 894.756 183.623 894.84 182.988 895.008C182.372 895.157 181.691 895.391 180.944 895.708L180.076 893.748C180.879 893.393 181.719 893.132 182.596 892.964C183.474 892.796 184.379 892.712 185.312 892.712ZM200.775 892.74C202.604 892.74 203.958 893.141 204.835 893.944C205.712 894.747 206.151 896.025 206.151 897.78V908H204.359L203.883 905.872H203.771C203.342 906.413 202.894 906.871 202.427 907.244C201.979 907.599 201.456 907.86 200.859 908.028C200.28 908.196 199.571 908.28 198.731 908.28C197.835 908.28 197.023 908.121 196.295 907.804C195.586 907.487 195.026 907.001 194.615 906.348C194.204 905.676 193.999 904.836 193.999 903.828C193.999 902.335 194.587 901.187 195.763 900.384C196.939 899.563 198.75 899.115 201.195 899.04L203.743 898.956V898.06C203.743 896.809 203.472 895.941 202.931 895.456C202.39 894.971 201.624 894.728 200.635 894.728C199.851 894.728 199.104 894.849 198.395 895.092C197.686 895.316 197.023 895.577 196.407 895.876L195.651 894.028C196.304 893.673 197.079 893.375 197.975 893.132C198.871 892.871 199.804 892.74 200.775 892.74ZM201.503 900.748C199.636 900.823 198.339 901.121 197.611 901.644C196.902 902.167 196.547 902.904 196.547 903.856C196.547 904.696 196.799 905.312 197.303 905.704C197.826 906.096 198.488 906.292 199.291 906.292C200.56 906.292 201.615 905.947 202.455 905.256C203.295 904.547 203.715 903.464 203.715 902.008V900.664L201.503 900.748ZM219.662 892.992H222.35L215.938 900.216L222.882 908H220.026L213.25 900.384V908H210.786V892.992H213.25V900.272L219.662 892.992ZM231.291 892.74C233.12 892.74 234.473 893.141 235.351 893.944C236.228 894.747 236.667 896.025 236.667 897.78V908H234.875L234.399 905.872H234.287C233.857 906.413 233.409 906.871 232.943 907.244C232.495 907.599 231.972 907.86 231.375 908.028C230.796 908.196 230.087 908.28 229.247 908.28C228.351 908.28 227.539 908.121 226.811 907.804C226.101 907.487 225.541 907.001 225.131 906.348C224.72 905.676 224.515 904.836 224.515 903.828C224.515 902.335 225.103 901.187 226.279 900.384C227.455 899.563 229.265 899.115 231.711 899.04L234.259 898.956V898.06C234.259 896.809 233.988 895.941 233.447 895.456C232.905 894.971 232.14 894.728 231.151 894.728C230.367 894.728 229.62 894.849 228.911 895.092C228.201 895.316 227.539 895.577 226.923 895.876L226.167 894.028C226.82 893.673 227.595 893.375 228.491 893.132C229.387 892.871 230.32 892.74 231.291 892.74ZM232.019 900.748C230.152 900.823 228.855 901.121 228.127 901.644C227.417 902.167 227.063 902.904 227.063 903.856C227.063 904.696 227.315 905.312 227.819 905.704C228.341 906.096 229.004 906.292 229.807 906.292C231.076 906.292 232.131 905.947 232.971 905.256C233.811 904.547 234.231 903.464 234.231 902.008V900.664L232.019 900.748ZM245.25 892.712C246.389 892.712 247.378 892.871 248.218 893.188C249.058 893.487 249.711 893.935 250.178 894.532C250.645 895.111 250.878 895.82 250.878 896.66C250.878 897.575 250.626 898.303 250.122 898.844C249.618 899.367 248.927 899.749 248.05 899.992V900.104C248.647 900.272 249.198 900.505 249.702 900.804C250.206 901.103 250.607 901.495 250.906 901.98C251.223 902.465 251.382 903.091 251.382 903.856C251.382 904.677 251.149 905.424 250.682 906.096C250.234 906.768 249.534 907.3 248.582 907.692C247.649 908.084 246.445 908.28 244.97 908.28C244.261 908.28 243.579 908.243 242.926 908.168C242.291 908.093 241.713 907.981 241.19 907.832C240.686 907.683 240.238 907.505 239.846 907.3V905.088C240.481 905.387 241.227 905.657 242.086 905.9C242.963 906.143 243.915 906.264 244.942 906.264C245.689 906.264 246.361 906.18 246.958 906.012C247.574 905.844 248.059 905.583 248.414 905.228C248.769 904.855 248.946 904.351 248.946 903.716C248.946 903.137 248.787 902.671 248.47 902.316C248.153 901.943 247.677 901.663 247.042 901.476C246.426 901.289 245.633 901.196 244.662 901.196H242.646V899.18H244.27C245.558 899.18 246.585 899.012 247.35 898.676C248.134 898.321 248.526 897.724 248.526 896.884C248.526 896.175 248.227 895.643 247.63 895.288C247.051 894.933 246.211 894.756 245.11 894.756C244.289 894.756 243.561 894.84 242.926 895.008C242.31 895.157 241.629 895.391 240.882 895.708L240.014 893.748C240.817 893.393 241.657 893.132 242.534 892.964C243.411 892.796 244.317 892.712 245.25 892.712ZM260.712 892.74C262.542 892.74 263.895 893.141 264.772 893.944C265.65 894.747 266.088 896.025 266.088 897.78V908H264.296L263.82 905.872H263.708C263.279 906.413 262.831 906.871 262.364 907.244C261.916 907.599 261.394 907.86 260.796 908.028C260.218 908.196 259.508 908.28 258.668 908.28C257.772 908.28 256.96 908.121 256.232 907.804C255.523 907.487 254.963 907.001 254.552 906.348C254.142 905.676 253.936 904.836 253.936 903.828C253.936 902.335 254.524 901.187 255.7 900.384C256.876 899.563 258.687 899.115 261.132 899.04L263.68 898.956V898.06C263.68 896.809 263.41 895.941 262.868 895.456C262.327 894.971 261.562 894.728 260.572 894.728C259.788 894.728 259.042 894.849 258.332 895.092C257.623 895.316 256.96 895.577 256.344 895.876L255.588 894.028C256.242 893.673 257.016 893.375 257.912 893.132C258.808 892.871 259.742 892.74 260.712 892.74ZM261.44 900.748C259.574 900.823 258.276 901.121 257.548 901.644C256.839 902.167 256.484 902.904 256.484 903.856C256.484 904.696 256.736 905.312 257.24 905.704C257.763 906.096 258.426 906.292 259.228 906.292C260.498 906.292 261.552 905.947 262.392 905.256C263.232 904.547 263.652 903.464 263.652 902.008V900.664L261.44 900.748ZM272.488 893.72C273.029 893.72 273.468 893.888 273.804 894.224C274.14 894.56 274.308 894.999 274.308 895.54C274.308 896.081 274.14 896.52 273.804 896.856C273.468 897.192 273.029 897.36 272.488 897.36C271.946 897.36 271.508 897.192 271.172 896.856C270.836 896.52 270.668 896.081 270.668 895.54C270.668 894.999 270.836 894.56 271.172 894.224C271.508 893.888 271.946 893.72 272.488 893.72ZM272.488 904.64C273.029 904.64 273.468 904.808 273.804 905.144C274.14 905.48 274.308 905.919 274.308 906.46C274.308 907.001 274.14 907.44 273.804 907.776C273.468 908.112 273.029 908.28 272.488 908.28C271.946 908.28 271.508 908.112 271.172 907.776C270.836 907.44 270.668 907.001 270.668 906.46C270.668 905.919 270.836 905.48 271.172 905.144C271.508 904.808 271.946 904.64 272.488 904.64Z" fill="#19191B"/>
</g>
<g clip-path="url(#clip2_267_1904)">
<path d="M701.384 900.28C699.293 900.28 697.622 899.468 696.372 897.844C695.121 896.22 694.496 893.859 694.496 890.76C694.496 887.661 695.121 885.3 696.372 883.676C697.622 882.052 699.293 881.24 701.384 881.24C703.493 881.24 705.164 882.052 706.396 883.676C707.646 885.3 708.272 887.661 708.272 890.76C708.272 893.859 707.646 896.22 706.396 897.844C705.164 899.468 703.493 900.28 701.384 900.28ZM701.384 898.264C702.373 898.264 703.204 897.984 703.876 897.424C704.566 896.845 705.08 895.996 705.416 894.876C705.77 893.756 705.948 892.384 705.948 890.76C705.948 889.136 705.77 887.764 705.416 886.644C705.08 885.524 704.566 884.684 703.876 884.124C703.204 883.545 702.373 883.256 701.384 883.256C700.394 883.256 699.554 883.545 698.864 884.124C698.192 884.684 697.678 885.524 697.324 886.644C696.988 887.764 696.82 889.136 696.82 890.76C696.82 892.384 696.988 893.756 697.324 894.876C697.678 895.996 698.192 896.845 698.864 897.424C699.554 897.984 700.394 898.264 701.384 898.264ZM713.134 896.64C713.675 896.64 714.114 896.808 714.45 897.144C714.786 897.48 714.954 897.919 714.954 898.46C714.954 899.001 714.786 899.44 714.45 899.776C714.114 900.112 713.675 900.28 713.134 900.28C712.593 900.28 712.154 900.112 711.818 899.776C711.482 899.44 711.314 899.001 711.314 898.46C711.314 897.919 711.482 897.48 711.818 897.144C712.154 896.808 712.593 896.64 713.134 896.64ZM724.872 900.28C722.781 900.28 721.111 899.468 719.86 897.844C718.609 896.22 717.984 893.859 717.984 890.76C717.984 887.661 718.609 885.3 719.86 883.676C721.111 882.052 722.781 881.24 724.872 881.24C726.981 881.24 728.652 882.052 729.884 883.676C731.135 885.3 731.76 887.661 731.76 890.76C731.76 893.859 731.135 896.22 729.884 897.844C728.652 899.468 726.981 900.28 724.872 900.28ZM724.872 898.264C725.861 898.264 726.692 897.984 727.364 897.424C728.055 896.845 728.568 895.996 728.904 894.876C729.259 893.756 729.436 892.384 729.436 890.76C729.436 889.136 729.259 887.764 728.904 886.644C728.568 885.524 728.055 884.684 727.364 884.124C726.692 883.545 725.861 883.256 724.872 883.256C723.883 883.256 723.043 883.545 722.352 884.124C721.68 884.684 721.167 885.524 720.812 886.644C720.476 887.764 720.308 889.136 720.308 890.76C720.308 892.384 720.476 893.756 720.812 894.876C721.167 895.996 721.68 896.845 722.352 897.424C723.043 897.984 723.883 898.264 724.872 898.264ZM742.29 900.28C740.199 900.28 738.529 899.468 737.278 897.844C736.027 896.22 735.402 893.859 735.402 890.76C735.402 887.661 736.027 885.3 737.278 883.676C738.529 882.052 740.199 881.24 742.29 881.24C744.399 881.24 746.07 882.052 747.302 883.676C748.553 885.3 749.178 887.661 749.178 890.76C749.178 893.859 748.553 896.22 747.302 897.844C746.07 899.468 744.399 900.28 742.29 900.28ZM742.29 898.264C743.279 898.264 744.11 897.984 744.782 897.424C745.473 896.845 745.986 895.996 746.322 894.876C746.677 893.756 746.854 892.384 746.854 890.76C746.854 889.136 746.677 887.764 746.322 886.644C745.986 885.524 745.473 884.684 744.782 884.124C744.11 883.545 743.279 883.256 742.29 883.256C741.301 883.256 740.461 883.545 739.77 884.124C739.098 884.684 738.585 885.524 738.23 886.644C737.894 887.764 737.726 889.136 737.726 890.76C737.726 892.384 737.894 893.756 738.23 894.876C738.585 895.996 739.098 896.845 739.77 897.424C740.461 897.984 741.301 898.264 742.29 898.264Z" fill="#19191B"/>
</g>
<rect x="57" y="321" width="298" height="168" rx="7" fill="#EFEFF0"/>
<rect x="57" y="321" width="298" height="168" rx="7" stroke="#AFB1B6" stroke-width="2"/>
<mask id="mask0_267_1904" style="mask-type:luminance" maskUnits="userSpaceOnUse" x="196" y="395" width="20" height="20">
<path fill-rule="evenodd" clip-rule="evenodd" d="M196 395H215.96V414.95H196V395Z" fill="white"/>
</mask>
<g mask="url(#mask0_267_1904)">
<path fill-rule="evenodd" clip-rule="evenodd" d="M201.65 396.5C199.129 396.5 197.5 398.227 197.5 400.899V409.051C197.5 411.724 199.129 413.45 201.65 413.45H210.3C212.827 413.45 214.46 411.724 214.46 409.051V400.899C214.46 398.227 212.827 396.5 210.3 396.5H201.65ZM210.3 414.95H201.65C198.27 414.95 196 412.579 196 409.051V400.899C196 397.371 198.27 395 201.65 395H210.3C213.685 395 215.96 397.371 215.96 400.899V409.051C215.96 412.579 213.685 414.95 210.3 414.95Z" fill="#AFB1B6"/>
</g>
<path fill-rule="evenodd" clip-rule="evenodd" d="M199.281 410.18C199.095 410.18 198.91 410.112 198.765 409.974C198.464 409.69 198.452 409.214 198.737 408.915L200.265 407.302C201.074 406.443 202.439 406.401 203.302 407.211L204.26 408.183C204.527 408.453 204.961 408.458 205.229 408.194C205.33 408.075 207.508 405.43 207.508 405.43C207.922 404.928 208.506 404.618 209.155 404.554C209.805 404.497 210.436 404.686 210.939 405.099C210.982 405.134 211.021 405.168 213.217 407.423C213.506 407.719 213.501 408.194 213.204 408.483C212.908 408.774 212.432 408.765 212.143 408.469C212.143 408.469 210.094 406.366 209.948 406.224C209.793 406.097 209.544 406.023 209.299 406.047C209.05 406.072 208.826 406.191 208.667 406.384C206.343 409.203 206.315 409.23 206.277 409.267C205.419 410.109 204.034 410.095 203.191 409.235C203.191 409.235 202.261 408.291 202.245 408.272C202.014 408.058 201.602 408.072 201.355 408.333L199.825 409.946C199.677 410.102 199.479 410.18 199.281 410.18Z" fill="#AFB1B6"/>
<path fill-rule="evenodd" clip-rule="evenodd" d="M202.558 401.129C202.005 401.129 201.555 401.579 201.555 402.133C201.555 402.687 202.005 403.138 202.559 403.138C203.113 403.138 203.564 402.687 203.564 402.133C203.564 401.58 203.113 401.13 202.558 401.129ZM202.559 404.638C201.178 404.638 200.055 403.514 200.055 402.133C200.055 400.752 201.178 399.629 202.559 399.629C203.941 399.63 205.064 400.754 205.064 402.133C205.064 403.514 203.94 404.638 202.559 404.638Z" fill="#AFB1B6"/>
<g clip-path="url(#clip3_267_1904)">
<path d="M101.516 314V298.292H110.844V300.03H103.496V304.936H105.828C107.397 304.936 108.615 305.134 109.48 305.53C110.345 305.911 110.947 306.439 111.284 307.114C111.621 307.774 111.79 308.537 111.79 309.402C111.79 310.355 111.599 311.177 111.218 311.866C110.851 312.555 110.25 313.083 109.414 313.45C108.578 313.817 107.478 314 106.114 314H101.516ZM105.916 312.306C107.324 312.306 108.314 312.071 108.886 311.602C109.458 311.118 109.744 310.385 109.744 309.402C109.744 308.727 109.605 308.192 109.326 307.796C109.062 307.385 108.622 307.092 108.006 306.916C107.405 306.74 106.598 306.652 105.586 306.652H103.496V312.306H105.916ZM119.341 302.01C120.778 302.01 121.842 302.325 122.531 302.956C123.22 303.587 123.565 304.591 123.565 305.97V314H122.157L121.783 312.328H121.695C121.358 312.753 121.006 313.113 120.639 313.406C120.287 313.685 119.876 313.89 119.407 314.022C118.952 314.154 118.395 314.22 117.735 314.22C117.031 314.22 116.393 314.095 115.821 313.846C115.264 313.597 114.824 313.215 114.501 312.702C114.178 312.174 114.017 311.514 114.017 310.722C114.017 309.549 114.479 308.647 115.403 308.016C116.327 307.371 117.75 307.019 119.671 306.96L121.673 306.894V306.19C121.673 305.207 121.46 304.525 121.035 304.144C120.61 303.763 120.008 303.572 119.231 303.572C118.615 303.572 118.028 303.667 117.471 303.858C116.914 304.034 116.393 304.239 115.909 304.474L115.315 303.022C115.828 302.743 116.437 302.509 117.141 302.318C117.845 302.113 118.578 302.01 119.341 302.01ZM119.913 308.302C118.446 308.361 117.427 308.595 116.855 309.006C116.298 309.417 116.019 309.996 116.019 310.744C116.019 311.404 116.217 311.888 116.613 312.196C117.024 312.504 117.544 312.658 118.175 312.658C119.172 312.658 120.001 312.387 120.661 311.844C121.321 311.287 121.651 310.436 121.651 309.292V308.236L119.913 308.302ZM129.231 302.208V307.114H135.633V302.208H137.569V314H135.633V308.742H129.231V314H127.295V302.208H129.231ZM148.365 302.208H150.477L145.439 307.884L150.895 314H148.651L143.327 308.016V314H141.391V302.208H143.327V307.928L148.365 302.208ZM162.946 308.082C162.946 309.065 162.814 309.937 162.55 310.7C162.3 311.448 161.934 312.086 161.45 312.614C160.98 313.142 160.401 313.545 159.712 313.824C159.037 314.088 158.282 314.22 157.446 314.22C156.668 314.22 155.95 314.088 155.29 313.824C154.63 313.545 154.058 313.142 153.574 312.614C153.09 312.086 152.708 311.448 152.43 310.7C152.166 309.937 152.034 309.065 152.034 308.082C152.034 306.777 152.254 305.677 152.694 304.782C153.134 303.873 153.764 303.183 154.586 302.714C155.407 302.23 156.382 301.988 157.512 301.988C158.582 301.988 159.521 302.23 160.328 302.714C161.149 303.183 161.787 303.873 162.242 304.782C162.711 305.677 162.946 306.777 162.946 308.082ZM154.036 308.082C154.036 309.006 154.153 309.813 154.388 310.502C154.637 311.177 155.018 311.697 155.532 312.064C156.045 312.431 156.698 312.614 157.49 312.614C158.282 312.614 158.934 312.431 159.448 312.064C159.961 311.697 160.335 311.177 160.57 310.502C160.819 309.813 160.944 309.006 160.944 308.082C160.944 307.143 160.819 306.344 160.57 305.684C160.32 305.024 159.939 304.518 159.426 304.166C158.927 303.799 158.274 303.616 157.468 303.616C156.265 303.616 155.392 304.012 154.85 304.804C154.307 305.596 154.036 306.689 154.036 308.082ZM175.584 305.178C175.584 305.911 175.364 306.483 174.924 306.894C174.484 307.305 173.919 307.583 173.23 307.73V307.818C173.963 307.921 174.601 308.185 175.144 308.61C175.687 309.021 175.958 309.666 175.958 310.546C175.958 311.045 175.863 311.507 175.672 311.932C175.496 312.357 175.217 312.724 174.836 313.032C174.455 313.34 173.963 313.582 173.362 313.758C172.761 313.919 172.035 314 171.184 314H166.102V302.208H171.162C171.998 302.208 172.746 302.303 173.406 302.494C174.081 302.67 174.609 302.978 174.99 303.418C175.386 303.843 175.584 304.43 175.584 305.178ZM173.956 310.546C173.956 309.871 173.699 309.387 173.186 309.094C172.673 308.801 171.917 308.654 170.92 308.654H168.038V312.438H170.964C171.932 312.438 172.673 312.299 173.186 312.02C173.699 311.727 173.956 311.235 173.956 310.546ZM173.626 305.42C173.626 304.863 173.421 304.459 173.01 304.21C172.614 303.946 171.961 303.814 171.052 303.814H168.038V307.048H170.7C171.653 307.048 172.379 306.916 172.878 306.652C173.377 306.388 173.626 305.977 173.626 305.42ZM183.596 314.22C182.555 314.22 181.623 314.007 180.802 313.582C179.995 313.157 179.357 312.497 178.888 311.602C178.433 310.707 178.206 309.563 178.206 308.17C178.206 306.718 178.448 305.537 178.932 304.628C179.416 303.719 180.069 303.051 180.89 302.626C181.726 302.201 182.672 301.988 183.728 301.988C184.329 301.988 184.909 302.054 185.466 302.186C186.023 302.303 186.478 302.45 186.83 302.626L186.236 304.232C185.884 304.1 185.473 303.975 185.004 303.858C184.535 303.741 184.095 303.682 183.684 303.682C182.892 303.682 182.239 303.851 181.726 304.188C181.213 304.525 180.831 305.024 180.582 305.684C180.333 306.344 180.208 307.165 180.208 308.148C180.208 309.087 180.333 309.886 180.582 310.546C180.831 311.206 181.205 311.705 181.704 312.042C182.203 312.379 182.826 312.548 183.574 312.548C184.219 312.548 184.784 312.482 185.268 312.35C185.767 312.218 186.221 312.057 186.632 311.866V313.582C186.236 313.787 185.796 313.941 185.312 314.044C184.843 314.161 184.271 314.22 183.596 314.22ZM196.498 302.208H198.61L193.572 307.884L199.028 314H196.784L191.46 308.016V314H189.524V302.208H191.46V307.928L196.498 302.208ZM211.079 308.082C211.079 309.065 210.947 309.937 210.683 310.7C210.434 311.448 210.067 312.086 209.583 312.614C209.114 313.142 208.534 313.545 207.845 313.824C207.17 314.088 206.415 314.22 205.579 314.22C204.802 314.22 204.083 314.088 203.423 313.824C202.763 313.545 202.191 313.142 201.707 312.614C201.223 312.086 200.842 311.448 200.563 310.7C200.299 309.937 200.167 309.065 200.167 308.082C200.167 306.777 200.387 305.677 200.827 304.782C201.267 303.873 201.898 303.183 202.719 302.714C203.54 302.23 204.516 301.988 205.645 301.988C206.716 301.988 207.654 302.23 208.461 302.714C209.282 303.183 209.92 303.873 210.375 304.782C210.844 305.677 211.079 306.777 211.079 308.082ZM202.169 308.082C202.169 309.006 202.286 309.813 202.521 310.502C202.77 311.177 203.152 311.697 203.665 312.064C204.178 312.431 204.831 312.614 205.623 312.614C206.415 312.614 207.068 312.431 207.581 312.064C208.094 311.697 208.468 311.177 208.703 310.502C208.952 309.813 209.077 309.006 209.077 308.082C209.077 307.143 208.952 306.344 208.703 305.684C208.454 305.024 208.072 304.518 207.559 304.166C207.06 303.799 206.408 303.616 205.601 303.616C204.398 303.616 203.526 304.012 202.983 304.804C202.44 305.596 202.169 306.689 202.169 308.082ZM223.783 297.324C223.725 298.057 223.541 298.673 223.233 299.172C222.94 299.671 222.5 300.045 221.913 300.294C221.327 300.543 220.564 300.668 219.625 300.668C218.672 300.668 217.902 300.543 217.315 300.294C216.743 300.045 216.325 299.678 216.061 299.194C215.797 298.695 215.636 298.072 215.577 297.324H217.381C217.455 298.116 217.66 298.651 217.997 298.93C218.349 299.194 218.907 299.326 219.669 299.326C220.344 299.326 220.872 299.187 221.253 298.908C221.649 298.615 221.884 298.087 221.957 297.324H223.783ZM216.061 309.402C216.061 309.534 216.054 309.725 216.039 309.974C216.039 310.209 216.032 310.465 216.017 310.744C216.003 311.008 215.988 311.265 215.973 311.514C215.959 311.749 215.944 311.939 215.929 312.086L222.243 302.208H224.619V314H222.815V307.048C222.815 306.813 222.815 306.505 222.815 306.124C222.83 305.743 222.845 305.369 222.859 305.002C222.874 304.621 222.889 304.335 222.903 304.144L216.633 314H214.235V302.208H216.061V309.402ZM243.02 302.208H245.132L240.094 307.884L245.55 314H243.306L237.982 308.016V314H236.046V302.208H237.982V307.928L243.02 302.208ZM252.245 302.01C253.682 302.01 254.745 302.325 255.435 302.956C256.124 303.587 256.469 304.591 256.469 305.97V314H255.061L254.687 312.328H254.599C254.261 312.753 253.909 313.113 253.543 313.406C253.191 313.685 252.78 313.89 252.311 314.022C251.856 314.154 251.299 314.22 250.639 314.22C249.935 314.22 249.297 314.095 248.725 313.846C248.167 313.597 247.727 313.215 247.405 312.702C247.082 312.174 246.921 311.514 246.921 310.722C246.921 309.549 247.383 308.647 248.307 308.016C249.231 307.371 250.653 307.019 252.575 306.96L254.577 306.894V306.19C254.577 305.207 254.364 304.525 253.939 304.144C253.513 303.763 252.912 303.572 252.135 303.572C251.519 303.572 250.932 303.667 250.375 303.858C249.817 304.034 249.297 304.239 248.813 304.474L248.219 303.022C248.732 302.743 249.341 302.509 250.045 302.318C250.749 302.113 251.482 302.01 252.245 302.01ZM252.817 308.302C251.35 308.361 250.331 308.595 249.759 309.006C249.201 309.417 248.923 309.996 248.923 310.744C248.923 311.404 249.121 311.888 249.517 312.196C249.927 312.504 250.448 312.658 251.079 312.658C252.076 312.658 252.905 312.387 253.565 311.844C254.225 311.287 254.555 310.436 254.555 309.292V308.236L252.817 308.302ZM265.809 301.988C267.261 301.988 268.427 302.494 269.307 303.506C270.201 304.518 270.649 306.043 270.649 308.082C270.649 309.417 270.443 310.546 270.033 311.47C269.637 312.379 269.072 313.069 268.339 313.538C267.62 313.993 266.769 314.22 265.787 314.22C265.185 314.22 264.65 314.139 264.181 313.978C263.711 313.817 263.308 313.611 262.971 313.362C262.648 313.098 262.369 312.812 262.135 312.504H262.003C262.032 312.753 262.061 313.069 262.091 313.45C262.12 313.831 262.135 314.161 262.135 314.44V319.28H260.199V302.208H261.783L262.047 303.814H262.135C262.369 303.477 262.648 303.169 262.971 302.89C263.308 302.611 263.704 302.391 264.159 302.23C264.628 302.069 265.178 301.988 265.809 301.988ZM265.457 303.616C264.665 303.616 264.027 303.77 263.543 304.078C263.059 304.371 262.707 304.819 262.487 305.42C262.267 306.021 262.149 306.784 262.135 307.708V308.082C262.135 309.05 262.237 309.871 262.443 310.546C262.648 311.221 262.993 311.734 263.477 312.086C263.975 312.438 264.65 312.614 265.501 312.614C266.219 312.614 266.806 312.416 267.261 312.02C267.73 311.624 268.075 311.089 268.295 310.414C268.529 309.725 268.647 308.94 268.647 308.06C268.647 306.711 268.383 305.633 267.855 304.826C267.341 304.019 266.542 303.616 265.457 303.616ZM281.747 303.836H277.897V314H275.983V303.836H272.177V302.208H281.747V303.836ZM294.195 308.082C294.195 309.065 294.063 309.937 293.799 310.7C293.55 311.448 293.183 312.086 292.699 312.614C292.23 313.142 291.65 313.545 290.961 313.824C290.286 314.088 289.531 314.22 288.695 314.22C287.918 314.22 287.199 314.088 286.539 313.824C285.879 313.545 285.307 313.142 284.823 312.614C284.339 312.086 283.958 311.448 283.679 310.7C283.415 309.937 283.283 309.065 283.283 308.082C283.283 306.777 283.503 305.677 283.943 304.782C284.383 303.873 285.014 303.183 285.835 302.714C286.656 302.23 287.632 301.988 288.761 301.988C289.832 301.988 290.77 302.23 291.577 302.714C292.398 303.183 293.036 303.873 293.491 304.782C293.96 305.677 294.195 306.777 294.195 308.082ZM285.285 308.082C285.285 309.006 285.402 309.813 285.637 310.502C285.886 311.177 286.268 311.697 286.781 312.064C287.294 312.431 287.947 312.614 288.739 312.614C289.531 312.614 290.184 312.431 290.697 312.064C291.21 311.697 291.584 311.177 291.819 310.502C292.068 309.813 292.193 309.006 292.193 308.082C292.193 307.143 292.068 306.344 291.819 305.684C291.57 305.024 291.188 304.518 290.675 304.166C290.176 303.799 289.524 303.616 288.717 303.616C287.514 303.616 286.642 304.012 286.099 304.804C285.556 305.596 285.285 306.689 285.285 308.082ZM306.899 297.324C306.841 298.057 306.657 298.673 306.349 299.172C306.056 299.671 305.616 300.045 305.029 300.294C304.443 300.543 303.68 300.668 302.741 300.668C301.788 300.668 301.018 300.543 300.431 300.294C299.859 300.045 299.441 299.678 299.177 299.194C298.913 298.695 298.752 298.072 298.693 297.324H300.497C300.571 298.116 300.776 298.651 301.113 298.93C301.465 299.194 302.023 299.326 302.785 299.326C303.46 299.326 303.988 299.187 304.369 298.908C304.765 298.615 305 298.087 305.073 297.324H306.899ZM299.177 309.402C299.177 309.534 299.17 309.725 299.155 309.974C299.155 310.209 299.148 310.465 299.133 310.744C299.119 311.008 299.104 311.265 299.089 311.514C299.075 311.749 299.06 311.939 299.045 312.086L305.359 302.208H307.735V314H305.931V307.048C305.931 306.813 305.931 306.505 305.931 306.124C305.946 305.743 305.961 305.369 305.975 305.002C305.99 304.621 306.005 304.335 306.019 304.144L299.749 314H297.351V302.208H299.177V309.402Z" fill="#3A00E5"/>
</g>
<rect x="452" y="321" width="298" height="168" rx="7" fill="#EFEFF0"/>
<rect x="452" y="321" width="298" height="168" rx="7" stroke="#AFB1B6" stroke-width="2"/>
<mask id="mask1_267_1904" style="mask-type:luminance" maskUnits="userSpaceOnUse" x="591" y="395" width="20" height="20">
<path fill-rule="evenodd" clip-rule="evenodd" d="M591 395H610.96V414.95H591V395Z" fill="white"/>
</mask>
<g mask="url(#mask1_267_1904)">
<path fill-rule="evenodd" clip-rule="evenodd" d="M596.65 396.5C594.129 396.5 592.5 398.227 592.5 400.899V409.051C592.5 411.724 594.129 413.45 596.65 413.45H605.3C607.827 413.45 609.46 411.724 609.46 409.051V400.899C609.46 398.227 607.827 396.5 605.3 396.5H596.65ZM605.3 414.95H596.65C593.27 414.95 591 412.579 591 409.051V400.899C591 397.371 593.27 395 596.65 395H605.3C608.685 395 610.96 397.371 610.96 400.899V409.051C610.96 412.579 608.685 414.95 605.3 414.95Z" fill="#AFB1B6"/>
</g>
<path fill-rule="evenodd" clip-rule="evenodd" d="M594.281 410.18C594.095 410.18 593.91 410.112 593.765 409.974C593.464 409.69 593.452 409.214 593.737 408.915L595.265 407.302C596.074 406.443 597.439 406.401 598.302 407.211L599.26 408.183C599.527 408.453 599.961 408.458 600.229 408.194C600.33 408.075 602.508 405.43 602.508 405.43C602.922 404.928 603.506 404.618 604.155 404.554C604.805 404.497 605.436 404.686 605.939 405.099C605.982 405.134 606.021 405.168 608.217 407.423C608.506 407.719 608.501 408.194 608.204 408.483C607.908 408.774 607.432 408.765 607.143 408.469C607.143 408.469 605.094 406.366 604.948 406.224C604.793 406.097 604.544 406.023 604.299 406.047C604.05 406.072 603.826 406.191 603.667 406.384C601.343 409.203 601.315 409.23 601.277 409.267C600.419 410.109 599.034 410.095 598.191 409.235C598.191 409.235 597.261 408.291 597.245 408.272C597.014 408.058 596.602 408.072 596.355 408.333L594.825 409.946C594.677 410.102 594.479 410.18 594.281 410.18Z" fill="#AFB1B6"/>
<path fill-rule="evenodd" clip-rule="evenodd" d="M597.558 401.129C597.005 401.129 596.555 401.579 596.555 402.133C596.555 402.687 597.005 403.138 597.559 403.138C598.113 403.138 598.564 402.687 598.564 402.133C598.564 401.58 598.113 401.13 597.558 401.129ZM597.559 404.638C596.178 404.638 595.055 403.514 595.055 402.133C595.055 400.752 596.178 399.629 597.559 399.629C598.941 399.63 600.064 400.754 600.064 402.133C600.064 403.514 598.94 404.638 597.559 404.638Z" fill="#AFB1B6"/>
<g clip-path="url(#clip4_267_1904)">
<path d="M586.514 299.81C585.678 299.81 584.923 299.957 584.248 300.25C583.574 300.529 583.002 300.947 582.532 301.504C582.063 302.047 581.704 302.714 581.454 303.506C581.205 304.283 581.08 305.163 581.08 306.146C581.08 307.437 581.278 308.559 581.674 309.512C582.085 310.465 582.686 311.199 583.478 311.712C584.285 312.225 585.29 312.482 586.492 312.482C587.182 312.482 587.834 312.423 588.45 312.306C589.066 312.189 589.668 312.042 590.254 311.866V313.582C589.668 313.802 589.059 313.963 588.428 314.066C587.812 314.169 587.072 314.22 586.206 314.22C584.608 314.22 583.273 313.89 582.202 313.23C581.132 312.57 580.325 311.631 579.782 310.414C579.254 309.197 578.99 307.767 578.99 306.124C578.99 304.936 579.152 303.851 579.474 302.868C579.812 301.885 580.296 301.035 580.926 300.316C581.572 299.597 582.364 299.047 583.302 298.666C584.241 298.27 585.319 298.072 586.536 298.072C587.343 298.072 588.12 298.153 588.868 298.314C589.616 298.475 590.284 298.703 590.87 298.996L590.078 300.668C589.594 300.448 589.052 300.25 588.45 300.074C587.864 299.898 587.218 299.81 586.514 299.81ZM593.771 314V298.292H603.099V300.03H595.751V304.936H598.083C599.652 304.936 600.869 305.134 601.735 305.53C602.6 305.911 603.201 306.439 603.539 307.114C603.876 307.774 604.045 308.537 604.045 309.402C604.045 310.355 603.854 311.177 603.473 311.866C603.106 312.555 602.505 313.083 601.669 313.45C600.833 313.817 599.733 314 598.369 314H593.771ZM598.171 312.306C599.579 312.306 600.569 312.071 601.141 311.602C601.713 311.118 601.999 310.385 601.999 309.402C601.999 308.727 601.859 308.192 601.581 307.796C601.317 307.385 600.877 307.092 600.261 306.916C599.659 306.74 598.853 306.652 597.841 306.652H595.751V312.306H598.171ZM607.394 314V298.292H619.186V314H617.228V300.03H609.374V314H607.394Z" fill="#3A00E5"/>
</g>
<rect x="254" y="588" width="298" height="168" rx="7" fill="#EFEFF0"/>
<rect x="254" y="588" width="298" height="168" rx="7" stroke="#AFB1B6" stroke-width="2"/>
<mask id="mask2_267_1904" style="mask-type:luminance" maskUnits="userSpaceOnUse" x="393" y="662" width="20" height="20">
<path fill-rule="evenodd" clip-rule="evenodd" d="M393 662H412.96V681.95H393V662Z" fill="white"/>
</mask>
<g mask="url(#mask2_267_1904)">
<path fill-rule="evenodd" clip-rule="evenodd" d="M398.65 663.5C396.129 663.5 394.5 665.227 394.5 667.899V676.051C394.5 678.724 396.129 680.45 398.65 680.45H407.3C409.827 680.45 411.46 678.724 411.46 676.051V667.899C411.46 665.227 409.827 663.5 407.3 663.5H398.65ZM407.3 681.95H398.65C395.27 681.95 393 679.579 393 676.051V667.899C393 664.371 395.27 662 398.65 662H407.3C410.685 662 412.96 664.371 412.96 667.899V676.051C412.96 679.579 410.685 681.95 407.3 681.95Z" fill="#AFB1B6"/>
</g>
<path fill-rule="evenodd" clip-rule="evenodd" d="M396.281 677.18C396.095 677.18 395.91 677.112 395.765 676.974C395.464 676.69 395.452 676.214 395.737 675.915L397.265 674.302C398.074 673.443 399.439 673.401 400.302 674.211L401.26 675.183C401.527 675.453 401.961 675.458 402.229 675.194C402.33 675.075 404.508 672.43 404.508 672.43C404.922 671.928 405.506 671.618 406.155 671.554C406.805 671.497 407.436 671.686 407.939 672.099C407.982 672.134 408.021 672.168 410.217 674.423C410.506 674.719 410.501 675.194 410.204 675.483C409.908 675.774 409.432 675.765 409.143 675.469C409.143 675.469 407.094 673.366 406.948 673.224C406.793 673.097 406.544 673.023 406.299 673.047C406.05 673.072 405.826 673.191 405.667 673.384C403.343 676.203 403.315 676.23 403.277 676.267C402.419 677.109 401.034 677.095 400.191 676.235C400.191 676.235 399.261 675.291 399.245 675.272C399.014 675.058 398.602 675.072 398.355 675.333L396.825 676.946C396.677 677.102 396.479 677.18 396.281 677.18Z" fill="#AFB1B6"/>
<path fill-rule="evenodd" clip-rule="evenodd" d="M399.558 668.129C399.005 668.129 398.555 668.579 398.555 669.133C398.555 669.687 399.005 670.138 399.559 670.138C400.113 670.138 400.564 669.687 400.564 669.133C400.564 668.58 400.113 668.13 399.558 668.129ZM399.559 671.638C398.178 671.638 397.055 670.514 397.055 669.133C397.055 667.752 398.178 666.629 399.559 666.629C400.941 666.63 402.064 667.754 402.064 669.133C402.064 670.514 400.94 671.638 399.559 671.638Z" fill="#AFB1B6"/>
<g clip-path="url(#clip5_267_1904)">
<path d="M359.07 581H357.09V573.674H349.038V581H347.058V565.292H349.038V571.936H357.09V565.292H359.07V581ZM367.655 569.01C369.092 569.01 370.156 569.325 370.845 569.956C371.534 570.587 371.879 571.591 371.879 572.97V581H370.471L370.097 579.328H370.009C369.672 579.753 369.32 580.113 368.953 580.406C368.601 580.685 368.19 580.89 367.721 581.022C367.266 581.154 366.709 581.22 366.049 581.22C365.345 581.22 364.707 581.095 364.135 580.846C363.578 580.597 363.138 580.215 362.815 579.702C362.492 579.174 362.331 578.514 362.331 577.722C362.331 576.549 362.793 575.647 363.717 575.016C364.641 574.371 366.064 574.019 367.985 573.96L369.987 573.894V573.19C369.987 572.207 369.774 571.525 369.349 571.144C368.924 570.763 368.322 570.572 367.545 570.572C366.929 570.572 366.342 570.667 365.785 570.858C365.228 571.034 364.707 571.239 364.223 571.474L363.629 570.022C364.142 569.743 364.751 569.509 365.455 569.318C366.159 569.113 366.892 569.01 367.655 569.01ZM368.227 575.302C366.76 575.361 365.741 575.595 365.169 576.006C364.612 576.417 364.333 576.996 364.333 577.744C364.333 578.404 364.531 578.888 364.927 579.196C365.338 579.504 365.858 579.658 366.489 579.658C367.486 579.658 368.315 579.387 368.975 578.844C369.635 578.287 369.965 577.436 369.965 576.292V575.236L368.227 575.302ZM384.585 581H382.627V570.814H379.151C379.004 572.677 378.821 574.268 378.601 575.588C378.381 576.893 378.102 577.957 377.765 578.778C377.428 579.599 377.024 580.201 376.555 580.582C376.086 580.963 375.536 581.154 374.905 581.154C374.714 581.154 374.524 581.139 374.333 581.11C374.157 581.095 374.01 581.059 373.893 581V579.548C373.981 579.577 374.076 579.599 374.179 579.614C374.282 579.629 374.384 579.636 374.487 579.636C374.81 579.636 375.103 579.504 375.367 579.24C375.631 578.976 375.866 578.573 376.071 578.03C376.291 577.487 376.489 576.805 376.665 575.984C376.841 575.148 376.995 574.165 377.127 573.036C377.259 571.907 377.376 570.631 377.479 569.208H384.585V581ZM390.242 576.402C390.242 576.534 390.235 576.725 390.22 576.974C390.22 577.209 390.213 577.465 390.198 577.744C390.183 578.008 390.169 578.265 390.154 578.514C390.139 578.749 390.125 578.939 390.11 579.086L396.424 569.208H398.8V581H396.996V574.048C396.996 573.813 396.996 573.505 396.996 573.124C397.011 572.743 397.025 572.369 397.04 572.002C397.055 571.621 397.069 571.335 397.084 571.144L390.814 581H388.416V569.208H390.242V576.402ZM404.335 573.498C404.335 574.187 404.525 574.701 404.907 575.038C405.303 575.361 405.867 575.522 406.601 575.522C407.334 575.522 408.001 575.412 408.603 575.192C409.204 574.957 409.82 574.649 410.451 574.268V569.208H412.387V581H410.451V575.742C409.791 576.167 409.138 576.505 408.493 576.754C407.862 576.989 407.099 577.106 406.205 577.106C405.002 577.106 404.063 576.791 403.389 576.16C402.729 575.529 402.399 574.686 402.399 573.63V569.208H404.335V573.498ZM418.157 569.208V574.114H424.559V569.208H426.495V581H424.559V575.742H418.157V581H416.221V569.208H418.157ZM430.317 581V569.208H432.253V574.048H435.311C436.337 574.048 437.181 574.173 437.841 574.422C438.501 574.671 438.992 575.045 439.315 575.544C439.637 576.028 439.799 576.644 439.799 577.392C439.799 578.125 439.637 578.763 439.315 579.306C439.007 579.849 438.515 580.267 437.841 580.56C437.181 580.853 436.308 581 435.223 581H430.317ZM435.047 579.438C435.883 579.438 436.565 579.299 437.093 579.02C437.621 578.727 437.885 578.221 437.885 577.502C437.885 576.783 437.643 576.299 437.159 576.05C436.675 575.786 435.978 575.654 435.069 575.654H432.253V579.438H435.047ZM441.757 581V569.208H443.693V581H441.757ZM452.082 568.988C453.094 568.988 453.959 569.208 454.678 569.648C455.411 570.088 455.968 570.711 456.35 571.518C456.746 572.31 456.944 573.241 456.944 574.312V575.478H448.87C448.899 576.813 449.236 577.832 449.882 578.536C450.542 579.225 451.458 579.57 452.632 579.57C453.38 579.57 454.04 579.504 454.612 579.372C455.198 579.225 455.8 579.02 456.416 578.756V580.45C455.814 580.714 455.22 580.905 454.634 581.022C454.047 581.154 453.35 581.22 452.544 581.22C451.429 581.22 450.439 580.993 449.574 580.538C448.723 580.083 448.056 579.409 447.572 578.514C447.102 577.605 446.868 576.497 446.868 575.192C446.868 573.901 447.08 572.794 447.506 571.87C447.946 570.946 448.554 570.235 449.332 569.736C450.124 569.237 451.04 568.988 452.082 568.988ZM452.06 570.572C451.136 570.572 450.402 570.873 449.86 571.474C449.332 572.061 449.016 572.882 448.914 573.938H454.92C454.92 573.263 454.817 572.677 454.612 572.178C454.406 571.679 454.091 571.291 453.666 571.012C453.255 570.719 452.72 570.572 452.06 570.572Z" fill="#3A00E5"/>
</g>
<defs>
<clipPath id="clip0_267_1904">
<rect width="448" height="96" fill="white" transform="translate(192 124)"/>
</clipPath>
<clipPath id="clip1_267_1904">
<rect width="294" height="36" fill="white" transform="translate(80 880)"/>
</clipPath>
<clipPath id="clip2_267_1904">
<rect width="294" height="36" fill="white" transform="translate(457 872)"/>
</clipPath>
<clipPath id="clip3_267_1904">
<rect width="227" height="28" fill="white" transform="translate(91 292)"/>
</clipPath>
<clipPath id="clip4_267_1904">
<rect width="227" height="28" fill="white" transform="translate(486 292)"/>
</clipPath>
<clipPath id="clip5_267_1904">
<rect width="227" height="28" fill="white" transform="translate(288 559)"/>
</clipPath>
</defs>
</svg>
