<svg width="834" height="1194" viewBox="0 0 834 1194" fill="none" xmlns="http://www.w3.org/2000/svg">
<rect x="0.5" y="0.5" width="833" height="1193" fill="white"/>
<rect x="0.5" y="0.5" width="833" height="1193" stroke="black"/>
<g clip-path="url(#clip0_268_2463)">
<path d="M260.618 133.44C262.991 133.44 264.978 133.667 266.578 134.12C268.205 134.573 269.418 135.32 270.218 136.36C271.045 137.4 271.458 138.787 271.458 140.52C271.458 141.64 271.245 142.64 270.818 143.52C270.418 144.373 269.805 145.093 268.978 145.68C268.178 146.24 267.191 146.627 266.018 146.84V147.04C267.218 147.227 268.298 147.573 269.258 148.08C270.245 148.587 271.018 149.307 271.578 150.24C272.138 151.173 272.418 152.387 272.418 153.88C272.418 155.613 272.018 157.093 271.218 158.32C270.418 159.52 269.271 160.44 267.778 161.08C266.311 161.693 264.551 162 262.498 162H252.458V133.44H260.618ZM261.338 145.6C263.791 145.6 265.471 145.213 266.378 144.44C267.285 143.64 267.738 142.467 267.738 140.92C267.738 139.347 267.178 138.227 266.058 137.56C264.965 136.867 263.205 136.52 260.778 136.52H256.058V145.6H261.338ZM256.058 148.6V158.96H261.818C264.351 158.96 266.111 158.467 267.098 157.48C268.085 156.493 268.578 155.2 268.578 153.6C268.578 152.587 268.351 151.707 267.898 150.96C267.471 150.213 266.738 149.64 265.698 149.24C264.685 148.813 263.298 148.6 261.538 148.6H256.058ZM286.114 140.2C288.727 140.2 290.66 140.773 291.914 141.92C293.167 143.067 293.794 144.893 293.794 147.4V162H291.234L290.554 158.96H290.394C289.78 159.733 289.14 160.387 288.474 160.92C287.834 161.427 287.087 161.8 286.234 162.04C285.407 162.28 284.394 162.4 283.194 162.4C281.914 162.4 280.754 162.173 279.714 161.72C278.7 161.267 277.9 160.573 277.314 159.64C276.727 158.68 276.434 157.48 276.434 156.04C276.434 153.907 277.274 152.267 278.954 151.12C280.634 149.947 283.22 149.307 286.714 149.2L290.354 149.08V147.8C290.354 146.013 289.967 144.773 289.194 144.08C288.42 143.387 287.327 143.04 285.914 143.04C284.794 143.04 283.727 143.213 282.714 143.56C281.7 143.88 280.754 144.253 279.874 144.68L278.794 142.04C279.727 141.533 280.834 141.107 282.114 140.76C283.394 140.387 284.727 140.2 286.114 140.2ZM287.154 151.64C284.487 151.747 282.634 152.173 281.594 152.92C280.58 153.667 280.074 154.72 280.074 156.08C280.074 157.28 280.434 158.16 281.154 158.72C281.9 159.28 282.847 159.56 283.994 159.56C285.807 159.56 287.314 159.067 288.514 158.08C289.714 157.067 290.314 155.52 290.314 153.44V151.52L287.154 151.64ZM329.496 140.56V162H300.416V140.56H303.936V159.04H313.176V140.56H316.696V159.04H325.976V140.56H329.496ZM355.626 140.16C357.253 140.16 358.666 140.387 359.866 140.84C361.066 141.267 361.999 141.907 362.666 142.76C363.333 143.587 363.666 144.6 363.666 145.8C363.666 147.107 363.306 148.147 362.586 148.92C361.866 149.667 360.879 150.213 359.626 150.56V150.72C360.479 150.96 361.266 151.293 361.986 151.72C362.706 152.147 363.279 152.707 363.706 153.4C364.159 154.093 364.386 154.987 364.386 156.08C364.386 157.253 364.053 158.32 363.386 159.28C362.746 160.24 361.746 161 360.386 161.56C359.053 162.12 357.333 162.4 355.226 162.4C354.213 162.4 353.239 162.347 352.306 162.24C351.399 162.133 350.573 161.973 349.826 161.76C349.106 161.547 348.466 161.293 347.906 161V157.84C348.813 158.267 349.879 158.653 351.106 159C352.359 159.347 353.719 159.52 355.186 159.52C356.253 159.52 357.213 159.4 358.066 159.16C358.946 158.92 359.639 158.547 360.146 158.04C360.653 157.507 360.906 156.787 360.906 155.88C360.906 155.053 360.679 154.387 360.226 153.88C359.773 153.347 359.093 152.947 358.186 152.68C357.306 152.413 356.173 152.28 354.786 152.28H351.906V149.4H354.226C356.066 149.4 357.533 149.16 358.626 148.68C359.746 148.173 360.306 147.32 360.306 146.12C360.306 145.107 359.879 144.347 359.026 143.84C358.199 143.333 356.999 143.08 355.426 143.08C354.253 143.08 353.213 143.2 352.306 143.44C351.426 143.653 350.453 143.987 349.386 144.44L348.146 141.64C349.293 141.133 350.493 140.76 351.746 140.52C352.999 140.28 354.293 140.16 355.626 140.16ZM377.715 140.2C380.329 140.2 382.262 140.773 383.515 141.92C384.769 143.067 385.395 144.893 385.395 147.4V162H382.835L382.155 158.96H381.995C381.382 159.733 380.742 160.387 380.075 160.92C379.435 161.427 378.689 161.8 377.835 162.04C377.009 162.28 375.995 162.4 374.795 162.4C373.515 162.4 372.355 162.173 371.315 161.72C370.302 161.267 369.502 160.573 368.915 159.64C368.329 158.68 368.035 157.48 368.035 156.04C368.035 153.907 368.875 152.267 370.555 151.12C372.235 149.947 374.822 149.307 378.315 149.2L381.955 149.08V147.8C381.955 146.013 381.569 144.773 380.795 144.08C380.022 143.387 378.929 143.04 377.515 143.04C376.395 143.04 375.329 143.213 374.315 143.56C373.302 143.88 372.355 144.253 371.475 144.68L370.395 142.04C371.329 141.533 372.435 141.107 373.715 140.76C374.995 140.387 376.329 140.2 377.715 140.2ZM378.755 151.64C376.089 151.747 374.235 152.173 373.195 152.92C372.182 153.667 371.675 154.72 371.675 156.08C371.675 157.28 372.035 158.16 372.755 158.72C373.502 159.28 374.449 159.56 375.595 159.56C377.409 159.56 378.915 159.067 380.115 158.08C381.315 157.067 381.915 155.52 381.915 153.44V151.52L378.755 151.64ZM404.697 140.56H408.537L399.377 150.88L409.297 162H405.217L395.537 151.12V162H392.017V140.56H395.537V150.96L404.697 140.56ZM421.309 140.2C423.922 140.2 425.856 140.773 427.109 141.92C428.362 143.067 428.989 144.893 428.989 147.4V162H426.429L425.749 158.96H425.589C424.976 159.733 424.336 160.387 423.669 160.92C423.029 161.427 422.282 161.8 421.429 162.04C420.602 162.28 419.589 162.4 418.389 162.4C417.109 162.4 415.949 162.173 414.909 161.72C413.896 161.267 413.096 160.573 412.509 159.64C411.922 158.68 411.629 157.48 411.629 156.04C411.629 153.907 412.469 152.267 414.149 151.12C415.829 149.947 418.416 149.307 421.909 149.2L425.549 149.08V147.8C425.549 146.013 425.162 144.773 424.389 144.08C423.616 143.387 422.522 143.04 421.109 143.04C419.989 143.04 418.922 143.213 417.909 143.56C416.896 143.88 415.949 144.253 415.069 144.68L413.989 142.04C414.922 141.533 416.029 141.107 417.309 140.76C418.589 140.387 419.922 140.2 421.309 140.2ZM422.349 151.64C419.682 151.747 417.829 152.173 416.789 152.92C415.776 153.667 415.269 154.72 415.269 156.08C415.269 157.28 415.629 158.16 416.349 158.72C417.096 159.28 418.042 159.56 419.189 159.56C421.002 159.56 422.509 159.067 423.709 158.08C424.909 157.067 425.509 155.52 425.509 153.44V151.52L422.349 151.64ZM441.251 140.16C442.878 140.16 444.291 140.387 445.491 140.84C446.691 141.267 447.624 141.907 448.291 142.76C448.958 143.587 449.291 144.6 449.291 145.8C449.291 147.107 448.931 148.147 448.211 148.92C447.491 149.667 446.504 150.213 445.251 150.56V150.72C446.104 150.96 446.891 151.293 447.611 151.72C448.331 152.147 448.904 152.707 449.331 153.4C449.784 154.093 450.011 154.987 450.011 156.08C450.011 157.253 449.678 158.32 449.011 159.28C448.371 160.24 447.371 161 446.011 161.56C444.678 162.12 442.958 162.4 440.851 162.4C439.838 162.4 438.864 162.347 437.931 162.24C437.024 162.133 436.198 161.973 435.451 161.76C434.731 161.547 434.091 161.293 433.531 161V157.84C434.438 158.267 435.504 158.653 436.731 159C437.984 159.347 439.344 159.52 440.811 159.52C441.878 159.52 442.838 159.4 443.691 159.16C444.571 158.92 445.264 158.547 445.771 158.04C446.278 157.507 446.531 156.787 446.531 155.88C446.531 155.053 446.304 154.387 445.851 153.88C445.398 153.347 444.718 152.947 443.811 152.68C442.931 152.413 441.798 152.28 440.411 152.28H437.531V149.4H439.851C441.691 149.4 443.158 149.16 444.251 148.68C445.371 148.173 445.931 147.32 445.931 146.12C445.931 145.107 445.504 144.347 444.651 143.84C443.824 143.333 442.624 143.08 441.051 143.08C439.878 143.08 438.838 143.2 437.931 143.44C437.051 143.653 436.078 143.987 435.011 144.44L433.771 141.64C434.918 141.133 436.118 140.76 437.371 140.52C438.624 140.28 439.918 140.16 441.251 140.16ZM472.373 140.56V149.48H484.013V140.56H487.533V162H484.013V152.44H472.373V162H468.853V140.56H472.373ZM502.442 140.2C505.055 140.2 506.989 140.773 508.242 141.92C509.495 143.067 510.122 144.893 510.122 147.4V162H507.562L506.882 158.96H506.722C506.109 159.733 505.469 160.387 504.802 160.92C504.162 161.427 503.415 161.8 502.562 162.04C501.735 162.28 500.722 162.4 499.522 162.4C498.242 162.4 497.082 162.173 496.042 161.72C495.029 161.267 494.229 160.573 493.642 159.64C493.055 158.68 492.762 157.48 492.762 156.04C492.762 153.907 493.602 152.267 495.282 151.12C496.962 149.947 499.549 149.307 503.042 149.2L506.682 149.08V147.8C506.682 146.013 506.295 144.773 505.522 144.08C504.749 143.387 503.655 143.04 502.242 143.04C501.122 143.04 500.055 143.213 499.042 143.56C498.029 143.88 497.082 144.253 496.202 144.68L495.122 142.04C496.055 141.533 497.162 141.107 498.442 140.76C499.722 140.387 501.055 140.2 502.442 140.2ZM503.482 151.64C500.815 151.747 498.962 152.173 497.922 152.92C496.909 153.667 496.402 154.72 496.402 156.08C496.402 157.28 496.762 158.16 497.482 158.72C498.229 159.28 499.175 159.56 500.322 159.56C502.135 159.56 503.642 159.067 504.842 158.08C506.042 157.067 506.642 155.52 506.642 153.44V151.52L503.482 151.64ZM519.824 148.36C519.824 149.613 520.17 150.547 520.864 151.16C521.584 151.747 522.61 152.04 523.944 152.04C525.277 152.04 526.49 151.84 527.584 151.44C528.677 151.013 529.797 150.453 530.944 149.76V140.56H534.464V162H530.944V152.44C529.744 153.213 528.557 153.827 527.384 154.28C526.237 154.707 524.85 154.92 523.224 154.92C521.037 154.92 519.33 154.347 518.104 153.2C516.904 152.053 516.304 150.52 516.304 148.6V140.56H519.824V148.36ZM549.395 140.2C552.008 140.2 553.942 140.773 555.195 141.92C556.448 143.067 557.075 144.893 557.075 147.4V162H554.515L553.835 158.96H553.675C553.062 159.733 552.422 160.387 551.755 160.92C551.115 161.427 550.368 161.8 549.515 162.04C548.688 162.28 547.675 162.4 546.475 162.4C545.195 162.4 544.035 162.173 542.995 161.72C541.982 161.267 541.182 160.573 540.595 159.64C540.008 158.68 539.715 157.48 539.715 156.04C539.715 153.907 540.555 152.267 542.235 151.12C543.915 149.947 546.502 149.307 549.995 149.2L553.635 149.08V147.8C553.635 146.013 553.248 144.773 552.475 144.08C551.702 143.387 550.608 143.04 549.195 143.04C548.075 143.04 547.008 143.213 545.995 143.56C544.982 143.88 544.035 144.253 543.155 144.68L542.075 142.04C543.008 141.533 544.115 141.107 545.395 140.76C546.675 140.387 548.008 140.2 549.395 140.2ZM550.435 151.64C547.768 151.747 545.915 152.173 544.875 152.92C543.862 153.667 543.355 154.72 543.355 156.08C543.355 157.28 543.715 158.16 544.435 158.72C545.182 159.28 546.128 159.56 547.275 159.56C549.088 159.56 550.595 159.067 551.795 158.08C552.995 157.067 553.595 155.52 553.595 153.44V151.52L550.435 151.64ZM580.017 162H576.457V143.48H570.137C569.87 146.867 569.537 149.76 569.137 152.16C568.737 154.533 568.23 156.467 567.617 157.96C567.004 159.453 566.27 160.547 565.417 161.24C564.564 161.933 563.564 162.28 562.417 162.28C562.07 162.28 561.724 162.253 561.377 162.2C561.057 162.173 560.79 162.107 560.577 162V159.36C560.737 159.413 560.91 159.453 561.097 159.48C561.284 159.507 561.47 159.52 561.657 159.52C562.244 159.52 562.777 159.28 563.257 158.8C563.737 158.32 564.164 157.587 564.537 156.6C564.937 155.613 565.297 154.373 565.617 152.88C565.937 151.36 566.217 149.573 566.457 147.52C566.697 145.467 566.91 143.147 567.097 140.56H580.017V162ZM324.14 188.56V191.52H314.58V210H311.06V188.56H324.14ZM346.614 199.24C346.614 201.027 346.374 202.613 345.894 204C345.441 205.36 344.774 206.52 343.894 207.48C343.041 208.44 341.988 209.173 340.734 209.68C339.508 210.16 338.134 210.4 336.614 210.4C335.201 210.4 333.894 210.16 332.694 209.68C331.494 209.173 330.454 208.44 329.574 207.48C328.694 206.52 328.001 205.36 327.494 204C327.014 202.613 326.774 201.027 326.774 199.24C326.774 196.867 327.174 194.867 327.974 193.24C328.774 191.587 329.921 190.333 331.414 189.48C332.908 188.6 334.681 188.16 336.734 188.16C338.681 188.16 340.388 188.6 341.854 189.48C343.348 190.333 344.508 191.587 345.334 193.24C346.188 194.867 346.614 196.867 346.614 199.24ZM330.414 199.24C330.414 200.92 330.628 202.387 331.054 203.64C331.508 204.867 332.201 205.813 333.134 206.48C334.068 207.147 335.254 207.48 336.694 207.48C338.134 207.48 339.321 207.147 340.254 206.48C341.188 205.813 341.868 204.867 342.294 203.64C342.748 202.387 342.974 200.92 342.974 199.24C342.974 197.533 342.748 196.08 342.294 194.88C341.841 193.68 341.148 192.76 340.214 192.12C339.308 191.453 338.121 191.12 336.654 191.12C334.468 191.12 332.881 191.84 331.894 193.28C330.908 194.72 330.414 196.707 330.414 199.24ZM366.602 191.52H359.602V210H356.122V191.52H349.202V188.56H366.602V191.52ZM389.075 199.24C389.075 201.027 388.835 202.613 388.355 204C387.902 205.36 387.235 206.52 386.355 207.48C385.502 208.44 384.448 209.173 383.195 209.68C381.968 210.16 380.595 210.4 379.075 210.4C377.662 210.4 376.355 210.16 375.155 209.68C373.955 209.173 372.915 208.44 372.035 207.48C371.155 206.52 370.462 205.36 369.955 204C369.475 202.613 369.235 201.027 369.235 199.24C369.235 196.867 369.635 194.867 370.435 193.24C371.235 191.587 372.382 190.333 373.875 189.48C375.368 188.6 377.142 188.16 379.195 188.16C381.142 188.16 382.848 188.6 384.315 189.48C385.808 190.333 386.968 191.587 387.795 193.24C388.648 194.867 389.075 196.867 389.075 199.24ZM372.875 199.24C372.875 200.92 373.088 202.387 373.515 203.64C373.968 204.867 374.662 205.813 375.595 206.48C376.528 207.147 377.715 207.48 379.155 207.48C380.595 207.48 381.782 207.147 382.715 206.48C383.648 205.813 384.328 204.867 384.755 203.64C385.208 202.387 385.435 200.92 385.435 199.24C385.435 197.533 385.208 196.08 384.755 194.88C384.302 193.68 383.608 192.76 382.675 192.12C381.768 191.453 380.582 191.12 379.115 191.12C376.928 191.12 375.342 191.84 374.355 193.28C373.368 194.72 372.875 196.707 372.875 199.24ZM411.894 193.96C411.894 195.293 411.494 196.333 410.694 197.08C409.894 197.827 408.867 198.333 407.614 198.6V198.76C408.947 198.947 410.107 199.427 411.094 200.2C412.081 200.947 412.574 202.12 412.574 203.72C412.574 204.627 412.401 205.467 412.054 206.24C411.734 207.013 411.227 207.68 410.534 208.24C409.841 208.8 408.947 209.24 407.854 209.56C406.761 209.853 405.441 210 403.894 210H394.654V188.56H403.854C405.374 188.56 406.734 188.733 407.934 189.08C409.161 189.4 410.121 189.96 410.814 190.76C411.534 191.533 411.894 192.6 411.894 193.96ZM408.934 203.72C408.934 202.493 408.467 201.613 407.534 201.08C406.601 200.547 405.227 200.28 403.414 200.28H398.174V207.16H403.494C405.254 207.16 406.601 206.907 407.534 206.4C408.467 205.867 408.934 204.973 408.934 203.72ZM408.334 194.4C408.334 193.387 407.961 192.653 407.214 192.2C406.494 191.72 405.307 191.48 403.654 191.48H398.174V197.36H403.014C404.747 197.36 406.067 197.12 406.974 196.64C407.881 196.16 408.334 195.413 408.334 194.4ZM421.021 201.64C421.021 201.88 421.007 202.227 420.981 202.68C420.981 203.107 420.967 203.573 420.941 204.08C420.914 204.56 420.887 205.027 420.861 205.48C420.834 205.907 420.807 206.253 420.781 206.52L432.261 188.56H436.581V210H433.301V197.36C433.301 196.933 433.301 196.373 433.301 195.68C433.327 194.987 433.354 194.307 433.381 193.64C433.407 192.947 433.434 192.427 433.461 192.08L422.061 210H417.701V188.56H421.021V201.64ZM458.204 191.52H451.204V210H447.724V191.52H440.804V188.56H458.204V191.52ZM472.307 197.36C474.174 197.36 475.721 197.587 476.947 198.04C478.174 198.493 479.094 199.173 479.707 200.08C480.347 200.96 480.667 202.08 480.667 203.44C480.667 204.773 480.361 205.933 479.747 206.92C479.161 207.907 478.241 208.667 476.987 209.2C475.734 209.733 474.121 210 472.147 210H462.427V188.56H465.947V197.36H472.307ZM477.147 203.64C477.147 202.333 476.681 201.453 475.747 201C474.841 200.52 473.561 200.28 471.907 200.28H465.947V207.16H471.987C473.481 207.16 474.707 206.893 475.667 206.36C476.654 205.827 477.147 204.92 477.147 203.64ZM494.777 210.4C492.884 210.4 491.191 210.013 489.697 209.24C488.231 208.467 487.071 207.267 486.217 205.64C485.391 204.013 484.977 201.933 484.977 199.4C484.977 196.76 485.417 194.613 486.297 192.96C487.177 191.307 488.364 190.093 489.857 189.32C491.377 188.547 493.097 188.16 495.017 188.16C496.111 188.16 497.164 188.28 498.177 188.52C499.191 188.733 500.017 189 500.657 189.32L499.577 192.24C498.937 192 498.191 191.773 497.337 191.56C496.484 191.347 495.684 191.24 494.937 191.24C493.497 191.24 492.311 191.547 491.377 192.16C490.444 192.773 489.751 193.68 489.297 194.88C488.844 196.08 488.617 197.573 488.617 199.36C488.617 201.067 488.844 202.52 489.297 203.72C489.751 204.92 490.431 205.827 491.337 206.44C492.244 207.053 493.377 207.36 494.737 207.36C495.911 207.36 496.937 207.24 497.817 207C498.724 206.76 499.551 206.467 500.297 206.12V209.24C499.577 209.613 498.777 209.893 497.897 210.08C497.044 210.293 496.004 210.4 494.777 210.4ZM506.716 210H502.636L508.756 201C507.929 200.787 507.129 200.453 506.356 200C505.583 199.52 504.956 198.867 504.476 198.04C503.996 197.187 503.756 196.133 503.756 194.88C503.756 192.827 504.449 191.267 505.836 190.2C507.223 189.107 509.063 188.56 511.356 188.56H520.956V210H517.436V201.48H512.236L506.716 210ZM507.156 194.92C507.156 196.147 507.609 197.067 508.516 197.68C509.449 198.267 510.743 198.56 512.396 198.56H517.436V191.48H511.716C510.089 191.48 508.916 191.8 508.196 192.44C507.503 193.08 507.156 193.907 507.156 194.92Z" fill="#19191B"/>
</g>
<rect x="68" y="255" width="682" height="596" rx="7" fill="#EFEFF0"/>
<rect x="68" y="255" width="682" height="596" rx="7" stroke="#AFB1B6" stroke-width="2"/>
<mask id="mask0_268_2463" style="mask-type:luminance" maskUnits="userSpaceOnUse" x="399" y="543" width="20" height="20">
<path fill-rule="evenodd" clip-rule="evenodd" d="M399 543H418.96V562.95H399V543Z" fill="white"/>
</mask>
<g mask="url(#mask0_268_2463)">
<path fill-rule="evenodd" clip-rule="evenodd" d="M404.65 544.5C402.129 544.5 400.5 546.227 400.5 548.899V557.051C400.5 559.724 402.129 561.45 404.65 561.45H413.3C415.827 561.45 417.46 559.724 417.46 557.051V548.899C417.46 546.227 415.827 544.5 413.3 544.5H404.65ZM413.3 562.95H404.65C401.27 562.95 399 560.579 399 557.051V548.899C399 545.371 401.27 543 404.65 543H413.3C416.685 543 418.96 545.371 418.96 548.899V557.051C418.96 560.579 416.685 562.95 413.3 562.95Z" fill="#AFB1B6"/>
</g>
<path fill-rule="evenodd" clip-rule="evenodd" d="M402.281 558.18C402.095 558.18 401.91 558.112 401.765 557.974C401.464 557.69 401.452 557.214 401.737 556.915L403.265 555.302C404.074 554.443 405.439 554.401 406.302 555.211L407.26 556.183C407.527 556.453 407.961 556.458 408.229 556.194C408.33 556.075 410.508 553.43 410.508 553.43C410.922 552.928 411.506 552.618 412.155 552.554C412.805 552.497 413.436 552.686 413.939 553.099C413.982 553.134 414.021 553.168 416.217 555.423C416.506 555.719 416.501 556.194 416.204 556.483C415.908 556.774 415.432 556.765 415.143 556.469C415.143 556.469 413.094 554.366 412.948 554.224C412.793 554.097 412.544 554.023 412.299 554.047C412.05 554.072 411.826 554.191 411.667 554.384C409.343 557.203 409.315 557.23 409.277 557.267C408.419 558.109 407.034 558.095 406.191 557.235C406.191 557.235 405.261 556.291 405.245 556.272C405.014 556.058 404.602 556.072 404.355 556.333L402.825 557.946C402.677 558.102 402.479 558.18 402.281 558.18Z" fill="#AFB1B6"/>
<path fill-rule="evenodd" clip-rule="evenodd" d="M405.558 549.129C405.005 549.129 404.555 549.579 404.555 550.133C404.555 550.687 405.005 551.138 405.559 551.138C406.113 551.138 406.564 550.687 406.564 550.133C406.564 549.58 406.113 549.13 405.558 549.129ZM405.559 552.638C404.178 552.638 403.055 551.514 403.055 550.133C403.055 548.752 404.178 547.629 405.559 547.629C406.941 547.63 408.064 548.754 408.064 550.133C408.064 551.514 406.94 552.638 405.559 552.638Z" fill="#AFB1B6"/>
<defs>
<clipPath id="clip0_268_2463">
<rect width="448" height="96" fill="white" transform="translate(192 124)"/>
</clipPath>
</defs>
</svg>
