<svg width="834" height="1194" viewBox="0 0 834 1194" fill="none" xmlns="http://www.w3.org/2000/svg">
<rect x="0.5" y="0.5" width="833" height="1193" fill="white"/>
<rect x="0.5" y="0.5" width="833" height="1193" stroke="black"/>
<g clip-path="url(#clip0_268_2439)">
<path d="M93.2119 119.44C95.5852 119.44 97.5719 119.667 99.1719 120.12C100.799 120.573 102.012 121.32 102.812 122.36C103.639 123.4 104.052 124.787 104.052 126.52C104.052 127.64 103.839 128.64 103.412 129.52C103.012 130.373 102.399 131.093 101.572 131.68C100.772 132.24 99.7852 132.627 98.6119 132.84V133.04C99.8119 133.227 100.892 133.573 101.852 134.08C102.839 134.587 103.612 135.307 104.172 136.24C104.732 137.173 105.012 138.387 105.012 139.88C105.012 141.613 104.612 143.093 103.812 144.32C103.012 145.52 101.865 146.44 100.372 147.08C98.9052 147.693 97.1452 148 95.0919 148H85.0519V119.44H93.2119ZM93.9319 131.6C96.3852 131.6 98.0652 131.213 98.9719 130.44C99.8785 129.64 100.332 128.467 100.332 126.92C100.332 125.347 99.7719 124.227 98.6519 123.56C97.5585 122.867 95.7985 122.52 93.3719 122.52H88.6519V131.6H93.9319ZM88.6519 134.6V144.96H94.4119C96.9452 144.96 98.7052 144.467 99.6919 143.48C100.679 142.493 101.172 141.2 101.172 139.6C101.172 138.587 100.945 137.707 100.492 136.96C100.065 136.213 99.3319 135.64 98.2919 135.24C97.2785 134.813 95.8919 134.6 94.1319 134.6H88.6519ZM129.227 137.24C129.227 139.027 128.988 140.613 128.508 142C128.054 143.36 127.388 144.52 126.508 145.48C125.654 146.44 124.601 147.173 123.348 147.68C122.121 148.16 120.748 148.4 119.228 148.4C117.814 148.4 116.508 148.16 115.308 147.68C114.108 147.173 113.068 146.44 112.188 145.48C111.308 144.52 110.614 143.36 110.108 142C109.628 140.613 109.388 139.027 109.388 137.24C109.388 134.867 109.788 132.867 110.588 131.24C111.388 129.587 112.534 128.333 114.028 127.48C115.521 126.6 117.294 126.16 119.348 126.16C121.294 126.16 123.001 126.6 124.468 127.48C125.961 128.333 127.121 129.587 127.948 131.24C128.801 132.867 129.227 134.867 129.227 137.24ZM113.028 137.24C113.028 138.92 113.241 140.387 113.668 141.64C114.121 142.867 114.814 143.813 115.748 144.48C116.681 145.147 117.868 145.48 119.308 145.48C120.748 145.48 121.934 145.147 122.868 144.48C123.801 143.813 124.481 142.867 124.908 141.64C125.361 140.387 125.588 138.92 125.588 137.24C125.588 135.533 125.361 134.08 124.908 132.88C124.454 131.68 123.761 130.76 122.828 130.12C121.921 129.453 120.734 129.12 119.268 129.12C117.081 129.12 115.494 129.84 114.508 131.28C113.521 132.72 113.028 134.707 113.028 137.24ZM140.446 126.16C142.073 126.16 143.486 126.387 144.686 126.84C145.886 127.267 146.82 127.907 147.486 128.76C148.153 129.587 148.486 130.6 148.486 131.8C148.486 133.107 148.126 134.147 147.406 134.92C146.686 135.667 145.7 136.213 144.446 136.56V136.72C145.3 136.96 146.086 137.293 146.806 137.72C147.526 138.147 148.1 138.707 148.526 139.4C148.98 140.093 149.206 140.987 149.206 142.08C149.206 143.253 148.873 144.32 148.206 145.28C147.566 146.24 146.566 147 145.206 147.56C143.873 148.12 142.153 148.4 140.046 148.4C139.033 148.4 138.06 148.347 137.126 148.24C136.22 148.133 135.393 147.973 134.646 147.76C133.926 147.547 133.286 147.293 132.726 147V143.84C133.633 144.267 134.7 144.653 135.926 145C137.18 145.347 138.54 145.52 140.006 145.52C141.073 145.52 142.033 145.4 142.886 145.16C143.766 144.92 144.46 144.547 144.966 144.04C145.473 143.507 145.726 142.787 145.726 141.88C145.726 141.053 145.5 140.387 145.046 139.88C144.593 139.347 143.913 138.947 143.006 138.68C142.126 138.413 140.993 138.28 139.606 138.28H136.726V135.4H139.046C140.886 135.4 142.353 135.16 143.446 134.68C144.566 134.173 145.126 133.32 145.126 132.12C145.126 131.107 144.7 130.347 143.846 129.84C143.02 129.333 141.82 129.08 140.246 129.08C139.073 129.08 138.033 129.2 137.126 129.44C136.246 129.653 135.273 129.987 134.206 130.44L132.966 127.64C134.113 127.133 135.313 126.76 136.566 126.52C137.82 126.28 139.113 126.16 140.446 126.16ZM164.296 135.36C166.162 135.36 167.709 135.587 168.936 136.04C170.162 136.493 171.082 137.173 171.696 138.08C172.336 138.96 172.656 140.08 172.656 141.44C172.656 142.773 172.349 143.933 171.736 144.92C171.149 145.907 170.229 146.667 168.976 147.2C167.722 147.733 166.109 148 164.136 148H154.416V126.56H157.936V135.36H164.296ZM169.136 141.64C169.136 140.333 168.669 139.453 167.736 139C166.829 138.52 165.549 138.28 163.896 138.28H157.936V145.16H163.976C165.469 145.16 166.696 144.893 167.656 144.36C168.642 143.827 169.136 142.92 169.136 141.64ZM201.166 126.56V148H198.006V134.32C198.006 133.76 198.019 133.173 198.046 132.56C198.099 131.947 198.152 131.347 198.206 130.76H198.086L191.086 148H188.126L181.326 130.76H181.206C181.259 131.347 181.286 131.947 181.286 132.56C181.312 133.173 181.326 133.8 181.326 134.44V148H178.166V126.56H182.846L189.606 143.8L196.486 126.56H201.166ZM211.329 139.64C211.329 139.88 211.316 140.227 211.289 140.68C211.289 141.107 211.276 141.573 211.249 142.08C211.223 142.56 211.196 143.027 211.169 143.48C211.143 143.907 211.116 144.253 211.089 144.52L222.569 126.56H226.889V148H223.609V135.36C223.609 134.933 223.609 134.373 223.609 133.68C223.636 132.987 223.663 132.307 223.689 131.64C223.716 130.947 223.743 130.427 223.769 130.08L212.369 148H208.009V126.56H211.329V139.64ZM248.513 129.52H241.513V148H238.033V129.52H231.113V126.56H248.513V129.52ZM260.625 126.16C262.465 126.16 264.039 126.56 265.345 127.36C266.679 128.16 267.692 129.293 268.385 130.76C269.105 132.2 269.465 133.893 269.465 135.84V137.96H254.785C254.839 140.387 255.452 142.24 256.625 143.52C257.825 144.773 259.492 145.4 261.625 145.4C262.985 145.4 264.185 145.28 265.225 145.04C266.292 144.773 267.385 144.4 268.505 143.92V147C267.412 147.48 266.332 147.827 265.265 148.04C264.199 148.28 262.932 148.4 261.465 148.4C259.439 148.4 257.639 147.987 256.065 147.16C254.519 146.333 253.305 145.107 252.425 143.48C251.572 141.827 251.145 139.813 251.145 137.44C251.145 135.093 251.532 133.08 252.305 131.4C253.105 129.72 254.212 128.427 255.625 127.52C257.065 126.613 258.732 126.16 260.625 126.16ZM260.585 129.04C258.905 129.04 257.572 129.587 256.585 130.68C255.625 131.747 255.052 133.24 254.865 135.16H265.785C265.785 133.933 265.599 132.867 265.225 131.96C264.852 131.053 264.279 130.347 263.505 129.84C262.759 129.307 261.785 129.04 260.585 129.04ZM303.356 129.52H296.356V148H292.876V129.52H285.956V126.56H303.356V129.52ZM315.7 126.2C318.313 126.2 320.246 126.773 321.5 127.92C322.753 129.067 323.38 130.893 323.38 133.4V148H320.82L320.14 144.96H319.98C319.366 145.733 318.726 146.387 318.06 146.92C317.42 147.427 316.673 147.8 315.82 148.04C314.993 148.28 313.98 148.4 312.78 148.4C311.5 148.4 310.34 148.173 309.3 147.72C308.286 147.267 307.486 146.573 306.9 145.64C306.313 144.68 306.02 143.48 306.02 142.04C306.02 139.907 306.86 138.267 308.54 137.12C310.22 135.947 312.806 135.307 316.3 135.2L319.94 135.08V133.8C319.94 132.013 319.553 130.773 318.78 130.08C318.006 129.387 316.913 129.04 315.5 129.04C314.38 129.04 313.313 129.213 312.3 129.56C311.286 129.88 310.34 130.253 309.46 130.68L308.38 128.04C309.313 127.533 310.42 127.107 311.7 126.76C312.98 126.387 314.313 126.2 315.7 126.2ZM316.74 137.64C314.073 137.747 312.22 138.173 311.18 138.92C310.166 139.667 309.66 140.72 309.66 142.08C309.66 143.28 310.02 144.16 310.74 144.72C311.486 145.28 312.433 145.56 313.58 145.56C315.393 145.56 316.9 145.067 318.1 144.08C319.3 143.067 319.9 141.52 319.9 139.44V137.52L316.74 137.64ZM346.322 148H342.762V129.48H336.442C336.175 132.867 335.842 135.76 335.442 138.16C335.042 140.533 334.535 142.467 333.922 143.96C333.308 145.453 332.575 146.547 331.722 147.24C330.868 147.933 329.868 148.28 328.722 148.28C328.375 148.28 328.028 148.253 327.682 148.2C327.362 148.173 327.095 148.107 326.882 148V145.36C327.042 145.413 327.215 145.453 327.402 145.48C327.588 145.507 327.775 145.52 327.962 145.52C328.548 145.52 329.082 145.28 329.562 144.8C330.042 144.32 330.468 143.587 330.842 142.6C331.242 141.613 331.602 140.373 331.922 138.88C332.242 137.36 332.522 135.573 332.762 133.52C333.002 131.467 333.215 129.147 333.402 126.56H346.322V148ZM371.767 137.24C371.767 139.027 371.527 140.613 371.047 142C370.593 143.36 369.927 144.52 369.047 145.48C368.193 146.44 367.14 147.173 365.887 147.68C364.66 148.16 363.287 148.4 361.767 148.4C360.353 148.4 359.047 148.16 357.847 147.68C356.647 147.173 355.607 146.44 354.727 145.48C353.847 144.52 353.153 143.36 352.647 142C352.167 140.613 351.927 139.027 351.927 137.24C351.927 134.867 352.327 132.867 353.127 131.24C353.927 129.587 355.073 128.333 356.567 127.48C358.06 126.6 359.833 126.16 361.887 126.16C363.833 126.16 365.54 126.6 367.007 127.48C368.5 128.333 369.66 129.587 370.487 131.24C371.34 132.867 371.767 134.867 371.767 137.24ZM355.567 137.24C355.567 138.92 355.78 140.387 356.207 141.64C356.66 142.867 357.353 143.813 358.287 144.48C359.22 145.147 360.407 145.48 361.847 145.48C363.287 145.48 364.473 145.147 365.407 144.48C366.34 143.813 367.02 142.867 367.447 141.64C367.9 140.387 368.127 138.92 368.127 137.24C368.127 135.533 367.9 134.08 367.447 132.88C366.993 131.68 366.3 130.76 365.367 130.12C364.46 129.453 363.273 129.12 361.807 129.12C359.62 129.12 358.033 129.84 357.047 131.28C356.06 132.72 355.567 134.707 355.567 137.24ZM380.865 126.56V135.48H392.505V126.56H396.025V148H392.505V138.44H380.865V148H377.345V126.56H380.865ZM425.047 148.4C423.154 148.4 421.46 148.013 419.967 147.24C418.5 146.467 417.34 145.267 416.487 143.64C415.66 142.013 415.247 139.933 415.247 137.4C415.247 134.76 415.687 132.613 416.567 130.96C417.447 129.307 418.634 128.093 420.127 127.32C421.647 126.547 423.367 126.16 425.287 126.16C426.38 126.16 427.434 126.28 428.447 126.52C429.46 126.733 430.287 127 430.927 127.32L429.847 130.24C429.207 130 428.46 129.773 427.607 129.56C426.754 129.347 425.954 129.24 425.207 129.24C423.767 129.24 422.58 129.547 421.647 130.16C420.714 130.773 420.02 131.68 419.567 132.88C419.114 134.08 418.887 135.573 418.887 137.36C418.887 139.067 419.114 140.52 419.567 141.72C420.02 142.92 420.7 143.827 421.607 144.44C422.514 145.053 423.647 145.36 425.007 145.36C426.18 145.36 427.207 145.24 428.087 145C428.994 144.76 429.82 144.467 430.567 144.12V147.24C429.847 147.613 429.047 147.893 428.167 148.08C427.314 148.293 426.274 148.4 425.047 148.4ZM452.818 126.56V135.48H464.458V126.56H467.978V148H464.458V138.44H452.818V148H449.298V126.56H452.818ZM493.407 137.24C493.407 139.027 493.167 140.613 492.687 142C492.234 143.36 491.567 144.52 490.687 145.48C489.834 146.44 488.781 147.173 487.527 147.68C486.301 148.16 484.927 148.4 483.407 148.4C481.994 148.4 480.687 148.16 479.487 147.68C478.287 147.173 477.247 146.44 476.367 145.48C475.487 144.52 474.794 143.36 474.287 142C473.807 140.613 473.567 139.027 473.567 137.24C473.567 134.867 473.967 132.867 474.767 131.24C475.567 129.587 476.714 128.333 478.207 127.48C479.701 126.6 481.474 126.16 483.527 126.16C485.474 126.16 487.181 126.6 488.647 127.48C490.141 128.333 491.301 129.587 492.127 131.24C492.981 132.867 493.407 134.867 493.407 137.24ZM477.207 137.24C477.207 138.92 477.421 140.387 477.847 141.64C478.301 142.867 478.994 143.813 479.927 144.48C480.861 145.147 482.047 145.48 483.487 145.48C484.927 145.48 486.114 145.147 487.047 144.48C487.981 143.813 488.661 142.867 489.087 141.64C489.541 140.387 489.767 138.92 489.767 137.24C489.767 135.533 489.541 134.08 489.087 132.88C488.634 131.68 487.941 130.76 487.007 130.12C486.101 129.453 484.914 129.12 483.447 129.12C481.261 129.12 479.674 129.84 478.687 131.28C477.701 132.72 477.207 134.707 477.207 137.24ZM521.986 126.56V148H518.826V134.32C518.826 133.76 518.839 133.173 518.866 132.56C518.919 131.947 518.973 131.347 519.026 130.76H518.906L511.906 148H508.946L502.146 130.76H502.026C502.079 131.347 502.106 131.947 502.106 132.56C502.133 133.173 502.146 133.8 502.146 134.44V148H498.986V126.56H503.666L510.426 143.8L517.306 126.56H521.986ZM537.11 126.16C538.95 126.16 540.523 126.56 541.83 127.36C543.163 128.16 544.176 129.293 544.87 130.76C545.59 132.2 545.95 133.893 545.95 135.84V137.96H531.27C531.323 140.387 531.936 142.24 533.11 143.52C534.31 144.773 535.976 145.4 538.11 145.4C539.47 145.4 540.67 145.28 541.71 145.04C542.776 144.773 543.87 144.4 544.99 143.92V147C543.896 147.48 542.816 147.827 541.75 148.04C540.683 148.28 539.416 148.4 537.95 148.4C535.923 148.4 534.123 147.987 532.55 147.16C531.003 146.333 529.79 145.107 528.91 143.48C528.056 141.827 527.63 139.813 527.63 137.44C527.63 135.093 528.016 133.08 528.79 131.4C529.59 129.72 530.696 128.427 532.11 127.52C533.55 126.613 535.216 126.16 537.11 126.16ZM537.07 129.04C535.39 129.04 534.056 129.587 533.07 130.68C532.11 131.747 531.536 133.24 531.35 135.16H542.27C542.27 133.933 542.083 132.867 541.71 131.96C541.336 131.053 540.763 130.347 539.99 129.84C539.243 129.307 538.27 129.04 537.07 129.04ZM561.608 126.16C564.248 126.16 566.368 127.08 567.968 128.92C569.594 130.76 570.408 133.533 570.408 137.24C570.408 139.667 570.034 141.72 569.288 143.4C568.568 145.053 567.541 146.307 566.208 147.16C564.901 147.987 563.354 148.4 561.568 148.4C560.474 148.4 559.501 148.253 558.648 147.96C557.794 147.667 557.061 147.293 556.448 146.84C555.861 146.36 555.354 145.84 554.928 145.28H554.688C554.741 145.733 554.794 146.307 554.848 147C554.901 147.693 554.928 148.293 554.928 148.8V157.6H551.408V126.56H554.288L554.768 129.48H554.928C555.354 128.867 555.861 128.307 556.448 127.8C557.061 127.293 557.781 126.893 558.608 126.6C559.461 126.307 560.461 126.16 561.608 126.16ZM560.968 129.12C559.528 129.12 558.368 129.4 557.488 129.96C556.608 130.493 555.968 131.307 555.568 132.4C555.168 133.493 554.954 134.88 554.928 136.56V137.24C554.928 139 555.114 140.493 555.488 141.72C555.861 142.947 556.488 143.88 557.368 144.52C558.274 145.16 559.501 145.48 561.048 145.48C562.354 145.48 563.421 145.12 564.248 144.4C565.101 143.68 565.728 142.707 566.128 141.48C566.554 140.227 566.768 138.8 566.768 137.2C566.768 134.747 566.288 132.787 565.328 131.32C564.394 129.853 562.941 129.12 560.968 129.12ZM594.657 137.24C594.657 139.027 594.417 140.613 593.937 142C593.484 143.36 592.817 144.52 591.937 145.48C591.084 146.44 590.031 147.173 588.777 147.68C587.551 148.16 586.177 148.4 584.657 148.4C583.244 148.4 581.937 148.16 580.737 147.68C579.537 147.173 578.497 146.44 577.617 145.48C576.737 144.52 576.044 143.36 575.537 142C575.057 140.613 574.817 139.027 574.817 137.24C574.817 134.867 575.217 132.867 576.017 131.24C576.817 129.587 577.964 128.333 579.457 127.48C580.951 126.6 582.724 126.16 584.777 126.16C586.724 126.16 588.431 126.6 589.897 127.48C591.391 128.333 592.551 129.587 593.377 131.24C594.231 132.867 594.657 134.867 594.657 137.24ZM578.457 137.24C578.457 138.92 578.671 140.387 579.097 141.64C579.551 142.867 580.244 143.813 581.177 144.48C582.111 145.147 583.297 145.48 584.737 145.48C586.177 145.48 587.364 145.147 588.297 144.48C589.231 143.813 589.911 142.867 590.337 141.64C590.791 140.387 591.017 138.92 591.017 137.24C591.017 135.533 590.791 134.08 590.337 132.88C589.884 131.68 589.191 130.76 588.257 130.12C587.351 129.453 586.164 129.12 584.697 129.12C582.511 129.12 580.924 129.84 579.937 131.28C578.951 132.72 578.457 134.707 578.457 137.24ZM623.236 126.56V148H620.076V134.32C620.076 133.76 620.089 133.173 620.116 132.56C620.169 131.947 620.223 131.347 620.276 130.76H620.156L613.156 148H610.196L603.396 130.76H603.276C603.329 131.347 603.356 131.947 603.356 132.56C603.383 133.173 603.396 133.8 603.396 134.44V148H600.236V126.56H604.916L611.676 143.8L618.556 126.56H623.236ZM651.313 117.96L653.153 119.8C651.393 121.4 649.993 123.093 648.953 124.88C647.913 126.64 647.166 128.507 646.713 130.48C646.259 132.427 646.033 134.52 646.033 136.76C646.033 138.973 646.259 141.067 646.713 143.04C647.166 145.013 647.913 146.88 648.953 148.64C649.993 150.4 651.393 152.093 653.153 153.72L651.313 155.56C648.486 153.107 646.353 150.307 644.913 147.16C643.473 143.987 642.753 140.52 642.753 136.76C642.753 133 643.473 129.533 644.913 126.36C646.353 123.187 648.486 120.387 651.313 117.96ZM661.017 139.64C661.017 139.88 661.004 140.227 660.977 140.68C660.977 141.107 660.964 141.573 660.937 142.08C660.91 142.56 660.884 143.027 660.857 143.48C660.83 143.907 660.804 144.253 660.777 144.52L672.257 126.56H676.577V148H673.297V135.36C673.297 134.933 673.297 134.373 673.297 133.68C673.324 132.987 673.35 132.307 673.377 131.64C673.404 130.947 673.43 130.427 673.457 130.08L662.057 148H657.697V126.56H661.017V139.64ZM699.72 148H696.16V129.48H689.84C689.573 132.867 689.24 135.76 688.84 138.16C688.44 140.533 687.933 142.467 687.32 143.96C686.707 145.453 685.973 146.547 685.12 147.24C684.267 147.933 683.267 148.28 682.12 148.28C681.773 148.28 681.427 148.253 681.08 148.2C680.76 148.173 680.493 148.107 680.28 148V145.36C680.44 145.413 680.613 145.453 680.8 145.48C680.987 145.507 681.173 145.52 681.36 145.52C681.947 145.52 682.48 145.28 682.96 144.8C683.44 144.32 683.867 143.587 684.24 142.6C684.64 141.613 685 140.373 685.32 138.88C685.64 137.36 685.92 135.573 686.16 133.52C686.4 131.467 686.613 129.147 686.8 126.56H699.72V148ZM709.845 139.64C709.845 139.88 709.832 140.227 709.805 140.68C709.805 141.107 709.792 141.573 709.765 142.08C709.738 142.56 709.712 143.027 709.685 143.48C709.658 143.907 709.632 144.253 709.605 144.52L721.085 126.56H725.405V148H722.125V135.36C722.125 134.933 722.125 134.373 722.125 133.68C722.152 132.987 722.178 132.307 722.205 131.64C722.232 130.947 722.258 130.427 722.285 130.08L710.885 148H706.525V126.56H709.845V139.64ZM124.567 174.16C126.194 174.16 127.607 174.387 128.807 174.84C130.007 175.267 130.941 175.907 131.607 176.76C132.274 177.587 132.607 178.6 132.607 179.8C132.607 181.107 132.247 182.147 131.527 182.92C130.807 183.667 129.821 184.213 128.567 184.56V184.72C129.421 184.96 130.207 185.293 130.927 185.72C131.647 186.147 132.221 186.707 132.647 187.4C133.101 188.093 133.327 188.987 133.327 190.08C133.327 191.253 132.994 192.32 132.327 193.28C131.687 194.24 130.687 195 129.327 195.56C127.994 196.12 126.274 196.4 124.167 196.4C123.154 196.4 122.181 196.347 121.247 196.24C120.341 196.133 119.514 195.973 118.767 195.76C118.047 195.547 117.407 195.293 116.847 195V191.84C117.754 192.267 118.821 192.653 120.047 193C121.301 193.347 122.661 193.52 124.127 193.52C125.194 193.52 126.154 193.4 127.007 193.16C127.887 192.92 128.581 192.547 129.087 192.04C129.594 191.507 129.847 190.787 129.847 189.88C129.847 189.053 129.621 188.387 129.167 187.88C128.714 187.347 128.034 186.947 127.127 186.68C126.247 186.413 125.114 186.28 123.727 186.28H120.847V183.4H123.167C125.007 183.4 126.474 183.16 127.567 182.68C128.687 182.173 129.247 181.32 129.247 180.12C129.247 179.107 128.821 178.347 127.967 177.84C127.141 177.333 125.941 177.08 124.367 177.08C123.194 177.08 122.154 177.2 121.247 177.44C120.367 177.653 119.394 177.987 118.327 178.44L117.087 175.64C118.234 175.133 119.434 174.76 120.687 174.52C121.941 174.28 123.234 174.16 124.567 174.16ZM146.657 174.2C149.27 174.2 151.203 174.773 152.457 175.92C153.71 177.067 154.337 178.893 154.337 181.4V196H151.777L151.097 192.96H150.937C150.323 193.733 149.683 194.387 149.017 194.92C148.377 195.427 147.63 195.8 146.777 196.04C145.95 196.28 144.937 196.4 143.737 196.4C142.457 196.4 141.297 196.173 140.257 195.72C139.243 195.267 138.443 194.573 137.857 193.64C137.27 192.68 136.977 191.48 136.977 190.04C136.977 187.907 137.817 186.267 139.497 185.12C141.177 183.947 143.763 183.307 147.257 183.2L150.897 183.08V181.8C150.897 180.013 150.51 178.773 149.737 178.08C148.963 177.387 147.87 177.04 146.457 177.04C145.337 177.04 144.27 177.213 143.257 177.56C142.243 177.88 141.297 178.253 140.417 178.68L139.337 176.04C140.27 175.533 141.377 175.107 142.657 174.76C143.937 174.387 145.27 174.2 146.657 174.2ZM147.697 185.64C145.03 185.747 143.177 186.173 142.137 186.92C141.123 187.667 140.617 188.72 140.617 190.08C140.617 191.28 140.977 192.16 141.697 192.72C142.443 193.28 143.39 193.56 144.537 193.56C146.35 193.56 147.857 193.067 149.057 192.08C150.257 191.067 150.857 189.52 150.857 187.44V185.52L147.697 185.64ZM179.079 174.56V196H175.559V177.56H164.479V196H160.959V174.56H179.079ZM204.56 185.24C204.56 187.027 204.32 188.613 203.84 190C203.386 191.36 202.72 192.52 201.84 193.48C200.986 194.44 199.933 195.173 198.68 195.68C197.453 196.16 196.08 196.4 194.56 196.4C193.146 196.4 191.84 196.16 190.64 195.68C189.44 195.173 188.4 194.44 187.52 193.48C186.64 192.52 185.946 191.36 185.44 190C184.96 188.613 184.72 187.027 184.72 185.24C184.72 182.867 185.12 180.867 185.92 179.24C186.72 177.587 187.866 176.333 189.36 175.48C190.853 174.6 192.626 174.16 194.68 174.16C196.626 174.16 198.333 174.6 199.8 175.48C201.293 176.333 202.453 177.587 203.28 179.24C204.133 180.867 204.56 182.867 204.56 185.24ZM188.36 185.24C188.36 186.92 188.573 188.387 189 189.64C189.453 190.867 190.146 191.813 191.08 192.48C192.013 193.147 193.2 193.48 194.64 193.48C196.08 193.48 197.266 193.147 198.2 192.48C199.133 191.813 199.813 190.867 200.24 189.64C200.693 188.387 200.92 186.92 200.92 185.24C200.92 183.533 200.693 182.08 200.24 180.88C199.786 179.68 199.093 178.76 198.16 178.12C197.253 177.453 196.066 177.12 194.6 177.12C192.413 177.12 190.826 177.84 189.84 179.28C188.853 180.72 188.36 182.707 188.36 185.24ZM233.138 174.56V196H229.978V182.32C229.978 181.76 229.992 181.173 230.018 180.56C230.072 179.947 230.125 179.347 230.178 178.76H230.058L223.058 196H220.098L213.298 178.76H213.178C213.232 179.347 213.258 179.947 213.258 180.56C213.285 181.173 213.298 181.8 213.298 182.44V196H210.138V174.56H214.818L221.578 191.8L228.458 174.56H233.138ZM243.502 174.56V183.48H255.142V174.56H258.662V196H255.142V186.44H243.502V196H239.982V174.56H243.502ZM268.771 187.64C268.771 187.88 268.757 188.227 268.731 188.68C268.731 189.107 268.717 189.573 268.691 190.08C268.664 190.56 268.637 191.027 268.611 191.48C268.584 191.907 268.557 192.253 268.531 192.52L280.011 174.56H284.331V196H281.051V183.36C281.051 182.933 281.051 182.373 281.051 181.68C281.077 180.987 281.104 180.307 281.131 179.64C281.157 178.947 281.184 178.427 281.211 178.08L269.811 196H265.451V174.56H268.771V187.64ZM305.954 177.52H298.954V196H295.474V177.52H288.554V174.56H305.954V177.52ZM318.067 174.16C319.907 174.16 321.48 174.56 322.787 175.36C324.12 176.16 325.133 177.293 325.827 178.76C326.547 180.2 326.907 181.893 326.907 183.84V185.96H312.227C312.28 188.387 312.893 190.24 314.067 191.52C315.267 192.773 316.933 193.4 319.067 193.4C320.427 193.4 321.627 193.28 322.667 193.04C323.733 192.773 324.827 192.4 325.947 191.92V195C324.853 195.48 323.773 195.827 322.707 196.04C321.64 196.28 320.373 196.4 318.907 196.4C316.88 196.4 315.08 195.987 313.507 195.16C311.96 194.333 310.747 193.107 309.867 191.48C309.013 189.827 308.587 187.813 308.587 185.44C308.587 183.093 308.973 181.08 309.747 179.4C310.547 177.72 311.653 176.427 313.067 175.52C314.507 174.613 316.173 174.16 318.067 174.16ZM318.027 177.04C316.347 177.04 315.013 177.587 314.027 178.68C313.067 179.747 312.493 181.24 312.307 183.16H323.227C323.227 181.933 323.04 180.867 322.667 179.96C322.293 179.053 321.72 178.347 320.947 177.84C320.2 177.307 319.227 177.04 318.027 177.04ZM349.518 174.56V183.48H361.158V174.56H364.678V196H361.158V186.44H349.518V196H345.998V174.56H349.518ZM390.106 185.24C390.106 187.027 389.866 188.613 389.386 190C388.933 191.36 388.266 192.52 387.386 193.48C386.533 194.44 385.48 195.173 384.226 195.68C383 196.16 381.626 196.4 380.106 196.4C378.693 196.4 377.386 196.16 376.186 195.68C374.986 195.173 373.946 194.44 373.066 193.48C372.186 192.52 371.493 191.36 370.986 190C370.506 188.613 370.266 187.027 370.266 185.24C370.266 182.867 370.666 180.867 371.466 179.24C372.266 177.587 373.413 176.333 374.906 175.48C376.4 174.6 378.173 174.16 380.226 174.16C382.173 174.16 383.88 174.6 385.346 175.48C386.84 176.333 388 177.587 388.826 179.24C389.68 180.867 390.106 182.867 390.106 185.24ZM373.906 185.24C373.906 186.92 374.12 188.387 374.546 189.64C375 190.867 375.693 191.813 376.626 192.48C377.56 193.147 378.746 193.48 380.186 193.48C381.626 193.48 382.813 193.147 383.746 192.48C384.68 191.813 385.36 190.867 385.786 189.64C386.24 188.387 386.466 186.92 386.466 185.24C386.466 183.533 386.24 182.08 385.786 180.88C385.333 179.68 384.64 178.76 383.706 178.12C382.8 177.453 381.613 177.12 380.146 177.12C377.96 177.12 376.373 177.84 375.386 179.28C374.4 180.72 373.906 182.707 373.906 185.24ZM418.685 174.56V196H415.525V182.32C415.525 181.76 415.538 181.173 415.565 180.56C415.618 179.947 415.672 179.347 415.725 178.76H415.605L408.605 196H405.645L398.845 178.76H398.725C398.778 179.347 398.805 179.947 398.805 180.56C398.832 181.173 398.845 181.8 398.845 182.44V196H395.685V174.56H400.365L407.125 191.8L414.005 174.56H418.685ZM433.809 174.16C435.649 174.16 437.222 174.56 438.529 175.36C439.862 176.16 440.876 177.293 441.569 178.76C442.289 180.2 442.649 181.893 442.649 183.84V185.96H427.969C428.022 188.387 428.636 190.24 429.809 191.52C431.009 192.773 432.676 193.4 434.809 193.4C436.169 193.4 437.369 193.28 438.409 193.04C439.476 192.773 440.569 192.4 441.689 191.92V195C440.596 195.48 439.516 195.827 438.449 196.04C437.382 196.28 436.116 196.4 434.649 196.4C432.622 196.4 430.822 195.987 429.249 195.16C427.702 194.333 426.489 193.107 425.609 191.48C424.756 189.827 424.329 187.813 424.329 185.44C424.329 183.093 424.716 181.08 425.489 179.4C426.289 177.72 427.396 176.427 428.809 175.52C430.249 174.613 431.916 174.16 433.809 174.16ZM433.769 177.04C432.089 177.04 430.756 177.587 429.769 178.68C428.809 179.747 428.236 181.24 428.049 183.16H438.969C438.969 181.933 438.782 180.867 438.409 179.96C438.036 179.053 437.462 178.347 436.689 177.84C435.942 177.307 434.969 177.04 433.769 177.04ZM458.307 174.16C460.947 174.16 463.067 175.08 464.667 176.92C466.294 178.76 467.107 181.533 467.107 185.24C467.107 187.667 466.734 189.72 465.987 191.4C465.267 193.053 464.24 194.307 462.907 195.16C461.6 195.987 460.054 196.4 458.267 196.4C457.174 196.4 456.2 196.253 455.347 195.96C454.494 195.667 453.76 195.293 453.147 194.84C452.56 194.36 452.054 193.84 451.627 193.28H451.387C451.44 193.733 451.494 194.307 451.547 195C451.6 195.693 451.627 196.293 451.627 196.8V205.6H448.107V174.56H450.987L451.467 177.48H451.627C452.054 176.867 452.56 176.307 453.147 175.8C453.76 175.293 454.48 174.893 455.307 174.6C456.16 174.307 457.16 174.16 458.307 174.16ZM457.667 177.12C456.227 177.12 455.067 177.4 454.187 177.96C453.307 178.493 452.667 179.307 452.267 180.4C451.867 181.493 451.654 182.88 451.627 184.56V185.24C451.627 187 451.814 188.493 452.187 189.72C452.56 190.947 453.187 191.88 454.067 192.52C454.974 193.16 456.2 193.48 457.747 193.48C459.054 193.48 460.12 193.12 460.947 192.4C461.8 191.68 462.427 190.707 462.827 189.48C463.254 188.227 463.467 186.8 463.467 185.2C463.467 182.747 462.987 180.787 462.027 179.32C461.094 177.853 459.64 177.12 457.667 177.12ZM489.869 174.56V183.48H501.509V174.56H505.029V196H501.509V186.44H489.869V196H486.349V174.56H489.869ZM519.938 174.2C522.551 174.2 524.485 174.773 525.738 175.92C526.991 177.067 527.618 178.893 527.618 181.4V196H525.058L524.378 192.96H524.218C523.605 193.733 522.965 194.387 522.298 194.92C521.658 195.427 520.911 195.8 520.058 196.04C519.231 196.28 518.218 196.4 517.018 196.4C515.738 196.4 514.578 196.173 513.538 195.72C512.525 195.267 511.725 194.573 511.138 193.64C510.551 192.68 510.258 191.48 510.258 190.04C510.258 187.907 511.098 186.267 512.778 185.12C514.458 183.947 517.045 183.307 520.538 183.2L524.178 183.08V181.8C524.178 180.013 523.791 178.773 523.018 178.08C522.245 177.387 521.151 177.04 519.738 177.04C518.618 177.04 517.551 177.213 516.538 177.56C515.525 177.88 514.578 178.253 513.698 178.68L512.618 176.04C513.551 175.533 514.658 175.107 515.938 174.76C517.218 174.387 518.551 174.2 519.938 174.2ZM520.978 185.64C518.311 185.747 516.458 186.173 515.418 186.92C514.405 187.667 513.898 188.72 513.898 190.08C513.898 191.28 514.258 192.16 514.978 192.72C515.725 193.28 516.671 193.56 517.818 193.56C519.631 193.56 521.138 193.067 522.338 192.08C523.538 191.067 524.138 189.52 524.138 187.44V185.52L520.978 185.64ZM551.313 196.4C550.086 196.4 549.019 196.293 548.113 196.08C547.233 195.893 546.406 195.613 545.633 195.24V192.2C546.433 192.52 547.299 192.8 548.233 193.04C549.166 193.28 550.219 193.4 551.393 193.4C552.779 193.4 553.979 193.16 554.993 192.68C556.006 192.173 556.806 191.4 557.393 190.36C557.979 189.32 558.313 188 558.393 186.4H547.833V183.52H558.353C558.166 181.333 557.539 179.733 556.473 178.72C555.433 177.707 553.899 177.2 551.873 177.2C551.099 177.2 550.246 177.307 549.313 177.52C548.406 177.733 547.593 177.973 546.873 178.24L545.873 175.4C546.646 175.053 547.566 174.76 548.633 174.52C549.699 174.28 550.766 174.16 551.833 174.16C553.833 174.16 555.593 174.533 557.113 175.28C558.659 176.027 559.859 177.213 560.713 178.84C561.593 180.467 562.033 182.613 562.033 185.28C562.033 187.813 561.566 189.907 560.633 191.56C559.726 193.213 558.459 194.44 556.833 195.24C555.233 196.013 553.393 196.4 551.313 196.4ZM580.318 174.56H584.158L574.998 184.88L584.918 196H580.838L571.158 185.12V196H567.638V174.56H571.158V184.96L580.318 174.56ZM599.01 174.16C601.65 174.16 603.77 175.08 605.37 176.92C606.997 178.76 607.81 181.533 607.81 185.24C607.81 187.667 607.437 189.72 606.69 191.4C605.97 193.053 604.943 194.307 603.61 195.16C602.303 195.987 600.757 196.4 598.97 196.4C597.877 196.4 596.903 196.253 596.05 195.96C595.197 195.667 594.463 195.293 593.85 194.84C593.263 194.36 592.757 193.84 592.33 193.28H592.09C592.143 193.733 592.197 194.307 592.25 195C592.303 195.693 592.33 196.293 592.33 196.8V205.6H588.81V174.56H591.69L592.17 177.48H592.33C592.757 176.867 593.263 176.307 593.85 175.8C594.463 175.293 595.183 174.893 596.01 174.6C596.863 174.307 597.863 174.16 599.01 174.16ZM598.37 177.12C596.93 177.12 595.77 177.4 594.89 177.96C594.01 178.493 593.37 179.307 592.97 180.4C592.57 181.493 592.357 182.88 592.33 184.56V185.24C592.33 187 592.517 188.493 592.89 189.72C593.263 190.947 593.89 191.88 594.77 192.52C595.677 193.16 596.903 193.48 598.45 193.48C599.757 193.48 600.823 193.12 601.65 192.4C602.503 191.68 603.13 190.707 603.53 189.48C603.957 188.227 604.17 186.8 604.17 185.2C604.17 182.747 603.69 180.787 602.73 179.32C601.797 177.853 600.343 177.12 598.37 177.12ZM621.54 174.2C624.153 174.2 626.086 174.773 627.34 175.92C628.593 177.067 629.22 178.893 629.22 181.4V196H626.66L625.98 192.96H625.82C625.206 193.733 624.566 194.387 623.9 194.92C623.26 195.427 622.513 195.8 621.66 196.04C620.833 196.28 619.82 196.4 618.62 196.4C617.34 196.4 616.18 196.173 615.14 195.72C614.126 195.267 613.326 194.573 612.74 193.64C612.153 192.68 611.86 191.48 611.86 190.04C611.86 187.907 612.7 186.267 614.38 185.12C616.06 183.947 618.646 183.307 622.14 183.2L625.78 183.08V181.8C625.78 180.013 625.393 178.773 624.62 178.08C623.846 177.387 622.753 177.04 621.34 177.04C620.22 177.04 619.153 177.213 618.14 177.56C617.126 177.88 616.18 178.253 615.3 178.68L614.22 176.04C615.153 175.533 616.26 175.107 617.54 174.76C618.82 174.387 620.153 174.2 621.54 174.2ZM622.58 185.64C619.913 185.747 618.06 186.173 617.02 186.92C616.006 187.667 615.5 188.72 615.5 190.08C615.5 191.28 615.86 192.16 616.58 192.72C617.326 193.28 618.273 193.56 619.42 193.56C621.233 193.56 622.74 193.067 623.94 192.08C625.14 191.067 625.74 189.52 625.74 187.44V185.52L622.58 185.64ZM639.361 174.56V183.48H651.001V174.56H654.521V196H651.001V186.44H639.361V196H635.841V174.56H639.361ZM669.59 174.16C671.43 174.16 673.003 174.56 674.31 175.36C675.643 176.16 676.657 177.293 677.35 178.76C678.07 180.2 678.43 181.893 678.43 183.84V185.96H663.75C663.803 188.387 664.417 190.24 665.59 191.52C666.79 192.773 668.457 193.4 670.59 193.4C671.95 193.4 673.15 193.28 674.19 193.04C675.257 192.773 676.35 192.4 677.47 191.92V195C676.377 195.48 675.297 195.827 674.23 196.04C673.163 196.28 671.897 196.4 670.43 196.4C668.403 196.4 666.603 195.987 665.03 195.16C663.483 194.333 662.27 193.107 661.39 191.48C660.537 189.827 660.11 187.813 660.11 185.44C660.11 183.093 660.497 181.08 661.27 179.4C662.07 177.72 663.177 176.427 664.59 175.52C666.03 174.613 667.697 174.16 669.59 174.16ZM669.55 177.04C667.87 177.04 666.537 177.587 665.55 178.68C664.59 179.747 664.017 181.24 663.83 183.16H674.75C674.75 181.933 674.563 180.867 674.19 179.96C673.817 179.053 673.243 178.347 672.47 177.84C671.723 177.307 670.75 177.04 669.55 177.04ZM683.488 203.56L681.648 201.72C683.408 200.093 684.808 198.4 685.848 196.64C686.888 194.88 687.635 193.013 688.088 191.04C688.542 189.067 688.768 186.973 688.768 184.76C688.768 182.52 688.542 180.427 688.088 178.48C687.635 176.507 686.888 174.64 685.848 172.88C684.808 171.093 683.408 169.4 681.648 167.8L683.488 165.96C686.315 168.387 688.448 171.187 689.888 174.36C691.328 177.533 692.048 181 692.048 184.76C692.048 188.52 691.328 191.987 689.888 195.16C688.448 198.307 686.315 201.107 683.488 203.56ZM150.179 222.56V241.04H153.299V251.44H149.899V244H134.979V251.44H131.619V241.04H133.339C134.566 239.333 135.579 237.48 136.379 235.48C137.206 233.453 137.819 231.347 138.219 229.16C138.646 226.947 138.873 224.747 138.899 222.56H150.179ZM142.019 225.32C141.913 227.133 141.633 229.013 141.179 230.96C140.726 232.88 140.139 234.72 139.419 236.48C138.726 238.24 137.913 239.76 136.979 241.04H146.779V225.32H142.019ZM173.822 244H170.262V225.48H163.942C163.675 228.867 163.342 231.76 162.942 234.16C162.542 236.533 162.035 238.467 161.422 239.96C160.808 241.453 160.075 242.547 159.222 243.24C158.368 243.933 157.368 244.28 156.222 244.28C155.875 244.28 155.528 244.253 155.182 244.2C154.862 244.173 154.595 244.107 154.382 244V241.36C154.542 241.413 154.715 241.453 154.902 241.48C155.088 241.507 155.275 241.52 155.462 241.52C156.048 241.52 156.582 241.28 157.062 240.8C157.542 240.32 157.968 239.587 158.342 238.6C158.742 237.613 159.102 236.373 159.422 234.88C159.742 233.36 160.022 231.573 160.262 229.52C160.502 227.467 160.715 225.147 160.902 222.56H173.822V244ZM181.947 244H177.867L183.987 235C183.16 234.787 182.36 234.453 181.587 234C180.813 233.52 180.187 232.867 179.707 232.04C179.227 231.187 178.987 230.133 178.987 228.88C178.987 226.827 179.68 225.267 181.067 224.2C182.453 223.107 184.293 222.56 186.587 222.56H196.187V244H192.667V235.48H187.467L181.947 244ZM182.387 228.92C182.387 230.147 182.84 231.067 183.747 231.68C184.68 232.267 185.973 232.56 187.627 232.56H192.667V225.48H186.947C185.32 225.48 184.147 225.8 183.427 226.44C182.733 227.08 182.387 227.907 182.387 228.92ZM235.243 233.24C235.243 235.027 235.003 236.613 234.523 238C234.07 239.36 233.403 240.52 232.523 241.48C231.67 242.44 230.616 243.173 229.363 243.68C228.136 244.16 226.763 244.4 225.243 244.4C223.83 244.4 222.523 244.16 221.323 243.68C220.123 243.173 219.083 242.44 218.203 241.48C217.323 240.52 216.63 239.36 216.123 238C215.643 236.613 215.403 235.027 215.403 233.24C215.403 230.867 215.803 228.867 216.603 227.24C217.403 225.587 218.55 224.333 220.043 223.48C221.536 222.6 223.31 222.16 225.363 222.16C227.31 222.16 229.016 222.6 230.483 223.48C231.976 224.333 233.136 225.587 233.963 227.24C234.816 228.867 235.243 230.867 235.243 233.24ZM219.043 233.24C219.043 234.92 219.256 236.387 219.683 237.64C220.136 238.867 220.83 239.813 221.763 240.48C222.696 241.147 223.883 241.48 225.323 241.48C226.763 241.48 227.95 241.147 228.883 240.48C229.816 239.813 230.496 238.867 230.923 237.64C231.376 236.387 231.603 234.92 231.603 233.24C231.603 231.533 231.376 230.08 230.923 228.88C230.47 227.68 229.776 226.76 228.843 226.12C227.936 225.453 226.75 225.12 225.283 225.12C223.096 225.12 221.51 225.84 220.523 227.28C219.536 228.72 219.043 230.707 219.043 233.24ZM258.942 222.56V244H255.422V225.56H244.342V244H240.822V222.56H258.942ZM282.103 244H278.543V225.48H272.223C271.956 228.867 271.623 231.76 271.223 234.16C270.823 236.533 270.316 238.467 269.703 239.96C269.089 241.453 268.356 242.547 267.503 243.24C266.649 243.933 265.649 244.28 264.503 244.28C264.156 244.28 263.809 244.253 263.463 244.2C263.143 244.173 262.876 244.107 262.663 244V241.36C262.823 241.413 262.996 241.453 263.183 241.48C263.369 241.507 263.556 241.52 263.743 241.52C264.329 241.52 264.863 241.28 265.343 240.8C265.823 240.32 266.249 239.587 266.623 238.6C267.023 237.613 267.383 236.373 267.703 234.88C268.023 233.36 268.303 231.573 268.543 229.52C268.783 227.467 268.996 225.147 269.183 222.56H282.103V244ZM297.028 222.2C299.641 222.2 301.574 222.773 302.828 223.92C304.081 225.067 304.708 226.893 304.708 229.4V244H302.148L301.468 240.96H301.308C300.694 241.733 300.054 242.387 299.388 242.92C298.748 243.427 298.001 243.8 297.148 244.04C296.321 244.28 295.308 244.4 294.108 244.4C292.828 244.4 291.668 244.173 290.628 243.72C289.614 243.267 288.814 242.573 288.228 241.64C287.641 240.68 287.348 239.48 287.348 238.04C287.348 235.907 288.188 234.267 289.868 233.12C291.548 231.947 294.134 231.307 297.628 231.2L301.268 231.08V229.8C301.268 228.013 300.881 226.773 300.108 226.08C299.334 225.387 298.241 225.04 296.828 225.04C295.708 225.04 294.641 225.213 293.628 225.56C292.614 225.88 291.668 226.253 290.788 226.68L289.708 224.04C290.641 223.533 291.748 223.107 293.028 222.76C294.308 222.387 295.641 222.2 297.028 222.2ZM298.068 233.64C295.401 233.747 293.548 234.173 292.508 234.92C291.494 235.667 290.988 236.72 290.988 238.08C290.988 239.28 291.348 240.16 292.068 240.72C292.814 241.28 293.761 241.56 294.908 241.56C296.721 241.56 298.228 241.067 299.428 240.08C300.628 239.067 301.228 237.52 301.228 235.44V233.52L298.068 233.64ZM326.13 225.52H319.13V244H315.65V225.52H308.73V222.56H326.13V225.52ZM330.353 244V222.56H333.873V231.36H339.433C341.3 231.36 342.833 231.587 344.033 232.04C345.233 232.493 346.126 233.173 346.713 234.08C347.3 234.96 347.593 236.08 347.593 237.44C347.593 238.773 347.3 239.933 346.713 240.92C346.153 241.907 345.26 242.667 344.033 243.2C342.833 243.733 341.246 244 339.273 244H330.353ZM338.953 241.16C340.473 241.16 341.713 240.907 342.673 240.4C343.633 239.867 344.113 238.947 344.113 237.64C344.113 236.333 343.673 235.453 342.793 235C341.913 234.52 340.646 234.28 338.993 234.28H333.873V241.16H338.953ZM351.153 244V222.56H354.673V244H351.153ZM380.759 222.16C382.385 222.16 383.799 222.387 384.999 222.84C386.199 223.267 387.132 223.907 387.799 224.76C388.465 225.587 388.799 226.6 388.799 227.8C388.799 229.107 388.439 230.147 387.719 230.92C386.999 231.667 386.012 232.213 384.759 232.56V232.72C385.612 232.96 386.399 233.293 387.119 233.72C387.839 234.147 388.412 234.707 388.839 235.4C389.292 236.093 389.519 236.987 389.519 238.08C389.519 239.253 389.185 240.32 388.519 241.28C387.879 242.24 386.879 243 385.519 243.56C384.185 244.12 382.465 244.4 380.359 244.4C379.345 244.4 378.372 244.347 377.439 244.24C376.532 244.133 375.705 243.973 374.959 243.76C374.239 243.547 373.599 243.293 373.039 243V239.84C373.945 240.267 375.012 240.653 376.239 241C377.492 241.347 378.852 241.52 380.319 241.52C381.385 241.52 382.345 241.4 383.199 241.16C384.079 240.92 384.772 240.547 385.279 240.04C385.785 239.507 386.039 238.787 386.039 237.88C386.039 237.053 385.812 236.387 385.359 235.88C384.905 235.347 384.225 234.947 383.319 234.68C382.439 234.413 381.305 234.28 379.919 234.28H377.039V231.4H379.359C381.199 231.4 382.665 231.16 383.759 230.68C384.879 230.173 385.439 229.32 385.439 228.12C385.439 227.107 385.012 226.347 384.159 225.84C383.332 225.333 382.132 225.08 380.559 225.08C379.385 225.08 378.345 225.2 377.439 225.44C376.559 225.653 375.585 225.987 374.519 226.44L373.279 223.64C374.425 223.133 375.625 222.76 376.879 222.52C378.132 222.28 379.425 222.16 380.759 222.16ZM402.848 222.2C405.461 222.2 407.395 222.773 408.648 223.92C409.901 225.067 410.528 226.893 410.528 229.4V244H407.968L407.288 240.96H407.128C406.515 241.733 405.875 242.387 405.208 242.92C404.568 243.427 403.821 243.8 402.968 244.04C402.141 244.28 401.128 244.4 399.928 244.4C398.648 244.4 397.488 244.173 396.448 243.72C395.435 243.267 394.635 242.573 394.048 241.64C393.461 240.68 393.168 239.48 393.168 238.04C393.168 235.907 394.008 234.267 395.688 233.12C397.368 231.947 399.955 231.307 403.448 231.2L407.088 231.08V229.8C407.088 228.013 406.701 226.773 405.928 226.08C405.155 225.387 404.061 225.04 402.648 225.04C401.528 225.04 400.461 225.213 399.448 225.56C398.435 225.88 397.488 226.253 396.608 226.68L395.528 224.04C396.461 223.533 397.568 223.107 398.848 222.76C400.128 222.387 401.461 222.2 402.848 222.2ZM403.888 233.64C401.221 233.747 399.368 234.173 398.328 234.92C397.315 235.667 396.808 236.72 396.808 238.08C396.808 239.28 397.168 240.16 397.888 240.72C398.635 241.28 399.581 241.56 400.728 241.56C402.541 241.56 404.048 241.067 405.248 240.08C406.448 239.067 407.048 237.52 407.048 235.44V233.52L403.888 233.64ZM429.83 222.56H433.67L424.51 232.88L434.43 244H430.35L420.67 233.12V244H417.15V222.56H420.67V232.96L429.83 222.56ZM446.442 222.2C449.055 222.2 450.989 222.773 452.242 223.92C453.495 225.067 454.122 226.893 454.122 229.4V244H451.562L450.882 240.96H450.722C450.109 241.733 449.469 242.387 448.802 242.92C448.162 243.427 447.415 243.8 446.562 244.04C445.735 244.28 444.722 244.4 443.522 244.4C442.242 244.4 441.082 244.173 440.042 243.72C439.029 243.267 438.229 242.573 437.642 241.64C437.055 240.68 436.762 239.48 436.762 238.04C436.762 235.907 437.602 234.267 439.282 233.12C440.962 231.947 443.549 231.307 447.042 231.2L450.682 231.08V229.8C450.682 228.013 450.295 226.773 449.522 226.08C448.749 225.387 447.655 225.04 446.242 225.04C445.122 225.04 444.055 225.213 443.042 225.56C442.029 225.88 441.082 226.253 440.202 226.68L439.122 224.04C440.055 223.533 441.162 223.107 442.442 222.76C443.722 222.387 445.055 222.2 446.442 222.2ZM447.482 233.64C444.815 233.747 442.962 234.173 441.922 234.92C440.909 235.667 440.402 236.72 440.402 238.08C440.402 239.28 440.762 240.16 441.482 240.72C442.229 241.28 443.175 241.56 444.322 241.56C446.135 241.56 447.642 241.067 448.842 240.08C450.042 239.067 450.642 237.52 450.642 235.44V233.52L447.482 233.64ZM466.384 222.16C468.01 222.16 469.424 222.387 470.624 222.84C471.824 223.267 472.757 223.907 473.424 224.76C474.09 225.587 474.424 226.6 474.424 227.8C474.424 229.107 474.064 230.147 473.344 230.92C472.624 231.667 471.637 232.213 470.384 232.56V232.72C471.237 232.96 472.024 233.293 472.744 233.72C473.464 234.147 474.037 234.707 474.464 235.4C474.917 236.093 475.144 236.987 475.144 238.08C475.144 239.253 474.81 240.32 474.144 241.28C473.504 242.24 472.504 243 471.144 243.56C469.81 244.12 468.09 244.4 465.984 244.4C464.97 244.4 463.997 244.347 463.064 244.24C462.157 244.133 461.33 243.973 460.584 243.76C459.864 243.547 459.224 243.293 458.664 243V239.84C459.57 240.267 460.637 240.653 461.864 241C463.117 241.347 464.477 241.52 465.944 241.52C467.01 241.52 467.97 241.4 468.824 241.16C469.704 240.92 470.397 240.547 470.904 240.04C471.41 239.507 471.664 238.787 471.664 237.88C471.664 237.053 471.437 236.387 470.984 235.88C470.53 235.347 469.85 234.947 468.944 234.68C468.064 234.413 466.93 234.28 465.544 234.28H462.664V231.4H464.984C466.824 231.4 468.29 231.16 469.384 230.68C470.504 230.173 471.064 229.32 471.064 228.12C471.064 227.107 470.637 226.347 469.784 225.84C468.957 225.333 467.757 225.08 466.184 225.08C465.01 225.08 463.97 225.2 463.064 225.44C462.184 225.653 461.21 225.987 460.144 226.44L458.904 223.64C460.05 223.133 461.25 222.76 462.504 222.52C463.757 222.28 465.05 222.16 466.384 222.16ZM488.473 222.2C491.086 222.2 493.02 222.773 494.273 223.92C495.526 225.067 496.153 226.893 496.153 229.4V244H493.593L492.913 240.96H492.753C492.14 241.733 491.5 242.387 490.833 242.92C490.193 243.427 489.446 243.8 488.593 244.04C487.766 244.28 486.753 244.4 485.553 244.4C484.273 244.4 483.113 244.173 482.073 243.72C481.06 243.267 480.26 242.573 479.673 241.64C479.086 240.68 478.793 239.48 478.793 238.04C478.793 235.907 479.633 234.267 481.313 233.12C482.993 231.947 485.58 231.307 489.073 231.2L492.713 231.08V229.8C492.713 228.013 492.326 226.773 491.553 226.08C490.78 225.387 489.686 225.04 488.273 225.04C487.153 225.04 486.086 225.213 485.073 225.56C484.06 225.88 483.113 226.253 482.233 226.68L481.153 224.04C482.086 223.533 483.193 223.107 484.473 222.76C485.753 222.387 487.086 222.2 488.473 222.2ZM489.513 233.64C486.846 233.747 484.993 234.173 483.953 234.92C482.94 235.667 482.433 236.72 482.433 238.08C482.433 239.28 482.793 240.16 483.513 240.72C484.26 241.28 485.206 241.56 486.353 241.56C488.166 241.56 489.673 241.067 490.873 240.08C492.073 239.067 492.673 237.52 492.673 235.44V233.52L489.513 233.64ZM519.928 222.56V231.48H531.568V222.56H535.088V244H531.568V234.44H519.928V244H516.408V222.56H519.928ZM549.997 222.2C552.61 222.2 554.543 222.773 555.797 223.92C557.05 225.067 557.677 226.893 557.677 229.4V244H555.117L554.437 240.96H554.277C553.663 241.733 553.023 242.387 552.357 242.92C551.717 243.427 550.97 243.8 550.117 244.04C549.29 244.28 548.277 244.4 547.077 244.4C545.797 244.4 544.637 244.173 543.597 243.72C542.583 243.267 541.783 242.573 541.197 241.64C540.61 240.68 540.317 239.48 540.317 238.04C540.317 235.907 541.157 234.267 542.837 233.12C544.517 231.947 547.103 231.307 550.597 231.2L554.237 231.08V229.8C554.237 228.013 553.85 226.773 553.077 226.08C552.303 225.387 551.21 225.04 549.797 225.04C548.677 225.04 547.61 225.213 546.597 225.56C545.583 225.88 544.637 226.253 543.757 226.68L542.677 224.04C543.61 223.533 544.717 223.107 545.997 222.76C547.277 222.387 548.61 222.2 549.997 222.2ZM551.037 233.64C548.37 233.747 546.517 234.173 545.477 234.92C544.463 235.667 543.957 236.72 543.957 238.08C543.957 239.28 544.317 240.16 545.037 240.72C545.783 241.28 546.73 241.56 547.877 241.56C549.69 241.56 551.197 241.067 552.397 240.08C553.597 239.067 554.197 237.52 554.197 235.44V233.52L551.037 233.64ZM590.611 222.56H594.451L585.291 232.88L595.211 244H591.131L581.451 233.12V244H577.931V222.56H581.451V232.96L590.611 222.56ZM607.223 222.2C609.836 222.2 611.77 222.773 613.023 223.92C614.276 225.067 614.903 226.893 614.903 229.4V244H612.343L611.663 240.96H611.503C610.89 241.733 610.25 242.387 609.583 242.92C608.943 243.427 608.196 243.8 607.343 244.04C606.516 244.28 605.503 244.4 604.303 244.4C603.023 244.4 601.863 244.173 600.823 243.72C599.81 243.267 599.01 242.573 598.423 241.64C597.836 240.68 597.543 239.48 597.543 238.04C597.543 235.907 598.383 234.267 600.063 233.12C601.743 231.947 604.33 231.307 607.823 231.2L611.463 231.08V229.8C611.463 228.013 611.076 226.773 610.303 226.08C609.53 225.387 608.436 225.04 607.023 225.04C605.903 225.04 604.836 225.213 603.823 225.56C602.81 225.88 601.863 226.253 600.983 226.68L599.903 224.04C600.836 223.533 601.943 223.107 603.223 222.76C604.503 222.387 605.836 222.2 607.223 222.2ZM608.263 233.64C605.596 233.747 603.743 234.173 602.703 234.92C601.69 235.667 601.183 236.72 601.183 238.08C601.183 239.28 601.543 240.16 602.263 240.72C603.01 241.28 603.956 241.56 605.103 241.56C606.916 241.56 608.423 241.067 609.623 240.08C610.823 239.067 611.423 237.52 611.423 235.44V233.52L608.263 233.64ZM630.125 244.4C628.232 244.4 626.538 244.013 625.045 243.24C623.578 242.467 622.418 241.267 621.565 239.64C620.738 238.013 620.325 235.933 620.325 233.4C620.325 230.76 620.765 228.613 621.645 226.96C622.525 225.307 623.712 224.093 625.205 223.32C626.725 222.547 628.445 222.16 630.365 222.16C631.458 222.16 632.512 222.28 633.525 222.52C634.538 222.733 635.365 223 636.005 223.32L634.925 226.24C634.285 226 633.538 225.773 632.685 225.56C631.832 225.347 631.032 225.24 630.285 225.24C628.845 225.24 627.658 225.547 626.725 226.16C625.792 226.773 625.098 227.68 624.645 228.88C624.192 230.08 623.965 231.573 623.965 233.36C623.965 235.067 624.192 236.52 624.645 237.72C625.098 238.92 625.778 239.827 626.685 240.44C627.592 241.053 628.725 241.36 630.085 241.36C631.258 241.36 632.285 241.24 633.165 241C634.072 240.76 634.898 240.467 635.645 240.12V243.24C634.925 243.613 634.125 243.893 633.245 244.08C632.392 244.293 631.352 244.4 630.125 244.4ZM649.344 244.4C647.45 244.4 645.757 244.013 644.264 243.24C642.797 242.467 641.637 241.267 640.784 239.64C639.957 238.013 639.544 235.933 639.544 233.4C639.544 230.76 639.984 228.613 640.864 226.96C641.744 225.307 642.93 224.093 644.424 223.32C645.944 222.547 647.664 222.16 649.584 222.16C650.677 222.16 651.73 222.28 652.744 222.52C653.757 222.733 654.584 223 655.224 223.32L654.144 226.24C653.504 226 652.757 225.773 651.904 225.56C651.05 225.347 650.25 225.24 649.504 225.24C648.064 225.24 646.877 225.547 645.944 226.16C645.01 226.773 644.317 227.68 643.864 228.88C643.41 230.08 643.184 231.573 643.184 233.36C643.184 235.067 643.41 236.52 643.864 237.72C644.317 238.92 644.997 239.827 645.904 240.44C646.81 241.053 647.944 241.36 649.304 241.36C650.477 241.36 651.504 241.24 652.384 241C653.29 240.76 654.117 240.467 654.864 240.12V243.24C654.144 243.613 653.344 243.893 652.464 244.08C651.61 244.293 650.57 244.4 649.344 244.4ZM668.243 222.16C670.083 222.16 671.656 222.56 672.963 223.36C674.296 224.16 675.309 225.293 676.003 226.76C676.723 228.2 677.083 229.893 677.083 231.84V233.96H662.403C662.456 236.387 663.069 238.24 664.243 239.52C665.443 240.773 667.109 241.4 669.243 241.4C670.603 241.4 671.803 241.28 672.843 241.04C673.909 240.773 675.003 240.4 676.123 239.92V243C675.029 243.48 673.949 243.827 672.883 244.04C671.816 244.28 670.549 244.4 669.083 244.4C667.056 244.4 665.256 243.987 663.683 243.16C662.136 242.333 660.923 241.107 660.043 239.48C659.189 237.827 658.763 235.813 658.763 233.44C658.763 231.093 659.149 229.08 659.923 227.4C660.723 225.72 661.829 224.427 663.243 223.52C664.683 222.613 666.349 222.16 668.243 222.16ZM668.203 225.04C666.523 225.04 665.189 225.587 664.203 226.68C663.243 227.747 662.669 229.24 662.483 231.16H673.403C673.403 229.933 673.216 228.867 672.843 227.96C672.469 227.053 671.896 226.347 671.123 225.84C670.376 225.307 669.403 225.04 668.203 225.04Z" fill="#19191B"/>
</g>
<rect x="68" y="255" width="682" height="596" rx="7" fill="#EFEFF0"/>
<rect x="68" y="255" width="682" height="596" rx="7" stroke="#AFB1B6" stroke-width="2"/>
<mask id="mask0_268_2439" style="mask-type:luminance" maskUnits="userSpaceOnUse" x="399" y="543" width="20" height="20">
<path fill-rule="evenodd" clip-rule="evenodd" d="M399 543H418.96V562.95H399V543Z" fill="white"/>
</mask>
<g mask="url(#mask0_268_2439)">
<path fill-rule="evenodd" clip-rule="evenodd" d="M404.65 544.5C402.129 544.5 400.5 546.227 400.5 548.899V557.051C400.5 559.724 402.129 561.45 404.65 561.45H413.3C415.827 561.45 417.46 559.724 417.46 557.051V548.899C417.46 546.227 415.827 544.5 413.3 544.5H404.65ZM413.3 562.95H404.65C401.27 562.95 399 560.579 399 557.051V548.899C399 545.371 401.27 543 404.65 543H413.3C416.685 543 418.96 545.371 418.96 548.899V557.051C418.96 560.579 416.685 562.95 413.3 562.95Z" fill="#AFB1B6"/>
</g>
<path fill-rule="evenodd" clip-rule="evenodd" d="M402.281 558.18C402.095 558.18 401.91 558.112 401.765 557.974C401.464 557.69 401.452 557.214 401.737 556.915L403.265 555.302C404.074 554.443 405.439 554.401 406.302 555.211L407.26 556.183C407.527 556.453 407.961 556.458 408.229 556.194C408.33 556.075 410.508 553.43 410.508 553.43C410.922 552.928 411.506 552.618 412.155 552.554C412.805 552.497 413.436 552.686 413.939 553.099C413.982 553.134 414.021 553.168 416.217 555.423C416.506 555.719 416.501 556.194 416.204 556.483C415.908 556.774 415.432 556.765 415.143 556.469C415.143 556.469 413.094 554.366 412.948 554.224C412.793 554.097 412.544 554.023 412.299 554.047C412.05 554.072 411.826 554.191 411.667 554.384C409.343 557.203 409.315 557.23 409.277 557.267C408.419 558.109 407.034 558.095 406.191 557.235C406.191 557.235 405.261 556.291 405.245 556.272C405.014 556.058 404.602 556.072 404.355 556.333L402.825 557.946C402.677 558.102 402.479 558.18 402.281 558.18Z" fill="#AFB1B6"/>
<path fill-rule="evenodd" clip-rule="evenodd" d="M405.558 549.129C405.005 549.129 404.555 549.579 404.555 550.133C404.555 550.687 405.005 551.138 405.559 551.138C406.113 551.138 406.564 550.687 406.564 550.133C406.564 549.58 406.113 549.13 405.558 549.129ZM405.559 552.638C404.178 552.638 403.055 551.514 403.055 550.133C403.055 548.752 404.178 547.629 405.559 547.629C406.941 547.63 408.064 548.754 408.064 550.133C408.064 551.514 406.94 552.638 405.559 552.638Z" fill="#AFB1B6"/>
<g clip-path="url(#clip1_268_2439)">
<path d="M91.284 889.94C90.22 889.94 89.2587 890.127 88.4 890.5C87.5413 890.855 86.8133 891.387 86.216 892.096C85.6187 892.787 85.1613 893.636 84.844 894.644C84.5267 895.633 84.368 896.753 84.368 898.004C84.368 899.647 84.62 901.075 85.124 902.288C85.6467 903.501 86.412 904.435 87.42 905.088C88.4467 905.741 89.7253 906.068 91.256 906.068C92.1333 906.068 92.964 905.993 93.748 905.844C94.532 905.695 95.2973 905.508 96.044 905.284V907.468C95.2973 907.748 94.5227 907.953 93.72 908.084C92.936 908.215 91.9933 908.28 90.892 908.28C88.8573 908.28 87.1587 907.86 85.796 907.02C84.4333 906.18 83.4067 904.985 82.716 903.436C82.044 901.887 81.708 900.067 81.708 897.976C81.708 896.464 81.9133 895.083 82.324 893.832C82.7533 892.581 83.3693 891.499 84.172 890.584C84.9933 889.669 86.0013 888.969 87.196 888.484C88.3907 887.98 89.7627 887.728 91.312 887.728C92.3387 887.728 93.328 887.831 94.28 888.036C95.232 888.241 96.0813 888.531 96.828 888.904L95.82 891.032C95.204 890.752 94.5133 890.5 93.748 890.276C93.0013 890.052 92.18 889.94 91.284 889.94ZM97.7194 892.992H100.351L103.599 901.532C103.786 902.036 103.954 902.521 104.103 902.988C104.271 903.455 104.421 903.912 104.551 904.36C104.682 904.789 104.785 905.209 104.859 905.62H104.971C105.083 905.153 105.261 904.547 105.503 903.8C105.746 903.035 105.998 902.269 106.259 901.504L109.311 892.992H111.971L105.503 910.072C105.149 911.005 104.729 911.817 104.243 912.508C103.777 913.217 103.198 913.759 102.507 914.132C101.835 914.524 101.014 914.72 100.043 914.72C99.5954 914.72 99.2034 914.692 98.8674 914.636C98.5314 914.599 98.2421 914.552 97.9994 914.496V912.536C98.2047 912.573 98.4474 912.611 98.7274 912.648C99.0261 912.685 99.3341 912.704 99.6514 912.704C100.23 912.704 100.725 912.592 101.135 912.368C101.565 912.163 101.929 911.855 102.227 911.444C102.526 911.052 102.778 910.585 102.983 910.044L103.767 908.056L97.7194 892.992ZM130.445 892.992V908H128.233V898.424C128.233 898.032 128.242 897.621 128.261 897.192C128.298 896.763 128.336 896.343 128.373 895.932H128.289L123.389 908H121.317L116.557 895.932H116.473C116.51 896.343 116.529 896.763 116.529 897.192C116.548 897.621 116.557 898.06 116.557 898.508V908H114.345V892.992H117.621L122.353 905.06L127.169 892.992H130.445ZM151.335 892.992V908H149.123V898.424C149.123 898.032 149.133 897.621 149.151 897.192C149.189 896.763 149.226 896.343 149.263 895.932H149.179L144.279 908H142.207L137.447 895.932H137.363C137.401 896.343 137.419 896.763 137.419 897.192C137.438 897.621 137.447 898.06 137.447 898.508V908H135.235V892.992H138.511L143.243 905.06L148.059 892.992H151.335ZM161.81 892.74C163.639 892.74 164.993 893.141 165.87 893.944C166.747 894.747 167.186 896.025 167.186 897.78V908H165.394L164.918 905.872H164.806C164.377 906.413 163.929 906.871 163.462 907.244C163.014 907.599 162.491 907.86 161.894 908.028C161.315 908.196 160.606 908.28 159.766 908.28C158.87 908.28 158.058 908.121 157.33 907.804C156.621 907.487 156.061 907.001 155.65 906.348C155.239 905.676 155.034 904.836 155.034 903.828C155.034 902.335 155.622 901.187 156.798 900.384C157.974 899.563 159.785 899.115 162.23 899.04L164.778 898.956V898.06C164.778 896.809 164.507 895.941 163.966 895.456C163.425 894.971 162.659 894.728 161.67 894.728C160.886 894.728 160.139 894.849 159.43 895.092C158.721 895.316 158.058 895.577 157.442 895.876L156.686 894.028C157.339 893.673 158.114 893.375 159.01 893.132C159.906 892.871 160.839 892.74 161.81 892.74ZM162.538 900.748C160.671 900.823 159.374 901.121 158.646 901.644C157.937 902.167 157.582 902.904 157.582 903.856C157.582 904.696 157.834 905.312 158.338 905.704C158.861 906.096 159.523 906.292 160.326 906.292C161.595 906.292 162.65 905.947 163.49 905.256C164.33 904.547 164.75 903.464 164.75 902.008V900.664L162.538 900.748ZM185.312 892.712C186.451 892.712 187.44 892.871 188.28 893.188C189.12 893.487 189.774 893.935 190.24 894.532C190.707 895.111 190.94 895.82 190.94 896.66C190.94 897.575 190.688 898.303 190.184 898.844C189.68 899.367 188.99 899.749 188.112 899.992V900.104C188.71 900.272 189.26 900.505 189.764 900.804C190.268 901.103 190.67 901.495 190.968 901.98C191.286 902.465 191.444 903.091 191.444 903.856C191.444 904.677 191.211 905.424 190.744 906.096C190.296 906.768 189.596 907.3 188.644 907.692C187.711 908.084 186.507 908.28 185.032 908.28C184.323 908.28 183.642 908.243 182.988 908.168C182.354 908.093 181.775 907.981 181.252 907.832C180.748 907.683 180.3 907.505 179.908 907.3V905.088C180.543 905.387 181.29 905.657 182.148 905.9C183.026 906.143 183.978 906.264 185.004 906.264C185.751 906.264 186.423 906.18 187.02 906.012C187.636 905.844 188.122 905.583 188.476 905.228C188.831 904.855 189.008 904.351 189.008 903.716C189.008 903.137 188.85 902.671 188.532 902.316C188.215 901.943 187.739 901.663 187.104 901.476C186.488 901.289 185.695 901.196 184.724 901.196H182.708V899.18H184.332C185.62 899.18 186.647 899.012 187.412 898.676C188.196 898.321 188.588 897.724 188.588 896.884C188.588 896.175 188.29 895.643 187.692 895.288C187.114 894.933 186.274 894.756 185.172 894.756C184.351 894.756 183.623 894.84 182.988 895.008C182.372 895.157 181.691 895.391 180.944 895.708L180.076 893.748C180.879 893.393 181.719 893.132 182.596 892.964C183.474 892.796 184.379 892.712 185.312 892.712ZM200.775 892.74C202.604 892.74 203.958 893.141 204.835 893.944C205.712 894.747 206.151 896.025 206.151 897.78V908H204.359L203.883 905.872H203.771C203.342 906.413 202.894 906.871 202.427 907.244C201.979 907.599 201.456 907.86 200.859 908.028C200.28 908.196 199.571 908.28 198.731 908.28C197.835 908.28 197.023 908.121 196.295 907.804C195.586 907.487 195.026 907.001 194.615 906.348C194.204 905.676 193.999 904.836 193.999 903.828C193.999 902.335 194.587 901.187 195.763 900.384C196.939 899.563 198.75 899.115 201.195 899.04L203.743 898.956V898.06C203.743 896.809 203.472 895.941 202.931 895.456C202.39 894.971 201.624 894.728 200.635 894.728C199.851 894.728 199.104 894.849 198.395 895.092C197.686 895.316 197.023 895.577 196.407 895.876L195.651 894.028C196.304 893.673 197.079 893.375 197.975 893.132C198.871 892.871 199.804 892.74 200.775 892.74ZM201.503 900.748C199.636 900.823 198.339 901.121 197.611 901.644C196.902 902.167 196.547 902.904 196.547 903.856C196.547 904.696 196.799 905.312 197.303 905.704C197.826 906.096 198.488 906.292 199.291 906.292C200.56 906.292 201.615 905.947 202.455 905.256C203.295 904.547 203.715 903.464 203.715 902.008V900.664L201.503 900.748ZM219.662 892.992H222.35L215.938 900.216L222.882 908H220.026L213.25 900.384V908H210.786V892.992H213.25V900.272L219.662 892.992ZM231.291 892.74C233.12 892.74 234.473 893.141 235.351 893.944C236.228 894.747 236.667 896.025 236.667 897.78V908H234.875L234.399 905.872H234.287C233.857 906.413 233.409 906.871 232.943 907.244C232.495 907.599 231.972 907.86 231.375 908.028C230.796 908.196 230.087 908.28 229.247 908.28C228.351 908.28 227.539 908.121 226.811 907.804C226.101 907.487 225.541 907.001 225.131 906.348C224.72 905.676 224.515 904.836 224.515 903.828C224.515 902.335 225.103 901.187 226.279 900.384C227.455 899.563 229.265 899.115 231.711 899.04L234.259 898.956V898.06C234.259 896.809 233.988 895.941 233.447 895.456C232.905 894.971 232.14 894.728 231.151 894.728C230.367 894.728 229.62 894.849 228.911 895.092C228.201 895.316 227.539 895.577 226.923 895.876L226.167 894.028C226.82 893.673 227.595 893.375 228.491 893.132C229.387 892.871 230.32 892.74 231.291 892.74ZM232.019 900.748C230.152 900.823 228.855 901.121 228.127 901.644C227.417 902.167 227.063 902.904 227.063 903.856C227.063 904.696 227.315 905.312 227.819 905.704C228.341 906.096 229.004 906.292 229.807 906.292C231.076 906.292 232.131 905.947 232.971 905.256C233.811 904.547 234.231 903.464 234.231 902.008V900.664L232.019 900.748ZM245.25 892.712C246.389 892.712 247.378 892.871 248.218 893.188C249.058 893.487 249.711 893.935 250.178 894.532C250.645 895.111 250.878 895.82 250.878 896.66C250.878 897.575 250.626 898.303 250.122 898.844C249.618 899.367 248.927 899.749 248.05 899.992V900.104C248.647 900.272 249.198 900.505 249.702 900.804C250.206 901.103 250.607 901.495 250.906 901.98C251.223 902.465 251.382 903.091 251.382 903.856C251.382 904.677 251.149 905.424 250.682 906.096C250.234 906.768 249.534 907.3 248.582 907.692C247.649 908.084 246.445 908.28 244.97 908.28C244.261 908.28 243.579 908.243 242.926 908.168C242.291 908.093 241.713 907.981 241.19 907.832C240.686 907.683 240.238 907.505 239.846 907.3V905.088C240.481 905.387 241.227 905.657 242.086 905.9C242.963 906.143 243.915 906.264 244.942 906.264C245.689 906.264 246.361 906.18 246.958 906.012C247.574 905.844 248.059 905.583 248.414 905.228C248.769 904.855 248.946 904.351 248.946 903.716C248.946 903.137 248.787 902.671 248.47 902.316C248.153 901.943 247.677 901.663 247.042 901.476C246.426 901.289 245.633 901.196 244.662 901.196H242.646V899.18H244.27C245.558 899.18 246.585 899.012 247.35 898.676C248.134 898.321 248.526 897.724 248.526 896.884C248.526 896.175 248.227 895.643 247.63 895.288C247.051 894.933 246.211 894.756 245.11 894.756C244.289 894.756 243.561 894.84 242.926 895.008C242.31 895.157 241.629 895.391 240.882 895.708L240.014 893.748C240.817 893.393 241.657 893.132 242.534 892.964C243.411 892.796 244.317 892.712 245.25 892.712ZM260.712 892.74C262.542 892.74 263.895 893.141 264.772 893.944C265.65 894.747 266.088 896.025 266.088 897.78V908H264.296L263.82 905.872H263.708C263.279 906.413 262.831 906.871 262.364 907.244C261.916 907.599 261.394 907.86 260.796 908.028C260.218 908.196 259.508 908.28 258.668 908.28C257.772 908.28 256.96 908.121 256.232 907.804C255.523 907.487 254.963 907.001 254.552 906.348C254.142 905.676 253.936 904.836 253.936 903.828C253.936 902.335 254.524 901.187 255.7 900.384C256.876 899.563 258.687 899.115 261.132 899.04L263.68 898.956V898.06C263.68 896.809 263.41 895.941 262.868 895.456C262.327 894.971 261.562 894.728 260.572 894.728C259.788 894.728 259.042 894.849 258.332 895.092C257.623 895.316 256.96 895.577 256.344 895.876L255.588 894.028C256.242 893.673 257.016 893.375 257.912 893.132C258.808 892.871 259.742 892.74 260.712 892.74ZM261.44 900.748C259.574 900.823 258.276 901.121 257.548 901.644C256.839 902.167 256.484 902.904 256.484 903.856C256.484 904.696 256.736 905.312 257.24 905.704C257.763 906.096 258.426 906.292 259.228 906.292C260.498 906.292 261.552 905.947 262.392 905.256C263.232 904.547 263.652 903.464 263.652 902.008V900.664L261.44 900.748ZM272.488 893.72C273.029 893.72 273.468 893.888 273.804 894.224C274.14 894.56 274.308 894.999 274.308 895.54C274.308 896.081 274.14 896.52 273.804 896.856C273.468 897.192 273.029 897.36 272.488 897.36C271.946 897.36 271.508 897.192 271.172 896.856C270.836 896.52 270.668 896.081 270.668 895.54C270.668 894.999 270.836 894.56 271.172 894.224C271.508 893.888 271.946 893.72 272.488 893.72ZM272.488 904.64C273.029 904.64 273.468 904.808 273.804 905.144C274.14 905.48 274.308 905.919 274.308 906.46C274.308 907.001 274.14 907.44 273.804 907.776C273.468 908.112 273.029 908.28 272.488 908.28C271.946 908.28 271.508 908.112 271.172 907.776C270.836 907.44 270.668 907.001 270.668 906.46C270.668 905.919 270.836 905.48 271.172 905.144C271.508 904.808 271.946 904.64 272.488 904.64Z" fill="#19191B"/>
</g>
<g clip-path="url(#clip2_268_2439)">
<path d="M701.384 900.28C699.293 900.28 697.622 899.468 696.372 897.844C695.121 896.22 694.496 893.859 694.496 890.76C694.496 887.661 695.121 885.3 696.372 883.676C697.622 882.052 699.293 881.24 701.384 881.24C703.493 881.24 705.164 882.052 706.396 883.676C707.646 885.3 708.272 887.661 708.272 890.76C708.272 893.859 707.646 896.22 706.396 897.844C705.164 899.468 703.493 900.28 701.384 900.28ZM701.384 898.264C702.373 898.264 703.204 897.984 703.876 897.424C704.566 896.845 705.08 895.996 705.416 894.876C705.77 893.756 705.948 892.384 705.948 890.76C705.948 889.136 705.77 887.764 705.416 886.644C705.08 885.524 704.566 884.684 703.876 884.124C703.204 883.545 702.373 883.256 701.384 883.256C700.394 883.256 699.554 883.545 698.864 884.124C698.192 884.684 697.678 885.524 697.324 886.644C696.988 887.764 696.82 889.136 696.82 890.76C696.82 892.384 696.988 893.756 697.324 894.876C697.678 895.996 698.192 896.845 698.864 897.424C699.554 897.984 700.394 898.264 701.384 898.264ZM713.134 896.64C713.675 896.64 714.114 896.808 714.45 897.144C714.786 897.48 714.954 897.919 714.954 898.46C714.954 899.001 714.786 899.44 714.45 899.776C714.114 900.112 713.675 900.28 713.134 900.28C712.593 900.28 712.154 900.112 711.818 899.776C711.482 899.44 711.314 899.001 711.314 898.46C711.314 897.919 711.482 897.48 711.818 897.144C712.154 896.808 712.593 896.64 713.134 896.64ZM724.872 900.28C722.781 900.28 721.111 899.468 719.86 897.844C718.609 896.22 717.984 893.859 717.984 890.76C717.984 887.661 718.609 885.3 719.86 883.676C721.111 882.052 722.781 881.24 724.872 881.24C726.981 881.24 728.652 882.052 729.884 883.676C731.135 885.3 731.76 887.661 731.76 890.76C731.76 893.859 731.135 896.22 729.884 897.844C728.652 899.468 726.981 900.28 724.872 900.28ZM724.872 898.264C725.861 898.264 726.692 897.984 727.364 897.424C728.055 896.845 728.568 895.996 728.904 894.876C729.259 893.756 729.436 892.384 729.436 890.76C729.436 889.136 729.259 887.764 728.904 886.644C728.568 885.524 728.055 884.684 727.364 884.124C726.692 883.545 725.861 883.256 724.872 883.256C723.883 883.256 723.043 883.545 722.352 884.124C721.68 884.684 721.167 885.524 720.812 886.644C720.476 887.764 720.308 889.136 720.308 890.76C720.308 892.384 720.476 893.756 720.812 894.876C721.167 895.996 721.68 896.845 722.352 897.424C723.043 897.984 723.883 898.264 724.872 898.264ZM742.29 900.28C740.199 900.28 738.529 899.468 737.278 897.844C736.027 896.22 735.402 893.859 735.402 890.76C735.402 887.661 736.027 885.3 737.278 883.676C738.529 882.052 740.199 881.24 742.29 881.24C744.399 881.24 746.07 882.052 747.302 883.676C748.553 885.3 749.178 887.661 749.178 890.76C749.178 893.859 748.553 896.22 747.302 897.844C746.07 899.468 744.399 900.28 742.29 900.28ZM742.29 898.264C743.279 898.264 744.11 897.984 744.782 897.424C745.473 896.845 745.986 895.996 746.322 894.876C746.677 893.756 746.854 892.384 746.854 890.76C746.854 889.136 746.677 887.764 746.322 886.644C745.986 885.524 745.473 884.684 744.782 884.124C744.11 883.545 743.279 883.256 742.29 883.256C741.301 883.256 740.461 883.545 739.77 884.124C739.098 884.684 738.585 885.524 738.23 886.644C737.894 887.764 737.726 889.136 737.726 890.76C737.726 892.384 737.894 893.756 738.23 894.876C738.585 895.996 739.098 896.845 739.77 897.424C740.461 897.984 741.301 898.264 742.29 898.264Z" fill="#19191B"/>
</g>
<defs>
<clipPath id="clip0_268_2439">
<rect width="650" height="144" fill="white" transform="translate(80 110)"/>
</clipPath>
<clipPath id="clip1_268_2439">
<rect width="294" height="36" fill="white" transform="translate(80 880)"/>
</clipPath>
<clipPath id="clip2_268_2439">
<rect width="294" height="36" fill="white" transform="translate(457 872)"/>
</clipPath>
</defs>
</svg>
