<svg width="834" height="1194" viewBox="0 0 834 1194" fill="none" xmlns="http://www.w3.org/2000/svg">
<rect x="0.5" y="0.5" width="833" height="1193" fill="white"/>
<rect x="0.5" y="0.5" width="833" height="1193" stroke="black"/>
<g clip-path="url(#clip0_268_2491)">
<path d="M284.405 201.68C284.405 203.893 284.125 205.907 283.565 207.72C283.005 209.507 282.165 211.053 281.045 212.36C279.952 213.667 278.579 214.667 276.925 215.36C275.299 216.053 273.405 216.4 271.245 216.4C269.005 216.4 267.059 216.053 265.405 215.36C263.752 214.64 262.379 213.64 261.285 212.36C260.192 211.053 259.379 209.493 258.845 207.68C258.312 205.867 258.045 203.853 258.045 201.64C258.045 198.707 258.525 196.147 259.485 193.96C260.445 191.773 261.899 190.067 263.845 188.84C265.819 187.613 268.299 187 271.285 187C274.139 187 276.539 187.613 278.485 188.84C280.432 190.04 281.899 191.747 282.885 193.96C283.899 196.147 284.405 198.72 284.405 201.68ZM261.845 201.68C261.845 204.08 262.179 206.147 262.845 207.88C263.512 209.613 264.539 210.947 265.925 211.88C267.339 212.813 269.112 213.28 271.245 213.28C273.405 213.28 275.165 212.813 276.525 211.88C277.912 210.947 278.939 209.613 279.605 207.88C280.272 206.147 280.605 204.08 280.605 201.68C280.605 198.08 279.859 195.267 278.365 193.24C276.872 191.187 274.512 190.16 271.285 190.16C269.125 190.16 267.339 190.627 265.925 191.56C264.539 192.467 263.512 193.787 262.845 195.52C262.179 197.227 261.845 199.28 261.845 201.68ZM308.375 194.56V216H304.855V197.56H293.775V216H290.255V194.56H308.375ZM331.536 216H327.976V197.48H321.656C321.39 200.867 321.056 203.76 320.656 206.16C320.256 208.533 319.75 210.467 319.136 211.96C318.523 213.453 317.79 214.547 316.936 215.24C316.083 215.933 315.083 216.28 313.936 216.28C313.59 216.28 313.243 216.253 312.896 216.2C312.576 216.173 312.31 216.107 312.096 216V213.36C312.256 213.413 312.43 213.453 312.616 213.48C312.803 213.507 312.99 213.52 313.176 213.52C313.763 213.52 314.296 213.28 314.776 212.8C315.256 212.32 315.683 211.587 316.056 210.6C316.456 209.613 316.816 208.373 317.136 206.88C317.456 205.36 317.736 203.573 317.976 201.52C318.216 199.467 318.43 197.147 318.616 194.56H331.536V216ZM346.461 194.2C349.075 194.2 351.008 194.773 352.261 195.92C353.515 197.067 354.141 198.893 354.141 201.4V216H351.581L350.901 212.96H350.741C350.128 213.733 349.488 214.387 348.821 214.92C348.181 215.427 347.435 215.8 346.581 216.04C345.755 216.28 344.741 216.4 343.541 216.4C342.261 216.4 341.101 216.173 340.061 215.72C339.048 215.267 338.248 214.573 337.661 213.64C337.075 212.68 336.781 211.48 336.781 210.04C336.781 207.907 337.621 206.267 339.301 205.12C340.981 203.947 343.568 203.307 347.061 203.2L350.701 203.08V201.8C350.701 200.013 350.315 198.773 349.541 198.08C348.768 197.387 347.675 197.04 346.261 197.04C345.141 197.04 344.075 197.213 343.061 197.56C342.048 197.88 341.101 198.253 340.221 198.68L339.141 196.04C340.075 195.533 341.181 195.107 342.461 194.76C343.741 194.387 345.075 194.2 346.461 194.2ZM347.501 205.64C344.835 205.747 342.981 206.173 341.941 206.92C340.928 207.667 340.421 208.72 340.421 210.08C340.421 211.28 340.781 212.16 341.501 212.72C342.248 213.28 343.195 213.56 344.341 213.56C346.155 213.56 347.661 213.067 348.861 212.08C350.061 211.067 350.661 209.52 350.661 207.44V205.52L347.501 205.64ZM375.563 197.52H368.563V216H365.083V197.52H358.163V194.56H375.563V197.52ZM387.907 194.2C390.52 194.2 392.453 194.773 393.707 195.92C394.96 197.067 395.587 198.893 395.587 201.4V216H393.027L392.347 212.96H392.187C391.573 213.733 390.933 214.387 390.267 214.92C389.627 215.427 388.88 215.8 388.027 216.04C387.2 216.28 386.187 216.4 384.987 216.4C383.707 216.4 382.547 216.173 381.507 215.72C380.493 215.267 379.693 214.573 379.107 213.64C378.52 212.68 378.227 211.48 378.227 210.04C378.227 207.907 379.067 206.267 380.747 205.12C382.427 203.947 385.013 203.307 388.507 203.2L392.147 203.08V201.8C392.147 200.013 391.76 198.773 390.987 198.08C390.213 197.387 389.12 197.04 387.707 197.04C386.587 197.04 385.52 197.213 384.507 197.56C383.493 197.88 382.547 198.253 381.667 198.68L380.587 196.04C381.52 195.533 382.627 195.107 383.907 194.76C385.187 194.387 386.52 194.2 387.907 194.2ZM388.947 205.64C386.28 205.747 384.427 206.173 383.387 206.92C382.373 207.667 381.867 208.72 381.867 210.08C381.867 211.28 382.227 212.16 382.947 212.72C383.693 213.28 384.64 213.56 385.787 213.56C387.6 213.56 389.107 213.067 390.307 212.08C391.507 211.067 392.107 209.52 392.107 207.44V205.52L388.947 205.64ZM433.961 194.56V216H430.441V197.56H419.361V216H415.841V194.56H433.961ZM459.442 205.24C459.442 207.027 459.202 208.613 458.722 210C458.269 211.36 457.602 212.52 456.722 213.48C455.869 214.44 454.816 215.173 453.562 215.68C452.336 216.16 450.962 216.4 449.442 216.4C448.029 216.4 446.722 216.16 445.522 215.68C444.322 215.173 443.282 214.44 442.402 213.48C441.522 212.52 440.829 211.36 440.322 210C439.842 208.613 439.602 207.027 439.602 205.24C439.602 202.867 440.002 200.867 440.802 199.24C441.602 197.587 442.749 196.333 444.242 195.48C445.736 194.6 447.509 194.16 449.562 194.16C451.509 194.16 453.216 194.6 454.682 195.48C456.176 196.333 457.336 197.587 458.162 199.24C459.016 200.867 459.442 202.867 459.442 205.24ZM443.242 205.24C443.242 206.92 443.456 208.387 443.882 209.64C444.336 210.867 445.029 211.813 445.962 212.48C446.896 213.147 448.082 213.48 449.522 213.48C450.962 213.48 452.149 213.147 453.082 212.48C454.016 211.813 454.696 210.867 455.122 209.64C455.576 208.387 455.802 206.92 455.802 205.24C455.802 203.533 455.576 202.08 455.122 200.88C454.669 199.68 453.976 198.76 453.042 198.12C452.136 197.453 450.949 197.12 449.482 197.12C447.296 197.12 445.709 197.84 444.722 199.28C443.736 200.72 443.242 202.707 443.242 205.24ZM491.374 190.2C489.854 190.2 488.481 190.467 487.254 191C486.027 191.507 484.987 192.267 484.134 193.28C483.281 194.267 482.627 195.48 482.174 196.92C481.721 198.333 481.494 199.933 481.494 201.72C481.494 204.067 481.854 206.107 482.574 207.84C483.321 209.573 484.414 210.907 485.854 211.84C487.321 212.773 489.147 213.24 491.334 213.24C492.587 213.24 493.774 213.133 494.894 212.92C496.014 212.707 497.107 212.44 498.174 212.12V215.24C497.107 215.64 496.001 215.933 494.854 216.12C493.734 216.307 492.387 216.4 490.814 216.4C487.907 216.4 485.481 215.8 483.534 214.6C481.587 213.4 480.121 211.693 479.134 209.48C478.174 207.267 477.694 204.667 477.694 201.68C477.694 199.52 477.987 197.547 478.574 195.76C479.187 193.973 480.067 192.427 481.214 191.12C482.387 189.813 483.827 188.813 485.534 188.12C487.241 187.4 489.201 187.04 491.414 187.04C492.881 187.04 494.294 187.187 495.654 187.48C497.014 187.773 498.227 188.187 499.294 188.72L497.854 191.76C496.974 191.36 495.987 191 494.894 190.68C493.827 190.36 492.654 190.2 491.374 190.2ZM504.407 216V187.44H521.367V190.6H508.007V199.52H512.247C515.101 199.52 517.314 199.88 518.887 200.6C520.461 201.293 521.554 202.253 522.167 203.48C522.781 204.68 523.087 206.067 523.087 207.64C523.087 209.373 522.741 210.867 522.047 212.12C521.381 213.373 520.287 214.333 518.767 215C517.247 215.667 515.247 216 512.767 216H504.407ZM512.407 212.92C514.967 212.92 516.767 212.493 517.807 211.64C518.847 210.76 519.367 209.427 519.367 207.64C519.367 206.413 519.114 205.44 518.607 204.72C518.127 203.973 517.327 203.44 516.207 203.12C515.114 202.8 513.647 202.64 511.807 202.64H508.007V212.92H512.407ZM529.017 216V187.44H550.457V216H546.897V190.6H532.617V216H529.017Z" fill="#19191B"/>
</g>
<g clip-path="url(#clip1_268_2491)">
<path d="M167.155 903.68C167.155 905.893 166.875 907.907 166.315 909.72C165.755 911.507 164.915 913.053 163.795 914.36C162.702 915.667 161.329 916.667 159.675 917.36C158.049 918.053 156.155 918.4 153.995 918.4C151.755 918.4 149.809 918.053 148.155 917.36C146.502 916.64 145.129 915.64 144.035 914.36C142.942 913.053 142.129 911.493 141.595 909.68C141.062 907.867 140.795 905.853 140.795 903.64C140.795 900.707 141.275 898.147 142.235 895.96C143.195 893.773 144.649 892.067 146.595 890.84C148.569 889.613 151.049 889 154.035 889C156.889 889 159.289 889.613 161.235 890.84C163.182 892.04 164.649 893.747 165.635 895.96C166.649 898.147 167.155 900.72 167.155 903.68ZM144.595 903.68C144.595 906.08 144.929 908.147 145.595 909.88C146.262 911.613 147.289 912.947 148.675 913.88C150.089 914.813 151.862 915.28 153.995 915.28C156.155 915.28 157.915 914.813 159.275 913.88C160.662 912.947 161.689 911.613 162.355 909.88C163.022 908.147 163.355 906.08 163.355 903.68C163.355 900.08 162.609 897.267 161.115 895.24C159.622 893.187 157.262 892.16 154.035 892.16C151.875 892.16 150.089 892.627 148.675 893.56C147.289 894.467 146.262 895.787 145.595 897.52C144.929 899.227 144.595 901.28 144.595 903.68ZM187.805 899.52H180.805V918H177.325V899.52H170.405V896.56H187.805V899.52ZM200.238 918.4C198.345 918.4 196.652 918.013 195.158 917.24C193.692 916.467 192.532 915.267 191.678 913.64C190.852 912.013 190.438 909.933 190.438 907.4C190.438 904.76 190.878 902.613 191.758 900.96C192.638 899.307 193.825 898.093 195.318 897.32C196.838 896.547 198.558 896.16 200.478 896.16C201.572 896.16 202.625 896.28 203.638 896.52C204.652 896.733 205.478 897 206.118 897.32L205.038 900.24C204.398 900 203.652 899.773 202.798 899.56C201.945 899.347 201.145 899.24 200.398 899.24C198.958 899.24 197.772 899.547 196.838 900.16C195.905 900.773 195.212 901.68 194.758 902.88C194.305 904.08 194.078 905.573 194.078 907.36C194.078 909.067 194.305 910.52 194.758 911.72C195.212 912.92 195.892 913.827 196.798 914.44C197.705 915.053 198.838 915.36 200.198 915.36C201.372 915.36 202.398 915.24 203.278 915C204.185 914.76 205.012 914.467 205.758 914.12V917.24C205.038 917.613 204.238 917.893 203.358 918.08C202.505 918.293 201.465 918.4 200.238 918.4ZM223.537 896.56H227.377L218.217 906.88L228.137 918H224.057L214.377 907.12V918H210.857V896.56H214.377V906.96L223.537 896.56ZM240.149 896.2C242.762 896.2 244.696 896.773 245.949 897.92C247.202 899.067 247.829 900.893 247.829 903.4V918H245.269L244.589 914.96H244.429C243.816 915.733 243.176 916.387 242.509 916.92C241.869 917.427 241.122 917.8 240.269 918.04C239.442 918.28 238.429 918.4 237.229 918.4C235.949 918.4 234.789 918.173 233.749 917.72C232.736 917.267 231.936 916.573 231.349 915.64C230.762 914.68 230.469 913.48 230.469 912.04C230.469 909.907 231.309 908.267 232.989 907.12C234.669 905.947 237.256 905.307 240.749 905.2L244.389 905.08V903.8C244.389 902.013 244.002 900.773 243.229 900.08C242.456 899.387 241.362 899.04 239.949 899.04C238.829 899.04 237.762 899.213 236.749 899.56C235.736 899.88 234.789 900.253 233.909 900.68L232.829 898.04C233.762 897.533 234.869 897.107 236.149 896.76C237.429 896.387 238.762 896.2 240.149 896.2ZM241.189 907.64C238.522 907.747 236.669 908.173 235.629 908.92C234.616 909.667 234.109 910.72 234.109 912.08C234.109 913.28 234.469 914.16 235.189 914.72C235.936 915.28 236.882 915.56 238.029 915.56C239.842 915.56 241.349 915.067 242.549 914.08C243.749 913.067 244.349 911.52 244.349 909.44V907.52L241.189 907.64ZM257.971 896.56V905.48H269.611V896.56H273.131V918H269.611V908.44H257.971V918H254.451V896.56H257.971ZM283.24 909.64C283.24 909.88 283.226 910.227 283.2 910.68C283.2 911.107 283.186 911.573 283.16 912.08C283.133 912.56 283.106 913.027 283.08 913.48C283.053 913.907 283.026 914.253 283 914.52L294.48 896.56H298.8V918H295.52V905.36C295.52 904.933 295.52 904.373 295.52 903.68C295.546 902.987 295.573 902.307 295.6 901.64C295.626 900.947 295.653 900.427 295.68 900.08L284.28 918H279.92V896.56H283.24V909.64ZM315.823 896.16C318.463 896.16 320.583 897.08 322.183 898.92C323.809 900.76 324.623 903.533 324.623 907.24C324.623 909.667 324.249 911.72 323.503 913.4C322.783 915.053 321.756 916.307 320.423 917.16C319.116 917.987 317.569 918.4 315.783 918.4C314.689 918.4 313.716 918.253 312.863 917.96C312.009 917.667 311.276 917.293 310.663 916.84C310.076 916.36 309.569 915.84 309.143 915.28H308.903C308.956 915.733 309.009 916.307 309.063 917C309.116 917.693 309.143 918.293 309.143 918.8V927.6H305.623V896.56H308.503L308.983 899.48H309.143C309.569 898.867 310.076 898.307 310.663 897.8C311.276 897.293 311.996 896.893 312.823 896.6C313.676 896.307 314.676 896.16 315.823 896.16ZM315.183 899.12C313.743 899.12 312.583 899.4 311.703 899.96C310.823 900.493 310.183 901.307 309.783 902.4C309.383 903.493 309.169 904.88 309.143 906.56V907.24C309.143 909 309.329 910.493 309.703 911.72C310.076 912.947 310.703 913.88 311.583 914.52C312.489 915.16 313.716 915.48 315.263 915.48C316.569 915.48 317.636 915.12 318.463 914.4C319.316 913.68 319.943 912.707 320.343 911.48C320.769 910.227 320.983 908.8 320.983 907.2C320.983 904.747 320.503 902.787 319.543 901.32C318.609 899.853 317.156 899.12 315.183 899.12ZM326.481 896.56H330.241L334.881 908.76C335.148 909.48 335.388 910.173 335.601 910.84C335.841 911.507 336.055 912.16 336.241 912.8C336.428 913.413 336.575 914.013 336.681 914.6H336.841C337.001 913.933 337.255 913.067 337.601 912C337.948 910.907 338.308 909.813 338.681 908.72L343.041 896.56H346.841L337.601 920.96C337.095 922.293 336.495 923.453 335.801 924.44C335.135 925.453 334.308 926.227 333.321 926.76C332.361 927.32 331.188 927.6 329.801 927.6C329.161 927.6 328.601 927.56 328.121 927.48C327.641 927.427 327.228 927.36 326.881 927.28V924.48C327.175 924.533 327.521 924.587 327.921 924.64C328.348 924.693 328.788 924.72 329.241 924.72C330.068 924.72 330.775 924.56 331.361 924.24C331.975 923.947 332.495 923.507 332.921 922.92C333.348 922.36 333.708 921.693 334.001 920.92L335.121 918.08L326.481 896.56ZM367.592 887.68C367.485 889.013 367.152 890.133 366.592 891.04C366.059 891.947 365.259 892.627 364.192 893.08C363.125 893.533 361.739 893.76 360.032 893.76C358.299 893.76 356.899 893.533 355.832 893.08C354.792 892.627 354.032 891.96 353.552 891.08C353.072 890.173 352.779 889.04 352.672 887.68H355.952C356.085 889.12 356.459 890.093 357.072 890.6C357.712 891.08 358.725 891.32 360.112 891.32C361.339 891.32 362.299 891.067 362.992 890.56C363.712 890.027 364.139 889.067 364.272 887.68H367.592ZM353.552 909.64C353.552 909.88 353.539 910.227 353.512 910.68C353.512 911.107 353.499 911.573 353.472 912.08C353.445 912.56 353.419 913.027 353.392 913.48C353.365 913.907 353.339 914.253 353.312 914.52L364.792 896.56H369.112V918H365.832V905.36C365.832 904.933 365.832 904.373 365.832 903.68C365.859 902.987 365.885 902.307 365.912 901.64C365.939 900.947 365.965 900.427 365.992 900.08L354.592 918H350.232V896.56H353.552V909.64ZM390.735 899.52H383.735V918H380.255V899.52H373.335V896.56H390.735V899.52ZM402.848 896.16C404.688 896.16 406.261 896.56 407.568 897.36C408.901 898.16 409.915 899.293 410.608 900.76C411.328 902.2 411.688 903.893 411.688 905.84V907.96H397.008C397.061 910.387 397.675 912.24 398.848 913.52C400.048 914.773 401.715 915.4 403.848 915.4C405.208 915.4 406.408 915.28 407.448 915.04C408.515 914.773 409.608 914.4 410.728 913.92V917C409.635 917.48 408.555 917.827 407.488 918.04C406.421 918.28 405.155 918.4 403.688 918.4C401.661 918.4 399.861 917.987 398.288 917.16C396.741 916.333 395.528 915.107 394.648 913.48C393.795 911.827 393.368 909.813 393.368 907.44C393.368 905.093 393.755 903.08 394.528 901.4C395.328 899.72 396.435 898.427 397.848 897.52C399.288 896.613 400.955 896.16 402.848 896.16ZM402.808 899.04C401.128 899.04 399.795 899.587 398.808 900.68C397.848 901.747 397.275 903.24 397.088 905.16H408.008C408.008 903.933 407.821 902.867 407.448 901.96C407.075 901.053 406.501 900.347 405.728 899.84C404.981 899.307 404.008 899.04 402.808 899.04ZM448.739 925.8C447.379 925.8 446.099 925.547 444.899 925.04C443.699 924.533 442.712 923.667 441.939 922.44C441.192 921.213 440.819 919.533 440.819 917.4C440.819 917.16 440.819 916.907 440.819 916.64C440.846 916.347 440.872 916.067 440.899 915.8L443.739 915.88C443.712 916.147 443.686 916.4 443.659 916.64C443.659 916.853 443.659 917.067 443.659 917.28C443.659 918.8 443.899 919.933 444.379 920.68C444.859 921.427 445.486 921.92 446.259 922.16C447.059 922.427 447.912 922.56 448.819 922.56C449.806 922.56 450.712 922.427 451.539 922.16C452.366 921.893 453.032 921.533 453.539 921.08L454.579 924.04C453.939 924.6 453.046 925.027 451.899 925.32C450.779 925.64 449.726 925.8 448.739 925.8ZM442.339 891.2C444.846 891.2 447.006 891.76 448.819 892.88C450.659 893.973 452.072 895.533 453.059 897.56C454.072 899.587 454.579 902 454.579 904.8C454.579 907.6 454.072 910.013 453.059 912.04C452.072 914.067 450.659 915.64 448.819 916.76C447.006 917.853 444.846 918.4 442.339 918.4C439.832 918.4 437.659 917.853 435.819 916.76C434.006 915.64 432.592 914.067 431.579 912.04C430.592 910.013 430.099 907.6 430.099 904.8C430.099 902 430.592 899.587 431.579 897.56C432.592 895.533 434.006 893.973 435.819 892.88C437.659 891.76 439.832 891.2 442.339 891.2ZM442.339 894.2C440.526 894.2 438.952 894.627 437.619 895.48C436.286 896.307 435.259 897.52 434.539 899.12C433.819 900.693 433.459 902.587 433.459 904.8C433.459 907.013 433.819 908.92 434.539 910.52C435.259 912.093 436.286 913.307 437.619 914.16C438.952 914.987 440.526 915.4 442.339 915.4C444.179 915.4 445.752 914.987 447.059 914.16C448.392 913.307 449.419 912.093 450.139 910.52C450.859 908.92 451.219 907.013 451.219 904.8C451.219 902.587 450.859 900.693 450.139 899.12C449.419 897.52 448.392 896.307 447.059 895.48C445.752 894.627 444.179 894.2 442.339 894.2ZM471.621 891.6C474.314 891.6 476.474 892.293 478.101 893.68C479.727 895.067 480.541 896.947 480.541 899.32C480.541 901.693 479.714 903.547 478.061 904.88C476.434 906.187 474.274 906.84 471.581 906.84L471.301 907.04H464.821V918H461.621V891.6H471.621ZM471.581 904.04C473.474 904.04 474.874 903.653 475.781 902.88C476.714 902.08 477.181 900.893 477.181 899.32C477.181 897.747 476.714 896.573 475.781 895.8C474.874 895 473.474 894.6 471.581 894.6H464.821V904.04H471.581ZM473.421 904.68L482.141 918H478.341L470.741 906.44L473.421 904.68ZM499.179 905.88V909.2H485.979V905.88H499.179ZM514.77 897.6C516.156 897.6 517.37 897.813 518.41 898.24C519.476 898.667 520.396 899.28 521.17 900.08C521.943 900.88 522.57 901.827 523.05 902.92L520.01 904.36C519.583 903.08 518.93 902.107 518.05 901.44C517.196 900.747 516.076 900.4 514.69 900.4C513.356 900.4 512.21 900.707 511.25 901.32C510.29 901.907 509.556 902.773 509.05 903.92C508.543 905.04 508.29 906.4 508.29 908C508.29 909.573 508.543 910.933 509.05 912.08C509.556 913.227 510.29 914.107 511.25 914.72C512.21 915.307 513.356 915.6 514.69 915.6C515.73 915.6 516.623 915.44 517.37 915.12C518.143 914.8 518.77 914.333 519.25 913.72C519.756 913.107 520.103 912.36 520.29 911.48L523.25 912.52C522.796 913.747 522.17 914.8 521.37 915.68C520.596 916.56 519.65 917.24 518.53 917.72C517.436 918.173 516.183 918.4 514.77 918.4C512.903 918.4 511.236 917.987 509.77 917.16C508.303 916.333 507.156 915.147 506.33 913.6C505.503 912.027 505.09 910.16 505.09 908C505.09 905.84 505.503 903.987 506.33 902.44C507.156 900.867 508.303 899.667 509.77 898.84C511.236 898.013 512.903 897.6 514.77 897.6ZM537.152 897.6C539.046 897.6 540.712 898.013 542.152 898.84C543.619 899.667 544.766 900.867 545.592 902.44C546.419 903.987 546.832 905.84 546.832 908C546.832 910.16 546.419 912.027 545.592 913.6C544.766 915.147 543.619 916.333 542.152 917.16C540.712 917.987 539.046 918.4 537.152 918.4C535.286 918.4 533.619 917.987 532.152 917.16C530.686 916.333 529.539 915.147 528.712 913.6C527.886 912.027 527.472 910.16 527.472 908C527.472 905.84 527.886 903.987 528.712 902.44C529.539 900.867 530.686 899.667 532.152 898.84C533.619 898.013 535.286 897.6 537.152 897.6ZM537.152 900.36C535.792 900.36 534.632 900.667 533.672 901.28C532.712 901.893 531.966 902.773 531.432 903.92C530.926 905.04 530.672 906.4 530.672 908C530.672 909.573 530.926 910.933 531.432 912.08C531.966 913.227 532.712 914.107 533.672 914.72C534.632 915.333 535.792 915.64 537.152 915.64C538.512 915.64 539.672 915.333 540.632 914.72C541.592 914.107 542.326 913.227 542.832 912.08C543.366 910.933 543.632 909.573 543.632 908C543.632 906.4 543.366 905.04 542.832 903.92C542.326 902.773 541.592 901.893 540.632 901.28C539.672 900.667 538.512 900.36 537.152 900.36ZM560.657 918.4C559.003 918.4 557.483 917.987 556.097 917.16C554.71 916.333 553.603 915.147 552.777 913.6C551.95 912.027 551.537 910.16 551.537 908C551.537 905.787 551.977 903.907 552.857 902.36C553.737 900.813 554.897 899.64 556.337 898.84C557.777 898.013 559.323 897.6 560.977 897.6C562.63 897.6 564.057 898.027 565.257 898.88C566.483 899.733 567.297 900.867 567.697 902.28L567.297 902.56V888.8H570.497V918H567.697L567.417 913.16L567.857 912.92C567.67 914.093 567.217 915.093 566.497 915.92C565.803 916.72 564.937 917.333 563.897 917.76C562.883 918.187 561.803 918.4 560.657 918.4ZM560.977 915.6C562.257 915.6 563.363 915.28 564.297 914.64C565.257 914 565.99 913.093 566.497 911.92C567.03 910.72 567.297 909.32 567.297 907.72C567.297 906.2 567.03 904.893 566.497 903.8C565.99 902.707 565.27 901.867 564.337 901.28C563.43 900.693 562.363 900.4 561.137 900.4C559.11 900.4 557.537 901.093 556.417 902.48C555.297 903.867 554.737 905.707 554.737 908C554.737 910.293 555.283 912.133 556.377 913.52C557.47 914.907 559.003 915.6 560.977 915.6ZM586.295 918.4C584.402 918.4 582.708 917.987 581.215 917.16C579.748 916.333 578.602 915.147 577.775 913.6C576.948 912.027 576.535 910.16 576.535 908C576.535 905.84 576.948 903.987 577.775 902.44C578.602 900.867 579.735 899.667 581.175 898.84C582.615 898.013 584.255 897.6 586.095 897.6C587.962 897.6 589.548 898 590.855 898.8C592.188 899.6 593.202 900.693 593.895 902.08C594.588 903.44 594.935 904.973 594.935 906.68C594.935 907.133 594.922 907.547 594.895 907.92C594.868 908.293 594.828 908.627 594.775 908.92H578.615V906.08H593.375L591.735 906.4C591.735 904.48 591.202 903 590.135 901.96C589.095 900.92 587.722 900.4 586.015 900.4C584.708 900.4 583.575 900.707 582.615 901.32C581.682 901.907 580.948 902.773 580.415 903.92C579.908 905.04 579.655 906.4 579.655 908C579.655 909.573 579.922 910.933 580.455 912.08C580.988 913.227 581.735 914.107 582.695 914.72C583.682 915.307 584.855 915.6 586.215 915.6C587.682 915.6 588.868 915.32 589.775 914.76C590.708 914.2 591.455 913.44 592.015 912.48L594.535 913.96C594.028 914.867 593.375 915.653 592.575 916.32C591.802 916.987 590.882 917.507 589.815 917.88C588.775 918.227 587.602 918.4 586.295 918.4ZM630.254 896.56V915.04H633.374V925.44H629.974V918H615.054V925.44H611.694V915.04H613.414C614.64 913.333 615.654 911.48 616.454 909.48C617.28 907.453 617.894 905.347 618.294 903.16C618.72 900.947 618.947 898.747 618.974 896.56H630.254ZM622.094 899.32C621.987 901.133 621.707 903.013 621.254 904.96C620.8 906.88 620.214 908.72 619.494 910.48C618.8 912.24 617.987 913.76 617.054 915.04H626.854V899.32H622.094ZM653.896 918H650.336V899.48H644.016C643.749 902.867 643.416 905.76 643.016 908.16C642.616 910.533 642.109 912.467 641.496 913.96C640.882 915.453 640.149 916.547 639.296 917.24C638.442 917.933 637.442 918.28 636.296 918.28C635.949 918.28 635.602 918.253 635.256 918.2C634.936 918.173 634.669 918.107 634.456 918V915.36C634.616 915.413 634.789 915.453 634.976 915.48C635.162 915.507 635.349 915.52 635.536 915.52C636.122 915.52 636.656 915.28 637.136 914.8C637.616 914.32 638.042 913.587 638.416 912.6C638.816 911.613 639.176 910.373 639.496 908.88C639.816 907.36 640.096 905.573 640.336 903.52C640.576 901.467 640.789 899.147 640.976 896.56H653.896V918ZM662.021 918H657.941L664.061 909C663.234 908.787 662.434 908.453 661.661 908C660.887 907.52 660.261 906.867 659.781 906.04C659.301 905.187 659.061 904.133 659.061 902.88C659.061 900.827 659.754 899.267 661.141 898.2C662.527 897.107 664.367 896.56 666.661 896.56H676.261V918H672.741V909.48H667.541L662.021 918ZM662.461 902.92C662.461 904.147 662.914 905.067 663.821 905.68C664.754 906.267 666.047 906.56 667.701 906.56H672.741V899.48H667.021C665.394 899.48 664.221 899.8 663.501 900.44C662.807 901.08 662.461 901.907 662.461 902.92ZM358.599 955.24C358.599 957.027 358.359 958.613 357.879 960C357.425 961.36 356.759 962.52 355.879 963.48C355.025 964.44 353.972 965.173 352.719 965.68C351.492 966.16 350.119 966.4 348.599 966.4C347.185 966.4 345.879 966.16 344.679 965.68C343.479 965.173 342.439 964.44 341.559 963.48C340.679 962.52 339.985 961.36 339.479 960C338.999 958.613 338.759 957.027 338.759 955.24C338.759 952.867 339.159 950.867 339.959 949.24C340.759 947.587 341.905 946.333 343.399 945.48C344.892 944.6 346.665 944.16 348.719 944.16C350.665 944.16 352.372 944.6 353.839 945.48C355.332 946.333 356.492 947.587 357.319 949.24C358.172 950.867 358.599 952.867 358.599 955.24ZM342.399 955.24C342.399 956.92 342.612 958.387 343.039 959.64C343.492 960.867 344.185 961.813 345.119 962.48C346.052 963.147 347.239 963.48 348.679 963.48C350.119 963.48 351.305 963.147 352.239 962.48C353.172 961.813 353.852 960.867 354.279 959.64C354.732 958.387 354.959 956.92 354.959 955.24C354.959 953.533 354.732 952.08 354.279 950.88C353.825 949.68 353.132 948.76 352.199 948.12C351.292 947.453 350.105 947.12 348.639 947.12C346.452 947.12 344.865 947.84 343.879 949.28C342.892 950.72 342.399 952.707 342.399 955.24ZM382.297 944.56V966H378.777V947.56H367.697V966H364.177V944.56H382.297ZM405.458 966H401.898V947.48H395.578C395.312 950.867 394.978 953.76 394.578 956.16C394.178 958.533 393.672 960.467 393.058 961.96C392.445 963.453 391.712 964.547 390.858 965.24C390.005 965.933 389.005 966.28 387.858 966.28C387.512 966.28 387.165 966.253 386.818 966.2C386.498 966.173 386.232 966.107 386.018 966V963.36C386.178 963.413 386.352 963.453 386.538 963.48C386.725 963.507 386.912 963.52 387.098 963.52C387.685 963.52 388.218 963.28 388.698 962.8C389.178 962.32 389.605 961.587 389.978 960.6C390.378 959.613 390.738 958.373 391.058 956.88C391.378 955.36 391.658 953.573 391.898 951.52C392.138 949.467 392.352 947.147 392.538 944.56H405.458V966ZM420.383 944.2C422.997 944.2 424.93 944.773 426.183 945.92C427.437 947.067 428.063 948.893 428.063 951.4V966H425.503L424.823 962.96H424.663C424.05 963.733 423.41 964.387 422.743 964.92C422.103 965.427 421.357 965.8 420.503 966.04C419.677 966.28 418.663 966.4 417.463 966.4C416.183 966.4 415.023 966.173 413.983 965.72C412.97 965.267 412.17 964.573 411.583 963.64C410.997 962.68 410.703 961.48 410.703 960.04C410.703 957.907 411.543 956.267 413.223 955.12C414.903 953.947 417.49 953.307 420.983 953.2L424.623 953.08V951.8C424.623 950.013 424.237 948.773 423.463 948.08C422.69 947.387 421.597 947.04 420.183 947.04C419.063 947.04 417.997 947.213 416.983 947.56C415.97 947.88 415.023 948.253 414.143 948.68L413.063 946.04C413.997 945.533 415.103 945.107 416.383 944.76C417.663 944.387 418.997 944.2 420.383 944.2ZM421.423 955.64C418.757 955.747 416.903 956.173 415.863 956.92C414.85 957.667 414.343 958.72 414.343 960.08C414.343 961.28 414.703 962.16 415.423 962.72C416.17 963.28 417.117 963.56 418.263 963.56C420.077 963.56 421.583 963.067 422.783 962.08C423.983 961.067 424.583 959.52 424.583 957.44V955.52L421.423 955.64ZM449.485 947.52H442.485V966H439.005V947.52H432.085V944.56H449.485V947.52ZM453.709 966V944.56H457.229V953.36H462.789C464.655 953.36 466.189 953.587 467.389 954.04C468.589 954.493 469.482 955.173 470.069 956.08C470.655 956.96 470.949 958.08 470.949 959.44C470.949 960.773 470.655 961.933 470.069 962.92C469.509 963.907 468.615 964.667 467.389 965.2C466.189 965.733 464.602 966 462.629 966H453.709ZM462.309 963.16C463.829 963.16 465.069 962.907 466.029 962.4C466.989 961.867 467.469 960.947 467.469 959.64C467.469 958.333 467.029 957.453 466.149 957C465.269 956.52 464.002 956.28 462.349 956.28H457.229V963.16H462.309ZM474.509 966V944.56H478.029V966H474.509Z" fill="#19191B"/>
</g>
<rect x="68" y="255" width="682" height="596" rx="7" fill="#EFEFF0"/>
<rect x="68" y="255" width="682" height="596" rx="7" stroke="#AFB1B6" stroke-width="2"/>
<mask id="mask0_268_2491" style="mask-type:luminance" maskUnits="userSpaceOnUse" x="399" y="543" width="20" height="20">
<path fill-rule="evenodd" clip-rule="evenodd" d="M399 543H418.96V562.95H399V543Z" fill="white"/>
</mask>
<g mask="url(#mask0_268_2491)">
<path fill-rule="evenodd" clip-rule="evenodd" d="M404.65 544.5C402.129 544.5 400.5 546.227 400.5 548.899V557.051C400.5 559.724 402.129 561.45 404.65 561.45H413.3C415.827 561.45 417.46 559.724 417.46 557.051V548.899C417.46 546.227 415.827 544.5 413.3 544.5H404.65ZM413.3 562.95H404.65C401.27 562.95 399 560.579 399 557.051V548.899C399 545.371 401.27 543 404.65 543H413.3C416.685 543 418.96 545.371 418.96 548.899V557.051C418.96 560.579 416.685 562.95 413.3 562.95Z" fill="#AFB1B6"/>
</g>
<path fill-rule="evenodd" clip-rule="evenodd" d="M402.281 558.18C402.095 558.18 401.91 558.112 401.765 557.974C401.464 557.69 401.452 557.214 401.737 556.915L403.265 555.302C404.074 554.443 405.439 554.401 406.302 555.211L407.26 556.183C407.527 556.453 407.961 556.458 408.229 556.194C408.33 556.075 410.508 553.43 410.508 553.43C410.922 552.928 411.506 552.618 412.155 552.554C412.805 552.497 413.436 552.686 413.939 553.099C413.982 553.134 414.021 553.168 416.217 555.423C416.506 555.719 416.501 556.194 416.204 556.483C415.908 556.774 415.432 556.765 415.143 556.469C415.143 556.469 413.094 554.366 412.948 554.224C412.793 554.097 412.544 554.023 412.299 554.047C412.05 554.072 411.826 554.191 411.667 554.384C409.343 557.203 409.315 557.23 409.277 557.267C408.419 558.109 407.034 558.095 406.191 557.235C406.191 557.235 405.261 556.291 405.245 556.272C405.014 556.058 404.602 556.072 404.355 556.333L402.825 557.946C402.677 558.102 402.479 558.18 402.281 558.18Z" fill="#AFB1B6"/>
<path fill-rule="evenodd" clip-rule="evenodd" d="M405.558 549.129C405.005 549.129 404.555 549.579 404.555 550.133C404.555 550.687 405.005 551.138 405.559 551.138C406.113 551.138 406.564 550.687 406.564 550.133C406.564 549.58 406.113 549.13 405.558 549.129ZM405.559 552.638C404.178 552.638 403.055 551.514 403.055 550.133C403.055 548.752 404.178 547.629 405.559 547.629C406.941 547.63 408.064 548.754 408.064 550.133C408.064 551.514 406.94 552.638 405.559 552.638Z" fill="#AFB1B6"/>
<rect x="67" y="1079" width="684" height="55" rx="8" fill="#3A00E5"/>
<path d="M370.34 1106.62C370.34 1107.84 370.186 1108.95 369.878 1109.95C369.57 1110.93 369.108 1111.78 368.492 1112.5C367.891 1113.22 367.135 1113.77 366.226 1114.15C365.331 1114.53 364.29 1114.72 363.102 1114.72C361.87 1114.72 360.799 1114.53 359.89 1114.15C358.981 1113.75 358.225 1113.2 357.624 1112.5C357.023 1111.78 356.575 1110.92 356.282 1109.92C355.989 1108.93 355.842 1107.82 355.842 1106.6C355.842 1104.99 356.106 1103.58 356.634 1102.38C357.162 1101.18 357.961 1100.24 359.032 1099.56C360.117 1098.89 361.481 1098.55 363.124 1098.55C364.693 1098.55 366.013 1098.89 367.084 1099.56C368.155 1100.22 368.961 1101.16 369.504 1102.38C370.061 1103.58 370.34 1105 370.34 1106.62ZM357.932 1106.62C357.932 1107.94 358.115 1109.08 358.482 1110.03C358.849 1110.99 359.413 1111.72 360.176 1112.23C360.953 1112.75 361.929 1113 363.102 1113C364.29 1113 365.258 1112.75 366.006 1112.23C366.769 1111.72 367.333 1110.99 367.7 1110.03C368.067 1109.08 368.25 1107.94 368.25 1106.62C368.25 1104.64 367.839 1103.1 367.018 1101.98C366.197 1100.85 364.899 1100.29 363.124 1100.29C361.936 1100.29 360.953 1100.54 360.176 1101.06C359.413 1101.56 358.849 1102.28 358.482 1103.24C358.115 1104.17 357.932 1105.3 357.932 1106.62ZM381.785 1104.34H377.935V1114.5H376.021V1104.34H372.215V1102.71H381.785V1104.34ZM396.846 1102.71V1114.5H395.108V1106.98C395.108 1106.67 395.116 1106.35 395.13 1106.01C395.16 1105.67 395.189 1105.34 395.218 1105.02H395.152L391.302 1114.5H389.674L385.934 1105.02H385.868C385.898 1105.34 385.912 1105.67 385.912 1106.01C385.927 1106.35 385.934 1106.69 385.934 1107.04V1114.5H384.196V1102.71H386.77L390.488 1112.19L394.272 1102.71H396.846ZM405.252 1102.49C406.264 1102.49 407.13 1102.71 407.848 1103.15C408.582 1103.59 409.139 1104.21 409.52 1105.02C409.916 1105.81 410.114 1106.74 410.114 1107.81V1108.98H402.04C402.07 1110.31 402.407 1111.33 403.052 1112.04C403.712 1112.73 404.629 1113.07 405.802 1113.07C406.55 1113.07 407.21 1113 407.782 1112.87C408.369 1112.73 408.97 1112.52 409.586 1112.26V1113.95C408.985 1114.21 408.391 1114.4 407.804 1114.52C407.218 1114.65 406.521 1114.72 405.714 1114.72C404.6 1114.72 403.61 1114.49 402.744 1114.04C401.894 1113.58 401.226 1112.91 400.742 1112.01C400.273 1111.1 400.038 1110 400.038 1108.69C400.038 1107.4 400.251 1106.29 400.676 1105.37C401.116 1104.45 401.725 1103.73 402.502 1103.24C403.294 1102.74 404.211 1102.49 405.252 1102.49ZM405.23 1104.07C404.306 1104.07 403.573 1104.37 403.03 1104.97C402.502 1105.56 402.187 1106.38 402.084 1107.44H408.09C408.09 1106.76 407.988 1106.18 407.782 1105.68C407.577 1105.18 407.262 1104.79 406.836 1104.51C406.426 1104.22 405.89 1104.07 405.23 1104.07ZM415.14 1102.71V1107.61H421.542V1102.71H423.478V1114.5H421.542V1109.24H415.14V1114.5H413.204V1102.71H415.14ZM429.126 1109.9C429.126 1110.03 429.119 1110.22 429.104 1110.47C429.104 1110.71 429.097 1110.97 429.082 1111.24C429.068 1111.51 429.053 1111.76 429.038 1112.01C429.024 1112.25 429.009 1112.44 428.994 1112.59L435.308 1102.71H437.684V1114.5H435.88V1107.55C435.88 1107.31 435.88 1107.01 435.88 1106.62C435.895 1106.24 435.91 1105.87 435.924 1105.5C435.939 1105.12 435.954 1104.83 435.968 1104.64L429.698 1114.5H427.3V1102.71H429.126V1109.9ZM449.665 1104.34H445.815V1114.5H443.901V1104.34H440.095V1102.71H449.665V1104.34ZM457.51 1107.55C458.537 1107.55 459.387 1107.67 460.062 1107.92C460.737 1108.17 461.243 1108.55 461.58 1109.04C461.932 1109.53 462.108 1110.14 462.108 1110.89C462.108 1111.63 461.939 1112.26 461.602 1112.81C461.279 1113.35 460.773 1113.77 460.084 1114.06C459.395 1114.35 458.507 1114.5 457.422 1114.5H452.076V1102.71H454.012V1107.55H457.51ZM460.172 1111C460.172 1110.28 459.915 1109.8 459.402 1109.55C458.903 1109.29 458.199 1109.15 457.29 1109.15H454.012V1112.94H457.334C458.155 1112.94 458.83 1112.79 459.358 1112.5C459.901 1112.2 460.172 1111.71 460.172 1111Z" fill="white"/>
<defs>
<clipPath id="clip0_268_2491">
<rect width="650" height="48" fill="white" transform="translate(80 178)"/>
</clipPath>
<clipPath id="clip1_268_2491">
<rect width="650" height="96" fill="white" transform="translate(84 880)"/>
</clipPath>
</defs>
</svg>
